<svg width="39" height="39" viewBox="0 0 39 39" fill="none" xmlns="http://www.w3.org/2000/svg">
<path d="M19.4238 0C8.68816 0 0 8.6874 0 19.4238C0 30.0799 8.60933 39 19.4238 39C30.1369 39 39 30.1706 39 19.4238C39 8.59752 30.0683 0 19.4238 0ZM19.4238 36.7301C9.97356 36.7301 2.26992 28.9581 2.26992 19.4238C2.26992 9.97356 9.97356 2.26992 19.4238 2.26992C28.9581 2.26992 36.7301 9.97356 36.7301 19.4238C36.7301 28.9581 28.9581 36.7301 19.4238 36.7301Z" fill="#3800D9"/>
<path d="M19.4238 6.85547C12.4936 6.85547 6.85547 12.4936 6.85547 19.4238C6.85547 26.3801 12.4821 32.1445 19.4238 32.1445C22.2326 32.1445 25.0739 31.2005 27.2192 29.5546C27.7199 29.1705 27.8143 28.4532 27.4302 27.9526C27.046 27.4519 26.3287 27.3574 25.8281 27.7416C24.074 29.0874 21.7397 29.8746 19.4238 29.8746C13.7537 29.8746 9.14062 25.178 9.14062 19.4238C9.14062 13.7537 13.7537 9.12539 19.4238 9.12539C25.178 9.12539 29.8594 13.7537 29.8594 19.4238V20.5664C29.8594 21.8264 28.8343 22.8516 27.5742 22.8516C26.3142 22.8516 25.2891 21.8264 25.2891 20.5664C25.2891 20.0004 25.2891 15.4504 25.2891 14.8535C25.2891 14.2225 24.7775 13.7109 24.1465 13.7109C23.5155 13.7109 23.0039 14.2225 23.0039 14.8535V14.926C21.9721 14.1392 20.7239 13.7109 19.4238 13.7109C16.2737 13.7109 13.7109 16.2737 13.7109 19.4238C13.7109 22.5739 16.2737 25.1367 19.4238 25.1367C21.1318 25.1367 22.7037 24.4038 23.8216 23.1706C24.6479 24.3576 26.0215 25.1367 27.5742 25.1367C30.0943 25.1367 32.1445 23.0865 32.1445 20.5664V19.4238C32.1445 12.4728 26.3715 6.85547 19.4238 6.85547ZM19.4238 22.8668C17.5338 22.8668 15.9961 21.3139 15.9961 19.4238C15.9961 17.5338 17.5338 15.9809 19.4238 15.9809C21.3645 15.9809 23.0039 17.5658 23.0039 19.4238C23.0039 21.2819 21.3645 22.8668 19.4238 22.8668Z" fill="#3800D9"/>
</svg>
