<svg width="130" height="130" viewBox="0 0 130 130" fill="none" xmlns="http://www.w3.org/2000/svg">
<circle cx="65" cy="65" r="63.5" fill="url(#paint0_linear)" stroke="url(#paint1_linear)" stroke-width="3"/>
<g clip-path="url(#clip0)">
<path d="M99.3707 60.8497C98.9703 57.6427 97.6302 55.0888 97.0674 54.1311C97.4745 47.4587 96.1516 42.4346 93.1339 39.1932C90.7814 36.6667 88.0331 35.9518 86.6375 35.75C84.509 31.2507 80.8907 30.3802 78.6914 30.5918C74.5737 26.7568 70.7649 26.6657 68.2548 27.2917C66.5995 27.7055 65.3036 28.4809 64.4996 29.0655C63.696 28.4801 62.3993 27.7055 60.7444 27.2917C58.2343 26.6645 54.4255 26.756 50.3078 30.5918C48.1062 30.3794 44.4894 31.2507 42.3617 35.75C40.9661 35.9514 38.2178 36.6663 35.8653 39.1932C32.8468 42.4346 31.5247 47.4587 31.9318 54.1311C31.3691 55.088 30.0297 57.6427 29.6285 60.8497C29.1753 64.4837 29.8674 69.6083 35.5493 73.7663C34.8908 77.6533 35.5141 84.3445 41.722 87.6348C41.4643 89.0488 41.2934 91.5014 42.5557 93.5978C43.5482 95.2468 45.1878 96.3316 47.4348 96.8274C48.5692 98.5782 52.4796 104 57.3595 104C57.3904 104 57.4221 104 57.453 104C60.0691 103.962 62.4329 102.416 64.4992 99.3966C66.5663 102.415 68.9302 103.962 71.5455 104C76.4613 104.072 80.4222 98.5891 81.5641 96.8274C83.811 96.3316 85.451 95.2472 86.4431 93.5978C87.7058 91.5014 87.5341 89.0484 87.2768 87.6348C93.4855 84.3445 94.1088 77.6533 93.4503 73.7663C99.1326 69.6083 99.8251 64.4841 99.3707 60.8497ZM91.2241 72.0664C90.7548 72.3793 90.5327 72.9533 90.6695 73.5008C90.7603 73.8637 92.8011 82.4143 85.2023 85.6705C84.5638 85.9443 84.2419 86.661 84.4617 87.3196C84.4711 87.3481 85.3709 90.2055 84.1559 92.2221C83.4974 93.3166 82.273 94.0201 80.5192 94.3122C80.1281 94.3772 79.7864 94.6133 79.5861 94.9551C78.5424 96.7363 75.0915 101.331 71.6381 101.331C71.619 101.331 71.5986 101.331 71.5787 101.331C69.5019 101.299 67.5224 99.5851 65.6958 96.237C65.4616 95.8084 64.9618 95.5417 64.473 95.5417C63.9842 95.5417 63.5353 95.808 63.3011 96.237C61.4753 99.5851 59.4958 101.299 57.4182 101.331C53.9609 101.387 50.4607 96.7469 49.4107 94.9551C49.2105 94.6133 48.868 94.3772 48.4777 94.3122C46.7293 94.0205 45.5077 93.3205 44.8476 92.2327C43.6178 90.2051 44.5277 87.3442 44.5359 87.3192C44.7549 86.6607 44.4339 85.9439 43.7953 85.6701C36.2364 82.4307 38.2405 73.861 38.3289 73.5004C38.4657 72.9533 38.2436 72.3793 37.7744 72.0661C27.8168 65.4277 34.1306 55.6199 34.4028 55.2081C34.567 54.9617 34.6445 54.6677 34.6237 54.3724C34.1885 48.2866 35.2506 43.8064 37.7799 41.0546C40.2118 38.4092 43.1552 38.3411 43.2705 38.3396C43.8164 38.3396 44.3068 38.0072 44.5097 37.5008C46.0035 33.7674 48.4038 33.2341 49.652 33.2341C50.0536 33.2341 50.3367 33.2896 50.4302 33.3115C50.8854 33.4249 51.3659 33.2923 51.6976 32.9603C54.4138 30.2453 57.2054 29.2024 59.9955 29.8578C62.1306 30.3595 63.5208 31.7043 63.5302 31.7137C63.7805 31.9639 64.1203 32.1047 64.4738 32.1047H64.5246C64.8785 32.1047 65.218 31.9639 65.4682 31.7137C65.4815 31.7004 66.8244 30.4009 68.902 29.8816C71.725 29.1762 74.5514 30.2105 77.3009 32.9603C77.625 33.2853 78.1056 33.4163 78.5557 33.3146C78.9542 33.2231 82.5139 32.5646 84.4887 37.5012C84.6889 38.0017 85.18 38.3333 85.7193 38.3399C85.8433 38.3419 88.7867 38.4092 91.2186 41.055C93.7475 43.8068 94.8092 48.2874 94.3747 54.3728C94.354 54.6677 94.4314 54.9621 94.5956 55.2085C94.6128 55.2339 96.2967 57.7921 96.7206 61.1817C97.2731 65.604 95.4239 69.2666 91.2241 72.0664Z" fill="white"/>
<path d="M86.9449 36.5834C86.7114 35.8838 85.9539 35.5068 85.2563 35.7391C76.9556 38.5061 76.8598 45.4429 76.8598 45.7366C76.8598 46.4702 77.4518 47.0618 78.185 47.0665C78.1886 47.0665 78.1917 47.0665 78.1944 47.0665C78.9237 47.0665 79.5193 46.4752 79.5291 45.7456C79.5326 45.5285 79.6765 40.4125 86.1002 38.2715C86.7998 38.0384 87.1775 37.2829 86.9449 36.5834Z" fill="white"/>
<path d="M92.9751 72.3668C92.5282 71.781 91.6917 71.6672 91.1044 72.1146C88.9294 73.7718 86.9624 74.3623 85.2622 73.8723C82.2327 72.9999 80.7065 69.0097 80.692 68.969C80.4359 68.2788 79.6675 67.9257 78.9788 68.1822C78.2875 68.4372 77.9336 69.2052 78.1893 69.8965C78.2687 70.1116 80.1837 75.1757 84.5074 76.4329C85.1523 76.6206 85.8096 76.714 86.4783 76.714C88.4683 76.714 90.5612 75.8858 92.7229 74.2375C93.3091 73.791 93.4217 72.9526 92.9751 72.3668Z" fill="white"/>
<path d="M70.4075 73.4801C69.887 72.9588 69.0408 72.9588 68.5203 73.4801C67.9991 74.0013 67.9991 74.8464 68.5203 75.3672C72.8543 79.7012 71.9553 83.8885 71.9091 84.0868C71.7355 84.7997 72.17 85.5188 72.8821 85.6971C72.99 85.7237 73.0991 85.737 73.2062 85.737C73.8041 85.737 74.3489 85.3319 74.5002 84.7254C74.5593 84.4919 75.8681 78.9406 70.4075 73.4801Z" fill="white"/>
<path d="M91.1165 60.9713C90.8655 60.2799 90.1002 59.9221 89.408 60.1712C89.1378 60.2678 82.7736 62.4932 79.3934 57.9943C77.6376 55.6578 76.8833 53.6568 76.2767 52.0492C75.5326 50.0772 74.8307 48.2138 72.4973 48.0214C71.7692 47.96 71.1177 48.5071 71.0578 49.2419C70.9972 49.9759 71.5435 50.6207 72.2783 50.6813C72.8371 50.7267 73.0471 51.0509 73.7787 52.9904C74.4103 54.6637 75.2745 56.9552 77.259 59.5968C79.585 62.6923 82.8299 63.4697 85.5054 63.4697C88.0957 63.4697 90.1518 62.7404 90.3211 62.6794C91.0125 62.4271 91.3676 61.663 91.1165 60.9713Z" fill="white"/>
<path d="M64.4746 29.4347C63.7379 29.4347 63.14 30.0326 63.14 30.7693V96.8744C63.14 97.6112 63.7379 98.2091 64.4746 98.2091C65.2113 98.2091 65.8092 97.6119 65.8092 96.8748V30.7693C65.8092 30.0326 65.2113 29.4347 64.4746 29.4347Z" fill="white"/>
<path d="M74.2339 40.9337C74.2233 40.197 73.6391 39.5991 72.8797 39.6182C72.1422 39.6288 71.5537 40.2357 71.5642 40.9724C71.5654 41.0557 71.6381 49.378 67.4766 54.6559C67.0203 55.235 67.1188 56.0742 67.6984 56.5306C67.9431 56.7241 68.2341 56.8176 68.5239 56.8176C68.9184 56.8176 69.3095 56.6436 69.5722 56.3092C74.3145 50.2957 74.239 41.3134 74.2339 40.9337Z" fill="white"/>
<path d="M76.9474 81.8195C71.0637 81.8195 68.3115 89.8726 68.1973 90.216C67.9643 90.9148 68.3416 91.6687 69.0404 91.903C69.1804 91.9503 69.3235 91.9722 69.4635 91.9722C70.0216 91.9722 70.542 91.6198 70.7297 91.061C71.3445 89.2329 73.6602 84.4887 76.9478 84.4887C77.6845 84.4887 78.2824 83.8908 78.2824 83.1541C78.2824 82.4174 77.6841 81.8195 76.9474 81.8195Z" fill="white"/>
<path d="M78.4509 30.3841C77.8609 29.9442 77.024 30.0666 76.5837 30.6582L73.3814 34.9609C72.9415 35.5514 73.0643 36.3878 73.6555 36.8281C73.8945 37.0069 74.1733 37.0925 74.4509 37.0925C74.8588 37.0925 75.2612 36.9071 75.5228 36.554L78.7251 32.2513C79.165 31.6609 79.0422 30.8248 78.4509 30.3841Z" fill="white"/>
<path d="M51.1251 39.011C48.1813 39.011 45.7861 41.4061 45.7861 44.3499C45.7861 47.2937 48.1813 49.6889 51.1251 49.6889C54.0689 49.6889 56.464 47.2937 56.464 44.3499C56.464 41.4061 54.0689 39.011 51.1251 39.011ZM51.1251 47.0196C49.6528 47.0196 48.4554 45.8222 48.4554 44.3499C48.4554 42.8776 49.6528 41.6803 51.1251 41.6803C52.5974 41.6803 53.7948 42.8776 53.7948 44.3499C53.7944 45.8222 52.597 47.0196 51.1251 47.0196Z" fill="white"/>
<path d="M41.7814 56.3628C38.8376 56.3628 36.4425 58.7579 36.4425 61.7017C36.4425 64.6455 38.8376 67.0407 41.7814 67.0407C44.7252 67.0407 47.1204 64.6455 47.1204 61.7017C47.1208 58.7579 44.7252 56.3628 41.7814 56.3628ZM41.7814 64.3714C40.3091 64.3714 39.1118 63.174 39.1118 61.7017C39.1118 60.2295 40.3091 59.0321 41.7814 59.0321C43.2537 59.0321 44.4511 60.2295 44.4511 61.7017C44.4511 63.174 43.2537 64.3714 41.7814 64.3714Z" fill="white"/>
<path d="M55.1294 68.3757C52.1856 68.3757 49.7904 70.7709 49.7904 73.7147C49.7904 76.6585 52.1856 79.0536 55.1294 79.0536C58.0732 79.0536 60.4683 76.6585 60.4683 73.7147C60.4683 70.7709 58.0732 68.3757 55.1294 68.3757ZM55.1294 76.3844C53.6571 76.3844 52.4597 75.187 52.4597 73.7147C52.4597 72.2424 53.6571 71.045 55.1294 71.045C56.6017 71.045 57.799 72.2424 57.799 73.7147C57.799 75.187 56.6013 76.3844 55.1294 76.3844Z" fill="white"/>
<path d="M55.1294 83.0583C52.1856 83.0583 49.7904 85.4535 49.7904 88.3973C49.7904 91.3411 52.1856 93.7363 55.1294 93.7363C58.0732 93.7363 60.4683 91.3411 60.4683 88.3973C60.4683 85.4535 58.0732 83.0583 55.1294 83.0583ZM55.1294 91.067C53.6571 91.067 52.4597 89.8696 52.4597 88.3973C52.4597 86.925 53.6571 85.7276 55.1294 85.7276C56.6017 85.7276 57.799 86.925 57.799 88.3973C57.7987 89.8696 56.6013 91.067 55.1294 91.067Z" fill="white"/>
<path d="M51.1251 47.0197C50.3883 47.0197 49.7904 47.6176 49.7904 48.3543V61.7019C49.7904 62.4386 50.3883 63.0365 51.1251 63.0365C51.8626 63.0365 52.4597 62.4394 52.4597 61.7019V48.3543C52.4597 47.6176 51.8618 47.0197 51.1251 47.0197Z" fill="white"/>
<path d="M55.1294 60.3672H45.7857C45.049 60.3672 44.4511 60.9651 44.4511 61.7018C44.4511 62.4386 45.049 63.0365 45.7857 63.0365H55.129C55.8665 63.0365 56.4636 62.4386 56.4636 61.7018C56.464 60.9651 55.8661 60.3672 55.1294 60.3672Z" fill="white"/>
<path d="M55.1294 60.3672C54.3926 60.3672 53.7947 60.9651 53.7947 61.7018V69.7104C53.7947 70.4472 54.3926 71.0451 55.1294 71.0451C55.8669 71.0451 56.464 70.448 56.464 69.7104V61.7018C56.464 60.9651 55.8661 60.3672 55.1294 60.3672Z" fill="white"/>
<path d="M55.1294 76.3844C54.3926 76.3844 53.7947 76.9823 53.7947 77.719V84.393C53.7947 85.1297 54.3926 85.7276 55.1294 85.7276C55.8669 85.7276 56.464 85.1305 56.464 84.393V77.719C56.464 76.9823 55.8661 76.3844 55.1294 76.3844Z" fill="white"/>
</g>
<defs>
<linearGradient id="paint0_linear" x1="65" y1="0" x2="65" y2="130" gradientUnits="userSpaceOnUse">
<stop stop-color="#431CB0"/>
<stop offset="1" stop-color="#3800D9"/>
</linearGradient>
<linearGradient id="paint1_linear" x1="10.6364" y1="28.7576" x2="117.394" y2="108.727" gradientUnits="userSpaceOnUse">
<stop stop-color="#8E1EFF"/>
<stop offset="1" stop-color="#3800D9"/>
</linearGradient>
<clipPath id="clip0">
<rect width="77" height="77" fill="white" transform="translate(26 27)"/>
</clipPath>
</defs>
</svg>
