<svg width="130" height="130" viewBox="0 0 130 130" fill="none" xmlns="http://www.w3.org/2000/svg">
<circle cx="65" cy="65" r="63.5" fill="url(#paint0_linear)" stroke="url(#paint1_linear)" stroke-width="3"/>
<path d="M97.7524 40.8125H83C82.4172 40.8125 81.9453 41.2844 81.9453 41.8672C81.9453 42.45 82.4172 42.9219 83 42.9219H97.7524C98.3803 42.9219 98.8906 43.4322 98.8906 44.0601V84.6743C98.8906 85.3022 98.3803 85.8125 97.7524 85.8125H32.2476C31.6197 85.8125 31.1094 85.3022 31.1094 84.6743V44.0601C31.1094 43.4322 31.6197 42.9219 32.2476 42.9219H55.4199V45.0312H34.2734C33.6906 45.0312 33.2188 45.5031 33.2188 46.0859V73.9533C33.2188 74.5356 33.6906 75.008 34.2734 75.008C34.8563 75.008 35.3281 74.5356 35.3281 73.9533V47.1406H55.4199V52.7986L50.9045 54.9557C50.5442 55.1282 50.3047 55.5007 50.3047 55.9077V73.1079C50.3047 73.5144 50.5381 73.8846 50.9045 74.0599L64.5452 80.577C64.8407 80.7159 65.1741 80.7088 65.4548 80.577L73.1233 76.913C73.649 76.662 73.8715 76.0319 73.6204 75.5068C73.3694 74.9811 72.7388 74.7586 72.2136 75.0096L66.0547 77.9523V63.0895L77.5859 57.5804V72.4432L76.0193 73.1914C75.4936 73.4424 75.2711 74.0725 75.5222 74.5977C75.7732 75.1234 76.4033 75.3458 76.9284 75.0948L79.0955 74.0599C79.4619 73.8846 79.6953 73.5144 79.6953 73.1079V55.9077C79.6953 55.5056 79.4613 55.131 79.0955 54.9557L74.5801 52.7986V47.1406H94.6719V81.5938H35.3281V78.4533C35.3281 77.8705 34.8563 77.3986 34.2734 77.3986C33.6906 77.3986 33.2188 77.8705 33.2188 78.4533V82.6484C33.2188 83.2313 33.6906 83.7031 34.2734 83.7031H95.7266C96.3094 83.7031 96.7812 83.2313 96.7812 82.6484V46.0859C96.7812 45.5031 96.3094 45.0312 95.7266 45.0312H74.5801V42.9219H78.5C79.0828 42.9219 79.5547 42.45 79.5547 41.8672C79.5547 41.2844 79.0828 40.8125 78.5 40.8125H74.5801V38.7031H84.0371C84.6199 38.7031 85.0918 38.2313 85.0918 37.6484V35.1469C86.3195 34.7112 87.2012 33.539 87.2012 32.1641C87.2012 30.4194 85.7817 29 84.0371 29C82.2925 29 80.873 30.4194 80.873 32.1641C80.873 33.539 81.7547 34.7112 82.9824 35.1469V36.5938H73.5254C72.9426 36.5938 72.4707 37.0656 72.4707 37.6484V40.8125H66.0547V35.1469C67.2824 34.7112 68.1641 33.539 68.1641 32.1641C68.1641 30.4194 66.7446 29 65 29C63.2554 29 61.8359 30.4194 61.8359 32.1641C61.8359 33.539 62.7176 34.7112 63.9453 35.1469V40.8125H57.5293V37.6484C57.5293 37.0656 57.0574 36.5938 56.4746 36.5938H47.0176V35.1469C48.2453 34.7112 49.127 33.539 49.127 32.1641C49.127 30.4194 47.7075 29 45.9629 29C44.2183 29 42.7988 30.4194 42.7988 32.1641C42.7988 33.539 43.6805 34.7112 44.9082 35.1469V37.6484C44.9082 38.2313 45.3801 38.7031 45.9629 38.7031H55.4199V40.8125H32.2476C30.4568 40.8125 29 42.2693 29 44.0601V84.6743C29 86.4651 30.4568 87.9219 32.2476 87.9219H55.1134C54.7053 91.7907 52.1471 94.05 51.3407 94.6719H46.8594C45.1147 94.6719 43.6953 96.0913 43.6953 97.8359C43.6953 99.5806 45.1147 101 46.8594 101H83.1406C84.8853 101 86.3047 99.5806 86.3047 97.8359C86.3047 96.0913 84.8853 94.6719 83.1406 94.6719H78.662C77.8661 94.0522 75.2991 91.7726 74.8877 87.9219H97.7524C99.5432 87.9219 101 86.4651 101 84.6743V44.0601C101 42.2693 99.5432 40.8125 97.7524 40.8125ZM84.0371 31.1094C84.6188 31.1094 85.0918 31.5823 85.0918 32.1641C85.0918 32.7458 84.6188 33.2188 84.0371 33.2188C83.4554 33.2188 82.9824 32.7458 82.9824 32.1641C82.9824 31.5823 83.4554 31.1094 84.0371 31.1094ZM65 31.1094C65.5817 31.1094 66.0547 31.5823 66.0547 32.1641C66.0547 32.7458 65.5817 33.2188 65 33.2188C64.4183 33.2188 63.9453 32.7458 63.9453 32.1641C63.9453 31.5823 64.4183 31.1094 65 31.1094ZM45.9629 31.1094C46.5446 31.1094 47.0176 31.5823 47.0176 32.1641C47.0176 32.7458 46.5446 33.2188 45.9629 33.2188C45.3812 33.2188 44.9082 32.7458 44.9082 32.1641C44.9082 31.5823 45.3812 31.1094 45.9629 31.1094ZM57.5293 47.1406H63.9453V48.7254L57.5293 51.7911V47.1406ZM76.194 55.9077L65 61.2553L53.806 55.9077L65 50.5596L76.194 55.9077ZM52.4141 57.5804L63.9453 63.0895V77.9523L52.4141 72.4432V57.5804ZM72.4707 51.7911L66.0547 48.7254V47.1406H72.4707V51.7911ZM72.4707 42.9219V45.0312H66.0547V42.9219H72.4707ZM63.9453 42.9219V45.0312H57.5293V42.9219H63.9453ZM84.1953 97.8359C84.1953 98.4177 83.7224 98.8906 83.1406 98.8906H46.8594C46.2776 98.8906 45.8047 98.4177 45.8047 97.8359C45.8047 97.2542 46.2776 96.7812 46.8594 96.7812H83.1406C83.7224 96.7812 84.1953 97.2542 84.1953 97.8359ZM75.637 94.6719H54.363C55.5995 93.2277 56.9712 90.9772 57.2343 87.9219H72.7657C73.0288 90.9772 74.4005 93.2277 75.637 94.6719Z" fill="white"/>
<defs>
<linearGradient id="paint0_linear" x1="65" y1="0" x2="65" y2="130" gradientUnits="userSpaceOnUse">
<stop stop-color="#431CB0"/>
<stop offset="1" stop-color="#3800D9"/>
</linearGradient>
<linearGradient id="paint1_linear" x1="10.6364" y1="28.7576" x2="117.394" y2="108.727" gradientUnits="userSpaceOnUse">
<stop stop-color="#8E1EFF"/>
<stop offset="1" stop-color="#3800D9"/>
</linearGradient>
</defs>
</svg>
