<svg width="278" height="97" viewBox="0 0 278 97" fill="none" xmlns="http://www.w3.org/2000/svg">
<path d="M25.2512 95.9158H11.17C7.95703 95.9158 5.28312 94.8376 3.16987 92.7028C1.05663 90.5679 0 87.8509 0 84.5948C0 81.3602 1.03506 78.7294 3.12675 76.7456C5.21843 74.7617 7.89234 73.7698 11.1485 73.7698H23.677V77.6081H11.17C9.05678 77.6081 7.31011 78.2982 5.93003 79.6567C4.54995 81.0152 3.85991 82.7619 3.85991 84.9182C3.85991 87.0315 4.54995 88.7566 5.93003 90.072C7.31011 91.3874 9.05678 92.0558 11.17 92.0558H21.3912V87.2256H10.8897V83.6891H25.2512V95.9158Z" fill="#0E0F0F"/>
<path d="M54.7288 95.9156H49.0144L42.8256 89.6837H34.4804V85.8453H44.8526C46.2758 85.8453 47.4834 85.5219 48.4538 84.8965C49.5535 84.1633 50.1142 83.1067 50.1142 81.7482C50.1142 78.988 48.3675 77.5864 44.8526 77.5864H32.1947V95.894H28.3348V73.748H44.2273C47.0737 73.748 49.381 74.3734 51.1277 75.6025C53.1331 77.0042 54.1466 79.0743 54.1466 81.7913C54.1466 83.6458 53.5644 85.2415 52.3999 86.6001C51.3217 87.8508 49.8554 88.7349 47.9794 89.2308L54.7288 95.9156Z" fill="#0E0F0F"/>
<path d="M86.7941 95.9156L81.8345 95.8725L78.1039 89.6837H67.6024L69.9313 85.8453H75.7966L71.9367 79.4624L61.9527 95.8725H56.993L69.0256 75.8613C69.3275 75.3438 69.7588 74.8694 70.2979 74.4381C70.9448 73.9421 71.527 73.6833 72.0445 73.6833C72.6052 73.6833 73.1874 73.9205 73.7912 74.395C74.3087 74.8047 74.74 75.3006 75.0634 75.8613L86.7941 95.9156Z" fill="#0E0F0F"/>
<path d="M110.773 93.9963C110.773 95.4195 110.277 96.1312 109.307 96.1312C108.595 96.1312 107.797 95.6783 106.913 94.7942L92.7026 80.519V95.8939H88.8643V75.6671C88.8643 75.1496 89.0152 74.6968 89.2955 74.3302C89.5759 73.942 89.9856 73.7695 90.5031 73.7695C91.2147 73.7695 91.9479 74.1577 92.7026 74.9124L106.913 89.1445V73.7695H110.773V93.9963Z" fill="#0E0F0F"/>
<path d="M140.488 84.5946C140.488 87.8508 139.431 90.5678 137.34 92.7026C135.248 94.8374 132.574 95.9156 129.318 95.9156H116.832V73.748H129.318C132.574 73.748 135.269 74.74 137.34 76.7239C139.431 78.7293 140.488 81.3385 140.488 84.5946ZM136.628 84.9181C136.628 82.7833 135.938 81.015 134.558 79.6565C133.178 78.298 131.431 77.608 129.318 77.608H120.649V92.0557H129.318C131.431 92.0557 133.178 91.3872 134.558 90.0718C135.938 88.7564 136.628 87.0313 136.628 84.9181Z" fill="#0E0F0F"/>
<path d="M173.049 95.9156H153.922V73.748H173.071V77.608H157.782V92.0557H173.071V95.9156H173.049ZM172.057 86.6001H159.399V82.7401H172.057V86.6001Z" fill="#0E0F0F"/>
<path d="M205.373 73.748L192.715 94.0827C191.831 95.5275 191.033 96.2606 190.322 96.2606C189.632 96.2606 188.834 95.5275 187.95 94.0827L175.551 73.748H180.51L190.408 90.2012L200.392 73.748H205.373Z" fill="#0E0F0F"/>
<path d="M226.398 95.9156H207.249V73.748H226.398V77.608H211.109V92.0557H226.398V95.9156ZM225.384 86.6001H212.727V82.7401H225.384V86.6001Z" fill="#0E0F0F"/>
<path d="M252.792 93.9963C252.792 95.4195 252.296 96.1312 251.326 96.1312C250.614 96.1312 249.816 95.6783 248.932 94.7942L234.721 80.519V95.8939H230.905V75.6671C230.905 75.1496 231.056 74.6968 231.336 74.3302C231.616 73.942 232.026 73.7695 232.544 73.7695C233.255 73.7695 233.988 74.1577 234.743 74.9124L248.954 89.1445V73.7695H252.813V93.9963H252.792Z" fill="#0E0F0F"/>
<path d="M278 77.608H269.288V95.9156H265.45V77.608H256.695V73.748H278V77.608Z" fill="#0E0F0F"/>
<path d="M142.536 9.68213V0H161.965C170.914 0 177.513 2.32889 181.782 7.00822C186.052 11.6876 188.165 18.933 188.165 28.7661C188.165 33.8335 187.454 38.1894 186.031 41.8337C184.607 45.478 182.473 48.4322 179.626 50.6964C177.427 52.4646 175.098 53.7153 172.596 54.4701C170.095 55.2248 166.666 55.5914 162.31 55.5914H142.558V45.9092H161.75C166.494 45.9092 169.858 44.8526 171.885 42.7394C173.912 40.6261 174.947 37.1328 174.968 32.3025H142.536V22.6204L174.882 22.5773C174.666 18.2214 173.459 14.9652 171.302 12.852C169.146 10.7388 165.955 9.68213 161.728 9.68213H142.536Z" fill="#D44F68"/>
<path d="M112.563 32.4535V22.6204H140.208V55.6129H115.064C110.428 55.6129 106.87 55.2248 104.369 54.4701C101.889 53.7153 99.5599 52.4646 97.3819 50.718C94.5355 48.4538 92.4007 45.4995 90.9775 41.8553C89.5543 38.211 88.8427 33.8551 88.8427 28.7876C88.8427 18.9761 90.9775 11.7307 95.2471 7.02979C99.5167 2.32889 106.115 0 115.043 0H140.186V9.57431H115.064C110.471 9.57431 107.129 11.0622 105.016 14.038C102.902 17.0138 101.867 21.7578 101.867 28.2701C101.867 34.3511 102.924 38.7501 105.016 41.4671C107.107 44.1841 110.471 45.5427 115.086 45.5427H128.24V32.4535H112.563Z" fill="#5068AD"/>
</svg>
