<svg width="159" height="74" viewBox="0 0 159 74" fill="none" xmlns="http://www.w3.org/2000/svg">
<g clip-path="url(#clip0)">
<path fill-rule="evenodd" clip-rule="evenodd" d="M143.512 0.217273C146.687 -0.288347 150.082 0.0457213 152.921 1.65071C156.499 3.58257 158.882 7.51373 158.996 11.5927C158.973 12.5732 159.04 13.5575 158.949 14.5361C158.593 17.1196 157.375 19.5792 155.518 21.4033C153.075 23.8718 149.589 25.2195 146.138 25.1335C142.939 25.2175 139.683 24.1257 137.298 21.9529C135.271 20.1434 133.949 17.5944 133.526 14.9067C133.182 12.1733 133.421 9.29577 134.694 6.81796C136.366 3.35785 139.772 0.900338 143.512 0.217404L143.512 0.217273ZM145.445 6.51297C144.451 6.62245 143.477 6.95664 142.652 7.52997C140.166 9.24077 139.413 12.8889 140.77 15.5438C141.363 16.7306 142.396 17.6802 143.622 18.1695C146.065 19.2011 149.128 18.5657 150.873 16.5299C152.901 14.3022 152.765 10.5701 150.813 8.34438C149.477 6.87074 147.369 6.31391 145.445 6.51297H145.445ZM8.62623 3.5129C12.9335 0.967649 18.1385 0.536805 23.0116 1.09559C26.6551 1.52264 30.3476 2.71512 33.1224 5.21664C35.5163 7.34375 36.9599 10.4241 37.3172 13.5974C37.6618 16.6995 37.504 20.0172 35.9189 22.7799C34.5787 25.2521 32.2319 27.0416 29.6149 27.9581C32.8285 28.9111 35.6577 31.2374 37.0416 34.3323C37.9538 36.2897 38.1858 38.4843 38.1043 40.6243C38.1315 43.9603 37.0452 47.3053 34.9885 49.9309C32.5275 53.1097 28.8859 55.2096 25.0429 56.2011C21.831 57.0429 18.4558 57.0866 15.1787 56.6484C11.6822 56.1664 8.22001 54.8882 5.50682 52.5657C2.82822 50.3089 0.992892 47.141 0.0769183 43.7685C-0.144336 43.1056 0.102283 42.2622 0.798823 42.0157C2.67396 41.2615 4.58005 40.5951 6.46441 39.8647C7.03934 39.6493 7.7031 39.3864 8.2961 39.695C8.81119 39.9177 9.04337 40.4654 9.22833 40.9585C9.8359 42.6219 10.768 44.2159 12.15 45.3462C13.746 46.6809 15.8225 47.3053 17.8683 47.4312C20.2441 47.6193 22.7849 47.2852 24.7708 45.8664C26.3015 44.8056 27.299 43.0437 27.4694 41.1867C27.6888 38.9572 27.2372 36.5142 25.6722 34.8345C24.2122 33.2367 22.0305 32.5502 19.9304 32.4187C18.2309 32.3732 16.5299 32.4261 14.8304 32.395C14.3463 32.4333 14.0833 31.9277 14.1251 31.5022C14.1232 29.1814 14.1178 26.8607 14.1287 24.5401C14.1123 24.1857 14.232 23.7001 14.6509 23.6545C17.3025 23.5229 20.0427 23.9521 22.6126 23.0939C24.292 22.5553 25.819 21.3502 26.4791 19.6685C26.9979 18.3977 26.9888 16.9844 26.8636 15.6369C26.6787 13.8822 25.6448 12.2462 24.1179 11.3717C22.1465 10.203 19.7689 10.1501 17.5509 10.3272C15.8515 10.4989 14.1251 10.9864 12.7757 12.082C11.4573 13.1244 10.6139 14.6364 9.97365 16.1702C9.72521 16.8566 8.91278 17.2437 8.22729 17.0009C6.13429 16.3016 4.03777 15.6077 1.954 14.8829C1.41719 14.724 1.11074 14.1233 1.25031 13.5865C2.28231 9.43799 4.91563 5.65481 8.62623 3.51303V3.5129ZM55.9011 2.53964C60.0687 0.830669 64.7241 0.553043 69.1384 1.25968C72.4827 1.81663 75.7635 3.24811 78.1629 5.70759C79.6808 7.19027 80.8089 9.03072 81.6522 10.9736C81.8699 11.5049 82.1981 12.0654 82.0422 12.6605C81.859 13.1591 81.3294 13.3855 80.8706 13.5589C78.6978 14.3184 76.518 15.0526 74.3452 15.8103C73.9572 15.9473 73.4529 16.0441 73.1465 15.6935C72.4555 14.9265 72.2434 13.8566 71.594 13.0587C70.2973 11.2875 68.0992 10.4513 65.981 10.2815C63.3241 10.0604 60.4132 10.464 58.3258 12.2699C56.2203 14.0939 55.4568 16.988 55.3497 19.6867C55.3497 20.9884 55.2554 22.3032 55.3968 23.5995C56.5576 22.5972 57.7963 21.666 59.1946 21.0251C62.3775 19.5369 66.01 19.338 69.4504 19.7762C73.2608 20.2837 76.9858 22.0092 79.5431 24.9471C81.7866 27.4613 83.0704 30.7297 83.5202 34.0528C83.7977 35.802 83.7071 37.5768 83.7233 39.3388C83.7414 43.2335 82.423 47.1372 79.9856 50.17C77.8654 52.8339 74.9183 54.7786 71.7029 55.8284C68.1501 57.0152 64.3197 57.123 60.6327 56.6355C56.9784 56.1407 53.3548 54.7968 50.5546 52.33C47.8034 49.9381 46.0314 46.5511 45.2825 42.9979C44.8889 41.1993 44.7329 39.3552 44.7439 37.5166C44.7402 31.8526 44.742 26.1905 44.7457 20.5265C44.7258 16.8802 45.5364 13.1883 47.3555 10.0167C49.2579 6.64418 52.3356 3.99128 55.9011 2.53964ZM62.6204 28.3213C60.4513 28.6773 58.382 29.8423 57.1035 31.6664C55.7034 33.6072 55.25 36.0723 55.3315 38.4295C55.3298 40.951 56.1441 43.6041 58.0719 45.3095C60.1558 47.1736 63.1029 47.685 65.8051 47.4403C68.1827 47.2193 70.475 45.9175 71.7319 43.847C73.1919 41.5482 73.3568 38.6943 73.083 36.0504C72.8019 33.6255 71.7228 31.1899 69.7242 29.7218C67.7075 28.2227 65.0416 27.8996 62.6204 28.3214V28.3213ZM106.658 1.0787C107.603 0.998424 108.566 1.17377 109.5 0.956518C110.044 0.821372 110.577 1.09703 111.125 1.0715C113.508 0.974721 115.898 1.36916 118.183 2.03009C121.236 2.7476 124.039 4.54798 125.976 7.03129C128.782 10.683 129.578 15.4651 129.5 19.9751C129.497 26.0644 129.509 32.1555 129.498 38.245C129.529 41.9113 128.931 45.6781 127.162 48.9264C125.808 51.4242 123.657 53.4547 121.12 54.7018C117.59 56.4491 113.588 56.9659 109.694 56.8819C106.66 56.944 103.595 56.555 100.724 55.5489C98.7309 54.8661 96.9208 53.7066 95.3611 52.2952C92.891 49.9525 91.4528 46.6916 90.8634 43.363C90.4246 40.9582 90.3575 38.5024 90.3774 36.063C90.3811 30.5834 90.3755 25.104 90.3828 19.6263C90.4536 16.86 90.6984 14.0592 91.627 11.4353C92.6154 8.46813 94.5341 5.78603 97.1548 4.07326C99.9658 2.18711 103.341 1.40386 106.658 1.07883V1.0787ZM107.57 10.3688C106.147 10.67 104.721 11.249 103.687 12.3116C101.957 13.9457 101.27 16.3834 101.041 18.6913C100.851 19.6589 100.951 20.6469 100.914 21.6255C100.925 27.0484 100.902 32.4696 100.933 37.8906C101.056 39.1833 101.203 40.4889 101.585 41.736C102.198 43.9343 103.76 45.9301 105.902 46.7809C107.904 47.5897 110.127 47.5843 112.24 47.336C114.125 47.0968 116.074 46.3372 117.217 44.7322C118.631 42.7585 118.822 40.2278 118.932 37.8759C118.947 31.9728 118.941 26.0698 118.94 20.1667C118.889 18.2476 118.749 16.2847 118.049 14.4808C117.578 13.2538 116.738 12.1655 115.613 11.4809C114.593 10.6847 113.281 10.5131 112.057 10.2538C110.565 10.2228 109.043 10.0858 107.57 10.3688Z" fill="black"/>
<path d="M0 68.3076V73.9999H159V68.3076H0Z" fill="#FFFF00"/>
<path d="M26.4999 68.3076V73.9999H159V68.3076H26.4999Z" fill="#00FFFF"/>
<path d="M52.9999 68.3076V73.9999H159V68.3076H52.9999Z" fill="#00FF00"/>
<path d="M79.4998 68.3076V73.9999H159V68.3076H79.4998Z" fill="#FF00FF"/>
<path d="M106 68.3076V73.9999H159V68.3076H106Z" fill="#FF0000"/>
<path d="M132.5 68.3076V73.9999H159V68.3076H132.5Z" fill="#0000FF"/>
</g>
<defs>
<clipPath id="clip0">
<rect width="159" height="74" fill="white"/>
</clipPath>
</defs>
</svg>
