<svg width="165" height="165" viewBox="0 0 165 165" fill="none" xmlns="http://www.w3.org/2000/svg">
<circle cx="82.5" cy="82.5" r="81.5" fill="white" stroke="url(#paint0_linear)" stroke-width="2"/>
<g clip-path="url(#clip0)">
<path d="M72.9009 55.0851C69.19 55.0851 66.1816 58.0934 66.1816 61.8044C66.1816 65.5153 69.19 68.5237 72.9009 68.5237C76.6119 68.5237 79.6203 65.5153 79.6203 61.8044C79.6203 58.0934 76.6119 55.0851 72.9009 55.0851ZM72.9009 65.1641C71.0454 65.1641 69.5413 63.66 69.5413 61.8044C69.5505 59.9555 71.0521 58.4615 72.9009 58.4615V58.4447C74.7565 58.4447 76.2606 59.9488 76.2606 61.8044C76.2606 63.66 74.7565 65.1641 72.9009 65.1641Z" fill="#431CB0"/>
<path d="M92.1182 55.0851C88.4072 55.0851 85.3989 58.0934 85.3989 61.8044C85.3989 65.5153 88.4072 68.5237 92.1182 68.5237C95.8291 68.5237 98.8375 65.5153 98.8375 61.8044C98.8375 58.0934 95.8291 55.0851 92.1182 55.0851ZM92.1182 65.1641C90.2626 65.1641 88.7585 63.66 88.7585 61.8044C88.7678 59.9555 90.2693 58.4615 92.1182 58.4615V58.4447C93.9738 58.4447 95.4778 59.9488 95.4778 61.8044C95.4778 63.66 93.9738 65.1641 92.1182 65.1641Z" fill="#431CB0"/>
<path d="M112.602 62.8184C111.877 58.8303 108.667 55.7625 104.65 55.2195C103.541 51.1207 100.35 47.6267 93.9326 47.6267H84.1896V43.931C87.1364 43.0034 88.7732 39.8623 87.8453 36.9157C86.9176 33.9688 83.7765 32.332 80.8299 33.2599C77.8831 34.1876 76.2463 37.3287 77.1742 40.2753C77.7229 42.0177 79.0875 43.3826 80.8299 43.931V47.5427H71.1037C66.5682 47.5427 61.7975 49.6257 60.3528 55.1355C55.2333 55.8383 51.6528 60.5582 52.3556 65.6777C52.9066 69.6918 55.9788 72.895 59.9665 73.6136L59.9497 73.6976C60.4536 81.072 65.9298 83.7765 71.0869 83.7765H93.9326C101.609 83.7765 104.683 78.7371 105.07 73.6976C110.154 72.7733 113.526 67.9026 112.602 62.8184ZM59.8991 70.3379C56.7263 69.4207 54.8976 66.1052 55.8146 62.9324C56.3846 60.9601 57.9267 59.418 59.8991 58.8479V70.3379ZM80.2754 38.69C80.2754 37.4561 81.2757 36.4558 82.5095 36.4558C83.7434 36.4558 84.7437 37.4561 84.7437 38.69C84.7437 39.9238 83.7434 40.9241 82.5095 40.9241C81.2757 40.9241 80.2754 39.9238 80.2754 38.69ZM101.76 72.4881C101.76 75.411 100.736 80.3161 93.9324 80.3161H71.1035C68.1806 80.3161 63.2755 79.2914 63.2755 72.4881L63.2587 58.8479C63.2587 52.0278 68.1638 51.0199 71.0867 51.0199H93.9324C100.752 51.0199 101.76 55.925 101.76 58.8479V72.4881ZM105.053 70.2203V58.7303C107.614 59.4694 109.379 61.8101 109.387 64.4753C109.379 67.1406 107.614 69.4812 105.053 70.2203Z" fill="#431CB0"/>
<path d="M92.1182 73.0929H72.901C71.9733 73.0929 71.2211 73.845 71.2211 74.7727C71.2211 75.7004 71.9733 76.4525 72.901 76.4525H92.1182C93.0459 76.4525 93.798 75.7004 93.798 74.7727C93.798 73.845 93.0459 73.0929 92.1182 73.0929Z" fill="#431CB0"/>
<path d="M119.886 86.9179C119.854 83.3184 116.91 80.4264 113.31 80.4585C110.298 80.4854 107.697 82.5724 107.018 85.5068L102.533 86.3803H62.486L58.0009 85.5068C57.2324 81.9901 53.7587 79.7622 50.242 80.5307C46.7253 81.2993 44.4974 84.7729 45.2659 88.2897C45.7883 90.68 47.6053 92.5766 49.9713 93.2006V105.749C47.1297 106.507 45.1477 109.074 45.1334 112.015V114.988C45.1334 115.916 45.8856 116.668 46.8132 116.668C47.7409 116.668 48.4931 115.916 48.4931 114.988V111.998C48.4931 110.254 49.9071 108.84 51.6511 108.84C53.3952 108.84 54.8092 110.254 54.8092 111.998V114.988C54.8092 115.916 55.5614 116.668 56.489 116.668C57.4167 116.668 58.1689 115.916 58.1689 114.988V111.998C58.1546 109.057 56.1726 106.49 53.331 105.732V93.1838C55.465 92.6089 57.1608 90.9889 57.8329 88.8835L60.6382 89.4378V110.167C60.6416 113.206 61.2824 116.21 62.5196 118.986V119.137C67.4791 130.131 80.4119 135.023 91.4055 130.063C96.2573 127.874 100.143 123.989 102.332 119.137L102.416 118.952C103.666 116.191 104.324 113.198 104.347 110.167V89.4378L107.153 88.8835C107.825 90.9889 109.521 92.6089 111.655 93.1838V105.732C108.813 106.49 106.831 109.057 106.817 111.998V114.988C106.817 115.916 107.569 116.668 108.497 116.668C109.424 116.668 110.176 115.916 110.176 114.988V111.998C110.178 110.254 111.593 108.841 113.337 108.843C115.079 108.844 116.491 110.256 116.492 111.998V114.988C116.492 115.916 117.245 116.668 118.172 116.668C119.1 116.668 119.852 115.916 119.852 114.988V111.998C119.838 109.057 117.856 106.49 115.014 105.732V93.1838C117.869 92.4384 119.867 89.8683 119.886 86.9179ZM51.6511 90.0759C49.9071 90.0759 48.4931 88.6619 48.4931 86.9179C48.4931 85.1738 49.9071 83.7598 51.6511 83.7598C53.3952 83.7598 54.8092 85.1738 54.8092 86.9179C54.8092 88.6619 53.3952 90.0759 51.6511 90.0759ZM82.5096 128.662C76.181 128.661 70.2926 125.423 66.904 120.078H98.1152C94.7265 125.422 88.8381 128.661 82.5096 128.662ZM100.988 110.183C100.979 112.424 100.564 114.643 99.7614 116.735H65.2241C64.4216 114.643 64.0061 112.424 63.9979 110.183V89.74H100.988V110.183ZM113.385 90.0755C113.38 90.0755 113.374 90.0757 113.368 90.0757L113.334 90.0253C111.59 90.0253 110.176 88.6113 110.176 86.8673C110.176 85.1232 111.59 83.7092 113.334 83.7092C115.078 83.7092 116.492 85.1232 116.492 86.8673C116.52 88.6113 115.129 90.0476 113.385 90.0755Z" fill="#431CB0"/>
<path d="M88.4522 101.596C88.1446 101.318 87.7452 101.164 87.3307 101.163H82.2912L88.473 94.813C89.0672 94.1006 88.9717 93.0414 88.2592 92.447C87.6222 91.9155 86.6926 91.9288 86.0708 92.4781L77.1173 101.684C76.4679 102.346 76.4786 103.41 77.1411 104.059C77.4575 104.369 77.8838 104.542 78.3268 104.539H83.5007L77.1341 111.628C76.5143 112.315 76.5668 113.374 77.2517 113.997C77.9388 114.617 78.9979 114.564 79.6203 113.879L88.5738 103.968C89.1953 103.279 89.1409 102.217 88.4522 101.596Z" fill="#431CB0"/>
</g>
<defs>
<linearGradient id="paint0_linear" x1="82.5" y1="0" x2="82.5" y2="165" gradientUnits="userSpaceOnUse">
<stop stop-color="#1EFFFF"/>
<stop offset="1" stop-color="#431CB0"/>
</linearGradient>
<clipPath id="clip0">
<rect width="99" height="99" fill="white" transform="translate(33 33)"/>
</clipPath>
</defs>
</svg>
