<svg width="212" height="135" viewBox="0 0 212 135" fill="none" xmlns="http://www.w3.org/2000/svg">
<g clip-path="url(#clip0)">
<path d="M153.87 53.2444C153.784 53.1585 153.612 53.0726 153.526 52.9868C153.269 52.7291 153.269 52.5574 153.526 52.2997C153.698 52.128 153.87 51.9562 154.041 51.8703C154.299 51.6127 154.385 51.0974 153.955 50.7539C153.87 50.6681 153.698 50.5822 153.612 50.4963C152.925 49.981 152.152 49.5516 151.465 48.9505C151.122 48.6929 150.864 48.3494 150.693 48.0058C150.435 47.4906 150.521 46.46 151.379 46.2024C152.152 45.9448 152.066 45.773 151.723 45.086C150.778 43.3684 149.576 41.8226 148.117 40.4486C147.43 39.7616 146.657 39.2463 145.798 38.8169C145.026 38.3875 144.167 38.3016 143.308 38.3016C142.707 38.3875 142.02 38.3016 141.419 38.3875C141.162 38.3875 140.904 38.4734 140.646 38.6452C140.475 38.731 140.389 38.8169 140.389 38.9887C140.389 39.1604 140.475 39.2463 140.646 39.2463H140.732C140.99 39.3322 141.076 39.4181 141.076 39.6757C141.076 40.1051 140.904 40.5345 140.646 40.878C140.561 40.9639 140.475 41.0497 140.389 41.1356C140.131 41.3074 139.959 41.3074 139.702 41.1356C138.929 40.5345 138.328 39.8474 137.641 39.1604C136.868 38.4734 136.096 37.7864 135.151 37.357C134.808 37.1852 134.378 37.0994 133.949 37.0994C133.262 37.0994 132.575 37.0994 131.888 36.9276C131.287 36.7558 131.03 36.4982 131.03 35.8971C131.03 35.6394 131.03 35.3818 131.03 35.21C131.03 34.8665 131.03 34.6089 130.944 34.3513C130.772 33.7501 130.428 33.4925 129.827 33.4925C129.656 33.4925 129.484 33.4925 129.312 33.5784C128.797 33.6642 128.282 33.9219 127.767 34.1795C127.252 34.3513 126.822 34.3513 126.307 34.1795C125.191 33.6642 124.246 32.9772 123.216 32.2902C122.357 31.689 121.584 31.0879 120.812 30.4009C120.64 30.2291 120.468 29.9715 120.211 29.7139C119.781 29.2845 119.438 28.8551 119.008 28.4257C118.837 28.2539 118.751 28.0822 118.579 27.9104C118.322 27.5669 118.322 27.3952 118.579 27.0516C118.751 26.8799 118.923 26.7081 119.008 26.5364C119.352 26.1929 119.695 25.7635 119.867 25.3341C120.211 24.5612 119.953 23.96 119.094 23.7883C118.751 23.7024 118.322 23.7024 117.978 23.7024C117.806 23.7024 117.721 23.7024 117.721 23.4448C117.806 22.3284 117.892 21.2978 117.892 20.1814C117.892 19.2368 117.978 18.2062 117.892 17.2616C117.806 16.7463 117.635 16.5745 117.205 16.4887C116.776 16.4028 116.433 16.4028 116.003 16.4028C115.917 16.4028 115.831 16.4028 115.831 16.3169C115.831 16.231 115.917 16.231 115.917 16.1452C116.175 15.9734 116.347 15.8016 116.604 15.544C116.776 15.2864 116.862 15.2005 116.604 14.9429C116.347 14.6852 116.175 14.5135 115.917 14.2558C115.488 13.8265 115.316 13.3971 115.574 12.7959C116.003 11.5936 116.347 10.4772 116.69 9.27493C116.862 8.75966 117.034 8.24439 116.948 7.72913C116.862 7.0421 116.776 6.35508 116.604 5.66806C116.347 4.7234 116.089 3.86462 115.488 3.09172C115.145 2.66233 114.801 2.49058 114.286 2.49058C113.17 2.49058 112.139 2.49058 111.023 2.49058C110.765 2.49058 110.68 2.4047 110.68 2.23294C110.68 1.97531 110.508 1.80355 110.422 1.6318C109.993 1.03065 109.392 0.601264 108.619 0.429509C108.19 0.343631 107.76 0.257753 107.417 0.171875C106.816 0.171875 106.215 0.171875 105.614 0.171875C105.27 0.257753 104.927 0.257753 104.583 0.343631C103.295 0.601264 102.093 0.944776 101.063 1.80355C100.462 2.23294 100.032 2.83409 99.8607 3.52111C99.8607 3.43523 99.7748 3.43523 99.6031 3.43523C98.5727 3.52111 97.5423 3.60699 96.5978 3.9505C96.2543 4.03638 95.9967 4.20813 95.7392 4.46577C95.6533 4.55165 95.5674 4.63752 95.5674 4.80928C95.3957 5.06691 95.3957 5.06691 95.0522 4.98104C94.537 4.7234 94.0219 4.37989 93.5067 4.12226C93.2491 3.9505 92.9915 3.86462 92.648 3.77875C92.4763 3.77875 92.3904 3.77875 92.3046 3.86462C91.5318 4.46577 91.3601 5.32455 91.9611 6.2692C92.2187 6.61272 92.4763 6.95623 92.648 7.38562C92.9056 7.81501 92.9915 8.33027 92.7339 8.75966C92.648 8.93142 92.648 9.01729 92.648 9.18905C92.648 10.3913 92.648 11.6795 92.648 12.8818C92.648 12.9677 92.648 13.0536 92.648 13.0536C92.5622 13.1394 92.4763 12.9677 92.4763 12.9677C91.4459 12.2807 90.3297 11.5936 89.1276 11.1642C88.7841 10.9925 88.4407 10.9066 88.0113 10.8207C87.4103 10.7349 86.9809 11.0784 86.4658 11.4219C85.8647 11.8513 85.4354 12.3665 84.8343 12.71C84.405 13.0536 83.8898 13.1394 83.3746 13.0536C82.516 12.9677 81.3997 13.3112 80.9704 14.3417C80.7987 14.6852 80.5411 14.7711 80.1118 14.7711C79.5966 14.7711 79.1673 14.5994 78.7379 14.2558C78.6521 14.17 78.4803 14.17 78.3945 14.17C77.7076 14.3417 77.1924 14.7711 76.5913 15.1146C76.162 15.3723 75.8185 15.7158 75.4751 16.0593C75.0458 16.4887 74.4447 16.6604 73.8437 16.9181C73.5002 17.0898 73.1567 17.1757 72.7274 17.1757C72.6415 17.1757 72.4698 17.1757 72.384 17.0898C72.2122 16.9181 72.1264 17.0898 71.9546 17.1757C71.7829 17.4333 71.697 17.691 71.5253 17.9486C71.4394 18.2062 71.3536 18.378 71.1818 18.6356C71.096 18.8932 70.9243 18.8932 70.7525 18.7215C70.4949 18.5497 70.3232 18.378 70.0656 18.2062C69.808 18.0345 69.4646 17.8627 69.1211 17.8627C68.8635 17.8627 68.6059 17.691 68.4342 17.5192C68.1766 17.2616 67.919 16.9181 67.4897 16.8322C66.9745 16.6604 66.4593 16.8322 65.9441 17.0898C65.6865 17.2616 65.4289 17.4333 65.0855 17.5192C64.9137 17.6051 64.8279 17.5192 64.8279 17.3474C64.742 16.5745 64.4844 15.8875 64.0551 15.2005C63.8833 14.9429 63.5399 14.7711 63.2823 14.6852C63.1106 14.6852 63.0247 14.5994 63.0247 14.4276C63.0247 14.17 62.853 14.0841 62.5954 14.0841C62.5095 14.0841 62.3378 14.0841 62.2519 13.9123C62.0802 14.3417 61.8226 14.4276 61.3933 14.4276C61.0498 14.4276 60.8781 14.17 60.7063 13.9123C60.6205 13.8265 60.5346 13.6547 60.4488 13.5688C60.3629 13.3971 60.1912 13.3971 60.0194 13.3971C59.8477 13.3971 59.7618 13.4829 59.8477 13.6547C59.9336 14.3417 59.9336 15.1146 59.9336 15.8016C59.9336 16.5745 60.1912 17.2616 60.7922 17.691C61.2215 18.0345 61.6509 18.1203 62.1661 18.1203C62.3378 18.1203 62.4236 18.2062 62.4236 18.378C62.4236 19.2368 62.4236 20.1814 62.4236 21.0402C62.4236 21.4696 62.4236 21.4696 61.9943 21.5555C61.0498 21.8131 60.1912 22.0707 59.3325 22.5001C59.0749 22.6719 58.8173 22.7578 58.6456 22.9295C58.388 23.1871 58.2163 23.4448 58.2163 23.7883C58.2163 24.3036 57.8728 24.5612 57.4435 24.8188C57.2718 24.9047 57.1859 24.9906 57.0142 24.9906C56.4131 25.3341 56.3272 25.9352 56.8424 26.4505C57.0142 26.6223 57.2718 26.8799 57.4435 27.0516C57.787 27.481 57.7869 27.9104 57.1859 28.1681C56.5848 28.4257 55.8979 28.6833 55.211 28.941C54.7817 29.1127 54.3524 29.3703 54.0089 29.7139C53.7513 29.9715 53.5796 30.315 53.5796 30.6585C53.5796 30.7444 53.5796 30.7444 53.4937 30.8303C53.4937 31.1738 53.4937 31.5173 53.4937 31.9467L53.5796 32.0326C53.6654 33.149 54.0089 34.2654 54.4382 35.2959C54.9534 36.4982 55.5545 37.7864 55.8979 39.0745C56.0697 39.8474 56.3272 40.6203 56.4131 41.3932C56.4131 41.8226 56.6707 42.0803 57.0142 42.1661C57.2718 42.252 57.4435 42.3379 57.7011 42.5097C58.0445 42.7673 58.1304 43.1967 57.8728 43.5402C57.787 43.712 57.6152 43.7978 57.4435 43.9696C57.0142 44.2272 56.5848 44.5707 56.1555 44.8284C55.5545 45.2578 55.1251 45.8589 54.9534 46.6318C54.8675 47.2329 54.9534 47.8341 55.0393 48.3494C55.211 49.0364 55.4686 49.6375 55.7262 50.2387C55.8979 50.6681 56.0697 51.0974 55.9838 51.6127C55.8979 52.128 55.8121 52.5574 55.6403 52.9868C55.3827 53.6738 55.1251 54.3608 54.9534 55.0478C54.7817 55.649 54.9534 55.9066 55.5545 56.0784C55.7262 56.1642 55.8979 56.1642 56.0697 56.2501C56.499 56.4219 56.9283 56.5078 57.1859 56.9371C57.5294 57.4524 57.8728 57.5383 58.388 57.1948C58.7315 57.023 58.9891 56.8513 59.3325 56.6795C59.7618 56.5078 60.1053 56.5936 60.277 57.023C60.3629 57.1948 60.3629 57.3665 60.4488 57.5383C60.5346 57.71 60.5346 57.8818 60.7063 57.8818C60.8781 57.8818 61.0498 57.7959 61.1357 57.6242C61.2215 57.5383 61.2215 57.4524 61.3074 57.2807C61.3933 56.8513 61.3933 56.4219 61.3933 55.9066C61.3933 55.4772 61.4791 55.3055 61.9085 55.2196C62.3378 55.1337 62.7671 54.8761 63.2823 54.8761C63.8833 54.7902 64.3985 54.8761 64.6561 55.649C64.742 56.1642 64.9137 56.5936 65.0855 57.1089C65.343 57.9677 65.7724 58.0536 66.4593 57.5383C66.8886 57.2807 67.2321 56.9371 67.6614 56.6795C67.919 56.5078 68.2624 56.4219 68.6059 56.5936C69.1211 56.7654 69.5504 57.1089 70.0656 57.3665C70.7525 57.7959 71.4394 58.2253 72.2122 58.5688C72.5557 58.7406 72.8991 58.6547 73.2426 58.3971C73.4143 58.2253 73.5861 58.1394 73.7578 57.9677C74.0154 57.71 74.3588 57.4524 74.7882 57.4524C75.2175 57.4524 75.5609 57.2807 75.8185 57.023C76.162 56.7654 76.4196 56.4219 76.6772 56.1642C77.0206 55.8207 77.3641 55.4772 77.7076 55.1337C78.051 54.8761 78.3945 54.7043 78.8238 54.7043C79.1673 54.7043 79.4249 54.6184 79.5966 54.3608C79.7683 54.1891 79.9401 54.0173 80.1118 53.7597C80.2835 53.502 80.5411 53.3303 80.8846 53.3303C81.9149 53.3303 82.3443 54.189 82.2584 55.1337C82.1725 55.4772 82.1725 55.8207 82.1725 56.1642C82.1725 56.5078 82.3443 56.6795 82.6877 56.7654C82.8594 56.8513 83.0312 56.7654 83.2029 56.7654C84.6626 57.023 85.9506 57.5383 86.8951 58.8265C86.8092 58.3971 86.8951 57.9677 86.8951 57.5383C86.8951 57.1089 87.0668 56.7654 87.4103 56.7654C87.6679 56.6795 87.8396 56.5936 87.7537 56.2501C87.6679 55.4772 87.1527 54.962 86.6375 54.5326C84.9202 53.2444 83.2029 51.9562 81.4856 50.6681C79.7683 49.3799 78.1369 48.1776 76.4196 46.8894C75.2175 45.9448 74.0154 45.086 72.8133 44.1413C71.4394 43.1108 70.0656 42.0803 68.6918 41.0497C68.3483 40.7921 68.0049 40.5345 67.7473 40.2768C68.2624 40.5345 68.8635 40.878 69.3787 41.1356C71.7829 42.4238 74.1012 43.712 76.5055 45.0001C78.051 45.773 79.5107 46.5459 81.0563 47.3188C82.4301 48.0058 83.804 48.607 85.2637 49.1223C85.9506 49.3799 86.6375 49.5516 87.4103 49.3799C88.1831 49.294 88.6982 48.8646 88.7841 48.2635C88.87 47.8341 88.7841 47.4906 88.7841 47.0612C88.6124 45.6013 88.0972 44.2272 87.4103 42.8532C86.6375 41.3074 85.693 39.8474 84.6626 38.4734C83.4605 36.9276 82.2584 35.3818 80.9704 33.836C80.4552 33.2349 79.94 32.6337 79.4249 32.0326C79.5107 32.0326 79.5966 32.0326 79.5966 32.1184C80.1976 32.462 80.7987 32.8913 81.3997 33.2349C83.2029 34.4371 85.0061 35.7253 86.6375 37.0994C87.8396 38.2158 89.0417 39.3322 89.9004 40.7062C91.1883 42.7673 92.4763 44.9142 93.7643 47.0612C93.8501 47.1471 93.936 47.3188 94.0219 47.4047C94.0219 47.3188 94.0219 47.2329 94.0219 47.1471C93.936 45.8589 93.7643 44.5707 93.5925 43.2826C93.4208 41.7368 93.1632 40.2768 92.8198 38.731C92.5622 37.6146 92.3046 36.5841 91.7894 35.6394C91.2742 34.7807 90.759 33.9219 90.2438 33.149C89.1276 31.4314 87.9255 29.7139 86.6375 28.1681C85.7789 27.1375 84.8343 26.107 83.7181 25.2482C83.6322 25.1623 83.4605 25.1623 83.4605 24.9906H83.5464C84.3191 25.3341 85.0919 25.6776 85.8647 26.107C87.0668 26.6223 88.1831 27.2234 89.3852 27.7387C90.5873 28.3398 91.7894 28.941 92.8198 29.9715H92.9056C92.9056 29.3703 92.8198 28.8551 92.7339 28.2539C92.2187 25.42 91.2742 22.6719 90.1579 20.0097C89.8145 19.2368 89.471 18.4639 89.0417 17.691C89.1276 17.691 89.2134 17.7768 89.2993 17.8627C89.9862 18.5497 90.6731 19.2368 91.2742 20.0097C92.3046 21.212 93.2491 22.5001 94.1077 23.8742C94.537 24.5612 94.8805 25.2482 95.224 25.8494C95.825 27.1375 96.3402 28.4257 96.7695 29.7997C97.2847 31.6032 97.6282 33.4066 97.714 35.21C97.7999 35.9829 97.7999 36.7558 97.7999 37.5287C97.7999 37.5287 97.7999 37.5287 97.8858 37.5287C97.8858 37.4429 97.9716 37.4429 97.9716 37.357C99.2596 34.6089 100.805 32.0326 102.78 29.7139C104.154 28.0822 105.785 26.6223 107.503 25.42C109.907 23.7024 112.569 22.586 115.402 21.899C115.66 21.8131 116.003 21.7272 116.261 21.7272C116.175 21.8131 116.175 21.8131 116.089 21.899C115.402 22.586 114.629 23.1871 113.857 23.7883C111.882 25.42 109.907 27.0516 108.104 28.941C107.245 29.7997 106.472 30.7444 105.871 31.7749C105.614 32.2902 105.356 32.8055 105.27 33.4066C105.184 34.0078 105.442 34.3513 106.043 34.3513C106.472 34.3513 106.902 34.2654 107.331 34.1795C110.164 33.4066 112.998 32.462 115.831 31.6032C117.377 31.1738 118.923 30.6585 120.468 30.315C120.64 30.315 120.898 30.1432 120.983 30.315C121.069 30.4868 120.812 30.5726 120.64 30.7444C120.125 31.0879 119.61 31.3455 119.008 31.6032C115.145 33.0631 111.796 35.3818 108.876 38.3875C106.816 40.5345 105.013 42.8532 103.467 45.4295C102.522 46.9753 101.664 48.607 100.977 50.2387C99.6031 53.4161 98.5727 56.7654 97.8858 60.2005C97.5423 62.0039 97.3706 63.8074 97.2847 65.6108C97.2847 68.0154 97.2847 70.5059 97.2847 72.9104C97.2847 73.1681 97.3706 73.1681 97.5423 73.1681C100.032 73.1681 102.437 73.1681 104.927 73.1681C105.098 73.1681 105.184 73.0822 105.184 72.9104C105.184 71.4505 105.184 69.9906 105.184 68.5307C105.184 68.273 105.27 68.273 105.442 68.273C106.558 68.273 107.674 68.273 108.791 68.273C109.306 68.273 109.306 68.273 109.134 68.7883C108.876 69.8188 108.876 70.7635 109.649 71.5364C109.907 71.794 109.993 72.1375 110.079 72.481C110.164 72.9104 110.164 73.4257 110.164 73.8551C110.164 74.1986 110.25 74.3704 110.594 74.5421C111.71 75.0574 112.74 75.6585 113.513 76.6032C113.771 76.8608 114.028 76.9467 114.372 76.6891C114.629 76.5173 114.801 76.3456 115.059 76.2597C115.402 76.002 115.746 76.0879 116.003 76.4314C116.261 76.6891 116.433 76.9467 116.604 77.2043C116.948 77.6337 117.034 77.6337 117.463 77.3761L117.549 77.2902C117.892 77.0326 118.236 76.6891 118.579 76.4314C118.751 76.2597 118.923 76.2597 119.094 76.4314C119.61 76.8608 119.953 77.3761 120.296 77.8913C120.64 78.4925 120.64 79.1795 120.296 79.7807C119.953 80.4677 119.438 80.9829 118.837 81.4982C118.493 81.7559 118.15 81.8417 117.806 81.5841C117.549 81.4123 117.463 81.4982 117.463 81.7558C117.463 82.0994 117.463 82.4429 117.549 82.7864C117.721 83.4734 118.15 83.9028 118.923 83.9028C119.266 83.9028 119.438 84.0745 119.524 84.3322C119.781 84.8475 119.867 85.4486 119.953 85.9639C120.125 86.6509 119.781 87.0803 119.352 87.5097C119.008 87.8532 118.665 88.1108 118.407 88.4543C118.15 88.712 118.236 88.9696 118.493 89.2272C118.751 89.399 119.008 89.5707 119.352 89.6566C120.211 89.9142 121.155 89.9142 122.1 89.8284C122.787 89.7425 123.559 89.6566 124.16 89.3131C124.332 89.2272 124.59 89.0555 124.761 88.8837C124.847 88.7978 124.847 88.712 124.676 88.6261C124.504 88.5402 124.418 88.5402 124.246 88.4543C123.731 88.2826 123.731 88.1967 124.075 87.7673C124.761 86.7368 125.362 86.565 126.479 87.0803C127.08 87.3379 127.595 87.5956 128.196 87.8532C128.282 87.9391 128.368 87.9391 128.539 87.9391C128.454 87.6814 128.282 87.5955 128.196 87.3379C128.024 86.9944 128.11 86.9085 128.368 86.7368C128.539 86.6509 128.625 86.565 128.797 86.565C129.055 86.4791 129.312 86.3074 129.57 86.2215C129.913 86.0497 129.999 85.7921 129.656 85.5345C129.055 85.0192 128.282 84.6757 127.423 84.7616C126.822 84.8475 126.565 84.6757 126.307 84.1604C126.135 83.8169 126.049 83.3875 125.792 82.9581C125.362 82.0994 125.019 81.2406 124.933 80.2959C124.933 80.0383 125.019 79.8665 125.191 79.6948C125.362 79.523 125.62 79.3513 125.878 79.2654C126.393 79.0078 126.908 78.836 127.509 78.5784C127.681 78.4925 127.767 78.4066 127.853 78.149C127.938 77.8913 128.024 77.7196 128.196 77.462C128.368 77.2902 128.454 77.2902 128.539 77.462C128.711 77.7196 128.797 78.0631 129.055 78.3207C129.226 78.4925 129.398 78.6642 129.742 78.5784C129.999 78.4925 129.999 78.3207 129.999 78.149C130.085 77.8055 130.171 77.7196 130.514 77.7196C131.201 77.7196 131.888 77.6337 132.575 77.5478C133.262 77.462 133.949 77.3761 134.636 77.1184C135.151 76.9467 135.237 76.6891 135.151 76.2597C135.065 75.7444 134.979 75.315 134.893 74.7997C134.893 74.628 134.808 74.4562 134.979 74.3704C135.151 74.1986 135.323 74.3704 135.409 74.3704C135.58 74.4562 135.666 74.5421 135.838 74.628C136.096 74.7997 136.267 74.8856 136.525 75.0574C136.611 75.1433 136.782 75.2291 136.954 75.0574C137.04 74.9715 137.04 74.7997 136.954 74.628C136.868 74.3704 136.697 74.1986 136.525 73.941C136.267 73.5116 136.267 73.5116 136.611 73.1681C137.04 72.7387 137.555 72.2234 137.899 71.7081C138.242 71.2787 138.242 71.107 137.727 70.9352C137.212 70.6776 137.126 70.2482 137.469 69.8188C137.555 69.7329 137.641 69.6471 137.727 69.5612C137.899 69.3894 138.156 69.2177 138.328 68.9601C138.672 68.6165 138.843 68.273 138.843 67.8436C138.843 67.3284 139.101 66.899 139.616 66.6413C140.217 66.2978 140.646 65.7826 140.732 65.0097C140.732 64.6662 140.732 64.4085 140.732 64.1509C140.732 63.6356 140.818 63.4639 141.333 63.7215C141.419 63.8074 141.591 63.8074 141.677 63.8933C141.849 63.9791 142.106 64.065 142.278 64.1509C142.707 64.3226 142.879 64.1509 143.051 63.8074C143.222 63.2921 143.308 62.7768 143.394 62.2616C143.48 61.5746 143.652 60.9734 143.995 60.3723C144.167 59.9429 144.51 59.7711 144.94 59.6852C145.111 59.6852 145.369 59.6852 145.541 59.6852C146.228 59.6852 146.313 59.6852 146.228 58.9123C146.142 58.4829 146.313 58.3112 146.743 58.3971C147.344 58.4829 147.859 58.4829 148.46 58.4829C149.233 58.3971 150.006 58.3112 150.521 57.5383C150.607 57.4524 150.607 57.3665 150.693 57.2807C151.036 56.9371 151.294 56.5078 151.637 56.1642C151.895 55.8207 152.152 55.5631 152.41 55.2196C152.839 54.7043 153.269 54.1891 153.612 53.5879C154.213 53.7597 154.127 53.502 153.87 53.2444ZM84.6626 43.1108C86.1223 43.1108 87.3244 44.2272 87.3244 45.6871C87.3244 47.0612 86.2082 48.2635 84.6626 48.2635C83.117 48.2635 82.0008 47.0612 82.0008 45.6871C82.0008 44.1413 83.2888 43.0249 84.6626 43.1108ZM91.4459 25.1623C91.7894 25.5058 91.8752 25.9352 91.8752 26.4505C91.8752 26.9658 91.7035 27.3952 91.3601 27.7387C90.8449 28.3398 90.0721 28.2539 89.471 27.6528C88.87 26.8799 88.87 25.6776 89.5569 24.9906C90.2438 24.5612 91.0166 24.6471 91.4459 25.1623ZM111.109 32.9772C110.079 32.9772 109.306 32.2043 109.306 31.1738C109.306 30.2291 110.164 29.3703 111.109 29.3703C112.053 29.3703 112.912 30.1432 112.912 31.1738C112.912 32.1184 112.139 32.9772 111.109 32.9772Z" fill="url(#paint0_linear)"/>
<path d="M34.6035 96.441H29.4516V106.231H27.1332V94.3799H34.6035V96.441Z" fill="#080E0D"/>
<path d="M43.3617 106.231H41.2151V99.4467H39.1543V101.508C39.1543 103.311 38.8967 104.513 38.4674 105.201C38.0381 105.888 37.3512 106.231 36.4066 106.231H35.3763V104.342H35.6339C35.8915 104.342 36.0632 104.342 36.149 104.256C36.2349 104.17 36.4066 104.084 36.5784 103.912C36.7501 103.741 36.836 103.397 36.9218 102.882C37.0077 102.452 37.0077 101.765 37.0077 101.078V97.5574H43.3617V106.231Z" fill="#080E0D"/>
<path d="M52.3775 106.231H50.2309V105.458C49.9733 105.802 49.6298 105.973 49.2864 106.059C48.9429 106.145 48.5994 106.231 48.0842 106.231C47.1397 106.231 46.3669 105.973 45.8518 105.458C45.3366 104.943 45.1648 104.342 45.1648 103.483C45.1648 102.71 45.4224 102.109 45.9376 101.679C46.4528 101.164 47.2256 100.992 48.1701 100.992H50.2309V100.563C50.2309 100.048 50.145 99.7042 49.8874 99.5324C49.6298 99.2748 49.2005 99.1889 48.6853 99.1889C47.9984 99.1889 47.4832 99.4466 47.0539 99.9618L45.68 98.5878C46.1094 98.1584 46.5387 97.8149 46.968 97.6431C47.3973 97.4714 47.9984 97.3855 48.7712 97.3855C51.2612 97.3855 52.4633 98.416 52.4633 100.477V106.231H52.3775ZM50.2309 103.053V102.624H48.5994C47.7408 102.624 47.3115 102.968 47.3115 103.655C47.3115 104.342 47.7408 104.599 48.5994 104.599C49.2005 104.599 49.6298 104.427 49.8874 104.17C50.145 103.998 50.2309 103.569 50.2309 103.053Z" fill="#080E0D"/>
<path d="M61.8226 103.741C61.8226 104.513 61.565 105.115 61.1357 105.544C60.6205 105.973 60.0194 106.231 59.1608 106.231H54.6958V97.5574H58.9891C59.7618 97.5574 60.4488 97.815 60.964 98.2444C61.4791 98.6738 61.7367 99.2749 61.7367 99.962C61.7367 100.735 61.3933 101.336 60.6205 101.765C61.3933 102.195 61.8226 102.882 61.8226 103.741ZM58.4739 99.1891H56.8424V101.078H58.4739C59.1608 101.078 59.5043 100.735 59.5043 100.134C59.5901 99.4467 59.1608 99.1891 58.4739 99.1891ZM59.676 103.655C59.676 103.311 59.5901 103.054 59.4184 102.882C59.2467 102.71 58.9891 102.624 58.6456 102.624H56.9283V104.685H58.6456C58.9891 104.685 59.2467 104.599 59.4184 104.428C59.5901 104.256 59.676 103.912 59.676 103.655Z" fill="#080E0D"/>
<path d="M71.096 106.231H68.9494V102.71H66.1158V106.231H63.9692V97.5574H66.1158V100.821H68.8635V97.5574H71.0101V106.231H71.096Z" fill="#080E0D"/>
<path d="M80.4552 101.937C80.4552 102.796 80.3694 103.483 80.2835 103.998C80.1976 104.514 79.8542 104.943 79.5107 105.372C78.8238 106.059 77.8793 106.403 76.8489 106.403C75.7327 106.403 74.874 106.059 74.1871 105.372C73.8437 104.943 73.5861 104.514 73.4143 103.998C73.2426 103.483 73.2426 102.796 73.2426 102.023C73.2426 101.164 73.3285 100.563 73.4143 100.048C73.5861 99.5326 73.8437 99.1032 74.1871 98.6738C74.874 97.9868 75.7327 97.6433 76.8489 97.6433C77.9652 97.6433 78.9097 97.9868 79.5107 98.6738C79.8542 99.1032 80.1118 99.5326 80.2835 100.048C80.3694 100.391 80.4552 101.078 80.4552 101.937ZM78.3086 101.937C78.3086 100.821 78.1369 100.134 77.7934 99.8761C77.5358 99.6185 77.1924 99.5326 76.7631 99.5326C76.3337 99.5326 75.9903 99.6185 75.7327 99.8761C75.3892 100.22 75.2175 100.907 75.2175 101.937C75.2175 103.054 75.3892 103.741 75.7327 104.084C75.9903 104.342 76.3337 104.428 76.7631 104.428C77.1924 104.428 77.5358 104.342 77.7934 104.084C78.1369 103.655 78.3086 102.968 78.3086 101.937Z" fill="#080E0D"/>
<path d="M89.7286 102.624H84.3192C84.3192 103.225 84.4909 103.655 84.8343 103.998C85.1778 104.342 85.6071 104.513 86.2082 104.513C86.6375 104.513 86.981 104.428 87.3244 104.342C87.582 104.256 87.9255 103.998 88.1831 103.741L89.471 105.029C89.0417 105.544 88.5265 105.888 88.0113 106.059C87.4962 106.317 86.8951 106.403 86.1223 106.403C85.6071 106.403 85.0919 106.317 84.5768 106.231C84.1474 106.059 83.7181 105.888 83.2888 105.544C82.8595 105.201 82.6019 104.771 82.3443 104.17C82.0867 103.569 82.0008 102.882 82.0008 102.023C82.0008 100.649 82.3443 99.5326 83.0312 98.7597C83.7181 97.9868 84.6626 97.5574 85.7789 97.5574C86.981 97.5574 87.9255 97.9868 88.5265 98.7597C89.2134 99.5326 89.5569 100.563 89.5569 101.765V102.624H89.7286ZM87.582 101.078C87.582 100.735 87.4962 100.391 87.4103 100.134C87.1527 99.5326 86.6375 99.2749 85.9506 99.2749C85.2637 99.2749 84.7485 99.5326 84.4909 100.134C84.405 100.391 84.3192 100.649 84.3192 101.078H87.582Z" fill="#080E0D"/>
<path d="M102.522 97.5574L98.8303 107.691C98.5727 108.292 98.3151 108.807 97.8858 109.065C97.4565 109.323 96.9413 109.494 96.3402 109.494H95.4816V107.519H95.9968C96.3402 107.519 96.5119 107.433 96.6837 107.347C96.8554 107.262 96.9413 107.004 97.0271 106.746L97.3706 105.716L94.3653 97.6432H96.6837L98.4868 103.054L100.204 97.6432H102.522V97.5574Z" fill="#080E0D"/>
<path d="M110.937 106.231H108.791V99.4467H106.043V106.231H103.896V97.5574H111.023V106.231H110.937Z" fill="#080E0D"/>
<path d="M120.554 101.937C120.554 102.796 120.468 103.569 120.382 104.17C120.296 104.771 120.039 105.201 119.61 105.63C119.094 106.145 118.407 106.403 117.463 106.403C116.518 106.403 115.832 106.145 115.402 105.544V109.494H113.256V97.6432H115.316V98.502C115.832 97.9009 116.604 97.5574 117.463 97.5574C118.322 97.5574 119.094 97.815 119.61 98.3303C119.953 98.7597 120.211 99.1891 120.382 99.7902C120.554 100.305 120.554 100.992 120.554 101.937ZM118.322 102.882C118.322 102.624 118.407 102.281 118.407 101.851C118.407 101.422 118.407 101.078 118.322 100.821C118.236 100.563 118.236 100.305 118.15 100.048C118.064 99.7902 117.892 99.6184 117.721 99.5326C117.549 99.4467 117.291 99.3608 116.948 99.3608C116.604 99.3608 116.347 99.4467 116.175 99.5326C116.003 99.6184 115.832 99.8761 115.746 100.048C115.66 100.305 115.574 100.563 115.574 100.821C115.574 101.078 115.488 101.422 115.488 101.851C115.488 102.281 115.488 102.624 115.574 102.882C115.66 103.139 115.66 103.397 115.746 103.655C115.832 103.912 116.003 104.084 116.175 104.256C116.347 104.342 116.604 104.428 116.948 104.428C117.291 104.428 117.549 104.342 117.721 104.256C117.892 104.17 118.064 103.912 118.15 103.655C118.236 103.397 118.322 103.139 118.322 102.882Z" fill="#080E0D"/>
<path d="M129.226 106.231H127.08V105.458C126.822 105.802 126.479 105.973 126.135 106.059C125.792 106.145 125.448 106.231 124.933 106.231C123.989 106.231 123.216 105.973 122.701 105.458C122.185 104.943 122.014 104.342 122.014 103.483C122.014 102.71 122.271 102.109 122.787 101.679C123.302 101.164 124.075 100.992 125.019 100.992H127.08V100.563C127.08 100.048 126.994 99.7042 126.736 99.5324C126.479 99.2748 126.049 99.1889 125.534 99.1889C124.847 99.1889 124.332 99.4466 123.903 99.9618L122.529 98.5878C122.958 98.1584 123.388 97.8149 123.817 97.6431C124.246 97.4714 124.847 97.3855 125.62 97.3855C128.11 97.3855 129.312 98.416 129.312 100.477V106.231H129.226ZM127.08 103.053V102.624H125.362C124.504 102.624 124.075 102.968 124.075 103.655C124.075 104.342 124.504 104.599 125.362 104.599C125.964 104.599 126.393 104.427 126.65 104.17C126.908 103.998 127.08 103.569 127.08 103.053Z" fill="#080E0D"/>
<path d="M138.672 103.741C138.672 104.513 138.414 105.115 137.985 105.544C137.469 105.973 136.868 106.231 136.01 106.231H131.545V97.5574H135.838C136.611 97.5574 137.298 97.815 137.813 98.2444C138.328 98.6738 138.586 99.2749 138.586 99.962C138.586 100.735 138.242 101.336 137.469 101.765C138.242 102.195 138.672 102.882 138.672 103.741ZM135.323 99.1891H133.691V101.078H135.323C136.01 101.078 136.353 100.735 136.353 100.134C136.353 99.4467 136.01 99.1891 135.323 99.1891ZM136.525 103.655C136.525 103.311 136.439 103.054 136.267 102.882C136.096 102.71 135.838 102.624 135.495 102.624H133.777V104.685H135.495C135.838 104.685 136.096 104.599 136.267 104.428C136.439 104.256 136.525 103.912 136.525 103.655Z" fill="#080E0D"/>
<path d="M147.773 106.231H145.627V99.4467H143.566V101.508C143.566 103.311 143.308 104.513 142.879 105.201C142.45 105.888 141.763 106.231 140.818 106.231H139.788V104.342H140.045C140.303 104.342 140.475 104.342 140.561 104.256C140.646 104.17 140.818 104.084 140.99 103.912C141.162 103.741 141.247 103.397 141.333 102.882C141.419 102.452 141.419 101.765 141.419 101.078V97.5574H147.773V106.231Z" fill="#080E0D"/>
<path d="M157.304 102.624H151.895C151.895 103.225 152.066 103.655 152.41 103.998C152.753 104.342 153.183 104.513 153.784 104.513C154.213 104.513 154.557 104.428 154.9 104.342C155.158 104.256 155.501 103.998 155.759 103.741L157.047 105.029C156.617 105.544 156.102 105.888 155.587 106.059C155.072 106.317 154.471 106.403 153.698 106.403C153.183 106.403 152.667 106.317 152.152 106.231C151.723 106.059 151.294 105.888 150.864 105.544C150.435 105.201 150.177 104.771 149.92 104.17C149.662 103.569 149.576 102.882 149.576 102.023C149.576 100.649 149.92 99.5326 150.607 98.7597C151.294 97.9868 152.238 97.5574 153.354 97.5574C154.557 97.5574 155.501 97.9868 156.102 98.7597C156.789 99.5326 157.132 100.563 157.132 101.765V102.624H157.304ZM155.158 101.078C155.158 100.735 155.072 100.391 154.986 100.134C154.728 99.5326 154.213 99.2749 153.526 99.2749C152.839 99.2749 152.324 99.5326 152.066 100.134C151.981 100.391 151.895 100.649 151.895 101.078H155.158Z" fill="#080E0D"/>
<path d="M166.492 106.231H164.345V102.71H161.597V106.231H159.451V97.5574H161.597V100.821H164.345V97.5574H166.492V106.231Z" fill="#080E0D"/>
<path d="M176.28 106.231H174.134V100.907L171.043 106.231H168.896V97.5574H171.043V102.71L174.134 97.5574H176.28V106.231Z" fill="#080E0D"/>
<path d="M185.897 102.624H180.488C180.488 103.225 180.659 103.655 181.003 103.998C181.346 104.342 181.776 104.513 182.377 104.513C182.806 104.513 183.149 104.428 183.493 104.342C183.751 104.256 184.094 103.998 184.352 103.741L185.64 105.029C185.21 105.544 184.695 105.888 184.18 106.059C183.665 106.317 183.064 106.403 182.291 106.403C181.776 106.403 181.26 106.317 180.745 106.231C180.316 106.059 179.887 105.888 179.457 105.544C179.028 105.201 178.77 104.771 178.513 104.17C178.255 103.569 178.169 102.882 178.169 102.023C178.169 100.649 178.513 99.5326 179.2 98.7597C179.887 97.9868 180.831 97.5574 181.947 97.5574C183.149 97.5574 184.094 97.9868 184.695 98.7597C185.382 99.5326 185.725 100.563 185.725 101.765V102.624H185.897ZM183.751 101.078C183.751 100.735 183.665 100.391 183.579 100.134C183.321 99.5326 182.806 99.2749 182.119 99.2749C181.432 99.2749 180.917 99.5326 180.659 100.134C180.574 100.391 180.488 100.649 180.488 101.078H183.751Z" fill="#080E0D"/>
<path d="M6.78331 119.456C6.01053 120.229 5.06601 120.658 3.94977 120.658C3.60631 120.658 3.26286 120.658 2.9194 120.573C2.57594 120.487 2.23248 120.315 1.88902 120.143C1.54556 119.971 1.2021 119.628 0.944508 119.37C0.686914 119.027 0.515185 118.597 0.343455 118.082C0.171726 117.567 0.0858612 116.966 0.0858612 116.279C0.0858612 115.592 0.171726 114.991 0.343455 114.475C0.515185 113.96 0.686914 113.531 0.944508 113.187C1.2021 112.844 1.54556 112.586 1.88902 112.414C2.23248 112.242 2.57594 112.071 2.9194 111.985C3.26286 111.899 3.60631 111.899 3.94977 111.899C5.15188 111.899 6.09639 112.328 6.78331 113.101L5.32361 114.561C4.89429 114.132 4.46496 113.874 3.94977 113.874C3.43459 113.874 3.00526 114.046 2.74767 114.475C2.40421 114.905 2.23248 115.506 2.23248 116.365C2.23248 117.223 2.40421 117.91 2.74767 118.34C3.09113 118.683 3.43459 118.941 3.94977 118.941C4.46496 118.941 4.89429 118.683 5.32361 118.254L6.78331 119.456Z" fill="#080E0D"/>
<path d="M15.198 116.193C15.198 117.052 15.1122 117.739 15.0263 118.254C14.9405 118.769 14.597 119.199 14.2535 119.628C13.5666 120.315 12.6221 120.658 11.5917 120.658C10.4755 120.658 9.61684 120.315 8.92992 119.628C8.58647 119.199 8.32887 118.769 8.15714 118.254C7.98541 117.739 7.98541 117.052 7.98541 116.279C7.98541 115.42 8.07128 114.819 8.15714 114.304C8.32887 113.788 8.58647 113.359 8.92992 112.929C9.61684 112.242 10.4755 111.899 11.5917 111.899C12.708 111.899 13.6525 112.242 14.2535 112.929C14.597 113.359 14.8546 113.788 15.0263 114.304C15.1122 114.733 15.198 115.42 15.198 116.193ZM13.0514 116.193C13.0514 115.076 12.8797 114.389 12.5362 114.132C12.2786 113.874 11.9352 113.788 11.5059 113.788C11.0765 113.788 10.7331 113.874 10.4755 114.132C10.132 114.475 9.9603 115.162 9.9603 116.193C9.9603 117.309 10.132 117.996 10.4755 118.34C10.7331 118.597 11.0765 118.683 11.5059 118.683C11.9352 118.683 12.2786 118.597 12.5362 118.34C12.8797 117.996 13.0514 117.309 13.0514 116.193Z" fill="#080E0D"/>
<path d="M25.5877 122.72H23.5269V120.573H17.2588V111.899H19.4054V118.683H22.1531V111.899H24.2997V118.683H25.5018V122.72H25.5877Z" fill="#080E0D"/>
<path d="M34.6035 120.573H32.4569V115.248L29.3657 120.573H27.2191V111.899H29.3657V117.052L32.4569 111.899H34.6035V120.573Z" fill="#080E0D"/>
<path d="M43.6193 120.573H41.4727V119.8C41.2151 120.143 40.8716 120.315 40.5282 120.401C40.1847 120.487 39.8412 120.573 39.326 120.573C38.3815 120.573 37.6088 120.315 37.0936 119.8C36.5784 119.285 36.4066 118.683 36.4066 117.825C36.4066 117.052 36.6642 116.451 37.1794 116.021C37.6946 115.506 38.4674 115.334 39.4119 115.334H41.4727V114.905C41.4727 114.39 41.3868 114.046 41.1292 113.874C40.8716 113.617 40.4423 113.531 39.9271 113.531C39.2402 113.531 38.725 113.788 38.2957 114.304L36.9218 112.93C37.3512 112.5 37.7805 112.157 38.2098 111.985C38.6391 111.813 39.2402 111.727 40.013 111.727C42.503 111.727 43.7051 112.758 43.7051 114.819V120.573H43.6193ZM41.3868 117.395V116.966H39.7554C38.8967 116.966 38.4674 117.309 38.4674 117.996C38.4674 118.683 38.8967 118.941 39.7554 118.941C40.3564 118.941 40.7857 118.769 41.0433 118.512C41.3009 118.254 41.3868 117.91 41.3868 117.395Z" fill="#080E0D"/>
<path d="M52.9785 120.573H50.8319V113.788H48.7712V115.849C48.7712 117.653 48.5136 118.855 48.0842 119.542C47.6549 120.229 46.968 120.573 46.0235 120.573H44.9931V118.683H45.2507C45.5083 118.683 45.68 118.683 45.7659 118.597C45.8518 118.512 46.0235 118.426 46.1952 118.254C46.367 118.082 46.4528 117.739 46.5387 117.223C46.6245 116.794 46.6245 116.107 46.6245 115.42V111.899H52.9785V120.573Z" fill="#080E0D"/>
<path d="M61.7367 115.763C62.2519 116.279 62.5095 116.966 62.5095 117.739C62.5095 118.511 62.2519 119.198 61.7367 119.714C61.2215 120.229 60.5346 120.487 59.676 120.487H55.4686V111.813H57.6152V114.99H59.5901C60.4488 114.99 61.1357 115.248 61.7367 115.763ZM59.2467 116.708H57.5294V118.855H59.2467C59.5901 118.855 59.8477 118.769 60.1053 118.597C60.277 118.426 60.4488 118.168 60.4488 117.824C60.4488 117.481 60.3629 117.223 60.1053 117.052C59.8477 116.794 59.5901 116.708 59.2467 116.708Z" fill="#080E0D"/>
<path d="M71.4394 120.573H69.2928V117.052H66.5452V120.573H64.3985V111.899H66.5452V115.162H69.2928V111.899H71.4394V120.573Z" fill="#080E0D"/>
<path d="M80.1118 115.763C80.627 116.279 80.8846 116.966 80.8846 117.739C80.8846 118.511 80.627 119.198 80.1118 119.714C79.5966 120.229 78.9097 120.487 78.051 120.487H73.8437V111.813H75.9903V114.99H77.9652C78.8238 114.99 79.5107 115.248 80.1118 115.763ZM77.6217 116.708H75.9903V118.855H77.6217C77.9652 118.855 78.2228 118.769 78.4804 118.597C78.6521 118.426 78.8238 118.168 78.8238 117.824C78.8238 117.481 78.738 117.223 78.4804 117.052C78.2228 116.794 77.9652 116.708 77.6217 116.708ZM84.0616 120.573H81.915V111.899H84.0616V120.573Z" fill="#080E0D"/>
<path d="M93.936 120.573H91.3601L89.7286 117.996L88.1831 120.573H85.6071L88.6124 116.107L85.693 111.813H88.2689L89.7286 114.303L91.1883 111.813H93.7643L90.8449 116.107L93.936 120.573Z" fill="#080E0D"/>
<path d="M101.406 120.573H99.2596V111.899H101.406V120.573ZM107.073 120.573H104.497L101.492 116.021L104.326 111.899H106.902L103.81 115.935L107.073 120.573Z" fill="#080E0D"/>
<path d="M114.801 116.193C114.801 117.052 114.715 117.739 114.629 118.254C114.544 118.769 114.2 119.199 113.857 119.628C113.17 120.315 112.225 120.658 111.195 120.658C110.079 120.658 109.22 120.315 108.533 119.628C108.19 119.199 107.932 118.769 107.76 118.254C107.588 117.739 107.588 117.052 107.588 116.279C107.588 115.42 107.674 114.819 107.76 114.304C107.932 113.788 108.19 113.359 108.533 112.929C109.22 112.242 110.079 111.899 111.195 111.899C112.311 111.899 113.256 112.242 113.857 112.929C114.2 113.359 114.458 113.788 114.629 114.304C114.715 114.733 114.801 115.42 114.801 116.193ZM112.655 116.193C112.655 115.076 112.483 114.389 112.139 114.132C111.882 113.874 111.538 113.788 111.109 113.788C110.68 113.788 110.336 113.874 110.079 114.132C109.735 114.475 109.563 115.162 109.563 116.193C109.563 117.309 109.735 117.996 110.079 118.34C110.336 118.597 110.68 118.683 111.109 118.683C111.538 118.683 111.882 118.597 112.139 118.34C112.483 117.996 112.655 117.309 112.655 116.193Z" fill="#080E0D"/>
<path d="M125.792 120.573H123.645V115.506L122.014 118.769H120.812L119.18 115.506V120.573H117.034V111.899H119.18L121.499 116.45L123.817 111.899H125.964V120.573H125.792Z" fill="#080E0D"/>
<path d="M137.04 120.573H134.893V115.506L133.262 118.769H132.06L130.429 115.506V120.573H128.282V111.899H130.429L132.747 116.45L135.065 111.899H137.212V120.573H137.04Z" fill="#080E0D"/>
<path d="M146.399 111.899L142.707 122.033C142.45 122.634 142.192 123.149 141.763 123.407C141.333 123.664 140.818 123.836 140.217 123.836H139.358V121.861H139.874C140.217 121.861 140.389 121.775 140.561 121.689C140.732 121.603 140.818 121.345 140.904 121.088L141.247 120.057L138.242 111.985H140.561L142.364 117.395L144.081 111.985H146.399V111.899Z" fill="#080E0D"/>
<path d="M154.814 120.573H152.667V117.052H149.92V120.573H147.773V111.899H149.92V115.162H152.667V111.899H154.814V120.573Z" fill="#080E0D"/>
<path d="M164.603 120.573H162.456V115.248L159.365 120.573H157.218V111.899H159.365V117.052L162.456 111.899H164.603V120.573Z" fill="#080E0D"/>
<path d="M169.239 120.573H167.093V111.899H169.239V120.573ZM174.821 120.573H172.245L169.239 116.021L172.073 111.899H174.649L171.558 115.935L174.821 120.573Z" fill="#080E0D"/>
<path d="M182.463 120.573H180.316V119.8C180.058 120.143 179.715 120.315 179.371 120.401C179.028 120.487 178.684 120.573 178.169 120.573C177.225 120.573 176.452 120.315 175.937 119.8C175.422 119.285 175.25 118.683 175.25 117.825C175.25 117.052 175.507 116.451 176.023 116.021C176.538 115.506 177.311 115.334 178.255 115.334H180.316V114.905C180.316 114.39 180.23 114.046 179.972 113.874C179.715 113.617 179.286 113.531 178.77 113.531C178.083 113.531 177.568 113.788 177.139 114.304L175.765 112.93C176.194 112.5 176.624 112.157 177.053 111.985C177.482 111.813 178.083 111.727 178.856 111.727C181.346 111.727 182.548 112.758 182.548 114.819V120.573H182.463ZM180.316 117.395V116.966H178.599C177.74 116.966 177.311 117.309 177.311 117.996C177.311 118.683 177.74 118.941 178.599 118.941C179.2 118.941 179.629 118.769 179.887 118.512C180.144 118.254 180.316 117.91 180.316 117.395Z" fill="#080E0D"/>
<path d="M193.11 122.72H191.049V120.573H184.781V111.899H186.928V118.683H189.675V111.899H191.822V118.683H193.024V122.72H193.11Z" fill="#080E0D"/>
<path d="M202.126 120.573H199.979V115.248L196.888 120.573H194.741V111.899H196.888V117.052L199.979 111.899H202.126V120.573Z" fill="#080E0D"/>
<path d="M212 120.573H209.853V115.248L206.762 120.573H204.616V111.899H206.762V117.052L209.853 111.899H212V120.573ZM210.97 108.55C210.97 109.409 210.712 110.01 210.197 110.353C209.682 110.697 209.081 110.954 208.308 110.954C207.535 110.954 206.934 110.783 206.419 110.353C205.904 109.924 205.646 109.409 205.56 108.55H207.192C207.277 109.237 207.621 109.58 208.222 109.58C208.909 109.58 209.252 109.237 209.252 108.55H210.97Z" fill="#080E0D"/>
<path d="M38.9826 134.914H36.6642V127.958L34.4318 132.424H32.8862L30.5678 127.958V134.914H28.2495V123.063H30.5678L33.659 129.504L36.7501 123.063H39.0684V134.914H38.9826Z" fill="#080E0D"/>
<path d="M48.5994 130.535C48.5994 131.393 48.5136 132.08 48.4277 132.596C48.3418 133.111 47.9984 133.54 47.6549 133.97C46.968 134.657 46.0235 135 44.9931 135C43.8769 135 43.0182 134.657 42.3313 133.97C41.9878 133.54 41.7302 133.111 41.5585 132.596C41.3868 132.08 41.2151 131.393 41.2151 130.535C41.2151 129.676 41.3009 129.075 41.3868 128.559C41.5585 128.044 41.8161 127.615 42.1596 127.185C42.8465 126.498 43.7051 126.155 44.8214 126.155C45.9376 126.155 46.8821 126.498 47.4832 127.185C47.8266 127.615 48.0842 128.044 48.256 128.559C48.5136 129.075 48.5994 129.762 48.5994 130.535ZM46.4528 130.535C46.4528 129.418 46.2811 128.731 45.9376 128.473C45.68 128.216 45.3366 128.13 44.9072 128.13C44.4779 128.13 44.1345 128.216 43.8769 128.473C43.5334 128.817 43.3617 129.504 43.3617 130.535C43.3617 131.651 43.5334 132.338 43.8769 132.682C44.1345 132.939 44.4779 133.025 44.9072 133.025C45.3366 133.025 45.68 132.939 45.9376 132.682C46.2811 132.338 46.4528 131.651 46.4528 130.535Z" fill="#080E0D"/>
<path d="M57.0142 133.798C56.2414 134.571 55.2969 135 54.1806 135C53.8372 135 53.4937 135 53.1503 134.914C52.8068 134.828 52.4633 134.657 52.1199 134.485C51.7764 134.313 51.433 133.969 51.1754 133.712C50.9178 133.368 50.7461 132.939 50.5743 132.424C50.4026 131.908 50.3167 131.307 50.3167 130.62C50.3167 129.933 50.4026 129.332 50.5743 128.817C50.7461 128.302 50.9178 127.872 51.1754 127.529C51.433 127.185 51.7764 126.928 52.1199 126.756C52.4633 126.584 52.8068 126.412 53.1503 126.326C53.4937 126.24 53.8372 126.24 54.1806 126.24C55.3827 126.24 56.3273 126.67 57.0142 127.443L55.5545 128.903C55.1251 128.473 54.6958 128.216 54.1806 128.216C53.6654 128.216 53.2361 128.387 52.9785 128.817C52.6351 129.246 52.4633 129.847 52.4633 130.706C52.4633 131.565 52.6351 132.252 52.9785 132.681C53.322 133.025 53.6654 133.282 54.1806 133.282C54.6958 133.282 55.1251 133.025 55.5545 132.595L57.0142 133.798Z" fill="#080E0D"/>
<path d="M60.8781 134.914H58.7315V126.24H60.8781V134.914ZM66.4593 134.914H63.8834L60.8781 130.363L63.7116 126.24H66.2876L63.1964 130.277L66.4593 134.914Z" fill="#080E0D"/>
<path d="M74.273 130.534C74.273 131.393 74.1871 132.08 74.1013 132.595C74.0154 133.111 73.6719 133.54 73.3285 133.969C72.6416 134.657 71.697 135 70.6667 135C69.5504 135 68.6918 134.657 68.0049 133.969C67.6614 133.54 67.4038 133.111 67.2321 132.595C67.0603 132.08 67.0603 131.393 67.0603 130.62C67.0603 129.761 67.1462 129.16 67.2321 128.645C67.4038 128.13 67.6614 127.7 68.0049 127.271C68.6918 126.584 69.5504 126.24 70.6667 126.24C71.7829 126.24 72.7274 126.584 73.3285 127.271C73.6719 127.7 73.9295 128.13 74.1013 128.645C74.1871 129.074 74.273 129.761 74.273 130.534ZM72.1264 130.534C72.1264 129.418 71.9546 128.731 71.6112 128.473C71.3536 128.216 71.0101 128.13 70.5808 128.13C70.1515 128.13 69.808 128.216 69.5504 128.473C69.207 128.817 69.0352 129.504 69.0352 130.534C69.0352 131.651 69.207 132.338 69.5504 132.681C69.808 132.939 70.1515 133.025 70.5808 133.025C71.0101 133.025 71.3536 132.939 71.6112 132.681C71.9546 132.338 72.1264 131.651 72.1264 130.534Z" fill="#080E0D"/>
<path d="M83.4605 132.424C83.4605 133.197 83.2029 133.798 82.7736 134.227C82.2584 134.657 81.6574 134.914 80.7987 134.914H76.3337V126.24H80.627C81.3998 126.24 82.0867 126.498 82.6019 126.928C83.1171 127.357 83.3746 127.958 83.3746 128.645C83.3746 129.418 83.0312 130.019 82.2584 130.448C83.0312 130.878 83.4605 131.479 83.4605 132.424ZM80.1118 127.786H78.4804V129.676H80.1118C80.7987 129.676 81.1422 129.332 81.1422 128.731C81.1422 128.13 80.7987 127.786 80.1118 127.786ZM81.3139 132.252C81.3139 131.908 81.228 131.651 81.0563 131.479C80.8846 131.307 80.627 131.221 80.2835 131.221H78.5662V133.282H80.2835C80.627 133.282 80.8846 133.197 81.0563 133.025C81.228 132.853 81.3139 132.595 81.3139 132.252Z" fill="#080E0D"/>
<path d="M91.7894 133.798C91.0166 134.571 90.0721 135 88.9558 135C88.6124 135 88.2689 135 87.9255 134.914C87.582 134.828 87.2386 134.657 86.8951 134.485C86.5516 134.313 86.2082 133.969 85.9506 133.712C85.693 133.368 85.5213 132.939 85.3495 132.424C85.1778 131.908 85.0919 131.307 85.0919 130.62C85.0919 129.933 85.1778 129.332 85.3495 128.817C85.5213 128.302 85.693 127.872 85.9506 127.529C86.2082 127.185 86.5516 126.928 86.8951 126.756C87.2386 126.584 87.582 126.412 87.9255 126.326C88.2689 126.24 88.6124 126.24 88.9558 126.24C90.158 126.24 91.1025 126.67 91.7894 127.443L90.3297 128.903C89.9004 128.473 89.471 128.216 88.9558 128.216C88.4407 128.216 88.0113 128.387 87.7537 128.817C87.4103 129.246 87.2386 129.847 87.2386 130.706C87.2386 131.565 87.4103 132.252 87.7537 132.681C88.0972 133.025 88.4407 133.282 88.9558 133.282C89.471 133.282 89.9004 133.025 90.3297 132.595L91.7894 133.798Z" fill="#080E0D"/>
<path d="M95.6533 134.914H93.5067V126.24H95.6533V134.914ZM101.235 134.914H98.6586L95.6533 130.363L98.4868 126.24H101.063L97.9716 130.277L101.235 134.914Z" fill="#080E0D"/>
<path d="M109.048 130.534C109.048 131.393 108.962 132.08 108.876 132.595C108.791 133.111 108.447 133.54 108.104 133.969C107.417 134.657 106.472 135 105.442 135C104.326 135 103.467 134.657 102.78 133.969C102.437 133.54 102.179 133.111 102.007 132.595C101.836 132.08 101.836 131.393 101.836 130.62C101.836 129.761 101.921 129.16 102.007 128.645C102.179 128.13 102.437 127.7 102.78 127.271C103.467 126.584 104.326 126.24 105.442 126.24C106.558 126.24 107.503 126.584 108.104 127.271C108.447 127.7 108.705 128.13 108.876 128.645C108.962 129.074 109.048 129.761 109.048 130.534ZM106.816 130.534C106.816 129.418 106.644 128.731 106.301 128.473C106.043 128.216 105.699 128.13 105.27 128.13C104.841 128.13 104.497 128.216 104.24 128.473C103.896 128.817 103.725 129.504 103.725 130.534C103.725 131.651 103.896 132.338 104.24 132.681C104.497 132.939 104.841 133.025 105.27 133.025C105.699 133.025 106.043 132.939 106.301 132.681C106.644 132.338 106.816 131.651 106.816 130.534Z" fill="#080E0D"/>
<path d="M118.493 134.914H116.347V129.59L113.256 134.914H111.109V126.241H113.256V131.393L116.347 126.241H118.493V134.914ZM117.463 122.891C117.463 123.75 117.205 124.351 116.69 124.695C116.175 125.038 115.574 125.296 114.801 125.296C114.028 125.296 113.427 125.124 112.912 124.695C112.397 124.265 112.139 123.75 112.053 122.891H113.685C113.771 123.578 114.114 123.922 114.715 123.922C115.402 123.922 115.746 123.578 115.746 122.891H117.463Z" fill="#080E0D"/>
<path d="M131.802 130.534C131.802 131.393 131.716 132.08 131.631 132.595C131.545 133.111 131.201 133.54 130.858 133.969C130.171 134.657 129.226 135 128.196 135C127.08 135 126.221 134.657 125.534 133.969C125.191 133.54 124.933 133.111 124.761 132.595C124.59 132.08 124.59 131.393 124.59 130.62C124.59 129.761 124.676 129.16 124.761 128.645C124.933 128.13 125.191 127.7 125.534 127.271C126.221 126.584 127.08 126.24 128.196 126.24C129.312 126.24 130.257 126.584 130.858 127.271C131.201 127.7 131.459 128.13 131.631 128.645C131.716 129.074 131.802 129.761 131.802 130.534ZM129.656 130.534C129.656 129.418 129.484 128.731 129.141 128.473C128.883 128.216 128.539 128.13 128.11 128.13C127.681 128.13 127.337 128.216 127.08 128.473C126.736 128.817 126.565 129.504 126.565 130.534C126.565 131.651 126.736 132.338 127.08 132.681C127.337 132.939 127.681 133.025 128.11 133.025C128.539 133.025 128.883 132.939 129.141 132.681C129.484 132.338 129.656 131.651 129.656 130.534Z" fill="#080E0D"/>
<path d="M137.384 135C135.924 135 134.979 134.571 134.378 133.626C133.949 132.853 133.691 131.651 133.691 129.762C133.691 128.388 133.691 127.357 133.777 126.584C133.863 125.811 134.035 125.296 134.207 124.867C134.378 124.437 134.636 124.094 135.065 123.836C135.58 123.407 136.181 123.149 136.954 123.063C137.727 122.977 138.843 122.891 140.303 122.891V124.781C140.131 124.781 139.874 124.781 139.444 124.781C139.015 124.781 138.672 124.781 138.5 124.867C138.328 124.952 137.985 124.952 137.641 124.952C137.298 125.038 137.04 125.124 136.783 125.21C136.353 125.382 136.096 125.639 135.924 125.983C135.752 126.326 135.666 126.67 135.666 127.185C135.838 126.928 136.096 126.67 136.525 126.498C136.954 126.326 137.384 126.241 137.813 126.241C138.672 126.241 139.444 126.498 139.96 126.928C140.732 127.615 141.076 128.817 141.076 130.449C141.076 131.307 140.99 131.994 140.818 132.51C140.646 133.025 140.389 133.54 139.96 133.884C139.273 134.657 138.414 135 137.384 135ZM137.298 133.025C137.727 133.025 138.07 132.853 138.328 132.596C138.586 132.252 138.757 131.565 138.757 130.534C138.757 129.59 138.586 128.903 138.328 128.559C138.07 128.216 137.727 128.13 137.298 128.13C136.783 128.13 136.439 128.302 136.181 128.559C135.924 128.903 135.752 129.59 135.752 130.534C135.752 131.565 135.924 132.252 136.267 132.596C136.525 132.939 136.868 133.025 137.298 133.025Z" fill="#080E0D"/>
<path d="M149.92 134.914H147.773V128.13H145.712V130.191C145.712 131.994 145.455 133.197 145.026 133.884C144.596 134.571 143.909 134.914 142.965 134.914H141.934V133.025H142.192C142.45 133.025 142.621 133.025 142.707 132.939C142.793 132.853 142.965 132.767 143.136 132.595C143.308 132.424 143.394 132.08 143.48 131.565C143.566 131.136 143.566 130.448 143.566 129.761V126.24H149.92V134.914Z" fill="#080E0D"/>
<path d="M158.936 134.914H156.789V134.141C156.531 134.485 156.188 134.657 155.844 134.743C155.501 134.828 155.158 134.914 154.642 134.914C153.698 134.914 152.925 134.657 152.41 134.141C151.895 133.626 151.723 133.025 151.723 132.166C151.723 131.393 151.981 130.792 152.496 130.363C153.011 129.847 153.784 129.676 154.728 129.676H156.789V129.246C156.789 128.731 156.703 128.388 156.446 128.216C156.188 127.958 155.759 127.872 155.243 127.872C154.557 127.872 154.041 128.13 153.612 128.645L152.238 127.271C152.667 126.842 153.097 126.498 153.526 126.326C153.955 126.155 154.556 126.069 155.329 126.069C157.819 126.069 159.021 127.099 159.021 129.16V134.914H158.936ZM156.789 131.737V131.307H155.158C154.299 131.307 153.87 131.651 153.87 132.338C153.87 133.025 154.299 133.283 155.158 133.283C155.759 133.283 156.188 133.111 156.446 132.853C156.703 132.596 156.789 132.252 156.789 131.737Z" fill="#080E0D"/>
<path d="M167.608 133.798C166.835 134.571 165.891 135 164.774 135C164.431 135 164.087 135 163.744 134.914C163.401 134.828 163.057 134.657 162.714 134.485C162.37 134.313 162.027 133.969 161.769 133.712C161.512 133.368 161.34 132.939 161.168 132.424C160.996 131.908 160.91 131.307 160.91 130.62C160.91 129.933 160.996 129.332 161.168 128.817C161.34 128.302 161.512 127.872 161.769 127.529C162.027 127.185 162.37 126.928 162.714 126.756C163.057 126.584 163.401 126.412 163.744 126.326C164.087 126.24 164.431 126.24 164.774 126.24C165.977 126.24 166.921 126.67 167.608 127.443L166.148 128.903C165.719 128.473 165.29 128.216 164.774 128.216C164.259 128.216 163.83 128.387 163.572 128.817C163.229 129.246 163.057 129.847 163.057 130.706C163.057 131.565 163.229 132.252 163.572 132.681C163.916 133.025 164.259 133.282 164.774 133.282C165.29 133.282 165.719 133.025 166.148 132.595L167.608 133.798Z" fill="#080E0D"/>
<path d="M175.508 128.13H173.017V134.914H170.871V128.13H168.295V126.24H175.508V128.13Z" fill="#080E0D"/>
<path d="M184.352 134.914H182.205V129.59L179.114 134.914H176.881V126.24H179.028V131.393L182.119 126.24H184.266V134.914H184.352Z" fill="#080E0D"/>
</g>
<defs>
<linearGradient id="paint0_linear" x1="53.7082" y1="45.1687" x2="154.137" y2="45.1687" gradientUnits="userSpaceOnUse">
<stop stop-color="#FAF4C1"/>
<stop offset="1" stop-color="#856C4B"/>
</linearGradient>
<clipPath id="clip0">
<rect width="212" height="135" fill="white"/>
</clipPath>
</defs>
</svg>
