<svg width="130" height="130" viewBox="0 0 130 130" fill="none" xmlns="http://www.w3.org/2000/svg">
<circle cx="65" cy="65" r="63.5" fill="url(#paint0_linear)" stroke="url(#paint1_linear)" stroke-width="3"/>
<path d="M42.1989 71.275C40.9356 70.665 39.5255 70.3125 38.0312 70.3125C32.7243 70.3125 28.4062 74.6305 28.4062 79.9375C28.4062 85.2445 32.7243 89.5625 38.0312 89.5625C41.3615 89.5625 44.3007 87.8613 46.0296 85.283L55.1216 89.8344C54.9652 90.5214 54.875 91.2348 54.875 91.9688C54.875 97.2757 59.193 101.594 64.5 101.594C69.807 101.594 74.125 97.2757 74.125 91.9688C74.125 89.974 73.515 88.12 72.4707 86.5812L85.2467 73.2229C86.8493 74.4115 88.8248 75.125 90.9688 75.125C96.2757 75.125 100.594 70.807 100.594 65.5C100.594 60.193 96.2757 55.875 90.9688 55.875C88.7478 55.875 86.7073 56.6378 85.0758 57.9059L72.0941 44.9242C73.3622 43.2927 74.125 41.2522 74.125 39.0312C74.125 33.7243 69.807 29.4062 64.5 29.4062C59.193 29.4062 54.875 33.7243 54.875 39.0312C54.875 39.7627 54.964 40.4738 55.1204 41.1596L46.5879 44.2685C44.9877 41.1632 41.7573 39.0312 38.0312 39.0312C32.7243 39.0312 28.4062 43.3493 28.4062 48.6562C28.4062 53.9632 32.7243 58.2812 38.0312 58.2812C39.4004 58.2812 40.701 57.9901 41.8812 57.4715L46.31 64.9249L42.1989 71.275ZM38.0312 87.1562C34.0501 87.1562 30.8125 83.9186 30.8125 79.9375C30.8125 75.9564 34.0501 72.7188 38.0312 72.7188C42.0124 72.7188 45.25 75.9564 45.25 79.9375C45.25 83.9186 42.0124 87.1562 38.0312 87.1562ZM47.1016 83.127C47.4541 82.1272 47.6562 81.0564 47.6562 79.9375C47.6562 76.9862 46.3184 74.3442 44.2213 72.578L47.6815 67.2337L58.1138 84.7885C57.2355 85.5705 56.5004 86.5066 55.9554 87.5593L47.1016 83.127ZM64.5 48.6562C66.721 48.6562 68.7615 47.8935 70.3929 46.6254L83.3758 59.6083C82.5974 60.6093 82.0151 61.7655 81.6794 63.024L74.1214 61.9845C74.1202 61.9532 74.125 61.9219 74.125 61.8906C74.125 56.5836 69.807 52.2656 64.5 52.2656C61.1698 52.2656 58.2293 53.9668 56.5016 56.5451L55.0663 55.8281L60.3336 47.6938C61.5957 48.3037 63.0057 48.6562 64.5 48.6562ZM65.7031 82.4268V71.4314C69.6133 70.9405 72.7943 68.0988 73.7905 64.3667L81.3486 65.4062C81.3486 65.4374 81.3438 65.4687 81.3438 65.5C81.3438 67.798 82.1547 69.907 83.5034 71.5638L70.8705 84.7729C69.4545 83.518 67.6726 82.6746 65.7031 82.4268ZM64.5 54.6719C68.4811 54.6719 71.7188 57.9095 71.7188 61.8906C71.7188 65.8718 68.4811 69.1094 64.5 69.1094C60.5189 69.1094 57.2812 65.8718 57.2812 61.8906C57.2812 57.9095 60.5189 54.6719 64.5 54.6719ZM55.4296 58.7011C55.0771 59.7009 54.875 60.7717 54.875 61.8906C54.875 66.7897 58.5566 70.8371 63.2969 71.4326V82.428C62.1563 82.5711 61.0795 82.9128 60.099 83.4193L49.1409 64.979L53.7501 57.8614L55.4296 58.7011ZM64.5 99.1875C60.5189 99.1875 57.2812 95.9499 57.2812 91.9688C57.2812 87.9876 60.5189 84.75 64.5 84.75C68.4811 84.75 71.7188 87.9876 71.7188 91.9688C71.7188 95.9499 68.4811 99.1875 64.5 99.1875ZM90.9688 58.2812C94.9499 58.2812 98.1875 61.5189 98.1875 65.5C98.1875 69.4811 94.9499 72.7188 90.9688 72.7188C86.9876 72.7188 83.75 69.4811 83.75 65.5C83.75 61.5189 86.9876 58.2812 90.9688 58.2812ZM64.5 31.8125C68.4811 31.8125 71.7188 35.0501 71.7188 39.0312C71.7188 43.0124 68.4811 46.25 64.5 46.25C60.5189 46.25 57.2812 43.0124 57.2812 39.0312C57.2812 35.0501 60.5189 31.8125 64.5 31.8125ZM55.9434 43.419C56.5317 44.5608 57.3366 45.5702 58.3099 46.3908L52.9007 54.7453L47.1016 51.8457C47.4541 50.8459 47.6562 49.7752 47.6562 48.6562C47.6562 47.9247 47.5672 47.2137 47.4108 46.5279L55.9434 43.419ZM30.8125 48.6562C30.8125 44.6751 34.0501 41.4375 38.0312 41.4375C42.0124 41.4375 45.25 44.6751 45.25 48.6562C45.25 52.6374 42.0124 55.875 38.0312 55.875C34.0501 55.875 30.8125 52.6374 30.8125 48.6562ZM43.9446 56.2347C44.7507 55.6043 45.4581 54.8535 46.0296 54.0017L51.5845 56.7785L47.7693 62.6702L43.9446 56.2347Z" fill="white"/>
<defs>
<linearGradient id="paint0_linear" x1="65" y1="0" x2="65" y2="130" gradientUnits="userSpaceOnUse">
<stop stop-color="#431CB0"/>
<stop offset="1" stop-color="#3800D9"/>
</linearGradient>
<linearGradient id="paint1_linear" x1="10.6364" y1="28.7576" x2="117.394" y2="108.727" gradientUnits="userSpaceOnUse">
<stop stop-color="#8E1EFF"/>
<stop offset="1" stop-color="#3800D9"/>
</linearGradient>
</defs>
</svg>
