<svg width="130" height="130" viewBox="0 0 130 130" fill="none" xmlns="http://www.w3.org/2000/svg">
<circle cx="65" cy="65" r="63.5" fill="url(#paint0_linear)" stroke="url(#paint1_linear)" stroke-width="3"/>
<g clip-path="url(#clip0)">
<path d="M88.3229 58.25H92.0729C92.7632 58.25 93.3229 57.6903 93.3229 57V53.25C93.3229 52.5597 92.7632 52 92.0729 52C91.3826 52 90.8229 52.5597 90.8229 53.25V55.75H88.3229C87.6326 55.75 87.0729 56.3097 87.0729 57C87.0729 57.6903 87.6326 58.25 88.3229 58.25Z" fill="white"/>
<path d="M58.9155 53.25C61.6768 53.25 63.9155 51.0112 63.9155 48.25C63.9155 45.4888 61.6768 43.25 58.9155 43.25C56.1537 43.25 53.9155 45.4888 53.9155 48.25C53.9155 51.0112 56.1537 53.25 58.9155 53.25ZM58.9155 45.75C60.2961 45.75 61.4155 46.8694 61.4155 48.25C61.4155 49.6306 60.2961 50.75 58.9155 50.75C57.5343 50.75 56.4155 49.6306 56.4155 48.25C56.4155 46.8694 57.5343 45.75 58.9155 45.75Z" fill="white"/>
<path d="M31.6102 52.835C32.1394 53.1084 32.7272 53.2506 33.3229 53.25C34.914 53.25 36.3295 52.2399 36.8476 50.7347L46.678 50.5828L44.9629 52C44.4905 52.3882 44.3684 53.0608 44.6742 53.59L47.01 57.625L47.0613 63.25H40.8229C40.7496 63.2573 40.677 63.272 40.6062 63.2939C40.016 61.5563 38.2551 60.501 36.4442 60.8C34.6339 61.0991 33.3058 62.6647 33.3058 64.5C33.3058 66.3353 34.6339 67.9009 36.4442 68.2C38.2551 68.499 40.016 67.4437 40.6062 65.7061C40.677 65.728 40.7496 65.7427 40.8229 65.75H48.3229C48.6561 65.75 48.9759 65.6169 49.2103 65.3801C49.4453 65.1433 49.5759 64.8223 49.5729 64.489L49.5155 58.1536L53.5151 56.6539C53.7867 56.8297 54.0626 56.9902 54.3415 57.1361L55.185 62.2039C55.2857 62.8063 55.8076 63.2482 56.4192 63.2476H57.0729V69.4976H53.3229C52.6326 69.4976 52.0729 70.0573 52.0729 70.7476V88.9824L41.1891 99.8662C40.8314 100.224 40.7246 100.762 40.9181 101.229C41.1116 101.695 41.5675 102 42.0729 102H82.0729C82.5782 102 83.0342 101.695 83.227 101.229C83.4205 100.762 83.3137 100.224 82.9566 99.8662L74.5729 91.4824V84.8461L77.3713 80.1848C82.093 83.0339 84.9476 84.5 85.8229 84.5H93.3229C94.0132 84.5 94.5729 83.9403 94.5729 83.25V76.2676L96.7054 74.135C96.9392 73.9 97.0716 73.582 97.0729 73.25V69.5H98.899C99.745 69.5 100.534 69.0721 100.996 68.3623C101.456 67.6531 101.528 66.7583 101.184 65.985L97.2975 57.235C98.7727 55.4784 99.5784 53.2573 99.5729 50.9636C99.6009 42.6903 94.9226 35.1213 87.5105 31.4464L83.885 29.6312C83.3351 29.3572 82.6673 29.5232 82.3103 30.0237L81.7866 30.75H73.3229V28.25C73.3229 27.5597 72.7632 27 72.0729 27H59.5729C58.8826 27 58.3229 27.5597 58.3229 28.25V33.25H56.4155C55.8039 33.2494 55.2815 33.6919 55.1814 34.2949L54.3379 39.3615C54.0589 39.5073 53.7825 39.6672 53.5115 39.8436L48.6976 38.04C48.1257 37.8252 47.4824 38.0559 47.1766 38.5851L45.9162 40.7689C45.8839 40.7689 45.8576 40.75 45.8253 40.75H38.3229V36.7699C40.0447 36.1614 41.0774 34.4005 40.7685 32.6006C40.4597 30.8 38.899 29.4847 37.0729 29.4847C35.2461 29.4847 33.6854 30.8 33.3766 32.6006C33.0677 34.4005 34.1011 36.1614 35.8229 36.7699V42C35.8229 42.6903 36.3826 43.25 37.0729 43.25H44.5539C44.4392 43.7108 44.5979 44.196 44.9629 44.5L48.9277 47.7648C48.9277 47.8563 48.9277 47.9497 48.9204 48.0425L36.8428 48.2286C36.2751 46.6442 34.7206 45.6316 33.0415 45.7537C31.3624 45.8751 29.9702 47.1007 29.6369 48.7505C29.3031 50.4009 30.11 52.0708 31.6102 52.835ZM37.0729 65.75C36.3826 65.75 35.8229 65.1903 35.8229 64.5C35.8229 63.8097 36.3826 63.25 37.0729 63.25C37.7632 63.25 38.3229 63.8097 38.3229 64.5C38.3229 65.1903 37.7632 65.75 37.0729 65.75ZM37.0729 32C37.7632 32 38.3229 32.5597 38.3229 33.25C38.3229 33.9403 37.7632 34.5 37.0729 34.5C36.3826 34.5 35.8229 33.9403 35.8229 33.25C35.8229 32.5597 36.3826 32 37.0729 32ZM59.5729 63.25H61.4155C62.0259 63.25 62.5471 62.8087 62.6478 62.2063L63.4925 57.1385C63.7702 56.9939 64.0467 56.8328 64.3177 56.6564L69.134 58.46C69.7059 58.6748 70.3492 58.4441 70.655 57.9149L71.1842 57H77.0729C77.165 56.9927 77.256 56.9744 77.3439 56.9451L79.5729 59.9163V62H74.5729V64.5H77.4568L74.109 65.8385C73.6341 66.0283 73.3223 66.4885 73.3229 67V69.5H59.5729V63.25ZM73.155 42.9149L72.6277 42H75.8229V47H69.8365L72.8675 44.5C73.3369 44.1118 73.4577 43.4429 73.155 42.9149ZM75.8229 49.5V54.5H72.6277L73.155 53.5851C73.4577 53.0571 73.3369 52.3882 72.8675 52L69.8365 49.5H75.8229ZM67.4391 80.3838L72.0729 85.0176V85.75H64.5729V72H67.0729V79.5C67.0729 79.8314 67.2047 80.1494 67.4391 80.3838ZM59.5155 97H59.5729V96.9353L64.264 91.574C64.4636 91.3457 64.5729 91.0527 64.5729 90.75V88.25H67.0729V99.5H57.3225L59.5155 97ZM45.0904 99.5L54.2066 90.3838C54.441 90.1494 54.5729 89.8314 54.5729 89.5V72H62.0729V90.28L59.5729 93.1377V87H57.0729V96.0002L54.0052 99.5H45.0904ZM79.0553 99.5H69.5729V88.25H72.0729V92C72.0729 92.3314 72.2047 92.6494 72.4391 92.8838L79.0553 99.5ZM73.0726 82.4852L69.5729 78.9849V72H73.3229V77C73.3229 77.4309 73.545 77.8313 73.91 78.0602C74.3763 78.3525 74.7975 78.6101 75.2375 78.8811L73.0726 82.4852ZM83.719 32.3448L86.3917 33.6827C92.9548 36.9359 97.0973 43.6382 97.0729 50.9636C97.0784 52.8972 96.3099 54.7527 94.9391 56.1162C94.5735 56.4818 94.4703 57.0348 94.6803 57.5072L98.899 67H95.8229C95.1326 67 94.5729 67.5597 94.5729 68.25V72H94.358C92.4244 72.0055 90.5696 71.2371 89.2066 69.8662C88.7159 69.3926 87.9365 69.3993 87.4543 69.8815C86.9722 70.3636 86.9654 71.1431 87.4391 71.6338C88.9204 73.12 90.8442 74.085 92.9213 74.384L92.4391 74.8662C92.2047 75.1006 92.0729 75.4186 92.0729 75.75V82L85.9413 82.0073C83.0537 80.6719 80.265 79.1301 77.5978 77.3949L77.5917 77.3888H77.5837C76.9953 77.0311 76.4051 76.6686 75.8229 76.3073V67.8459L81.2867 65.6615C81.7616 65.4717 82.0729 65.0115 82.0729 64.5V59.5C82.0729 59.2296 81.985 58.9666 81.8226 58.7499L78.3229 54.0837V39.8998L83.719 32.3448ZM60.8229 29.5H70.8229V32C70.8229 32.6903 71.3826 33.25 72.0729 33.25H80.0013L76.0566 38.7737C75.904 38.9855 75.8223 39.2394 75.8229 39.5H71.1842L70.655 38.5851C70.3492 38.0559 69.7059 37.8252 69.134 38.04L64.3226 39.8436C64.0516 39.6672 63.7751 39.5061 63.4974 39.3615L62.6478 34.2937C62.5471 33.6913 62.0259 33.25 61.4155 33.25H60.8229V29.5ZM47.3689 43.25L48.8099 40.75L53.249 42.4138C53.6476 42.5627 54.0943 42.4993 54.4349 42.2448C54.9055 41.8901 55.4164 41.5923 55.9565 41.3573C56.3478 41.1895 56.6267 40.8336 56.6963 40.4137L57.4739 35.75H60.3566L61.1341 40.4149C61.2037 40.8348 61.4827 41.1907 61.8739 41.3585C62.414 41.5941 62.9243 41.892 63.3955 42.246C63.7361 42.5005 64.1822 42.564 64.5802 42.415L69.0205 40.75L70.4603 43.25L66.8037 46.259C66.4753 46.5294 66.3069 46.9493 66.3575 47.3723C66.4344 47.9558 66.4344 48.5466 66.3575 49.1301C66.3069 49.5531 66.4753 49.973 66.8037 50.244L70.4603 53.25L69.0205 55.75L64.5802 54.0862C64.1822 53.9373 63.7361 54.0007 63.3955 54.2552C62.9243 54.6093 62.414 54.9071 61.8739 55.1427C61.4827 55.3105 61.2037 55.6664 61.1341 56.0863L60.3566 60.75H57.4726L56.6975 56.0851C56.6279 55.6652 56.349 55.3093 55.9577 55.1415C55.4176 54.9065 54.9067 54.6086 54.4368 54.254C54.0956 53.9995 53.6488 53.9354 53.2502 54.085L48.8099 55.75L47.3689 53.25L51.0255 50.241C51.0475 50.2196 51.0688 50.1964 51.089 50.1726C51.1134 50.1494 51.136 50.1256 51.1579 50.1C51.2519 49.9987 51.3276 49.8821 51.3826 49.7551L51.3905 49.7411C51.4424 49.6038 51.4698 49.4573 51.4704 49.3102C51.4747 49.2925 51.4784 49.2742 51.4802 49.2565C51.4802 49.2412 51.4729 49.229 51.4717 49.2137C51.4704 49.1985 51.4717 49.1564 51.4717 49.1277C51.3948 48.5442 51.3948 47.9534 51.4717 47.3699C51.5217 46.9469 51.3533 46.527 51.0243 46.256L47.3689 43.25ZM32.2114 48.9287C32.3603 48.6302 32.624 48.405 32.9414 48.3037C33.581 48.1407 34.2372 48.5033 34.4398 49.132C34.6424 49.76 34.3208 50.4375 33.7068 50.6786C33.0494 50.8898 32.3451 50.5284 32.1339 49.8711C32.0344 49.5592 32.0619 49.2205 32.2114 48.9287Z" fill="white"/>
<path d="M57.0729 77H59.5729V79.5H57.0729V77Z" fill="white"/>
<path d="M57.0729 82H59.5729V84.5H57.0729V82Z" fill="white"/>
<path d="M64.5729 62H67.0729V64.5H64.5729V62Z" fill="white"/>
<path d="M69.5729 62H72.0729V64.5H69.5729V62Z" fill="white"/>
<path d="M80.8229 39.5H83.3229V44.5H80.8229V39.5Z" fill="white"/>
<path d="M80.8229 47H83.3229V49.5H80.8229V47Z" fill="white"/>
<path d="M80.8229 52H83.3229V54.5H80.8229V52Z" fill="white"/>
</g>
<defs>
<linearGradient id="paint0_linear" x1="65" y1="0" x2="65" y2="130" gradientUnits="userSpaceOnUse">
<stop stop-color="#431CB0"/>
<stop offset="1" stop-color="#3800D9"/>
</linearGradient>
<linearGradient id="paint1_linear" x1="10.6364" y1="28.7576" x2="117.394" y2="108.727" gradientUnits="userSpaceOnUse">
<stop stop-color="#8E1EFF"/>
<stop offset="1" stop-color="#3800D9"/>
</linearGradient>
<clipPath id="clip0">
<rect width="75" height="75" fill="white" transform="translate(28 27)"/>
</clipPath>
</defs>
</svg>
