<svg width="130" height="130" viewBox="0 0 130 130" fill="none" xmlns="http://www.w3.org/2000/svg">
<circle cx="65" cy="65" r="63.5" fill="url(#paint0_linear)" stroke="url(#paint1_linear)" stroke-width="3"/>
<path d="M43.75 71.5C42.0194 71.5 40.3277 72.0132 38.8888 72.9746C37.4498 73.9361 36.3283 75.3027 35.6661 76.9015C35.0038 78.5004 34.8305 80.2597 35.1681 81.957C35.5057 83.6544 36.3391 85.2135 37.5628 86.4372C38.7865 87.6609 40.3456 88.4942 42.043 88.8319C43.7403 89.1695 45.4996 88.9962 47.0985 88.3339C48.6973 87.6717 50.0639 86.5502 51.0254 85.1112C51.9868 83.6723 52.5 81.9806 52.5 80.25C52.4974 77.9302 51.5746 75.7061 49.9343 74.0657C48.2939 72.4254 46.0698 71.5026 43.75 71.5ZM43.75 86.5C42.5139 86.5 41.3055 86.1334 40.2777 85.4467C39.2499 84.7599 38.4488 83.7838 37.9758 82.6418C37.5027 81.4997 37.3789 80.2431 37.6201 79.0307C37.8612 77.8183 38.4565 76.7047 39.3306 75.8306C40.2047 74.9565 41.3183 74.3612 42.5307 74.1201C43.7431 73.8789 44.9997 74.0027 46.1418 74.4758C47.2838 74.9488 48.2599 75.7499 48.9467 76.7777C49.6334 77.8055 50 79.0139 50 80.25C49.998 81.907 49.3389 83.4955 48.1672 84.6672C46.9956 85.8389 45.407 86.498 43.75 86.5Z" fill="white"/>
<path d="M43.75 76.5C43.0083 76.5 42.2833 76.7199 41.6666 77.132C41.0499 77.544 40.5693 78.1297 40.2854 78.8149C40.0016 79.5002 39.9274 80.2542 40.0721 80.9816C40.2167 81.709 40.5739 82.3772 41.0983 82.9017C41.6228 83.4261 42.291 83.7833 43.0184 83.928C43.7458 84.0726 44.4998 83.9984 45.1851 83.7146C45.8703 83.4307 46.4559 82.9501 46.868 82.3334C47.2801 81.7167 47.5 80.9917 47.5 80.25C47.5 79.2554 47.1049 78.3016 46.4016 77.5984C45.6984 76.8951 44.7446 76.5 43.75 76.5ZM43.75 81.5C43.5028 81.5 43.2611 81.4267 43.0555 81.2893C42.85 81.152 42.6898 80.9568 42.5951 80.7284C42.5005 80.4999 42.4758 80.2486 42.524 80.0061C42.5722 79.7637 42.6913 79.5409 42.8661 79.3661C43.0409 79.1913 43.2637 79.0723 43.5061 79.024C43.7486 78.9758 43.9999 79.0005 44.2283 79.0952C44.4568 79.1898 44.652 79.35 44.7893 79.5555C44.9267 79.7611 45 80.0028 45 80.25C45 80.5815 44.8683 80.8995 44.6339 81.1339C44.3995 81.3683 44.0815 81.5 43.75 81.5Z" fill="white"/>
<path d="M85 85.25C85 86.4861 85.3666 87.6945 86.0533 88.7223C86.7401 89.7501 87.7162 90.5512 88.8582 91.0243C90.0003 91.4973 91.2569 91.6211 92.4693 91.3799C93.6817 91.1388 94.7953 90.5435 95.6694 89.6694C96.5435 88.7953 97.1388 87.6817 97.3799 86.4693C97.6211 85.2569 97.4973 84.0003 97.0243 82.8582C96.5512 81.7162 95.7501 80.7401 94.7223 80.0533C93.6945 79.3666 92.4861 79 91.25 79C89.593 79.002 88.0045 79.6611 86.8328 80.8328C85.6611 82.0045 85.002 83.593 85 85.25ZM95 85.25C95 85.9917 94.7801 86.7167 94.368 87.3334C93.956 87.9501 93.3703 88.4307 92.6851 88.7146C91.9998 88.9984 91.2458 89.0726 90.5184 88.928C89.791 88.7833 89.1228 88.4261 88.5984 87.9017C88.0739 87.3772 87.7168 86.709 87.5721 85.9816C87.4274 85.2542 87.5016 84.5002 87.7855 83.8149C88.0693 83.1297 88.5499 82.544 89.1666 82.132C89.7833 81.7199 90.5083 81.5 91.25 81.5C92.2446 81.5 93.1984 81.8951 93.9017 82.5984C94.6049 83.3016 95 84.2554 95 85.25Z" fill="white"/>
<path d="M91.25 86.5C91.9404 86.5 92.5 85.9404 92.5 85.25C92.5 84.5596 91.9404 84 91.25 84C90.5596 84 90 84.5596 90 85.25C90 85.9404 90.5596 86.5 91.25 86.5Z" fill="white"/>
<path d="M97.5 75.9063V70.25C97.4967 67.2673 96.3104 64.4078 94.2013 62.2987C92.0922 60.1896 89.2327 59.0033 86.25 59V47.75C86.25 47.4185 86.1183 47.1005 85.8839 46.8661C85.6495 46.6317 85.3315 46.5 85 46.5H83.75V43.045C83.7523 42.3482 83.5593 41.6647 83.193 41.0719C82.8267 40.4792 82.3017 40.0009 81.6775 39.6913C81.381 39.5429 81.0376 39.5184 80.723 39.6232C80.4084 39.728 80.1484 39.9535 80 40.25C79.8516 40.5465 79.8272 40.8899 79.932 41.2045C80.0367 41.5191 80.2622 41.7791 80.5587 41.9275C80.7669 42.0305 80.942 42.1899 81.0642 42.3874C81.1864 42.5849 81.2507 42.8127 81.25 43.045V46.5H80C79.6685 46.5 79.3505 46.6317 79.1161 46.8661C78.8817 47.1005 78.75 47.4185 78.75 47.75V59H69.725L65.91 43.735C65.5733 42.3819 64.7932 41.1805 63.6943 40.3224C62.5953 39.4642 61.2406 38.9987 59.8462 39H44.15C42.692 38.9998 41.2798 39.5094 40.1579 40.4405C39.0359 41.3716 38.2748 42.6657 38.0062 44.0988L37.6 46.27C37.5645 46.4334 37.5621 46.6022 37.593 46.7665C37.6239 46.9309 37.6874 47.0873 37.7799 47.2266C37.8723 47.366 37.9918 47.4853 38.1311 47.5777C38.2705 47.67 38.427 47.7334 38.5914 47.7642C38.7557 47.795 38.9246 47.7925 39.0879 47.7568C39.2513 47.7212 39.4058 47.6531 39.5424 47.5567C39.679 47.4603 39.7948 47.3374 39.8831 47.1954C39.9714 47.0534 40.0302 46.8952 40.0562 46.73L40.4637 44.5588C40.625 43.699 41.0817 42.9227 41.7549 42.3641C42.428 41.8056 43.2753 41.4999 44.15 41.5H59.8462C60.6824 41.5001 61.4945 41.7796 62.1536 42.2942C62.8127 42.8088 63.2808 43.5288 63.4837 44.34L64.9613 50.25H62.5V47.75C62.5 47.4185 62.3683 47.1005 62.1339 46.8661C61.8995 46.6317 61.5815 46.5 61.25 46.5C60.9185 46.5 60.6005 46.6317 60.3661 46.8661C60.1317 47.1005 60 47.4185 60 47.75V54C60 54.3315 60.1317 54.6495 60.3661 54.8839C60.6005 55.1183 60.9185 55.25 61.25 55.25C61.5815 55.25 61.8995 55.1183 62.1339 54.8839C62.3683 54.6495 62.5 54.3315 62.5 54V52.75H65.5863L67.15 59H58.75C58.75 57.6739 58.2232 56.4022 57.2855 55.4645C56.3479 54.5268 55.0761 54 53.75 54H50V49C50 48.0054 49.6049 47.0516 48.9016 46.3484C48.1984 45.6451 47.2446 45.25 46.25 45.25C45.2554 45.25 44.3016 45.6451 43.5983 46.3484C42.8951 47.0516 42.5 48.0054 42.5 49V59H37.7562L39.1187 51.73C39.1543 51.5666 39.1567 51.3978 39.1258 51.2335C39.0949 51.0691 39.0313 50.9127 38.9389 50.7734C38.8464 50.634 38.727 50.5147 38.5876 50.4223C38.4482 50.33 38.2917 50.2666 38.1274 50.2358C37.963 50.205 37.7942 50.2075 37.6308 50.2432C37.4675 50.2788 37.3129 50.3469 37.1764 50.4433C37.0398 50.5397 36.9239 50.6626 36.8356 50.8046C36.7474 50.9466 36.6885 51.1048 36.6625 51.27L35.0212 60.02C35.0137 60.06 35.0212 60.0963 35.0212 60.1363C35.0123 60.1738 35.0052 60.2118 35 60.25V66.5788C32.8457 67.9646 31.0473 69.8375 29.75 72.0463C29.73 72.0763 29.6987 72.0938 29.6812 72.125C29.6637 72.1563 29.6675 72.1788 29.655 72.2038C28.2458 74.6512 27.504 77.4258 27.504 80.25C27.504 83.0742 28.2458 85.8488 29.655 88.2963C29.6675 88.3213 29.6662 88.35 29.6812 88.375C29.7112 88.4192 29.7447 88.461 29.7812 88.5C31.1882 90.8727 33.1728 92.8507 35.55 94.25C35.58 94.27 35.5975 94.3013 35.6287 94.3188C35.6641 94.3359 35.7004 94.3509 35.7375 94.3638C38.1781 95.7611 40.9415 96.4962 43.7537 96.4962C46.566 96.4962 49.3294 95.7611 51.77 94.3638C51.8071 94.3509 51.8434 94.3359 51.8787 94.3188C51.91 94.3013 51.9275 94.27 51.9575 94.25C54.3347 92.8507 56.3193 90.8727 57.7262 88.5C57.7628 88.461 57.7963 88.4192 57.8262 88.375C57.8412 88.35 57.84 88.3213 57.8525 88.2963C59.2617 85.8488 60.0035 83.0742 60.0035 80.25C60.0035 77.4258 59.2617 74.6512 57.8525 72.2038C57.84 72.1788 57.8412 72.15 57.8262 72.125C57.8112 72.1 57.7787 72.0763 57.7575 72.0475C56.3491 69.6518 54.3529 67.6551 51.9575 66.2463C51.9275 66.2263 51.91 66.195 51.8787 66.1775C51.8475 66.16 51.825 66.1625 51.8 66.15C49.646 64.9108 47.2353 64.1849 44.7552 64.0288C42.2751 63.8727 39.7924 64.2906 37.5 65.25V61.5H67.5V84H62.875C62.5435 84 62.2255 84.1317 61.9911 84.3661C61.7567 84.6005 61.625 84.9185 61.625 85.25C61.625 85.5815 61.7567 85.8995 61.9911 86.1339C62.2255 86.3683 62.5435 86.5 62.875 86.5H76.25C76.5815 86.5 76.8995 86.3683 77.1339 86.1339C77.3683 85.8995 77.5 85.5815 77.5 85.25C77.5 84.9185 77.3683 84.6005 77.1339 84.3661C76.8995 84.1317 76.5815 84 76.25 84H70V61.5H86.25C88.5698 61.5026 90.7939 62.4254 92.4343 64.0657C94.0746 65.7061 94.9974 67.9302 95 70.25V76.5988C95.0002 76.818 95.0581 77.0332 95.1678 77.223C95.2775 77.4128 95.4352 77.5704 95.625 77.68C97.4585 78.7437 98.8429 80.4377 99.5202 82.4463C100.198 84.4549 100.122 86.6412 99.3069 88.5981C98.4921 90.5549 96.9937 92.1489 95.0909 93.0831C93.1881 94.0173 91.0106 94.228 88.964 93.676C86.9174 93.124 85.1412 91.8469 83.9662 90.0826C82.7913 88.3183 82.2976 86.1871 82.5773 84.0859C82.857 81.9846 83.8908 80.0567 85.4863 78.6611C87.0819 77.2656 89.1303 76.4975 91.25 76.5C91.5815 76.5 91.8995 76.3683 92.1339 76.1339C92.3683 75.8995 92.5 75.5815 92.5 75.25C92.5 74.9185 92.3683 74.6005 92.1339 74.3661C91.8995 74.1317 91.5815 74 91.25 74C88.5465 73.9946 85.9311 74.9611 83.8807 76.7231C81.8302 78.4851 80.4814 80.9254 80.08 83.5989C79.6786 86.2725 80.2515 89.0013 81.6942 91.2877C83.1368 93.5741 85.3531 95.2659 87.939 96.0546C90.525 96.8433 93.3082 96.6764 95.7813 95.5843C98.2544 94.4921 100.253 92.5476 101.412 90.1051C102.571 87.6626 102.813 84.885 102.095 82.2785C101.377 79.6721 99.7463 77.4106 97.5 75.9063ZM45 49C45 48.6685 45.1317 48.3505 45.3661 48.1161C45.6005 47.8817 45.9185 47.75 46.25 47.75C46.5815 47.75 46.8995 47.8817 47.1339 48.1161C47.3683 48.3505 47.5 48.6685 47.5 49V59H45V49ZM54.97 72.3288L53.95 72.9175C53.8067 72.999 53.6809 73.108 53.5799 73.2383C53.4789 73.3686 53.4047 73.5175 53.3615 73.6766C53.3183 73.8357 53.307 74.0018 53.3282 74.1653C53.3495 74.3287 53.4029 74.4864 53.4853 74.6292C53.5677 74.7719 53.6776 74.897 53.8085 74.9971C53.9395 75.0972 54.0889 75.1705 54.2483 75.2126C54.4077 75.2548 54.5738 75.265 54.7372 75.2426C54.9005 75.2203 55.0578 75.1659 55.2 75.0825L56.22 74.4938C56.8809 75.9128 57.2923 77.435 57.4362 78.9938H56.25C55.9185 78.9938 55.6005 79.1255 55.3661 79.3599C55.1317 79.5943 55 79.9122 55 80.2438C55 80.5753 55.1317 80.8932 55.3661 81.1276C55.6005 81.3621 55.9185 81.4938 56.25 81.4938H57.4362C57.2923 83.0525 56.8809 84.5748 56.22 85.9938L55.2 85.405C54.9131 85.2419 54.5732 85.1988 54.2547 85.2853C53.9361 85.3718 53.6647 85.5808 53.4997 85.8666C53.3346 86.1525 53.2893 86.492 53.3737 86.8111C53.4581 87.1303 53.6652 87.4031 53.95 87.57L54.97 88.1588C54.0645 89.4366 52.9491 90.552 51.6712 91.4575L51.0825 90.4375C51.001 90.2942 50.892 90.1684 50.7617 90.0674C50.6314 89.9664 50.4825 89.8922 50.3234 89.849C50.1643 89.8058 49.9982 89.7945 49.8347 89.8158C49.6713 89.837 49.5136 89.8904 49.3708 89.9728C49.2281 90.0552 49.103 90.1651 49.0029 90.296C48.9028 90.427 48.8295 90.5764 48.7874 90.7358C48.7452 90.8952 48.735 91.0613 48.7574 91.2247C48.7797 91.388 48.8341 91.5453 48.9175 91.6875L49.5062 92.7075C48.0861 93.3734 46.5616 93.7891 45 93.9363V92.75C45 92.4185 44.8683 92.1005 44.6339 91.8661C44.3995 91.6317 44.0815 91.5 43.75 91.5C43.4185 91.5 43.1005 91.6317 42.8661 91.8661C42.6317 92.1005 42.5 92.4185 42.5 92.75V93.9363C40.9391 93.7931 39.4147 93.3816 37.9937 92.72L38.5825 91.7C38.7456 91.4131 38.7887 91.0732 38.7022 90.7547C38.6157 90.4361 38.4067 90.1647 38.1209 89.9997C37.835 89.8346 37.4955 89.7893 37.1764 89.8737C36.8572 89.9581 36.5844 90.1652 36.4175 90.45L35.8287 91.47C34.5509 90.5645 33.4355 89.4491 32.53 88.1713L33.55 87.5825C33.6933 87.501 33.8191 87.392 33.9201 87.2617C34.0211 87.1314 34.0953 86.9825 34.1385 86.8234C34.1817 86.6643 34.193 86.4982 34.1718 86.3347C34.1505 86.1713 34.0971 86.0136 34.0147 85.8708C33.9323 85.7281 33.8224 85.603 33.6915 85.5029C33.5605 85.4028 33.4111 85.3295 33.2517 85.2874C33.0923 85.2452 32.9262 85.2351 32.7628 85.2574C32.5995 85.2797 32.4422 85.3341 32.3 85.4175L31.28 86.0063C30.6184 84.5853 30.2069 83.0609 30.0637 81.5H31.25C31.5815 81.5 31.8995 81.3683 32.1339 81.1339C32.3683 80.8995 32.5 80.5815 32.5 80.25C32.5 79.9185 32.3683 79.6005 32.1339 79.3661C31.8995 79.1317 31.5815 79 31.25 79H30.0637C30.2077 77.4413 30.6191 75.919 31.28 74.5L32.3 75.0887C32.4422 75.1721 32.5995 75.2265 32.7628 75.2489C32.9262 75.2712 33.0923 75.261 33.2517 75.2189C33.4111 75.1767 33.5605 75.1035 33.6915 75.0034C33.8224 74.9032 33.9323 74.7782 34.0147 74.6354C34.0971 74.4926 34.1505 74.335 34.1718 74.1715C34.193 74.008 34.1817 73.842 34.1385 73.6829C34.0953 73.5238 34.0211 73.3748 33.9201 73.2445C33.8191 73.1143 33.6933 73.0052 33.55 72.9238L32.53 72.335C33.4355 71.0571 34.5509 69.9418 35.8287 69.0363L36.4175 70.0563C36.499 70.1996 36.608 70.3253 36.7383 70.4263C36.8686 70.5273 37.0175 70.6016 37.1766 70.6448C37.3357 70.688 37.5018 70.6993 37.6653 70.678C37.8287 70.6568 37.9864 70.6034 38.1292 70.521C38.2719 70.4385 38.397 70.3287 38.4971 70.1977C38.5972 70.0668 38.6705 69.9173 38.7126 69.7579C38.7548 69.5986 38.765 69.4324 38.7426 69.2691C38.7203 69.1058 38.6659 68.9485 38.5825 68.8063L37.9937 67.7863C39.4143 67.1225 40.9388 66.7089 42.5 66.5638V67.75C42.5 68.0815 42.6317 68.3995 42.8661 68.6339C43.1005 68.8683 43.4185 69 43.75 69C44.0815 69 44.3995 68.8683 44.6339 68.6339C44.8683 68.3995 45 68.0815 45 67.75V66.5638C46.5609 66.707 48.0853 67.1184 49.5062 67.78L48.9175 68.8C48.8341 68.9422 48.7797 69.0995 48.7574 69.2628C48.735 69.4262 48.7452 69.5923 48.7874 69.7517C48.8295 69.9111 48.9028 70.0605 49.0029 70.1915C49.103 70.3224 49.2281 70.4323 49.3708 70.5147C49.5136 70.5971 49.6713 70.6505 49.8347 70.6718C49.9982 70.693 50.1643 70.6817 50.3234 70.6385C50.4825 70.5953 50.6314 70.5211 50.7617 70.4201C50.892 70.3191 51.001 70.1933 51.0825 70.05L51.6712 69.03C52.9491 69.9355 54.0645 71.0509 54.97 72.3288ZM50 59V56.5H53.75C54.413 56.5 55.0489 56.7634 55.5178 57.2322C55.9866 57.7011 56.25 58.337 56.25 59H50ZM81.25 59V49H83.75V59H81.25Z" fill="white"/>
<path d="M88.75 69V65.25C88.75 64.9185 88.6183 64.6005 88.3839 64.3661C88.1495 64.1317 87.8315 64 87.5 64C87.1685 64 86.8505 64.1317 86.6161 64.3661C86.3817 64.6005 86.25 64.9185 86.25 65.25V69C86.25 69.3315 86.3817 69.6495 86.6161 69.8839C86.8505 70.1183 87.1685 70.25 87.5 70.25C87.8315 70.25 88.1495 70.1183 88.3839 69.8839C88.6183 69.6495 88.75 69.3315 88.75 69Z" fill="white"/>
<path d="M83.75 69V65.25C83.75 64.9185 83.6183 64.6005 83.3839 64.3661C83.1495 64.1317 82.8315 64 82.5 64C82.1685 64 81.8505 64.1317 81.6161 64.3661C81.3817 64.6005 81.25 64.9185 81.25 65.25V69C81.25 69.3315 81.3817 69.6495 81.6161 69.8839C81.8505 70.1183 82.1685 70.25 82.5 70.25C82.8315 70.25 83.1495 70.1183 83.3839 69.8839C83.6183 69.6495 83.75 69.3315 83.75 69Z" fill="white"/>
<path d="M77.5 64C77.1685 64 76.8505 64.1317 76.6161 64.3661C76.3817 64.6005 76.25 64.9185 76.25 65.25V69C76.25 69.3315 76.3817 69.6495 76.6161 69.8839C76.8505 70.1183 77.1685 70.25 77.5 70.25C77.8315 70.25 78.1495 70.1183 78.3839 69.8839C78.6183 69.6495 78.75 69.3315 78.75 69V65.25C78.75 64.9185 78.6183 64.6005 78.3839 64.3661C78.1495 64.1317 77.8315 64 77.5 64Z" fill="white"/>
<path d="M65 69V65.25C65 64.9185 64.8683 64.6005 64.6339 64.3661C64.3995 64.1317 64.0815 64 63.75 64C63.4185 64 63.1005 64.1317 62.8661 64.3661C62.6317 64.6005 62.5 64.9185 62.5 65.25V69C62.5 69.3315 62.6317 69.6495 62.8661 69.8839C63.1005 70.1183 63.4185 70.25 63.75 70.25C64.0815 70.25 64.3995 70.1183 64.6339 69.8839C64.8683 69.6495 65 69.3315 65 69Z" fill="white"/>
<defs>
<linearGradient id="paint0_linear" x1="65" y1="0" x2="65" y2="130" gradientUnits="userSpaceOnUse">
<stop stop-color="#431CB0"/>
<stop offset="1" stop-color="#3800D9"/>
</linearGradient>
<linearGradient id="paint1_linear" x1="10.6364" y1="28.7576" x2="117.394" y2="108.727" gradientUnits="userSpaceOnUse">
<stop stop-color="#8E1EFF"/>
<stop offset="1" stop-color="#3800D9"/>
</linearGradient>
</defs>
</svg>
