<svg width="130" height="130" viewBox="0 0 130 130" fill="none" xmlns="http://www.w3.org/2000/svg">
<circle cx="65" cy="65" r="63.5" fill="url(#paint0_linear)" stroke="url(#paint1_linear)" stroke-width="3"/>
<g clip-path="url(#clip0)">
<path d="M64.4999 41.4335C60.1368 41.4335 56.5999 44.9704 56.5999 49.3335C56.6042 53.6947 60.1386 57.2292 64.4999 57.2334C68.863 57.2334 72.3999 53.6966 72.3999 49.3335C72.3999 44.9704 68.863 41.4335 64.4999 41.4335ZM64.4999 54.6001C61.5912 54.6001 59.2333 52.2421 59.2333 49.3335C59.2333 46.4248 61.5912 44.0668 64.4999 44.0668C67.4086 44.0668 69.7666 46.4248 69.7666 49.3335C69.7666 52.2421 67.4088 54.6001 64.4999 54.6001Z" fill="white"/>
<path d="M78.6152 60.7229C78.1806 60.2876 77.7224 59.8765 77.2426 59.4913L77.2558 59.4532C81.5958 46.0602 76.7409 31.4002 65.2649 23.2449C64.8072 22.9182 64.1926 22.9182 63.7349 23.2449C52.2589 31.4002 47.404 46.0602 51.7441 59.4532L51.7572 59.4913C44.5169 65.3034 43.3589 75.8845 49.1708 83.1248C49.5559 83.6046 49.9671 84.0628 50.4024 84.4974C50.6493 84.7443 50.984 84.8832 51.3333 84.8832C51.4746 84.883 51.615 84.8603 51.7493 84.8161C52.2225 84.6586 52.566 84.2473 52.6368 83.7535L53.6309 76.7963C53.7238 76.1483 54.2785 75.6671 54.933 75.6666H58.9436L57.9429 80.6699C57.7974 81.3824 58.2571 82.0779 58.9696 82.2232C59.0563 82.241 59.1447 82.2499 59.2333 82.2499H69.7666C70.4937 82.25 71.0834 81.6607 71.0836 80.9335C71.0836 80.845 71.0747 80.7566 71.0569 80.6699L70.0562 75.6666H74.0668C74.7217 75.6672 75.2767 76.1491 75.369 76.7976L76.3631 83.7535C76.4338 84.2473 76.7773 84.6586 77.2505 84.8161C77.3848 84.8603 77.5252 84.883 77.6666 84.8832C78.0158 84.8832 78.3506 84.7443 78.5974 84.4974C85.1676 77.9373 85.1755 67.2931 78.6152 60.7229ZM64.4999 25.9534C67.6644 28.3675 70.3115 31.3931 72.284 34.8501H56.7158C58.6883 31.3931 61.3355 28.3675 64.4999 25.9534ZM54.933 73.0334C52.9705 73.0418 51.3091 74.4835 51.0239 76.4251L50.4537 80.4186C48.6947 77.7627 47.8833 74.5908 48.1509 71.4165H48.1496C48.4394 67.8895 50.0359 64.5979 52.6262 62.1867L56.1101 73.0334H54.933ZM60.8396 79.6167L61.6296 75.6667H67.3702L68.1602 79.6167H60.8396ZM58.8764 73.0334L54.542 59.5481L54.2523 58.6462C52.0076 51.6931 52.4131 44.1555 55.3912 37.4835H73.6086C76.5867 44.1555 76.9924 51.6931 74.7475 58.6462L74.4578 59.5481L70.1234 73.0334H58.8764ZM78.5461 80.4186L77.976 76.4251C77.6908 74.4835 76.0293 73.0418 74.0668 73.0334H72.8897L76.3762 62.1867C78.9651 64.5985 80.5603 67.89 80.8489 71.4165C81.1167 74.5908 80.3053 77.7627 78.5461 80.4186Z" fill="white"/>
<path d="M59.2333 84.778V89.0703C56.0359 88.0944 52.5611 88.9439 50.1746 91.285C48.1739 88.9043 45.2263 87.5259 42.1166 87.5167C41.1579 87.5167 40.204 87.6497 39.2819 87.9117C38.2186 81.5859 32.7311 76.9605 26.3167 76.9834H25V79.6167H26.3167C31.699 79.6001 36.2176 83.6661 36.767 89.0203C35.4874 89.7655 34.3788 90.7718 33.5135 91.9736C31.1404 89.9461 28.1213 88.8323 25 88.8333V91.4667C30.8147 91.4732 35.5267 96.1853 35.5333 102H38.1666C38.1681 99.0834 37.1949 96.2499 35.4016 93.9499C36.1832 92.6548 37.3189 91.6103 38.6749 90.94C38.688 90.94 38.7025 90.94 38.7157 90.9268C39.7763 90.4148 40.9389 90.1493 42.1166 90.15C44.6685 90.1618 47.0581 91.403 48.5354 93.4838C47.7872 94.8902 47.3918 96.4572 47.3833 98.05H50.0166C50.0155 96.7039 50.3958 95.3851 51.1134 94.2461H51.1055C51.1239 94.2211 51.1489 94.2027 51.1674 94.1764C52.9467 91.5615 56.3382 90.5883 59.2333 91.8617V95.3113H61.8666V84.778H59.2333Z" fill="white"/>
<path d="M102.683 79.6167H104V76.9834H102.683C96.2687 76.9605 90.7812 81.5859 89.718 87.9117C88.7958 87.6497 87.8419 87.5167 86.8832 87.5167C83.7742 87.5249 80.8266 88.9018 78.8252 91.281C76.4388 88.94 72.9639 88.0904 69.7666 89.0664V84.7741H67.1332V95.3074H69.7666V91.8617C72.6614 90.588 76.0528 91.5606 77.8325 94.175C77.8509 94.2014 77.8759 94.2198 77.8943 94.2448H77.8864C78.6044 95.3841 78.9845 96.7034 78.9832 98.05H81.6165C81.608 96.4572 81.2127 94.8902 80.4645 93.4838C81.9418 91.403 84.3313 90.1618 86.8832 90.15C88.0611 90.1502 89.2237 90.4166 90.2841 90.9295C90.2973 90.936 90.3118 90.9374 90.325 90.9426C91.6829 91.6113 92.821 92.6548 93.6048 93.9499C91.809 96.2491 90.8335 99.0826 90.8332 102H93.4665C93.4731 96.1853 98.1851 91.4732 104 91.4667V88.8333C100.879 88.8327 97.8596 89.9462 95.4863 91.9736C94.6211 90.7718 93.5124 89.7655 92.2328 89.0203C92.7824 83.6659 97.3008 79.6001 102.683 79.6167Z" fill="white"/>
<path d="M60.5499 61.1835H57.9166V63.8168H60.5499V61.1835Z" fill="white"/>
<path d="M65.8166 61.1835H63.1833V63.8168H65.8166V61.1835Z" fill="white"/>
<path d="M71.0832 61.1835H68.4499V63.8168H71.0832V61.1835Z" fill="white"/>
<path d="M42.1166 92.7833H39.4833V95.4167H42.1166V92.7833Z" fill="white"/>
<path d="M27.6333 71.7168H25V74.3501H27.6333V71.7168Z" fill="white"/>
<path d="M101.367 83.5668H98.7332V86.2001H101.367V83.5668Z" fill="white"/>
<path d="M90.8332 78.3H88.1999V80.9334H90.8332V78.3Z" fill="white"/>
<path d="M76.3499 99.3667H73.7166V102H76.3499V99.3667Z" fill="white"/>
<path d="M104 69.0834H101.367V71.7167H104V69.0834Z" fill="white"/>
</g>
<defs>
<linearGradient id="paint0_linear" x1="65" y1="0" x2="65" y2="130" gradientUnits="userSpaceOnUse">
<stop stop-color="#431CB0"/>
<stop offset="1" stop-color="#3800D9"/>
</linearGradient>
<linearGradient id="paint1_linear" x1="10.6364" y1="28.7576" x2="117.394" y2="108.727" gradientUnits="userSpaceOnUse">
<stop stop-color="#8E1EFF"/>
<stop offset="1" stop-color="#3800D9"/>
</linearGradient>
<clipPath id="clip0">
<rect width="79" height="79" fill="white" transform="translate(25 23)"/>
</clipPath>
</defs>
</svg>
