<svg width="165" height="165" viewBox="0 0 165 165" fill="none" xmlns="http://www.w3.org/2000/svg">
<circle cx="82.5" cy="82.5" r="81.5" fill="white" stroke="url(#paint0_linear)" stroke-width="2"/>
<g clip-path="url(#clip0)">
<path d="M38.5806 98.4678C38.5806 97.5867 39.2979 96.871 40.1774 96.871H41.7742V93.6774H40.1774C37.5366 93.6774 35.3871 95.827 35.3871 98.4678C35.3871 102.87 38.9689 106.452 43.371 106.452H52.9516V103.258H43.371C40.7302 103.258 38.5806 101.109 38.5806 98.4678Z" fill="#431CB0"/>
<path d="M56.1452 103.258H59.3387V106.452H56.1452V103.258Z" fill="#431CB0"/>
<path d="M122.977 33C121.688 33 120.463 33.4873 119.526 34.3714L65.8022 85.1103C64.3146 86.5177 62.3662 87.2903 60.3211 87.2903H40.1774C34.0141 87.2903 29 92.306 29 98.4677C29 106.392 35.4479 112.839 43.371 112.839H62.7794C67.169 112.839 71.2599 110.875 74.0021 107.446L126.9 41.3222C127.609 40.4342 128 39.32 128 38.1848V38.0234C128 35.2533 125.745 33 122.977 33V33ZM77.9168 78.0629L80.5217 75.6038L88.78 83.8621L86.5283 86.6759L77.9168 78.0629ZM84.5214 89.1826L82.2697 91.9957L72.9877 82.7136L75.5926 80.253L84.5214 89.1826ZM71.5079 105.451C69.3762 108.117 66.1936 109.645 62.7794 109.645H43.371C37.2076 109.645 32.1935 104.63 32.1935 98.4677C32.1935 94.0657 35.7754 90.4839 40.1774 90.4839H60.3211C63.1856 90.4839 65.9114 89.3993 67.9947 87.4322L70.6666 84.9092L80.2628 94.5062L71.5079 105.451ZM124.806 38.1848C124.806 38.5981 124.665 39.0058 124.406 39.3278L90.7869 81.3515L82.8436 73.4098L121.718 36.6933C122.06 36.3705 122.507 36.1935 122.977 36.1935C123.985 36.1935 124.806 37.0161 124.806 38.0234V38.1848Z" fill="#431CB0"/>
<path d="M104.048 103.258C96.7031 103.258 86.4839 106.477 86.4839 109.645C86.4839 112.813 96.7031 116.032 104.048 116.032C111.394 116.032 121.613 112.813 121.613 109.645C121.613 106.477 111.394 103.258 104.048 103.258ZM104.048 112.839C98.062 112.839 92.6027 110.872 90.4103 109.645C92.6027 108.419 98.062 106.452 104.048 106.452C110.035 106.452 115.494 108.419 117.686 109.645C115.494 110.872 110.035 112.839 104.048 112.839Z" fill="#431CB0"/>
<path d="M104.048 96.871C92.7415 96.871 80.0968 102.333 80.0968 109.645V119.226C80.0968 126.538 92.7415 132 104.048 132C115.355 132 128 126.538 128 119.226V109.645C128 102.333 115.355 96.871 104.048 96.871ZM104.048 128.806C93.7668 128.806 83.2903 123.972 83.2903 119.226V115.764C87.761 119.8 96.2228 122.419 104.048 122.419C111.874 122.419 120.336 119.8 124.806 115.764V119.226C124.806 123.972 114.33 128.806 104.048 128.806ZM104.048 119.226C93.7668 119.226 83.2903 114.391 83.2903 109.645C83.2903 104.899 93.7668 100.065 104.048 100.065C114.33 100.065 124.806 104.899 124.806 109.645C124.806 114.391 114.33 119.226 104.048 119.226Z" fill="#431CB0"/>
</g>
<defs>
<linearGradient id="paint0_linear" x1="82.5" y1="0" x2="82.5" y2="165" gradientUnits="userSpaceOnUse">
<stop stop-color="#1EFFFF"/>
<stop offset="1" stop-color="#431CB0"/>
</linearGradient>
<clipPath id="clip0">
<rect width="99" height="99" fill="white" transform="translate(29 33)"/>
</clipPath>
</defs>
</svg>
