<svg width="165" height="165" viewBox="0 0 165 165" fill="none" xmlns="http://www.w3.org/2000/svg">
<circle cx="82.5" cy="82.5" r="81.5" fill="white" stroke="url(#paint0_linear)" stroke-width="2"/>
<path d="M49.5387 60.4487C50.4852 60.4487 51.2526 59.6816 51.2526 58.7348V51.5688C51.2526 46.9343 55.0242 43.1638 59.6601 43.1638H74.8886V61.8193H63.6041V52.3359C63.6041 51.3892 62.8367 50.6221 61.8902 50.6221C60.9437 50.6221 60.1763 51.3892 60.1763 52.3359V71.9883C60.1763 72.935 60.9437 73.7021 61.8902 73.7021C62.8367 73.7021 63.6041 72.935 63.6041 71.9883V65.2471H76.6025C77.549 65.2471 78.3164 64.4799 78.3164 63.5332V43.1635H101.667V50.7775H86.4707C85.5242 50.7775 84.7568 51.5446 84.7568 52.4913V82.7285C84.7568 83.6753 85.5242 84.4424 86.4707 84.4424C87.4172 84.4424 88.1846 83.6753 88.1846 82.7285V54.2054H103.381C104.327 54.2054 105.095 53.4383 105.095 52.4916V43.1635H107.34C111.976 43.1635 115.747 46.9341 115.747 51.5686V54.4623C115.747 55.409 116.515 56.1761 117.461 56.1761C118.408 56.1761 119.175 55.409 119.175 54.4623V51.5686C119.175 45.0438 113.866 39.7358 107.34 39.7358H59.6601C53.1342 39.7358 47.8248 45.044 47.8248 51.5686V58.7346C47.8248 59.6816 48.5922 60.4487 49.5387 60.4487Z" fill="#431CB0"/>
<path d="M49.5387 97.5267C50.4852 97.5267 51.2526 96.7596 51.2526 95.8129V65.5898C51.2526 64.6431 50.4852 63.876 49.5387 63.876C48.5922 63.876 47.8248 64.6431 47.8248 65.5898V95.8129C47.8248 96.7594 48.5922 97.5267 49.5387 97.5267Z" fill="#431CB0"/>
<path d="M117.461 67.4733C116.515 67.4733 115.747 68.2404 115.747 69.1871V74.1592H106.58C105.634 74.1592 104.866 74.9263 104.866 75.873V102.712H78.4727C77.5262 102.712 76.7588 103.479 76.7588 104.426C76.7588 105.372 77.5262 106.139 78.4727 106.139H106.58C107.527 106.139 108.294 105.372 108.294 104.426V77.5869H115.747V113.431C115.747 118.066 111.976 121.836 107.34 121.836H87.3158V113.807C87.3158 112.86 86.5484 112.093 85.6019 112.093H69.3167V89.9268C69.3167 88.98 68.5494 88.2129 67.6029 88.2129C66.6563 88.2129 65.889 88.98 65.889 89.9268V113.807C65.889 114.753 66.6563 115.521 67.6029 115.521H83.888V121.836H59.6601C55.0242 121.836 51.2526 118.066 51.2526 113.431V110.538C51.2526 109.591 50.4852 108.824 49.5387 108.824C48.5922 108.824 47.8248 109.591 47.8248 110.538V113.431C47.8248 119.956 53.1342 125.264 59.6601 125.264H107.34C113.866 125.264 119.175 119.956 119.175 113.431V69.1871C119.175 68.2406 118.408 67.4733 117.461 67.4733Z" fill="#431CB0"/>
<path d="M32.2727 95.3248C28.2625 95.3248 25 98.5873 25 102.598C25 106.608 28.2625 109.87 32.2727 109.87C36.283 109.87 39.5455 106.608 39.5455 102.598C39.5455 98.5873 36.283 95.3248 32.2727 95.3248ZM32.2727 106.443C30.1526 106.443 28.4277 104.718 28.4277 102.598C28.4277 100.477 30.1526 98.7525 32.2727 98.7525C34.3929 98.7525 36.1177 100.477 36.1177 102.598C36.1177 104.718 34.3929 106.443 32.2727 106.443Z" fill="#431CB0"/>
<path d="M138.306 61.2481L141.498 58.0557C142.167 57.3861 142.167 56.3011 141.498 55.6318C140.829 54.9627 139.743 54.9627 139.074 55.6318L135.882 58.8244L132.69 55.6318C132.02 54.9627 130.935 54.9627 130.266 55.6318C129.597 56.3014 129.597 57.3864 130.266 58.0557L133.458 61.2481L130.266 64.4404C129.597 65.11 129.597 66.195 130.266 66.8643C130.601 67.1988 131.039 67.3661 131.478 67.3661C131.916 67.3661 132.355 67.1988 132.69 66.8643L135.882 63.6717L139.074 66.8643C139.409 67.1988 139.848 67.3661 140.286 67.3661C140.725 67.3661 141.163 67.1988 141.498 66.8643C142.167 66.1947 142.167 65.1097 141.498 64.4404L138.306 61.2481Z" fill="#431CB0"/>
<path d="M122.506 60.1112H95.9861C95.0396 60.1112 94.2722 60.8783 94.2722 61.825V92.6689H78.3584V79.6776C78.3584 78.7309 77.591 77.9637 76.6445 77.9637H58.5614C57.6149 77.9637 56.8475 78.7309 56.8475 79.6776V101.461H44.4942C43.5477 101.461 42.7803 102.228 42.7803 103.175C42.7803 104.121 43.5477 104.889 44.4942 104.889H58.5614C59.5079 104.889 60.2753 104.121 60.2753 103.175V81.3915H74.9307V94.3828C74.9307 95.3295 75.698 96.0967 76.6445 96.0967H95.9861C96.9326 96.0967 97.7 95.3295 97.7 94.3828V63.5389H122.506C123.452 63.5389 124.22 62.7718 124.22 61.825C124.22 60.8783 123.452 60.1112 122.506 60.1112Z" fill="#431CB0"/>
<defs>
<linearGradient id="paint0_linear" x1="82.5" y1="0" x2="82.5" y2="165" gradientUnits="userSpaceOnUse">
<stop stop-color="#1EFFFF"/>
<stop offset="1" stop-color="#431CB0"/>
</linearGradient>
</defs>
</svg>
