<svg width="40" height="40" viewBox="0 0 40 40" fill="none" xmlns="http://www.w3.org/2000/svg">
<circle cx="20" cy="20" r="20" fill="#1EFFFF"/>
<g clip-path="url(#clip0)">
<path d="M12.8905 23.9536C15.2577 26.7833 18.1072 29.0112 21.3596 30.5877C22.5979 31.1745 24.2539 31.8707 26.0989 31.9901C26.2133 31.995 26.3227 32 26.4371 32C27.6754 32 28.67 31.5723 29.4806 30.6921C29.4856 30.6871 29.4955 30.6772 29.5005 30.6672C29.7889 30.3191 30.1172 30.0058 30.4603 29.6726C30.694 29.4488 30.9327 29.2151 31.1615 28.9764C32.2208 27.8724 32.2208 26.47 31.1516 25.4007L28.1627 22.4119C27.6555 21.8848 27.0488 21.6063 26.4122 21.6063C25.7757 21.6063 25.164 21.8848 24.6418 22.407L22.8615 24.1873C22.6974 24.0928 22.5283 24.0083 22.3691 23.9287C22.1702 23.8293 21.9862 23.7348 21.8221 23.6303C20.2009 22.6009 18.7288 21.2582 17.3215 19.5325C16.6103 18.6324 16.1329 17.8765 15.7997 17.1057C16.2672 16.683 16.7048 16.2404 17.1275 15.8077C17.2767 15.6535 17.4309 15.4994 17.585 15.3452C18.1221 14.8081 18.4106 14.1865 18.4106 13.5549C18.4106 12.9233 18.1271 12.3017 17.585 11.7646L16.1031 10.2826C15.929 10.1086 15.7649 9.93949 15.5958 9.76544C15.2676 9.42727 14.9245 9.07915 14.5863 8.76585C14.0741 8.26357 13.4723 8 12.8358 8C12.2042 8 11.5975 8.26357 11.0654 8.77082L9.20543 10.6308C8.5291 11.3071 8.14617 12.1276 8.0666 13.0775C7.97212 14.2661 8.19093 15.5292 8.75786 17.0559C9.62815 19.4182 10.941 21.6113 12.8905 23.9536ZM9.28003 13.1819C9.33971 12.5205 9.59333 11.9685 10.0707 11.4911L11.9207 9.64111C12.2092 9.36262 12.5274 9.2184 12.8358 9.2184C13.1391 9.2184 13.4475 9.36262 13.7309 9.65106C14.0641 9.95939 14.3774 10.2826 14.7156 10.6258C14.8847 10.7998 15.0587 10.9739 15.2328 11.1529L16.7148 12.6349C17.0231 12.9432 17.1822 13.2565 17.1822 13.5649C17.1822 13.8732 17.0231 14.1865 16.7148 14.4948C16.5606 14.649 16.4064 14.8081 16.2523 14.9623C15.7898 15.4298 15.3571 15.8724 14.8797 16.2951C14.8698 16.305 14.8648 16.31 14.8548 16.3199C14.4421 16.7327 14.5067 17.1256 14.6062 17.424C14.6112 17.4389 14.6161 17.4488 14.6211 17.4637C15.004 18.3838 15.5361 19.259 16.3666 20.3034C17.8586 22.1434 19.4301 23.5707 21.1607 24.6697C21.3745 24.809 21.6033 24.9184 21.8171 25.0278C22.016 25.1272 22.2 25.2217 22.3642 25.3261C22.384 25.3361 22.399 25.346 22.4189 25.356C22.583 25.4405 22.7421 25.4803 22.9012 25.4803C23.2991 25.4803 23.5577 25.2267 23.6422 25.1421L25.5022 23.2822C25.7906 22.9938 26.1039 22.8396 26.4122 22.8396C26.7902 22.8396 27.0985 23.0734 27.2925 23.2822L30.2912 26.276C30.888 26.8728 30.883 27.5193 30.2763 28.1509C30.0674 28.3746 29.8486 28.5885 29.6149 28.8123C29.2668 29.1504 28.9037 29.4986 28.5755 29.8914C28.0036 30.5081 27.3223 30.7965 26.4421 30.7965C26.3575 30.7965 26.268 30.7915 26.1835 30.7866C24.5523 30.6821 23.0355 30.0456 21.8967 29.5035C18.8034 28.0066 16.0882 25.8831 13.8354 23.1877C11.9804 20.9548 10.7322 18.8761 9.90664 16.6482C9.39441 15.2806 9.20046 14.1815 9.28003 13.1819Z" fill="#230E7A"/>
</g>
<defs>
<clipPath id="clip0">
<rect width="24" height="24" fill="white" transform="translate(8 8)"/>
</clipPath>
</defs>
</svg>
