<svg width="165" height="165" viewBox="0 0 165 165" fill="none" xmlns="http://www.w3.org/2000/svg">
<circle cx="82.5" cy="82.5" r="81.5" fill="white" stroke="url(#paint0_linear)" stroke-width="2"/>
<g clip-path="url(#clip0)">
<path d="M127.676 60.421C127.676 60.421 127.676 60.421 127.676 60.421L127.673 60.4179L121.67 59.5614C120.826 59.4412 120.239 58.6598 120.36 57.8161C120.417 57.4107 120.634 57.0449 120.961 56.7992L125.813 53.1604C126.495 52.6491 126.633 51.6819 126.122 51L120.566 43.5929C120.055 42.911 119.088 42.7729 118.406 43.2843L113.556 46.923C112.877 47.4382 111.909 47.3055 111.394 46.6265C111.143 46.2969 111.036 45.8804 111.096 45.4709L111.954 39.468C112.075 38.6243 111.489 37.8425 110.646 37.7214C110.645 37.7214 110.644 37.7212 110.644 37.7212L101.484 36.4126C100.64 36.2915 99.858 36.8771 99.7368 37.7208C99.7368 37.721 99.7368 37.721 99.7368 37.7212L98.8788 43.7241C98.7587 44.5678 97.9772 45.1544 97.1335 45.0342C96.7281 44.9765 96.3623 44.7599 96.1166 44.4324L92.4794 39.5807C91.968 38.8988 91.0008 38.7607 90.319 39.2721L85.6818 42.7519C83.5839 42.5289 81.4682 42.5289 79.3703 42.7519C65.6312 44.3222 54.8571 55.279 53.5179 69.0425C53.4762 69.4793 53.4608 69.9129 53.4392 70.3465H52.9762C52.244 70.3479 51.6134 70.8637 51.467 71.581L50.4007 76.6518L46.1293 73.706C45.5162 73.2829 44.6883 73.3584 44.1617 73.885L39.5323 78.5144C39.0064 79.0408 38.9312 79.8676 39.3533 80.4804L42.2853 84.7441L37.2129 85.8104C36.5035 85.9659 35.9985 86.5949 36 87.3212V93.4938C35.9996 94.2237 36.511 94.8541 37.2253 95.0045L42.2976 96.0709L39.3656 100.335C38.9436 100.947 39.0188 101.774 39.5446 102.301L44.1741 106.93C44.7007 107.457 45.5286 107.532 46.1416 107.109L50.4053 104.169L51.4716 109.242C51.6181 109.959 52.2486 110.475 52.9809 110.476H59.1535C59.8834 110.477 60.5137 109.965 60.6642 109.251L61.7305 104.179L65.9943 107.111C66.6071 107.533 67.4338 107.457 67.9602 106.932L70.3567 104.527V108.925C70.3637 111.121 71.5398 113.146 73.443 114.24V122.814C73.443 126.223 76.2066 128.986 79.6157 128.986H85.7883C89.1973 128.986 91.9609 126.223 91.9609 122.814V114.24C93.8642 113.146 95.0402 111.121 95.0472 108.925V102.818C95.089 100.248 96.4335 97.875 98.6165 96.5184C99.8971 95.6876 101.112 94.7588 102.249 93.7407L100.191 91.4414C99.173 92.3534 98.0858 93.1846 96.9391 93.9274C93.875 95.8506 91.9993 99.2 91.9609 102.818V108.925C91.9609 110.63 90.5792 112.012 88.8746 112.012H76.5294C74.8247 112.012 73.443 110.63 73.443 108.925V102.689C73.4074 99.1404 71.5612 95.8556 68.5482 93.9799C56.3173 86.2946 52.6323 70.1496 60.3176 57.9187C65.0859 50.3301 73.4077 45.7112 82.3702 45.6792C82.3472 45.7342 82.327 45.7903 82.31 45.8474C82.2527 46.2525 82.3588 46.6639 82.6047 46.9909L86.242 51.841C86.6254 52.3373 86.6623 53.019 86.3345 53.5539C86.019 54.0921 85.4088 54.3857 84.7914 54.2962L78.7885 53.4382C77.9448 53.3172 77.163 53.9031 77.0419 54.7466C77.0419 54.7472 77.0417 54.7478 77.0417 54.7483L75.7315 63.9131C75.6106 64.7566 76.1964 65.5386 77.0399 65.6598C77.0405 65.6598 77.0411 65.66 77.0417 65.66L83.0445 66.518C83.8883 66.6381 84.4748 67.4195 84.3547 68.2633C84.297 68.6687 84.0804 69.0344 83.7528 69.2802L78.9027 72.9174C78.2208 73.4288 78.0827 74.3959 78.5941 75.0778L84.1494 82.4849C84.6608 83.1668 85.628 83.3049 86.3099 82.7936L91.1615 79.1564C91.844 78.646 92.8112 78.7854 93.3215 79.4681C93.5658 79.7947 93.6709 80.2047 93.6136 80.6085L92.7571 86.6113C92.636 87.4549 93.2216 88.237 94.0654 88.3582C94.0655 88.3582 94.0655 88.3582 94.0657 88.3582L103.232 89.6683C103.304 89.6776 103.377 89.6822 103.45 89.6822C104.218 89.6832 104.87 89.1188 104.979 88.3582L105.835 82.3553C105.956 81.5116 106.737 80.925 107.581 81.0452C107.986 81.1029 108.352 81.3195 108.598 81.647L112.236 86.4971C112.748 87.179 113.715 87.3171 114.397 86.8058L121.804 81.2504C122.486 80.7391 122.624 79.7719 122.113 79.09L118.475 74.2399C118.094 73.7428 118.057 73.0623 118.383 72.527C118.692 71.9817 119.307 71.6862 119.926 71.7863L125.929 72.6427C126.772 72.7639 127.554 72.178 127.676 71.3345C127.676 71.3343 127.676 71.3343 127.676 71.3341L128.984 62.1678C129.105 61.3241 128.52 60.5421 127.676 60.421ZM76.5294 115.098H88.8746V118.184H76.5294V115.098ZM76.5294 121.271H88.8746V122.814C88.8746 124.518 87.4929 125.9 85.7883 125.9H79.6157C77.9111 125.9 76.5294 124.518 76.5294 122.814V121.271ZM64.2443 94.6589C65.0869 95.3479 65.9672 95.9895 66.8816 96.5801C68.3396 97.5016 69.4372 98.8956 69.991 100.529L66.681 103.833L63.4758 101.623C62.0723 100.656 60.1505 101.01 59.1832 102.413C58.9513 102.75 58.7885 103.129 58.7044 103.529L57.8958 107.382H54.2277L53.4191 103.535C53.068 101.867 51.4313 100.799 49.7634 101.151C49.3635 101.235 48.9843 101.397 48.6477 101.629L45.441 103.833L42.6294 101.027L44.8376 97.8239C45.8058 96.421 45.4532 94.499 44.0502 93.5308C43.7135 93.2984 43.3338 93.1352 42.9334 93.0509L39.0863 92.2408V88.5742L42.9334 87.7641C44.6008 87.4105 45.6659 85.7722 45.3123 84.1047C45.2284 83.7091 45.0678 83.3339 44.8392 83.0004L42.6294 79.7875L45.441 76.9821L48.6492 79.1919C50.0533 80.1581 51.9751 79.8031 52.9413 78.3991C53.1728 78.0629 53.3352 77.684 53.4191 77.2845L53.6892 76.0006C53.9364 77.7787 54.346 79.5302 54.9129 81.2334C49.8353 81.8387 46.2099 86.4458 46.8152 91.5234C47.4205 96.6009 52.0276 100.226 57.1051 99.6211C60.1617 99.2565 62.8373 97.3968 64.2443 94.6589ZM61.8478 92.4846C60.6955 95.6876 57.1649 97.3499 53.9619 96.1978C50.7589 95.0454 49.0965 91.5149 50.2487 88.3119C51.1302 85.8616 53.4567 84.2295 56.0608 84.2349C56.0809 84.2349 56.0994 84.2349 56.1194 84.2349C57.5385 87.2948 59.4766 90.0857 61.8478 92.4846ZM124.83 69.3651L120.355 68.7262C117.824 68.3647 115.479 70.1237 115.117 72.6547C114.944 73.8701 115.26 75.1048 115.997 76.087L118.708 79.7026L113.77 83.4062L111.057 79.7921C109.523 77.7465 106.622 77.3316 104.576 78.8655C103.594 79.602 102.945 80.6986 102.771 81.914L102.146 86.3953L96.0363 85.5219L96.6752 81.0467C97.0377 78.5158 95.2796 76.1702 92.7487 75.8079C91.5325 75.6337 90.2972 75.9501 89.3144 76.6873L85.6988 79.3986L81.9952 74.4606L85.6093 71.7477C87.6549 70.2138 88.0698 67.3121 86.5359 65.2666C85.7995 64.2844 84.7029 63.635 83.4874 63.461L79.0123 62.8221L79.8857 56.7128L84.3609 57.3516C86.8918 57.7141 89.2374 55.956 89.5997 53.4251C89.7738 52.2089 89.4575 50.9736 88.7203 49.9908L85.9997 46.3721L90.9378 42.6685L93.6506 46.2841C95.1845 48.3298 98.0862 48.7447 100.132 47.2108C101.114 46.4743 101.763 45.3777 101.937 44.1623L102.576 39.6872L108.686 40.559L108.047 45.0342C107.685 47.5653 109.444 49.9102 111.975 50.2716C113.191 50.4452 114.425 50.1289 115.408 49.392L119.023 46.6807L122.727 51.6188L119.111 54.3317C117.065 55.8656 116.651 58.7673 118.184 60.8127C118.921 61.7949 120.018 62.4444 121.233 62.6184L125.708 63.2573L124.83 69.3651Z" fill="#431CB0"/>
<path d="M102.356 50.6929C95.5375 50.6929 90.0103 56.2201 90.0103 63.0381C90.0103 69.8562 95.5375 75.3834 102.356 75.3834C109.174 75.3834 114.701 69.8562 114.701 63.0381C114.693 56.2232 109.17 50.7005 102.356 50.6929ZM102.356 72.2971C97.2419 72.2971 93.0966 68.1518 93.0966 63.0381C93.0966 57.9245 97.2419 53.7792 102.356 53.7792C107.469 53.7792 111.614 57.9245 111.614 63.0381C111.608 68.1493 107.467 72.2911 102.356 72.2971Z" fill="#431CB0"/>
<path d="M84.2451 104.296H81.1588V108.925H84.2451V104.296Z" fill="#431CB0"/>
<path d="M75.9522 89.1406C66.4261 85.4193 61.7205 74.6801 65.442 65.154C66.8841 61.4628 69.4721 58.3315 72.8258 56.2205L71.1762 53.6095C61.0809 59.9694 58.0526 73.309 64.4125 83.4043C66.8756 87.3141 70.5275 90.3311 74.8319 92.0124C78.6419 93.4722 81.1578 97.1295 81.1588 101.21H84.2451C84.2499 95.8564 80.9511 91.0554 75.9522 89.1406Z" fill="#431CB0"/>
<path d="M122.824 93.4938H112.022V96.5801H122.824V93.4938Z" fill="#431CB0"/>
<path d="M111.467 101.566L109.491 103.937L118.751 111.652L120.726 109.281L111.467 101.566Z" fill="#431CB0"/>
<path d="M105.849 105.839H102.763V116.641H105.849V105.839Z" fill="#431CB0"/>
<path d="M49.9201 59.5897L37.5758 62.6755L38.3238 65.668L50.6682 62.5822L49.9201 59.5897Z" fill="#431CB0"/>
<path d="M41.932 44.4023L40.1391 46.9124L50.9403 54.6274L52.7332 52.1173L41.932 44.4023Z" fill="#431CB0"/>
<path d="M56.3511 36.0129L53.361 36.7773L56.5172 49.1216L59.5072 48.3571L56.3511 36.0129Z" fill="#431CB0"/>
</g>
<defs>
<linearGradient id="paint0_linear" x1="82.5" y1="0" x2="82.5" y2="165" gradientUnits="userSpaceOnUse">
<stop stop-color="#1EFFFF"/>
<stop offset="1" stop-color="#431CB0"/>
</linearGradient>
<clipPath id="clip0">
<rect width="93" height="93" fill="white" transform="translate(36 36)"/>
</clipPath>
</defs>
</svg>
