<svg width="165" height="165" viewBox="0 0 165 165" fill="none" xmlns="http://www.w3.org/2000/svg">
<circle cx="82.5" cy="82.5" r="81.5" fill="white" stroke="url(#paint0_linear)" stroke-width="2"/>
<path d="M73.25 71.25H70V74.5H73.25V71.25Z" fill="#431CB0"/>
<path d="M52.125 46.875C52.125 45.5894 51.7438 44.3327 51.0296 43.2638C50.3153 42.1949 49.3002 41.3618 48.1124 40.8698C46.9247 40.3778 45.6178 40.2491 44.3569 40.4999C43.096 40.7507 41.9378 41.3698 41.0288 42.2788C40.1198 43.1878 39.5007 44.346 39.2499 45.6069C38.9991 46.8678 39.1278 48.1747 39.6198 49.3624C40.1118 50.5502 40.9449 51.5653 42.0138 52.2796C43.0827 52.9938 44.3394 53.375 45.625 53.375C47.3489 53.375 49.0022 52.6902 50.2212 51.4712C51.4402 50.2522 52.125 48.5989 52.125 46.875ZM45.625 50.125C44.9822 50.125 44.3539 49.9344 43.8194 49.5773C43.2849 49.2202 42.8684 48.7126 42.6224 48.1187C42.3764 47.5249 42.312 46.8714 42.4375 46.241C42.5629 45.6105 42.8724 45.0314 43.3269 44.5769C43.7814 44.1224 44.3605 43.8129 44.991 43.6875C45.6214 43.562 46.2749 43.6264 46.8687 43.8724C47.4626 44.1184 47.9702 44.5349 48.3273 45.0694C48.6844 45.6039 48.875 46.2322 48.875 46.875C48.875 47.737 48.5326 48.5636 47.9231 49.1731C47.3136 49.7826 46.487 50.125 45.625 50.125Z" fill="#431CB0"/>
<path d="M113.875 55V63.125H52.125V55C52.125 54.569 51.9538 54.1557 51.649 53.851C51.3443 53.5462 50.931 53.375 50.5 53.375H40.75C40.319 53.375 39.9057 53.5462 39.601 53.851C39.2962 54.1557 39.125 54.569 39.125 55V71.25C39.1253 71.5909 39.2327 71.9231 39.4322 72.1996C39.6317 72.476 39.9131 72.6828 40.2365 72.7905L49.9865 76.0405L50.0986 76.0746L62.0375 79.1182L63.5 90.8507V96.08L54.8615 98.9595C54.5381 99.0672 54.2567 99.274 54.0572 99.5504C53.8577 99.8269 53.7503 100.159 53.75 100.5V120H52.125C50.8321 120 49.5921 120.514 48.6779 121.428C47.7636 122.342 47.25 123.582 47.25 124.875V128.125C47.25 128.556 47.4212 128.969 47.726 129.274C48.0307 129.579 48.444 129.75 48.875 129.75H65.125C65.556 129.75 65.9693 129.579 66.274 129.274C66.5788 128.969 66.75 128.556 66.75 128.125V111.519L78.3232 108.625H87.6767L99.25 111.519V128.125C99.25 128.556 99.4212 128.969 99.726 129.274C100.031 129.579 100.444 129.75 100.875 129.75H117.125C117.556 129.75 117.969 129.579 118.274 129.274C118.579 128.969 118.75 128.556 118.75 128.125V124.875C118.75 123.582 118.236 122.342 117.322 121.428C116.408 120.514 115.168 120 113.875 120H112.25V100.5C112.25 100.159 112.142 99.8269 111.943 99.5504C111.743 99.274 111.462 99.0672 111.139 98.9595L102.5 96.08V90.8507L103.963 79.1199L115.898 76.0746L116.01 76.0405L125.76 72.7905C126.084 72.6833 126.366 72.4768 126.566 72.2003C126.767 71.9238 126.875 71.5913 126.875 71.25V55C126.875 54.569 126.704 54.1557 126.399 53.851C126.094 53.5462 125.681 53.375 125.25 53.375H115.5C115.069 53.375 114.656 53.5462 114.351 53.851C114.046 54.1557 113.875 54.569 113.875 55ZM102.284 66.375L101.003 76.6287C98.7609 77.5192 92.0366 79.6139 87.3989 74.9761L85.1011 77.2739C86.3648 78.5394 87.8721 79.5353 89.5317 80.2015C91.1914 80.8676 92.969 81.1901 94.7569 81.1495C96.723 81.13 98.6755 80.8212 100.552 80.233L99.4401 89.125H66.5485L65.4403 80.2314C67.3188 80.8212 69.2742 81.1306 71.2431 81.1495C73.031 81.1898 74.8084 80.8671 76.4681 80.2009C78.1277 79.5348 79.635 78.539 80.8989 77.2739L78.6011 74.9761C73.9211 79.6561 67.244 77.5436 64.9983 76.6336L63.7551 66.7L63.7161 66.375H102.284ZM79.2966 105.375L77.1305 98.875H88.8695L86.7034 105.375H79.2966ZM66.75 95.625V92.375H99.25V95.625H66.75ZM42.375 56.625H48.875V72.2445L42.375 70.0784V56.625ZM52.125 73.2374V66.375H60.4401L61.6004 75.6537L52.125 73.2374ZM63.5 126.5H50.5V124.875C50.5 124.444 50.6712 124.031 50.976 123.726C51.2807 123.421 51.694 123.25 52.125 123.25H63.5V126.5ZM64.7301 108.674C64.3787 108.762 64.0668 108.965 63.8439 109.25C63.6211 109.536 63.5 109.888 63.5 110.25V120H57V101.672L65.3883 98.875H73.7034L76.0287 105.849L64.7301 108.674ZM115.5 124.875V126.5H102.5V123.25H113.875C114.306 123.25 114.719 123.421 115.024 123.726C115.329 124.031 115.5 124.444 115.5 124.875ZM109 120H102.5V110.25C102.5 109.888 102.379 109.536 102.156 109.25C101.933 108.965 101.621 108.762 101.27 108.674L89.9713 105.849L92.2966 98.875H100.612L109 101.672V120ZM105.56 66.375H113.875V73.2374L104.406 75.6537L105.56 66.375ZM117.125 56.625H123.625V70.0784L117.125 72.2445V56.625Z" fill="#431CB0"/>
<path d="M96 71.25H92.75V74.5H96V71.25Z" fill="#431CB0"/>
<path d="M126.875 46.875C126.875 45.5894 126.494 44.3327 125.78 43.2638C125.065 42.1949 124.05 41.3618 122.862 40.8698C121.675 40.3778 120.368 40.2491 119.107 40.4999C117.846 40.7507 116.688 41.3698 115.779 42.2788C114.87 43.1878 114.251 44.346 114 45.6069C113.749 46.8678 113.878 48.1747 114.37 49.3624C114.862 50.5502 115.695 51.5653 116.764 52.2796C117.833 52.9938 119.089 53.375 120.375 53.375C122.099 53.375 123.752 52.6902 124.971 51.4712C126.19 50.2522 126.875 48.5989 126.875 46.875ZM120.375 50.125C119.732 50.125 119.104 49.9344 118.569 49.5773C118.035 49.2202 117.618 48.7126 117.372 48.1187C117.126 47.5249 117.062 46.8714 117.187 46.241C117.313 45.6105 117.622 45.0314 118.077 44.5769C118.531 44.1224 119.111 43.8129 119.741 43.6875C120.371 43.562 121.025 43.6264 121.619 43.8724C122.213 44.1184 122.72 44.5349 123.077 45.0694C123.434 45.6039 123.625 46.2322 123.625 46.875C123.625 47.737 123.283 48.5636 122.673 49.1731C122.064 49.7826 121.237 50.125 120.375 50.125Z" fill="#431CB0"/>
<path d="M86.25 32.25H79.75C78.4571 32.25 77.2171 32.7636 76.3029 33.6779C75.3886 34.5921 74.875 35.8321 74.875 37.125V38.75H73.25C73.2289 38.75 73.211 38.7614 73.1899 38.7614C73.0194 38.7692 72.8511 38.8031 72.691 38.8621C72.6552 38.8767 72.6195 38.8849 72.5837 38.8995C72.548 38.9141 72.5431 38.9109 72.5236 38.9206L66.0236 42.1706C65.7535 42.3056 65.5263 42.5132 65.3676 42.7701C65.2089 43.027 65.1249 43.323 65.125 43.625V50.125C65.1249 50.427 65.2089 50.723 65.3676 50.9799C65.5263 51.2368 65.7535 51.4444 66.0236 51.5794L71.625 54.3792V58.25C71.625 58.681 71.7962 59.0943 72.1009 59.399C72.4057 59.7038 72.819 59.875 73.25 59.875H92.75C93.181 59.875 93.5943 59.7038 93.899 59.399C94.2038 59.0943 94.375 58.681 94.375 58.25V54.3792L99.9764 51.5875C100.248 51.4519 100.476 51.2431 100.635 50.9846C100.793 50.7261 100.877 50.4284 100.875 50.125V43.625C100.875 43.323 100.791 43.027 100.632 42.7701C100.474 42.5132 100.246 42.3056 99.9764 42.1706L93.4764 38.9206C93.4569 38.9109 93.4357 38.9092 93.4162 38.8995C93.3967 38.8898 93.3447 38.8751 93.3074 38.8621C93.1478 38.8035 92.98 38.7701 92.8101 38.763C92.789 38.7614 92.7711 38.75 92.75 38.75H91.125V37.125C91.125 35.8321 90.6114 34.5921 89.6971 33.6779C88.7829 32.7636 87.5429 32.25 86.25 32.25ZM91.125 45.4986L83 46.8523L74.875 45.4986V42H91.125V45.4986ZM78.125 37.125C78.125 36.694 78.2962 36.2807 78.6009 35.976C78.9057 35.6712 79.319 35.5 79.75 35.5H86.25C86.681 35.5 87.0943 35.6712 87.399 35.976C87.7038 36.2807 87.875 36.694 87.875 37.125V38.75H78.125V37.125ZM68.375 49.1208V44.6292L71.625 43.0042V50.7458L68.375 49.1208ZM91.125 56.625H74.875V48.7925L82.7319 50.1022C82.9093 50.1326 83.0907 50.1326 83.2681 50.1022L91.125 48.7925V56.625ZM97.625 49.1208L94.375 50.7458V43.0042L97.625 44.6292V49.1208Z" fill="#431CB0"/>
<defs>
<linearGradient id="paint0_linear" x1="82.5" y1="0" x2="82.5" y2="165" gradientUnits="userSpaceOnUse">
<stop stop-color="#1EFFFF"/>
<stop offset="1" stop-color="#431CB0"/>
</linearGradient>
</defs>
</svg>
