<svg width="165" height="165" viewBox="0 0 165 165" fill="none" xmlns="http://www.w3.org/2000/svg">
<circle cx="82.5" cy="82.5" r="81.5" fill="white" stroke="url(#paint0_linear)" stroke-width="2"/>
<path d="M100.131 77.7593C88.126 60.2785 89.2501 52.0542 90.6733 41.6417C91.1723 37.9918 91.6881 34.2177 91.6881 29.75C91.6881 25.0003 87.8838 21.1225 83.1623 21.0028C83.1291 21.0009 83.0956 21 83.0619 21H82.9381C82.9044 21 82.8709 21.0009 82.8377 21.0028C78.1162 21.1225 74.3119 25.0003 74.3119 29.75C74.3119 34.2177 74.8277 37.9918 75.3267 41.6417C76.7499 52.0542 77.8742 60.2785 65.8692 77.7593C61.0887 84.7206 59.2766 93.8888 60.6291 104.273C61.6795 112.338 64.7046 121.236 68.9285 128.684C70.4381 131.346 73.2479 133 76.261 133H89.7388C92.7516 133 95.5613 131.346 97.0713 128.684C101.295 121.236 104.32 112.338 105.371 104.273C106.723 93.889 104.911 84.7206 100.131 77.7593ZM79.0651 57.75H86.9349C87.2523 59.4134 87.7084 61.154 88.3392 63H77.661C78.2916 61.154 78.7477 59.4134 79.0651 57.75ZM83 24.5002C85.8665 24.5335 88.1881 26.8756 88.1881 29.75C88.1881 33.9797 87.6887 37.634 87.2055 41.1679C86.6094 45.5282 86.0467 49.6466 86.4479 54.25H79.5518C79.9532 49.6466 79.3904 45.528 78.7943 41.1679C78.3113 37.634 77.8117 33.9797 77.8117 29.75C77.8119 26.8758 80.1335 24.5337 83 24.5002ZM101.9 103.821C100.906 111.455 98.036 119.888 94.0267 126.957C93.1373 128.526 91.4945 129.5 89.739 129.5H76.2612C74.5057 129.5 72.8627 128.526 71.9732 126.957C67.964 119.888 65.0942 111.455 64.0998 103.821C62.8603 94.306 64.4701 85.9793 68.7546 79.7405C72.2051 74.7158 74.6295 70.3741 76.3036 66.4998H89.6964C91.3705 70.3738 93.7949 74.7158 97.2454 79.7405C101.53 85.9795 103.139 94.3062 101.9 103.821Z" fill="#431CB0"/>
<path d="M94.6537 87.491C94.9035 87.491 95.157 87.4372 95.3981 87.3239C96.2724 86.9122 96.6476 85.8697 96.2359 84.9951C95.6971 83.8508 95.066 82.7494 94.3606 81.7222C93.8132 80.9255 92.7239 80.7231 91.9272 81.2702C91.1305 81.8173 90.9282 82.9067 91.4752 83.7036C92.0742 84.5758 92.6106 85.512 93.0693 86.4863C93.3677 87.1196 93.997 87.491 94.6537 87.491Z" fill="#431CB0"/>
<path d="M96.4656 91.0199C95.5097 91.1623 94.8501 92.0528 94.9928 93.0088C95.4377 95.9949 95.4263 99.3285 94.9591 102.917C94.529 106.219 93.7096 109.676 92.5239 113.191C92.2151 114.107 92.707 115.099 93.6227 115.408C93.8082 115.471 93.9968 115.5 94.1823 115.5C94.9125 115.5 95.5939 115.04 95.8402 114.309C97.0987 110.578 97.9699 106.897 98.4298 103.369C98.939 99.4586 98.9473 95.7996 98.4545 92.4927C98.3118 91.537 97.4215 90.8777 96.4656 91.0199Z" fill="#431CB0"/>
<defs>
<linearGradient id="paint0_linear" x1="82.5" y1="0" x2="82.5" y2="165" gradientUnits="userSpaceOnUse">
<stop stop-color="#1EFFFF"/>
<stop offset="1" stop-color="#431CB0"/>
</linearGradient>
</defs>
</svg>
