<svg width="40" height="40" viewBox="0 0 40 40" fill="none" xmlns="http://www.w3.org/2000/svg">
<circle cx="20" cy="20" r="20" fill="#1EFFFF"/>
<path d="M19.4551 9C13.1238 9 8 14.1233 8 20.4551C8 26.7394 13.0773 32 19.4551 32C25.7731 32 31 26.7929 31 20.4551C31 14.0703 25.7326 9 19.4551 9ZM19.4551 30.6613C13.8818 30.6613 9.33867 26.0779 9.33867 20.4551C9.33867 14.8818 13.8818 10.3387 19.4551 10.3387C25.0779 10.3387 29.6613 14.8818 29.6613 20.4551C29.6613 26.0779 25.0779 30.6613 19.4551 30.6613Z" fill="#230E7A"/>
<path d="M19.4551 13.043C15.368 13.043 12.043 16.368 12.043 20.4551C12.043 24.5575 15.3612 27.957 19.4551 27.957C21.1115 27.957 22.7872 27.4003 24.0523 26.4296C24.3476 26.2031 24.4033 25.7801 24.1768 25.4848C23.9502 25.1896 23.5272 25.1339 23.232 25.3604C22.1975 26.1541 20.8208 26.6184 19.4551 26.6184C16.1111 26.6184 13.3906 23.8486 13.3906 20.4551C13.3906 17.1111 16.1111 14.3816 19.4551 14.3816C22.8486 14.3816 25.6094 17.1111 25.6094 20.4551V21.1289C25.6094 21.872 25.0048 22.4766 24.2617 22.4766C23.5186 22.4766 22.9141 21.872 22.9141 21.1289C22.9141 20.7951 22.9141 18.1118 22.9141 17.7598C22.9141 17.3876 22.6124 17.0859 22.2402 17.0859C21.8681 17.0859 21.5664 17.3876 21.5664 17.7598V17.8025C20.9579 17.3385 20.2218 17.0859 19.4551 17.0859C17.5973 17.0859 16.0859 18.5973 16.0859 20.4551C16.0859 22.3128 17.5973 23.8242 19.4551 23.8242C20.4624 23.8242 21.3894 23.392 22.0486 22.6647C22.536 23.3648 23.346 23.8242 24.2617 23.8242C25.7479 23.8242 26.957 22.6151 26.957 21.1289V20.4551C26.957 16.3558 23.5524 13.043 19.4551 13.043ZM19.4551 22.4855C18.3404 22.4855 17.4336 21.5697 17.4336 20.4551C17.4336 19.3404 18.3404 18.4246 19.4551 18.4246C20.5996 18.4246 21.5664 19.3593 21.5664 20.4551C21.5664 21.5509 20.5996 22.4855 19.4551 22.4855Z" fill="#230E7A"/>
</svg>
