<svg width="165" height="165" viewBox="0 0 165 165" fill="none" xmlns="http://www.w3.org/2000/svg">
<circle cx="82.5" cy="82.5" r="81.5" fill="white" stroke="url(#paint0_linear)" stroke-width="2"/>
<g clip-path="url(#clip0)">
<path d="M52.4208 72.2252C52.7566 73.2103 53.6174 73.9232 54.6479 74.0695C55.6931 74.2242 56.7361 73.7754 57.3426 72.9102L61.356 67.1702L88.0079 85.8301C88.3822 86.0926 88.6051 86.521 88.6054 86.9781V122.2C88.607 123.746 89.8597 124.998 91.4054 125H105.405C106.951 124.998 108.204 123.746 108.205 122.2V81.8687C108.203 78.2166 106.423 74.7944 103.433 72.6968L72.595 51.1007L76.6139 45.3764C77.217 44.5054 77.2784 43.369 76.7725 42.4382C76.2978 41.5306 75.3476 40.9726 74.3238 41L45.1357 41.042C44.2395 41.0718 43.4103 41.5243 42.9003 42.2619C42.3868 42.997 42.2598 43.9348 42.5593 44.78L52.4208 72.2252ZM74.3142 43.7795L69.4982 50.6396C69.2846 50.9438 69.2008 51.3204 69.2651 51.6865C69.3295 52.0526 69.5368 52.3781 69.8414 52.5912L101.827 74.9898C104.069 76.5628 105.405 79.1297 105.406 81.8688V122.2H91.406V86.9778C91.4054 85.6074 90.7371 84.3233 89.615 83.5366L61.8148 64.0727C61.5105 63.8596 61.134 63.7762 60.7682 63.8409C60.4024 63.9055 60.0773 64.1128 59.8644 64.4172L55.0642 71.3023L45.1795 43.842L74.3142 43.7795Z" fill="#431CB0"/>
</g>
<defs>
<linearGradient id="paint0_linear" x1="82.5" y1="0" x2="82.5" y2="165" gradientUnits="userSpaceOnUse">
<stop stop-color="#1EFFFF"/>
<stop offset="1" stop-color="#431CB0"/>
</linearGradient>
<clipPath id="clip0">
<rect width="84" height="84" fill="white" transform="translate(34 41)"/>
</clipPath>
</defs>
</svg>
