<svg width="130" height="130" viewBox="0 0 130 130" fill="none" xmlns="http://www.w3.org/2000/svg">
<circle cx="65" cy="65" r="63.5" fill="url(#paint0_linear)" stroke="url(#paint1_linear)" stroke-width="3"/>
<path d="M82.5938 62.3438C81.8606 62.3438 81.2656 62.9388 81.2656 63.6719C81.2656 64.405 81.8606 65 82.5938 65C83.3269 65 83.9219 64.405 83.9219 63.6719C83.9219 62.9388 83.3269 62.3438 82.5938 62.3438Z" fill="white"/>
<path d="M45.4062 62.3438C44.6731 62.3438 44.0781 62.9388 44.0781 63.6719C44.0781 64.405 44.6731 65 45.4062 65C46.1394 65 46.7344 64.405 46.7344 63.6719C46.7344 62.9388 46.1394 62.3438 45.4062 62.3438Z" fill="white"/>
<path d="M75.9531 67.6562H69.3125V61.0156C69.3125 60.2822 68.7178 59.6875 67.9844 59.6875H60.0156C59.2822 59.6875 58.6875 60.2822 58.6875 61.0156V67.6562H52.0469C51.3135 67.6562 50.7188 68.251 50.7188 68.9844V76.9531C50.7188 77.6865 51.3135 78.2812 52.0469 78.2812H58.6875V84.9219C58.6875 85.6553 59.2822 86.25 60.0156 86.25H67.9844C68.7178 86.25 69.3125 85.6553 69.3125 84.9219V78.2812H75.9531C76.6865 78.2812 77.2812 77.6865 77.2812 76.9531V68.9844C77.2812 68.251 76.6865 67.6562 75.9531 67.6562ZM74.625 75.625H67.9844C67.251 75.625 66.6562 76.2197 66.6562 76.9531V83.5938H61.3438V76.9531C61.3438 76.2197 60.749 75.625 60.0156 75.625H53.375V70.3125H60.0156C60.749 70.3125 61.3438 69.7178 61.3438 68.9844V62.3438H66.6562V68.9844C66.6562 69.7178 67.251 70.3125 67.9844 70.3125H74.625V75.625Z" fill="white"/>
<path d="M91.3594 49.0625H81.2656V41.0938C81.2656 36.6998 77.6908 33.125 73.2969 33.125H54.7031C50.3092 33.125 46.7344 36.6998 46.7344 41.0938V49.0625H36.6406C32.979 49.0625 30 52.0415 30 55.7031V90.2344C30 93.896 32.979 96.875 36.6406 96.875H91.3594C95.021 96.875 98 93.896 98 90.2344V55.7031C98 52.0415 95.021 49.0625 91.3594 49.0625ZM49.3906 41.0938C49.3906 38.1644 51.7738 35.7812 54.7031 35.7812H73.2969C76.2262 35.7812 78.6094 38.1644 78.6094 41.0938V49.0625H75.9531V42.4219C75.9531 40.2249 74.1657 38.4375 71.9688 38.4375H56.0312C53.8343 38.4375 52.0469 40.2249 52.0469 42.4219V49.0625H49.3906V41.0938ZM73.2969 42.4219V49.0625H54.7031V42.4219C54.7031 41.6895 55.2989 41.0938 56.0312 41.0938H71.9688C72.7011 41.0938 73.2969 41.6895 73.2969 42.4219ZM38.7656 94.2188H36.6406C34.4436 94.2188 32.6562 92.4314 32.6562 90.2344V55.7031C32.6562 53.5061 34.4436 51.7188 36.6406 51.7188H38.7656V94.2188ZM86.5781 94.2188H83.9219V68.9844C83.9219 68.251 83.3271 67.6562 82.5938 67.6562C81.8604 67.6562 81.2656 68.251 81.2656 68.9844V94.2188H46.7344V68.9844C46.7344 68.251 46.1396 67.6562 45.4062 67.6562C44.6729 67.6562 44.0781 68.251 44.0781 68.9844V94.2188H41.4219V51.7188H44.0781V58.3594C44.0781 59.0928 44.6729 59.6875 45.4062 59.6875C46.1396 59.6875 46.7344 59.0928 46.7344 58.3594V51.7188H81.2656V58.3594C81.2656 59.0928 81.8604 59.6875 82.5938 59.6875C83.3271 59.6875 83.9219 59.0928 83.9219 58.3594V51.7188H86.5781V94.2188ZM95.3438 90.2344C95.3438 92.4314 93.5564 94.2188 91.3594 94.2188H89.2344V51.7188H91.3594C93.5564 51.7188 95.3438 53.5061 95.3438 55.7031V90.2344Z" fill="white"/>
<defs>
<linearGradient id="paint0_linear" x1="65" y1="0" x2="65" y2="130" gradientUnits="userSpaceOnUse">
<stop stop-color="#431CB0"/>
<stop offset="1" stop-color="#3800D9"/>
</linearGradient>
<linearGradient id="paint1_linear" x1="10.6364" y1="28.7576" x2="117.394" y2="108.727" gradientUnits="userSpaceOnUse">
<stop stop-color="#8E1EFF"/>
<stop offset="1" stop-color="#3800D9"/>
</linearGradient>
</defs>
</svg>
