<svg width="130" height="130" viewBox="0 0 130 130" fill="none" xmlns="http://www.w3.org/2000/svg">
<circle cx="65" cy="65" r="63.5" fill="url(#paint0_linear)" stroke="url(#paint1_linear)" stroke-width="3"/>
<g clip-path="url(#clip0)">
<path d="M109.516 39.4268H99.125C99.125 38.6059 98.4615 37.9424 97.6406 37.9424C96.8198 37.9424 96.1562 38.6059 96.1562 39.4268H85.7627C84.9418 39.4268 84.2783 40.0903 84.2783 40.9111C84.2783 41.732 84.9418 42.3955 85.7627 42.3955H96.1562V46.8516H93.1875C92.3666 46.8516 91.7031 47.5151 91.7031 48.336V49.8233H82.7969V49.8174C82.7969 45.725 79.4674 42.3955 75.375 42.3955H51.628C47.5355 42.3955 44.2061 45.725 44.2061 49.8174V49.8233H35.2969V48.336C35.2969 47.5151 34.6334 46.8516 33.8125 46.8516H30.8438V42.3955H41.2373C42.0582 42.3955 42.7217 41.732 42.7217 40.9111C42.7217 40.0903 42.0582 39.4268 41.2373 39.4268H30.8438C30.8438 38.6059 30.1802 37.9424 29.3594 37.9424C28.5385 37.9424 27.875 38.6059 27.875 39.4268H17.4844C16.6635 39.4268 16 40.0903 16 40.9111C16 41.732 16.6635 42.3955 17.4844 42.3955H27.875V46.8516H24.9033C24.0824 46.8516 23.4189 47.5151 23.4189 48.336V58.7266C23.4189 59.5475 24.0824 60.211 24.9033 60.211H33.8125C34.6334 60.211 35.2969 59.5475 35.2969 58.7266V57.2422H44.2061V64.6641C44.2061 65.485 44.8696 66.1485 45.6905 66.1485H47.1748V69.1143C47.1748 69.9351 47.8384 70.5986 48.6592 70.5986H56.0811C56.902 70.5986 57.5655 69.9351 57.5655 69.1143V66.1485H62.0186V74.3719C60.4407 72.9558 58.3626 72.086 56.0811 72.086C51.1693 72.086 47.1748 76.0804 47.1748 80.9922C47.1748 84.2816 48.9709 87.1509 51.6295 88.6932V101.773C51.6295 102.594 52.293 103.258 53.1138 103.258H73.8891C74.71 103.258 75.3735 102.594 75.3735 101.773V98.8018H76.8579C76.8594 99.6211 77.5229 100.283 78.3423 100.283H82.7954C83.6162 100.283 84.2798 99.6196 84.2798 98.7988V91.3858C84.2798 90.565 83.6162 89.9014 82.7954 89.9014H78.3423C77.5229 89.9014 76.8594 90.5635 76.8579 91.3828H75.3735V88.6961C78.0335 87.1539 79.8311 84.2816 79.8311 80.9922C79.8311 76.0804 75.8366 72.086 70.9248 72.086C68.6434 72.086 66.5637 72.9558 64.9873 74.3719V66.1485H69.4375V69.1143C69.4375 69.9351 70.101 70.5986 70.9219 70.5986H78.3438C79.1646 70.5986 79.8281 69.9351 79.8281 69.1143V66.1485H81.3125C82.1334 66.1485 82.7969 65.485 82.7969 64.6641V57.2422H91.7031V58.7266C91.7031 59.5475 92.3666 60.211 93.1875 60.211H102.097C102.918 60.211 103.581 59.5475 103.581 58.7266V48.336C103.581 47.5151 102.918 46.8516 102.097 46.8516H99.125V42.3955H109.516C110.336 42.3955 111 41.732 111 40.9111C111 40.0903 110.336 39.4268 109.516 39.4268ZM56.0811 75.0547C59.3556 75.0547 62.0186 77.7177 62.0186 80.9922C62.0186 84.2668 59.3556 86.9297 56.0811 86.9297C52.8066 86.9297 50.1436 84.2668 50.1436 80.9922C50.1436 77.7177 52.8066 75.0547 56.0811 75.0547ZM81.311 97.3144H79.8266V92.8702H81.311V97.3144ZM76.8579 94.3516V95.833H75.3735V94.3516H76.8579ZM72.4048 100.289H54.5982V89.7649C55.0806 89.8465 55.5749 89.8985 56.0811 89.8985C59.1775 89.8985 61.9073 88.3087 63.503 85.9055C65.0987 88.3087 67.8284 89.8985 70.9248 89.8985C71.431 89.8985 71.9223 89.8465 72.4048 89.7649V100.289ZM70.9248 75.0547C74.1994 75.0547 76.8623 77.7177 76.8623 80.9922C76.8623 84.2668 74.1994 86.9297 70.9248 86.9297C67.6503 86.9297 64.9873 84.2668 64.9873 80.9922C64.9873 77.7177 67.6503 75.0547 70.9248 75.0547ZM47.1748 63.1797V61.6924H79.8281V63.1797H47.1748ZM70.9219 48.336H56.0811V45.3643H70.9219V48.336ZM51.628 45.3643H53.1123V49.8204C53.1123 50.6412 53.7759 51.3047 54.5967 51.3047H72.4062C73.2271 51.3047 73.8906 50.6412 73.8906 49.8204V45.3643H75.375C77.8302 45.3643 79.8281 47.3622 79.8281 49.8174V58.7236H47.1748V49.8174C47.1748 47.3622 49.1728 45.3643 51.628 45.3643ZM32.3281 57.2422H26.3877V49.8204H32.3281V57.2422ZM35.2969 54.2735V52.7921H44.2061V54.2735H35.2969ZM54.5967 67.6299H50.1436V66.1485H54.5967V67.6299ZM76.8594 67.6299H72.4062V66.1485H76.8594V67.6299ZM82.7969 54.2735V52.7921H91.7031V54.2735H82.7969ZM100.612 57.2422H94.6719V49.8204H100.612V57.2422Z" fill="white"/>
<path d="M56.1242 82.4766C56.9435 82.4766 57.6085 81.813 57.6085 80.9922C57.6085 80.1713 56.9435 79.5078 56.1242 79.5078H56.1078C55.2885 79.5078 54.6324 80.1713 54.6324 80.9922C54.6324 81.813 55.3048 82.4766 56.1242 82.4766Z" fill="white"/>
<path d="M70.9679 82.4766C71.7873 82.4766 72.4523 81.813 72.4523 80.9922C72.4523 80.1713 71.7873 79.5078 70.9679 79.5078H70.9516C70.1322 79.5078 69.4761 80.1713 69.4761 80.9922C69.4761 81.813 70.1485 82.4766 70.9679 82.4766Z" fill="white"/>
</g>
<defs>
<linearGradient id="paint0_linear" x1="65" y1="0" x2="65" y2="130" gradientUnits="userSpaceOnUse">
<stop stop-color="#431CB0"/>
<stop offset="1" stop-color="#3800D9"/>
</linearGradient>
<linearGradient id="paint1_linear" x1="10.6364" y1="28.7576" x2="117.394" y2="108.727" gradientUnits="userSpaceOnUse">
<stop stop-color="#8E1EFF"/>
<stop offset="1" stop-color="#3800D9"/>
</linearGradient>
<clipPath id="clip0">
<rect width="95" height="95" fill="white" transform="translate(16 9)"/>
</clipPath>
</defs>
</svg>
