<svg width="195" height="127" viewBox="0 0 195 127" fill="none" xmlns="http://www.w3.org/2000/svg">
<path d="M182.78 93.3416H15.188V102.016H182.78V93.3416Z" fill="white"/>
<path d="M18.5049 4.33727C18.5049 4.33727 19.2032 4.85776 18.5049 8.6747C17.8066 12.4916 12.0457 37.4753 14.4897 53.09C16.9338 68.7048 19.5524 71.6542 22.8693 71.1337C25.3133 70.4397 24.615 67.8373 25.6625 60.7239C26.5354 53.2635 29.154 39.9042 30.8997 35.2198C32.1218 30.7089 31.4235 34.8728 31.2489 39.5572C30.8997 44.9356 31.2489 57.4274 33.8675 66.7963C35.9624 74.4302 40.1522 75.6446 42.0725 71.8277C41.0251 72.1747 37.1844 69.0518 36.3115 59.3359C35.4387 49.6201 36.3115 33.8318 39.9776 21.687C42.2471 14.4001 45.0403 7.63372 43.12 5.72525C41.7234 4.33727 37.359 6.07224 37.359 6.07224C37.359 6.07224 37.5336 7.46022 36.8353 11.1037C36.3115 14.2266 35.7878 14.5736 33.1692 21.34C30.5506 28.1064 27.2337 38.1692 25.8371 46.3236C24.9642 51.8755 23.5676 61.0709 23.2184 66.1023C23.2184 66.7963 21.9964 65.2348 21.4727 62.1119C19.5524 52.396 20.949 29.1474 22.8693 21.34C24.7896 13.5326 27.7574 7.63372 25.8371 5.37825C23.9167 3.12279 18.5049 4.33727 18.5049 4.33727Z" fill="#3B2E59"/>
<path d="M0 21.5136C0 21.5136 4.18979 25.1571 9.07789 21.6871C15.8863 16.6557 26.0116 12.8388 32.4709 10.9303C38.9302 9.02181 47.4843 6.93984 52.1979 7.46034C56.2131 7.98083 55.1656 10.0628 55.1656 10.0628C55.1656 10.0628 59.0063 5.72536 50.103 4.16389C41.1996 2.60241 23.2184 5.72536 12.9185 11.1038C4.01522 15.6147 1.57117 21.3401 0 21.5136Z" fill="#3B2E59"/>
<path d="M38.4064 49.7935C37.7081 53.437 37.8827 65.2348 42.0725 70.6132C46.2623 75.9916 50.103 74.4302 53.0707 70.6132C56.5622 66.2758 57.6097 57.2539 56.7368 50.8345C55.6893 43.7211 50.6267 42.1597 46.2623 43.0271C41.7234 43.8946 38.4064 51.1815 42.7708 51.8755C42.5962 50.4875 43.6437 47.0176 47.3098 46.1501C50.8013 45.2826 54.1182 48.9261 54.4673 54.3045C54.8165 60.2034 54.2927 64.8878 51.325 69.0517C48.7064 72.8687 43.9928 69.0517 43.12 60.7239C42.2471 52.396 45.2149 50.314 43.4691 49.4465C41.7234 48.4056 39.6285 48.9261 38.4064 49.7935Z" fill="#3B2E59"/>
<path d="M63.8944 4.33746C63.8944 4.33746 64.9418 7.28691 64.2435 11.9713C63.5452 16.4823 57.9588 48.0588 59.0063 59.1626C60.0537 70.2664 62.1486 72.1749 62.1486 72.1749C62.1486 72.1749 64.2435 71.3074 64.2435 69.0519C64.0689 66.7965 60.752 56.7336 62.3232 46.8443C65.1164 28.9741 69.8299 15.7883 70.3536 9.88937C70.5282 3.99046 67.735 2.42899 63.8944 4.33746Z" fill="#3B2E59"/>
<path d="M77.6858 23.5956C77.6858 23.5956 77.8603 26.0246 75.5909 31.9235C72.7977 39.3839 67.2113 52.9166 61.1012 56.9071C60.2283 58.4686 62.8469 60.8975 67.3859 64.541C72.6231 68.7049 78.9078 70.7869 83.0976 59.8565C79.9552 63.5 77.162 66.4494 72.4485 63.153C67.5604 59.8565 65.9893 58.1216 65.9893 58.1216C65.9893 58.1216 72.4485 51.8757 78.0349 40.5983C83.6213 29.4945 83.7959 26.0246 82.3993 24.2896C81.0027 22.5546 77.6858 23.5956 77.6858 23.5956Z" fill="#3B2E59"/>
<path d="M79.9552 46.6708C79.9552 46.6708 78.384 53.2637 79.0823 59.6831C79.7806 66.4495 82.3993 72.1749 86.2399 71.3074C90.0806 70.4399 92.1755 61.9386 92.6992 54.1312C93.0483 46.3238 90.7789 40.5984 84.8433 40.9454C81.3518 41.1189 81.1772 43.7213 81.1772 43.7213C81.1772 43.7213 83.4467 42.6804 85.7162 43.7213C88.1602 44.7623 89.3823 46.4973 89.7314 52.3962C90.0806 58.2951 88.8585 63.5 87.6365 66.276C86.4145 68.8784 83.2721 68.5314 83.4467 58.2951C83.6213 49.9672 84.145 48.0588 84.4942 47.1913C85.0179 45.8033 83.0976 44.9358 79.9552 46.6708Z" fill="#3B2E59"/>
<path d="M90.0806 73.0422C90.0806 73.0422 92.1755 72.6952 93.3975 64.3673C94.0958 59.1624 95.3178 41.8126 101.253 24.2894C107.363 6.4192 108.236 5.37821 108.935 3.46974C109.633 1.56127 110.157 0.693786 111.902 1.38778C113.648 2.08176 113.299 3.99023 112.077 8.84816C110.855 13.7061 105.443 33.6583 105.792 43.5476C105.967 48.0585 106.491 56.9069 109.633 61.0708C112.775 65.2348 113.124 63.8468 115.045 60.7238C115.918 59.3359 115.568 60.3769 115.568 60.3769C115.568 60.3769 115.743 64.5408 111.902 65.4083C108.062 66.2758 101.952 59.8564 102.301 45.4561C102.475 31.0558 107.887 12.6651 108.935 8.67466C109.982 4.68422 111.03 2.94925 107.887 10.5831C105.094 17.523 101.253 29.4943 98.9839 47.5381C97.7619 57.0804 97.9364 66.9697 97.0636 71.3072C95.667 77.0326 90.0806 73.0422 90.0806 73.0422Z" fill="#3B2E59"/>
<path d="M127.614 61.071C127.614 61.071 126.392 68.8783 120.107 68.3578C115.394 68.0109 110.506 61.071 113.648 45.6297C116.616 30.5354 120.282 32.0969 122.726 32.4439C125.17 32.7909 126.916 35.7404 125.345 43.3742C123.774 51.0081 122.202 58.8155 115.219 59.5095C117.838 57.4275 120.806 52.5696 122.377 44.0682C123.948 35.5669 122.726 34.0054 121.155 35.0464C119.758 36.2609 116.616 44.5887 116.791 52.5696C116.965 60.377 118.187 66.1024 122.726 65.0614C125.519 64.7144 127.614 61.071 127.614 61.071Z" fill="#3B2E59"/>
<path d="M111.553 1.38786C111.553 1.38786 107.014 -1.0411 98.9839 0.693874C88.5094 2.94934 69.8299 12.3182 82.0501 15.7881C83.0976 11.2772 91.8263 6.24579 96.889 4.16382C101.952 2.08185 107.363 1.38786 110.506 1.90836C113.124 2.60234 111.553 1.38786 111.553 1.38786Z" fill="#3B2E59"/>
<path d="M131.28 22.381C131.28 22.381 132.328 23.9425 132.153 28.2799C131.979 33.8319 131.28 57.254 132.153 66.4493C131.979 67.8373 135.121 67.1433 135.295 65.9288C135.47 63.4999 136.168 48.7526 136.517 41.4657C136.867 34.1789 138.089 25.851 136.692 22.728C135.295 19.4316 131.28 22.381 131.28 22.381Z" fill="#3B2E59"/>
<path d="M142.278 28.28C142.278 28.28 142.977 28.8005 142.104 40.0778C141.231 51.3551 141.231 53.7841 141.406 64.1939C141.755 74.0833 148.039 77.5532 152.229 61.765C154.848 51.7021 155.546 42.6803 155.546 42.6803C155.546 42.6803 153.102 51.0081 151.88 57.0805C150.483 63.1529 144.897 76.6857 144.897 62.9794C144.897 49.0997 148.039 33.6584 147.69 30.7089C147.341 27.7595 144.548 27.239 142.278 28.28Z" fill="#3B2E59"/>
<path d="M154.15 31.2294C154.15 31.2294 154.673 33.8319 154.499 37.1283C154.499 41.4658 152.229 60.724 154.499 64.7144C156.768 68.7048 160.085 63.1529 162.704 53.2636C165.497 42.5068 166.893 31.7499 166.893 31.7499C166.893 31.7499 164.449 39.3838 162.704 47.5382C160.958 55.3456 156.419 68.0109 157.466 56.213C158.688 43.0273 159.387 35.9139 159.561 32.6174C159.387 30.015 156.419 29.8415 154.15 31.2294Z" fill="#3B2E59"/>
<path d="M166.021 30.3618C166.021 30.3618 165.846 39.2101 164.973 49.7935C164.449 56.9069 165.846 65.2347 169.861 66.2757C173.876 67.3167 176.321 61.9383 176.321 61.9383C176.321 61.9383 173.876 64.7142 171.607 64.0203C169.338 63.3263 167.243 60.8973 169.512 42.5066C171.083 31.2293 172.48 27.5858 166.021 30.3618Z" fill="#3B2E59"/>
<path d="M178.241 53.437C178.241 53.437 182.78 49.4466 184.526 45.1091C186.795 39.2102 185.573 38.1692 183.129 39.5572C180.51 40.9452 176.495 46.6706 176.67 54.825C177.019 62.9793 184.351 67.1433 190.286 63.1528C193.429 61.0709 195 57.7744 195 57.7744C195 57.7744 194.651 64.3673 188.192 66.7963C182.256 69.2252 174.924 64.7143 173.178 58.9889C171.258 53.09 172.829 41.9862 179.288 37.4752C185.748 32.9643 189.588 36.6078 187.668 42.8537C185.573 49.4466 182.605 52.2225 178.241 53.437Z" fill="#3B2E59"/>
<path d="M140.882 43.8947C149.96 42.1597 152.229 49.6201 149.96 51.1816C149.96 51.1816 144.373 45.4562 132.851 49.2731C123.948 52.2226 121.329 56.3865 120.282 57.254C121.329 55.519 124.297 47.1912 140.882 43.8947Z" fill="#3B2E59"/>
<path d="M140.882 96.464C140.533 96.2905 140.358 96.2905 140.009 96.2905C139.66 96.2905 139.311 96.2905 139.136 96.464C138.962 96.6375 138.612 96.811 138.438 97.158C138.263 97.505 138.263 97.852 138.263 98.199C138.263 98.546 138.263 98.893 138.438 99.24C138.612 99.587 138.787 99.7605 139.136 99.934C139.485 100.107 139.66 100.107 140.009 100.107C140.358 100.107 140.707 100.107 140.882 99.934C141.231 99.7605 141.406 99.587 141.58 99.24C141.755 98.893 141.755 98.546 141.755 98.199C141.755 97.852 141.755 97.505 141.58 97.158C141.406 96.811 141.056 96.6375 140.882 96.464Z" fill="#E60471"/>
<path d="M15.188 90.7388V104.966H187.319V90.7388H15.188ZM25.6625 100.975H24.2659V99.4136H23.0439L21.9964 100.975H20.5998L21.8219 99.2401C21.4727 99.0666 21.1236 98.8931 20.949 98.5461C20.7744 98.1992 20.5998 97.8522 20.5998 97.3317C20.5998 96.8112 20.7744 96.4642 20.949 96.1172C21.1236 95.7702 21.4727 95.5967 21.8219 95.4232C22.171 95.2497 22.6947 95.0762 23.2185 95.0762H25.8371V100.975H25.6625ZM37.7082 98.5461H29.3286V97.6787H37.7082V98.5461ZM45.564 96.2907H42.7708V100.975H41.3742V95.0762H45.564V96.2907ZM51.4996 98.3727C51.325 98.7196 50.9758 98.8931 50.6267 99.0666C50.2775 99.2401 49.7538 99.2401 49.2301 99.2401H48.0081V100.802H46.6115V94.9027H49.2301C49.7538 94.9027 50.2775 95.0762 50.6267 95.2497C50.9758 95.4232 51.325 95.5967 51.4996 95.9437C51.6741 96.2907 51.8487 96.6377 51.8487 97.1582C51.6741 97.6787 51.6741 98.0257 51.4996 98.3727ZM57.086 100.975L56.5622 99.7606H53.769L53.2453 100.975H51.8487L54.4673 95.0762H55.8639L58.4826 100.975H57.086ZM65.9893 100.975L64.5927 98.7196H63.7198V101.149H62.3232V98.7196H61.4503L60.0537 101.149H58.4826L60.2283 98.0257L58.4826 95.2497H59.8792L61.2757 97.6787H62.1486V95.2497H63.5452V97.6787H64.4181L65.8147 95.2497H67.2113L65.6401 98.0257L67.3859 101.149H65.9893V100.975ZM74.718 102.19H73.496V100.975H69.3062V102.19H68.0842V99.9341H68.2587C68.6079 99.9341 68.7825 99.5871 68.957 99.2401C69.1316 98.7196 69.1316 98.0257 69.3062 97.1582V95.2497H73.8451V99.9341H74.718V102.19ZM80.479 100.975L79.9553 99.7606H77.1621L76.6383 100.975H75.2417L77.8604 95.0762H79.257L81.8756 100.975H80.479ZM88.3348 100.975H86.9382V98.5461H84.3196V100.975H82.923V95.0762H84.3196V97.3317H86.9382V95.0762H88.3348V100.975ZM95.667 100.975H94.2704V97.1582L91.4772 100.975H90.2552V95.0762H91.6518V98.8931L94.445 95.0762H95.667V100.975ZM102.65 100.975H101.253V98.5461H98.6348V100.975H97.2382V95.0762H98.6348V97.3317H101.253V95.0762H102.65V100.975ZM112.426 100.975H111.03V96.2907H108.411V100.975H107.014V95.0762H112.426V100.975ZM119.933 99.5871C119.584 100.108 119.235 100.455 118.711 100.628C118.187 100.802 117.663 100.975 117.14 100.975C116.441 100.975 115.918 100.802 115.394 100.628C114.87 100.281 114.521 99.9341 114.172 99.5871C113.823 99.0666 113.823 98.5461 113.823 98.0257C113.823 97.5052 113.997 96.9847 114.172 96.4642C114.521 95.9437 114.87 95.5967 115.394 95.4232C115.918 95.0762 116.441 95.0762 117.14 95.0762C117.838 95.0762 118.362 95.2497 118.711 95.4232C119.235 95.7702 119.584 96.1172 119.933 96.4642C120.282 96.9847 120.282 97.5052 120.282 98.0257C120.282 98.7196 120.107 99.2401 119.933 99.5871ZM127.44 102.19H126.218V100.975H122.028V102.19H120.806V99.9341H120.98C121.329 99.9341 121.504 99.5871 121.679 99.2401C121.853 98.7196 121.853 98.0257 122.028 97.1582V95.2497H126.567V99.9341H127.44V102.19ZM134.073 100.975V97.5052L132.328 100.455H131.804L130.058 97.6787V101.149H128.836V95.2497H129.884L132.153 98.8931L134.248 95.2497H135.295V101.149H134.073V100.975ZM142.802 99.5871C142.453 100.108 142.104 100.455 141.58 100.628C141.056 100.975 140.533 100.975 140.009 100.975C139.311 100.975 138.787 100.802 138.263 100.628C137.739 100.455 137.39 99.9341 137.041 99.5871C136.692 99.0666 136.692 98.5461 136.692 98.0257C136.692 97.5052 136.867 96.9847 137.041 96.4642C137.39 95.9437 137.739 95.5967 138.263 95.4232C138.787 95.0762 139.311 95.0762 140.009 95.0762C140.707 95.0762 141.231 95.2497 141.58 95.4232C142.104 95.7702 142.453 96.1172 142.802 96.4642C143.151 96.9847 143.151 97.5052 143.151 98.0257C143.151 98.7196 142.977 99.2401 142.802 99.5871ZM145.595 99.0666C145.77 99.4136 145.945 99.5871 146.294 99.7606C146.643 99.9341 146.992 99.9341 147.341 99.9341C147.865 99.9341 148.389 99.7606 148.912 99.2401L149.785 100.108C149.436 100.455 149.087 100.628 148.738 100.975C148.389 101.149 147.865 101.322 147.341 101.322C146.817 101.322 146.119 101.149 145.77 100.975C145.246 100.628 144.897 100.281 144.548 99.9341C144.199 99.4136 144.199 98.8931 144.199 98.3727C144.199 97.8522 144.373 97.3317 144.548 96.8112C144.897 96.2907 145.246 95.9437 145.77 95.7702C146.294 95.4232 146.817 95.4232 147.341 95.4232C147.865 95.4232 148.389 95.5967 148.738 95.7702C149.087 95.9437 149.436 96.2907 149.785 96.4642L148.912 97.3317C148.563 96.8112 148.039 96.6377 147.341 96.6377C146.992 96.6377 146.643 96.6377 146.294 96.8112C145.945 96.9847 145.77 97.1582 145.595 97.5052C145.421 97.8522 145.421 98.1992 145.421 98.5461C145.421 98.5461 145.595 98.7196 145.595 99.0666ZM154.673 100.975L153.102 98.5461H152.229V100.975H150.833V95.0762H152.229V97.5052H153.277L154.848 95.0762H156.244L154.324 97.8522L156.244 100.975H154.673ZM162.704 99.5871C162.355 100.108 162.005 100.455 161.482 100.628C160.958 100.975 160.434 100.975 159.91 100.975C159.212 100.975 158.688 100.802 158.165 100.628C157.641 100.455 157.292 99.9341 156.943 99.5871C156.594 99.0666 156.594 98.5461 156.594 98.0257C156.594 97.5052 156.768 96.9847 156.943 96.4642C157.292 95.9437 157.641 95.5967 158.165 95.4232C158.688 95.0762 159.212 95.0762 159.91 95.0762C160.609 95.0762 161.133 95.2497 161.482 95.4232C162.005 95.7702 162.355 96.1172 162.704 96.4642C163.053 96.9847 163.053 97.5052 163.053 98.0257C163.227 98.7196 163.053 99.2401 162.704 99.5871ZM169.163 100.628C168.814 100.975 168.116 101.149 167.417 101.149H164.449V95.2497H167.243C167.941 95.2497 168.465 95.4232 168.814 95.5967C169.163 95.9437 169.338 96.2907 169.338 96.6377C169.338 96.9847 169.338 97.1582 169.163 97.3317C168.988 97.5052 168.814 97.6787 168.465 97.8522C168.814 98.0257 169.163 98.1992 169.338 98.3727C169.512 98.5461 169.687 98.8931 169.687 99.2401C169.687 99.9341 169.512 100.281 169.163 100.628ZM175.448 100.455C175.098 100.802 174.4 100.975 173.702 100.975H171.083V95.0762H172.48V97.1582H174.051C174.749 97.1582 175.273 97.3317 175.797 97.6787C176.146 98.0257 176.321 98.5461 176.321 99.0666C176.146 99.5871 175.971 100.108 175.448 100.455ZM181.732 100.975H180.336V99.4136H179.114L178.066 100.975H176.67L177.892 99.2401C177.543 99.0666 177.193 98.8931 177.019 98.5461C176.844 98.1992 176.67 97.8522 176.67 97.3317C176.67 96.8112 176.844 96.4642 177.019 96.1172C177.193 95.7702 177.543 95.5967 177.892 95.4232C178.241 95.2497 178.765 95.0762 179.288 95.0762H181.907V100.975H181.732Z" fill="#E60471"/>
<path d="M123.25 97.158C123.25 97.852 123.075 98.3725 123.075 98.893C122.901 99.4135 122.901 99.7605 122.726 99.934H125.345V96.2905H123.25V97.158Z" fill="#E60471"/>
<path d="M160.783 96.464C160.434 96.2905 160.26 96.2905 159.911 96.2905C159.561 96.2905 159.212 96.2905 159.038 96.464C158.863 96.6375 158.514 96.811 158.339 97.158C158.165 97.505 158.165 97.852 158.165 98.199C158.165 98.546 158.165 98.893 158.339 99.24C158.514 99.587 158.688 99.7605 159.038 99.934C159.387 100.107 159.561 100.107 159.911 100.107C160.26 100.107 160.609 100.107 160.783 99.934C161.133 99.7605 161.307 99.587 161.482 99.24C161.656 98.893 161.656 98.546 161.656 98.199C161.656 97.852 161.656 97.505 161.482 97.158C161.307 96.811 161.133 96.6375 160.783 96.464Z" fill="#E60471"/>
<path d="M50.103 96.4642C49.9284 96.2907 49.5792 96.1172 49.2301 96.1172H48.1826V98.1991H49.2301C49.5792 98.1991 49.9284 98.0257 50.103 97.8522C50.2775 97.6787 50.4521 97.5052 50.4521 97.1582C50.2775 96.9847 50.2775 96.6377 50.103 96.4642Z" fill="#E60471"/>
<path d="M118.013 96.464C117.663 96.2905 117.489 96.2905 117.14 96.2905C116.791 96.2905 116.441 96.2905 116.267 96.464C115.918 96.6375 115.743 96.811 115.569 97.158C115.219 97.3315 115.219 97.6785 115.219 98.0255C115.219 98.3725 115.219 98.7195 115.394 99.0665C115.569 99.4135 115.743 99.587 116.092 99.7605C116.441 99.934 116.616 99.934 116.965 99.934C117.314 99.934 117.663 99.934 117.838 99.7605C118.187 99.587 118.362 99.4135 118.536 99.0665C118.711 98.7195 118.711 98.3725 118.711 98.0255C118.711 97.6785 118.711 97.3315 118.536 96.9845C118.536 96.811 118.187 96.6375 118.013 96.464Z" fill="#E60471"/>
<path d="M70.5282 97.158C70.5282 97.852 70.3536 98.3725 70.3536 98.893C70.1791 99.4135 70.1791 99.7605 70.0045 99.934H72.6231V96.2905H70.5282V97.158Z" fill="#E60471"/>
<path d="M54.2928 98.7196H56.2131L55.1657 96.4641L54.2928 98.7196Z" fill="#E60471"/>
<path d="M77.6858 98.7196H79.6061L78.5587 96.4641L77.6858 98.7196Z" fill="#E60471"/>
<path d="M167.766 97.3317C167.941 97.1582 167.941 96.9847 167.941 96.8112C167.941 96.6377 167.941 96.4642 167.766 96.2907C167.592 96.1172 167.417 96.1172 167.068 96.1172H165.846V97.5052H167.068C167.417 97.6787 167.592 97.5052 167.766 97.3317Z" fill="#E60471"/>
<path d="M173.527 98.0256H172.305V99.9341H173.527C173.876 99.9341 174.226 99.9341 174.4 99.5871C174.575 99.4136 174.749 99.2401 174.749 98.8931C174.749 98.3726 174.4 98.0256 173.527 98.0256Z" fill="#E60471"/>
<path d="M21.9964 97.3316C21.9964 97.6786 22.171 97.8521 22.3456 98.1991C22.5202 98.3726 22.8693 98.5461 23.2185 98.5461H24.4405V96.4641H23.2185C22.8693 96.4641 22.5202 96.6376 22.3456 96.8111C21.9964 96.6376 21.9964 96.9846 21.9964 97.3316Z" fill="#E60471"/>
<path d="M167.243 98.5461H165.846V100.108H167.417C168.116 100.108 168.465 99.9341 168.465 99.4136C168.29 98.7196 167.941 98.5461 167.243 98.5461Z" fill="#E60471"/>
<path d="M178.066 97.3316C178.066 97.6786 178.241 97.8521 178.415 98.1991C178.59 98.3726 178.939 98.5461 179.288 98.5461H180.51V96.4641H179.288C178.939 96.4641 178.59 96.6376 178.415 96.8111C178.066 96.6376 178.066 96.9846 178.066 97.3316Z" fill="#E60471"/>
<path d="M140.533 87.616C139.66 83.1051 138.089 77.7267 120.631 76.3387C103.174 74.9507 79.4315 78.7676 70.5282 79.6351C61.7995 80.3291 59.8791 79.2881 60.4029 75.4712C60.4029 75.4712 57.7842 78.7676 59.0063 81.5436C60.9266 86.228 67.5604 86.575 76.8129 84.4931C96.3653 79.9821 119.933 81.0231 123.075 82.7581C119.06 83.7991 110.506 86.575 101.253 90.5655H113.997C124.297 87.4425 135.994 85.0135 140.533 87.616Z" fill="#3B2E59"/>
<path d="M76.2892 105.139C65.4655 112.773 57.6097 119.193 56.3876 120.928C54.8165 123.01 54.6419 124.571 56.9114 125.785C59.1808 127.173 61.7995 127.52 70.179 125.439C81.3518 122.663 86.9382 120.407 100.38 117.631C132.677 111.038 140.009 116.937 142.977 120.754C145.421 123.877 145.246 124.745 145.246 124.745C145.246 124.745 149.087 121.795 146.643 117.805C143.5 112.773 137.041 106.18 105.618 109.65C89.906 111.385 64.0689 118.846 64.0689 118.846C64.0689 118.846 73.3214 111.906 84.145 104.966H76.2892V105.139Z" fill="#3B2E59"/>
</svg>
