<svg width="59" height="59" viewBox="0 0 59 59" fill="none" xmlns="http://www.w3.org/2000/svg">
<path d="M35.1465 29.5C35.1465 32.6185 32.6185 35.1465 29.5 35.1465C26.3815 35.1465 23.8535 32.6185 23.8535 29.5C23.8535 26.3815 26.3815 23.8535 29.5 23.8535C32.6185 23.8535 35.1465 26.3815 35.1465 29.5Z" fill="white"/>
<path d="M42.7051 19.5096C42.4337 18.7741 42.0006 18.1083 41.438 17.5619C40.8915 16.9992 40.2262 16.5662 39.4902 16.2947C38.8934 16.0629 37.9967 15.787 36.3452 15.7118C34.5586 15.6303 34.0229 15.6128 29.5 15.6128C24.9766 15.6128 24.4409 15.6299 22.6548 15.7114C21.0032 15.787 20.1061 16.0629 19.5097 16.2947C18.7737 16.5662 18.108 16.9992 17.562 17.5619C16.9993 18.1083 16.5663 18.7736 16.2944 19.5096C16.0626 20.1065 15.7866 21.0036 15.7115 22.6551C15.63 24.4413 15.6124 24.9769 15.6124 29.5003C15.6124 34.0233 15.63 34.5589 15.7115 36.3455C15.7866 37.9971 16.0626 38.8937 16.2944 39.4906C16.5663 40.2266 16.9988 40.8919 17.5615 41.4383C18.108 42.001 18.7733 42.434 19.5092 42.7055C20.1061 42.9377 21.0032 43.2137 22.6548 43.2888C24.4409 43.3703 24.9761 43.3874 29.4995 43.3874C34.0234 43.3874 34.559 43.3703 36.3447 43.2888C37.9963 43.2137 38.8934 42.9377 39.4902 42.7055C40.9676 42.1356 42.1352 40.968 42.7051 39.4906C42.9369 38.8937 43.2129 37.9971 43.2885 36.3455C43.37 34.5589 43.3871 34.0233 43.3871 29.5003C43.3871 24.9769 43.37 24.4413 43.2885 22.6551C43.2133 21.0036 42.9374 20.1065 42.7051 19.5096ZM29.5 38.1983C24.6957 38.1983 20.8011 34.3042 20.8011 29.4999C20.8011 24.6956 24.6957 20.8015 29.5 20.8015C34.3038 20.8015 38.1984 24.6956 38.1984 29.4999C38.1984 34.3042 34.3038 38.1983 29.5 38.1983ZM38.5423 22.4904C37.4196 22.4904 36.5095 21.5802 36.5095 20.4576C36.5095 19.335 37.4196 18.4248 38.5423 18.4248C39.6649 18.4248 40.5751 19.335 40.5751 20.4576C40.5746 21.5802 39.6649 22.4904 38.5423 22.4904Z" fill="white"/>
<path d="M29.5 0C13.2101 0 0 13.2101 0 29.5C0 45.7899 13.2101 59 29.5 59C45.7899 59 59 45.7899 59 29.5C59 13.2101 45.7899 0 29.5 0ZM46.3373 36.4838C46.2553 38.2871 45.9686 39.5182 45.55 40.5958C44.67 42.8712 42.8712 44.67 40.5958 45.55C39.5186 45.9686 38.2871 46.2549 36.4843 46.3373C34.6779 46.4196 34.1008 46.4395 29.5005 46.4395C24.8996 46.4395 24.323 46.4196 22.5162 46.3373C20.7134 46.2549 19.4818 45.9686 18.4046 45.55C17.2739 45.1246 16.2503 44.458 15.404 43.596C14.5425 42.7502 13.8758 41.7261 13.4505 40.5958C13.0318 39.5186 12.7451 38.2871 12.6632 36.4843C12.5799 34.6774 12.5605 34.1004 12.5605 29.5C12.5605 24.8996 12.5799 24.3226 12.6627 22.5162C12.7447 20.7129 13.0309 19.4818 13.4496 18.4042C13.8749 17.2739 14.542 16.2498 15.404 15.404C16.2498 14.542 17.2739 13.8754 18.4042 13.45C19.4818 13.0314 20.7129 12.7451 22.5162 12.6627C24.3226 12.5804 24.8996 12.5605 29.5 12.5605C34.1004 12.5605 34.6774 12.5804 36.4838 12.6632C38.2871 12.7451 39.5182 13.0314 40.5958 13.4496C41.7261 13.8749 42.7502 14.542 43.5964 15.404C44.458 16.2503 45.1251 17.2739 45.55 18.4042C45.9691 19.4818 46.2553 20.7129 46.3377 22.5162C46.4201 24.3226 46.4395 24.8996 46.4395 29.5C46.4395 34.1004 46.4201 34.6774 46.3373 36.4838Z" fill="white"/>
</svg>
