<svg id="Layer_1" data-name="Layer 1" xmlns="http://www.w3.org/2000/svg" viewBox="0 0 382.68 95.24"><defs><style>.cls-1{fill:#fff;}</style></defs><title>MTS_Logo_rus_w_RGB</title><path class="cls-1" d="M71.43,37.42c-7.1,0-15.52,6.82-22.46,18.3C41.74,67.6,37.42,82.32,37.42,95.09c0,18.71,10.5,37.57,34,37.57s34-18.86,34-37.57c0-12.77-4.32-27.49-11.52-39.37C86.93,44.24,78.51,37.42,71.43,37.42Z" transform="translate(-37.42 -37.42)"/><polygon class="cls-1" points="217.7 28.06 241.51 28.06 241.51 90.14 267.02 90.14 267.02 28.06 290.83 28.06 290.83 5.1 217.7 5.1 217.7 28.06"/><path class="cls-1" d="M382.67,65.48h37.42v-23H382.68c-34.38,0-52.74,17.09-52.74,42.52s18.36,42.52,52.74,42.52h37.41v-23H382.67c-15.9,0-26.37-5.69-26.37-19.56S366.77,65.48,382.67,65.48Z" transform="translate(-37.42 -37.42)"/><polygon class="cls-1" points="165.81 5.1 152.22 55.86 138.61 5.1 93.54 5.1 93.54 90.14 119.06 90.14 119.06 20.97 137.59 90.14 166.84 90.14 185.39 20.93 185.39 90.14 210.9 90.14 210.9 5.1 165.81 5.1"/></svg>