<?xml version="1.0" encoding="UTF-8" standalone="no"?>
<!-- Created with Inkscape (http://www.inkscape.org/) -->

<svg
   xmlns:dc="http://purl.org/dc/elements/1.1/"
   xmlns:cc="http://creativecommons.org/ns#"
   xmlns:rdf="http://www.w3.org/1999/02/22-rdf-syntax-ns#"
   xmlns:svg="http://www.w3.org/2000/svg"
   xmlns="http://www.w3.org/2000/svg"
   xmlns:sodipodi="http://sodipodi.sourceforge.net/DTD/sodipodi-0.dtd"
   xmlns:inkscape="http://www.inkscape.org/namespaces/inkscape"
   width="210mm"
   height="297mm"
   viewBox="0 0 210 297"
   version="1.1"
   id="svg386"
   inkscape:export-filename="C:\Users\пользователь\Desktop\GGGGGGGGGGGGGGGGg.png"
   inkscape:export-xdpi="62.96109"
   inkscape:export-ydpi="62.96109"
   inkscape:version="0.92.1 r15371"
   sodipodi:docname="Логотип Умная Механика прозрачный фон.svg">
  <defs
     id="defs380" />
  <sodipodi:namedview
     id="base"
     pagecolor="#ffffff"
     bordercolor="#666666"
     borderopacity="1.0"
     inkscape:pageopacity="0.0"
     inkscape:pageshadow="2"
     inkscape:zoom="0.35"
     inkscape:cx="-27.142857"
     inkscape:cy="445.71429"
     inkscape:document-units="mm"
     inkscape:current-layer="layer1"
     showgrid="false"
     inkscape:window-width="1366"
     inkscape:window-height="706"
     inkscape:window-x="-8"
     inkscape:window-y="-8"
     inkscape:window-maximized="1" />
  <metadata
     id="metadata383">
    <rdf:RDF>
      <cc:Work
         rdf:about="">
        <dc:format>image/svg+xml</dc:format>
        <dc:type
           rdf:resource="http://purl.org/dc/dcmitype/StillImage" />
        <dc:title></dc:title>
      </cc:Work>
    </rdf:RDF>
  </metadata>
  <g
     inkscape:label="Layer 1"
     inkscape:groupmode="layer"
     id="layer1">
    <g
       id="g20"
       transform="matrix(4.7032974,0,0,-4.6890433,103.86927,42.916622)">
      <path
         d="m 0,0 c -3.115,0 -6.268,-1.089 -9.371,-3.237 -4.356,-3.016 -6.706,-8.773 -5.848,-14.326 1.615,-10.454 10.311,-11.583 13.974,-11.583 h 0.002 c 0.144,0 0.286,0.001 0.428,0.004 3.694,0.084 10.262,1.274 12.748,8.308 1.929,5.457 1.313,11.215 -1.649,15.402 C 7.843,-1.98 4.095,0 0,0 m -1.244,-29.428 h -0.001 c -3.736,0 -12.603,1.153 -14.252,11.822 -0.874,5.657 1.523,11.525 5.966,14.6 3.151,2.181 6.358,3.287 9.531,3.287 4.187,0 8.019,-2.023 10.514,-5.551 1.437,-2.032 2.368,-4.488 2.69,-7.101 0.347,-2.808 0.009,-5.687 -1.006,-8.557 -2.543,-7.194 -9.24,-8.41 -13.007,-8.495 -0.143,-0.003 -0.288,-0.005 -0.435,-0.005"
         style="fill:#dfe5cb;fill-opacity:1;fill-rule:nonzero;stroke:none"
         id="path22"
         inkscape:connector-curvature="0" />
    </g>
    <g
       id="g24"
       transform="matrix(4.7032974,0,0,-4.6890433,81.348445,176.93227)">
      <path
         d="M 0,0 C -3.313,-0.511 -5.434,-1.878 -4.782,-3.542 -3.71,-6.277 2.249,-7.358 6.496,-7.683 10.631,-8 14.915,-7.774 16.677,-6.25 20.796,-2.691 10.879,1.679 0,0"
         style="fill:#dfe5cb;fill-opacity:1;fill-rule:evenodd;stroke:none"
         id="path26"
         inkscape:connector-curvature="0" />
    </g>
    <g
       id="g28"
       transform="matrix(4.7032974,0,0,-4.6890433,77.757975,191.52322)">
      <path
         d="m 0,0 c -0.073,-0.151 -0.202,-0.243 -0.272,-0.421 -0.066,-0.164 -0.036,-0.5 0.069,-0.616 l -0.023,0.358 c 0.172,-0.142 0.01,-0.273 0.19,-0.422 0.121,0.06 0.117,-0.08 0.099,0.154 -0.003,0.038 -0.033,0.145 -0.039,0.199 -0.038,0.345 0.102,0.653 0.453,0.766 L 0.429,-0.105 0.795,0.093 C 1.295,0.482 2.729,0.5 3.2,-0.626 3.381,-1.059 3.323,-1.223 3.168,-1.612 3.044,-1.737 2.948,-1.889 2.791,-1.978 2.762,-2.069 2.562,-2.174 2.458,-2.204 L 2.177,-2.413 2.267,-2.402 2.264,-2.504 C 2.857,-2.13 3.641,-1.696 3.397,-0.882 3.171,-0.127 2.634,0.336 1.838,0.421 1.539,0.454 1.301,0.453 1.02,0.344 0.833,0.271 0.507,0.096 0.341,0.049 0.684,0.475 2.187,0.912 3.098,-0.116 3.444,-0.507 3.753,-0.928 3.53,-1.511 3.258,-2.225 2.662,-2.376 2.548,-2.498 c 0.107,-0.02 0.054,0.011 0.063,-0.05 l 0.144,0.034 0.473,0.304 c 0.061,0.118 0.17,0.198 0.25,0.308 0.058,0.078 0.171,0.29 0.214,0.326 C 3.82,-0.97 3.781,-0.794 3.416,-0.303 3.18,0.015 2.884,0.261 2.505,0.453 2.103,0.658 1.518,0.672 1.083,0.572 0.424,0.422 0.197,0.087 0,0"
         style="fill:#dfe5cb;fill-opacity:1;fill-rule:evenodd;stroke:none"
         id="path30"
         inkscape:connector-curvature="0" />
    </g>
    <g
       id="g32"
       transform="matrix(4.7032974,0,0,-4.6890433,79.40318,196.79228)">
      <path
         d="m 0,0 c -0.092,0.009 -0.177,-0.011 -0.263,-0.019 -0.119,-0.011 -0.183,-0.027 -0.29,0.022 0.064,-0.116 0.104,-0.08 0.213,-0.059 0.035,-0.369 0.117,-0.425 0.435,-0.542 -0.002,-0.158 -0.097,-0.21 0.068,-0.264 l 0.081,0.289 0.282,0.109 C 0.653,-0.566 0.611,-0.608 0.782,-0.623 0.767,-0.529 0.71,-0.45 0.612,-0.403 0.442,-0.322 0.419,-0.4 0.272,-0.447 0.057,-0.516 -0.07,-0.168 0,0"
         style="fill:#dfe5cb;fill-opacity:1;fill-rule:evenodd;stroke:none"
         id="path34"
         inkscape:connector-curvature="0" />
    </g>
    <g
       id="g36"
       transform="matrix(4.7032974,0,0,-4.6890433,76.805081,196.38622)">
      <path
         d="m 0,0 -0.001,-0.084 c 0.107,-0.049 0.172,-0.033 0.29,-0.022 0.086,0.008 0.172,0.028 0.263,0.019 0.099,0.019 0.058,-0.014 0.045,0.039 C 0.431,0.063 0.352,0.176 0.382,0.377 0.413,0.581 0.419,0.745 0.6,0.857 L 0.632,0.932 0.68,1.055 C 0.328,0.942 0.189,0.634 0.226,0.289 0.232,0.235 0.263,0.128 0.266,0.09 c 0.018,-0.234 0.022,-0.093 -0.1,-0.154 -0.18,0.149 -0.017,0.28 -0.189,0.422 z"
         style="fill:#dfe5cb;fill-opacity:1;fill-rule:evenodd;stroke:none"
         id="path38"
         inkscape:connector-curvature="0" />
    </g>
    <g
       id="g40"
       transform="matrix(4.7032974,0,0,-4.6890433,64.937255,79.620106)">
      <path
         d="m 0,0 -0.155,-0.021 c -0.004,0.442 0.117,-0.11 0.106,0.625 -0.119,0.089 -0.163,0.15 -0.159,0.309 C -0.058,0.892 0.701,0.483 0.829,0.382 0.663,0.288 0.79,0.442 0.417,0.508 0.513,0.384 0.734,0.273 0.894,0.279 0.974,0.632 0.655,0.864 0.355,1.006 0.042,1.154 -0.342,1.288 -0.672,1.144 -0.673,0.919 -0.435,0.902 -0.245,0.767 -0.283,0.549 -0.966,-0.525 -1.121,-0.773 -1.328,-1.105 -2.089,-2.056 -2.109,-2.219 l 0.222,-0.044 0.479,0.412 c 0.15,0.151 0.275,0.32 0.419,0.477 0.349,0.382 0.579,0.924 0.813,0.993 C -0.159,-0.202 -0.075,-0.126 0,0"
         style="fill:#dfe5cb;fill-opacity:1;fill-rule:evenodd;stroke:none"
         id="path42"
         inkscape:connector-curvature="0" />
    </g>
    <g
       id="g44"
       transform="matrix(4.7032974,0,0,-4.6890433,64.937255,79.620106)">
      <path
         d="M 0,0 0.149,0.175 C 0.152,0.313 0.211,0.438 0.284,0.55 L 0.417,0.508 C 0.79,0.442 0.663,0.288 0.829,0.382 c -0.128,0.101 -0.887,0.51 -1.037,0.531 -0.004,-0.159 0.04,-0.22 0.159,-0.309 0.011,-0.735 -0.11,-0.183 -0.106,-0.625 z"
         style="fill:#dfe5cb;fill-opacity:1;fill-rule:evenodd;stroke:none"
         id="path46"
         inkscape:connector-curvature="0" />
    </g>
    <g
       id="g48"
       transform="matrix(4.7032974,0,0,-4.6890433,72.617268,46.266481)">
      <path
         d="m 0,0 c -0.103,-0.071 -0.263,-0.092 -0.378,-0.184 -0.136,-0.109 -0.006,-0.087 -0.229,-0.169 -0.085,-0.032 -0.016,0.004 -0.09,-0.04 0.01,-0.009 0.02,-0.025 0.03,-0.029 0.098,-0.049 0.046,-0.027 0.125,-0.013 0.367,0.203 0.779,0.365 1.209,0.414 0.336,0.039 1.187,-0.072 1.468,-0.234 -0.086,-0.059 0.144,-0.095 -0.307,0.004 -0.799,0.175 -1.502,0.093 -2.25,-0.247 -0.252,-0.114 -0.691,-0.427 -0.822,-0.661 -0.099,-0.177 -0.157,-0.443 -0.108,-0.642 0.116,-0.472 1.182,-0.699 1.601,-0.382 1.411,1.069 0.031,1.362 -0.512,1.06 -0.655,-0.365 -0.564,-0.595 -0.77,-0.782 -0.066,0.858 1.64,1.235 1.959,0.895 C 1.065,-1.275 0.948,-1.656 0.793,-1.892 0.629,-2.141 0.398,-2.191 0.167,-2.353 l 0.16,0.001 -0.001,-0.122 c 0.154,0.07 0.164,0.078 0.28,0.188 0.081,0.076 0.161,0.177 0.249,0.162 L 0.877,-2.6 c 0.13,0.116 0.039,0.191 0.09,0.357 0.128,-0.116 0.065,-0.198 0.027,-0.365 0.051,0.048 0.035,0.022 0.065,0.078 0.107,0.203 -0.037,0.104 0.179,0.183 0.088,-0.614 -0.74,-1.111 -1.147,-1.095 -0.274,0.01 -0.633,0.145 -0.888,0.246 -0.119,0.048 -0.231,0.171 -0.271,0.294 -0.097,0.3 0.013,0.326 -0.174,0.456 -0.379,-0.532 0.591,-1.238 1.714,-1.041 0.073,0.013 1.197,-0.23 1.579,0.815 L 1.899,-2.827 C 1.816,-2.919 1.678,-3.165 1.502,-3.245 1.633,-3.137 1.605,-3.21 1.591,-3.014 1.401,-3.066 1.226,-3.339 0.955,-3.289 0.78,-3.257 0.898,-3.284 0.801,-3.213 c 0.084,0.062 0.022,0.041 0.117,0.066 0.116,0.03 0.112,-0.025 0.259,0.02 0.009,0.003 0.022,0.01 0.033,0.016 l -0.116,0.016 c 0.473,0.636 0.28,0.889 0.243,1.164 -0.16,0.041 -0.123,0.055 -0.241,0.158 0.032,0.28 0.276,0.556 -0.018,0.845 -0.193,0.189 -0.63,0.23 -0.892,0.172 -1.103,-0.245 -0.903,-0.505 -1.356,-0.843 -0.081,0.454 0.583,0.881 0.946,1.045 1.952,0.886 2.995,-0.445 4.994,-0.454 0.324,0.004 1.112,0.095 1.345,0.285 -0.009,0.062 0.044,0.03 -0.063,0.05 C 5.831,-0.692 5.598,-0.851 5.305,-0.864 l 0.464,0.186 0.002,0.101 -0.09,-0.01 C 4.905,-0.668 4.676,-0.801 3.84,-0.618 3.577,-0.56 2.536,-0.226 2.382,-0.091 2.215,-0.086 2.006,0.026 1.831,0.068 1.641,0.114 1.409,0.135 1.21,0.14 0.776,0.151 0.416,0.089 0,0 m -0.592,-2.176 c -0.168,0.009 -0.121,0.018 -0.251,0.084 -0.076,1.158 2.332,1.298 1.297,0.284 -0.465,0.084 -0.338,-0.075 -0.57,-0.13 0.045,0.113 0.011,0.275 0.423,0.264 0.007,0 0.109,-0.007 0.112,-0.007 l 0.102,0.037 c 0.01,0.004 0.021,0.014 0.031,0.023 -0.208,0.089 -0.553,0.065 -0.742,-0.087 -0.252,-0.202 -0.237,-0.213 -0.402,-0.468"
         style="fill:#dfe5cb;fill-opacity:1;fill-rule:evenodd;stroke:none"
         id="path50"
         inkscape:connector-curvature="0" />
    </g>
    <g
       id="g52"
       transform="matrix(4.7032974,0,0,-4.6890433,89.098529,37.706605)">
      <path
         d="m 0,0 c -0.073,-0.151 -0.202,-0.243 -0.272,-0.421 -0.066,-0.164 -0.036,-0.5 0.069,-0.616 l -0.023,0.358 c 0.172,-0.142 0.009,-0.273 0.19,-0.422 0.121,0.06 0.117,-0.08 0.099,0.154 -0.003,0.038 -0.033,0.145 -0.039,0.199 -0.038,0.345 0.102,0.653 0.453,0.766 L 0.429,-0.105 0.795,0.093 C 1.295,0.482 2.729,0.5 3.2,-0.626 3.381,-1.059 3.323,-1.223 3.167,-1.612 3.044,-1.737 2.948,-1.889 2.791,-1.978 2.762,-2.069 2.562,-2.174 2.458,-2.204 L 2.177,-2.413 2.267,-2.402 2.264,-2.504 C 2.857,-2.13 3.641,-1.696 3.397,-0.882 3.171,-0.127 2.634,0.336 1.838,0.421 1.539,0.454 1.301,0.453 1.02,0.344 0.833,0.271 0.507,0.096 0.341,0.049 0.684,0.475 2.187,0.912 3.098,-0.116 3.444,-0.507 3.753,-0.928 3.53,-1.511 3.258,-2.225 2.662,-2.376 2.548,-2.498 c 0.107,-0.02 0.054,0.011 0.063,-0.05 l 0.144,0.034 0.473,0.304 c 0.061,0.118 0.17,0.198 0.25,0.308 0.057,0.078 0.171,0.29 0.214,0.326 C 3.82,-0.97 3.781,-0.794 3.416,-0.303 3.18,0.015 2.884,0.261 2.505,0.453 2.103,0.658 1.518,0.672 1.083,0.572 0.424,0.422 0.197,0.087 0,0"
         style="fill:#dfe5cb;fill-opacity:1;fill-rule:evenodd;stroke:none"
         id="path54"
         inkscape:connector-curvature="0" />
    </g>
    <g
       id="g56"
       transform="matrix(4.7032974,0,0,-4.6890433,66.488868,57.317173)">
      <path
         d="m 0,0 c 0.062,-0.115 0.143,-0.12 0.256,-0.189 0.047,-0.315 -0.017,-0.4 0.31,-0.556 0.204,-0.098 0.464,-0.234 0.685,-0.218 0.35,0.025 1.147,0.271 1.046,0.712 C 2.335,-0.084 2.398,-0.003 2.27,0.113 2.219,-0.052 2.31,-0.127 2.18,-0.243 1.958,-0.644 1.623,-0.952 1.227,-0.467 1.096,-0.359 1.201,-0.398 1.055,-0.33 1.077,-0.565 1.14,-0.507 1.183,-0.675 0.954,-0.677 0.963,-0.505 0.813,-0.402 0.81,-0.41 0.806,-0.423 0.806,-0.428 l 0.047,-0.156 c 0.062,-0.119 0.046,-0.033 0.09,-0.181 -0.296,0.034 -0.551,0.181 -0.552,0.51 0.132,0.002 0.174,0.014 0.282,-0.05 l 0.151,-0.022 c 0.026,0.036 0.12,0.182 0.036,0.081 0.213,0.008 0.199,0.002 0.402,0.055 0.197,-0.013 0.187,0.026 0.367,0.073 L 1.63,0.004 H 1.47 C 1.202,-0.129 1.039,-0.124 0.737,-0.115 c -0.208,0.006 -0.547,0 -0.642,0.208 l -0.132,0.008 z"
         style="fill:#dfe5cb;fill-opacity:1;fill-rule:evenodd;stroke:none"
         id="path58"
         inkscape:connector-curvature="0" />
    </g>
    <g
       id="g60"
       transform="matrix(4.7032974,0,0,-4.6890433,84.530733,58.288233)">
      <path
         d="m 0,0 -0.036,-0.122 -0.129,0.045 0.504,-0.223 0.098,0.126 0.281,-0.05 C 0.751,-0.467 0.596,-0.357 0.569,-0.563 0.694,-0.714 0.897,-0.661 1.093,-0.677 1.136,-0.779 1.37,-0.895 1.483,-0.896 l -0.132,0.191 c -0.181,0.03 -0.07,0.075 -0.228,0.125 -0.104,0.033 -0.258,0.007 -0.383,0.022 0.037,0.082 0.07,0.081 0.113,0.147 0.061,0.091 0.025,0.094 0.074,0.204 0.193,0.033 0.445,0.112 0.632,0.087 L 1.515,-0.37 1.626,-0.422 C 2.098,0.196 0.88,-0.058 0.879,-0.058 0.782,0.07 0.769,0.065 0.611,0.083 0.292,0.119 0.52,0.209 0.263,0.182 0.215,0.025 0.257,0.033 0.251,-0.132 Z"
         style="fill:#dfe5cb;fill-opacity:1;fill-rule:evenodd;stroke:none"
         id="path62"
         inkscape:connector-curvature="0" />
    </g>
    <g
       id="g64"
       transform="matrix(4.7032974,0,0,-4.6890433,78.306379,60.855496)">
      <path
         d="m 0,0 c -0.011,-0.006 -0.024,-0.013 -0.033,-0.016 -0.147,-0.045 -0.143,0.01 -0.258,-0.02 -0.096,-0.025 -0.034,-0.004 -0.118,-0.066 0.097,-0.07 -0.021,-0.044 0.154,-0.076 0.271,-0.05 0.446,0.223 0.636,0.275 0.015,-0.196 0.042,-0.122 -0.089,-0.231 0.177,0.081 0.315,0.327 0.397,0.418 L 0.842,0.439 C 0.907,0.427 0.987,0.481 1.158,0.471 L 1.287,0.425 1.323,0.548 1.11,0.675 1.487,0.683 C 1.316,0.862 0.795,0.74 0.579,0.826 0.259,0.407 0.434,0.403 0,0"
         style="fill:#dfe5cb;fill-opacity:1;fill-rule:evenodd;stroke:none"
         id="path66"
         inkscape:connector-curvature="0" />
    </g>
    <g
       id="g68"
       transform="matrix(4.7032974,0,0,-4.6890433,71.515283,46.546412)">
      <path
         d="m 0,0 c -0.183,-0.101 -0.044,0.065 -0.707,-0.387 -0.233,-0.159 -0.468,-0.499 -0.541,-0.551 -0.098,-0.31 -0.202,-0.384 -0.164,-0.773 0.021,-0.21 0.156,-0.498 0.343,-0.586 l -0.036,0.101 0.131,-0.008 c -0.064,0.08 -0.263,0.276 -0.324,0.472 -0.059,0.191 0.071,0.45 0.161,0.627 0.144,0.285 0.637,0.573 0.829,0.729 -0.079,-0.014 -0.027,-0.035 -0.125,0.014 -0.01,0.004 -0.02,0.019 -0.03,0.029 0.074,0.044 0.005,0.008 0.091,0.039 0.222,0.082 0.092,0.061 0.228,0.17 0.115,0.092 0.275,0.113 0.378,0.184 z"
         style="fill:#dfe5cb;fill-opacity:1;fill-rule:evenodd;stroke:none"
         id="path70"
         inkscape:connector-curvature="0" />
    </g>
    <g
       id="g72"
       transform="matrix(4.7032974,0,0,-4.6890433,90.743767,42.975734)">
      <path
         d="m 0,0 c -0.092,0.009 -0.177,-0.011 -0.263,-0.019 -0.119,-0.011 -0.183,-0.027 -0.29,0.022 0.064,-0.116 0.104,-0.08 0.213,-0.059 0.035,-0.369 0.117,-0.425 0.435,-0.542 -0.002,-0.158 -0.097,-0.21 0.068,-0.264 l 0.081,0.289 0.282,0.109 C 0.653,-0.566 0.611,-0.608 0.782,-0.623 0.766,-0.529 0.71,-0.45 0.612,-0.403 0.442,-0.322 0.419,-0.4 0.272,-0.447 0.057,-0.516 -0.07,-0.168 0,0"
         style="fill:#dfe5cb;fill-opacity:1;fill-rule:evenodd;stroke:none"
         id="path74"
         inkscape:connector-curvature="0" />
    </g>
    <g
       id="g76"
       transform="matrix(4.7032974,0,0,-4.6890433,88.145672,42.569622)">
      <path
         d="m 0,0 -0.001,-0.084 c 0.107,-0.049 0.172,-0.033 0.29,-0.022 0.086,0.008 0.172,0.028 0.263,0.019 0.099,0.019 0.058,-0.014 0.045,0.039 C 0.431,0.063 0.352,0.176 0.382,0.377 0.413,0.581 0.419,0.745 0.6,0.857 L 0.632,0.932 0.68,1.055 C 0.328,0.942 0.189,0.634 0.226,0.289 0.232,0.235 0.263,0.128 0.266,0.09 c 0.018,-0.234 0.022,-0.093 -0.1,-0.154 -0.18,0.149 -0.017,0.28 -0.189,0.422 z"
         style="fill:#dfe5cb;fill-opacity:1;fill-rule:evenodd;stroke:none"
         id="path78"
         inkscape:connector-curvature="0" />
    </g>
    <g
       id="g80"
       transform="matrix(4.7032974,0,0,-4.6890433,69.656542,58.746801)">
      <path
         d="m 0,0 c 0.076,-0.145 0.056,-0.174 0.18,-0.279 l -0.047,0.156 c 0,0.005 0.004,0.018 0.006,0.026 C 0.29,-0.2 0.281,-0.372 0.51,-0.37 0.466,-0.202 0.403,-0.26 0.382,-0.025 0.527,-0.093 0.422,-0.054 0.554,-0.162 L 0.49,0.029 0.589,0.114 C 0.386,0.061 0.399,0.067 0.186,0.059 0.271,0.16 0.177,0.013 0.15,-0.023 Z"
         style="fill:#dfe5cb;fill-opacity:1;fill-rule:evenodd;stroke:none"
         id="path82"
         inkscape:connector-curvature="0" />
    </g>
    <g
       id="g84"
       transform="matrix(4.7032974,0,0,-4.6890433,76.697371,90.069605)">
      <path
         d="m 0,0 c -0.032,-0.087 -0.008,-0.067 -0.083,-0.08 -0.089,-0.151 -0.094,-0.062 -0.112,-0.22 0.266,-0.021 0.104,0.155 0.361,0.202 0.12,0.176 0.719,0.636 0.933,0.752 C 1.291,0.607 2.383,0.295 2.454,0.181 2.532,0.055 2.883,-1.042 2.91,-1.197 2.516,-1.475 2.117,-2.062 1.742,-2.29 1.724,-2.471 1.707,-2.354 1.788,-2.43 2.011,-2.288 2.1,-2.172 2.291,-2.028 2.444,-1.913 2.565,-1.59 3.007,-1.333 3.155,-1.408 3.116,-1.445 3.195,-1.564 3.246,-1.64 3.338,-1.71 3.4,-1.788 l 0.128,0.022 C 3.62,-1.585 3.348,-1.041 3.262,-0.849 3.193,-0.695 3.09,-0.668 2.99,-0.506 2.438,0.389 2.836,0.143 2.06,0.476 1.874,0.556 1.237,0.76 1.07,0.753 0.969,0.709 0.621,0.479 0.519,0.4 0.374,0.288 0.132,0.064 0,0 M 2.94,-0.648 C 3.202,-0.77 3.307,-1.292 3.393,-1.565 3.391,-1.436 3.07,-1.248 3,-0.951 2.977,-0.853 2.958,-0.728 2.94,-0.648"
         style="fill:#dfe5cb;fill-opacity:1;fill-rule:evenodd;stroke:none"
         id="path86"
         inkscape:connector-curvature="0" />
    </g>
    <g
       id="g88"
       transform="matrix(4.7032974,0,0,-4.6890433,86.653314,104.05802)">
      <path
         d="M 0,0 C 0.122,-0.066 0.032,-0.04 0.146,-0.082 0.528,0.043 1.189,1.011 1.29,1.051 L 1.296,1.204 0.99,0.968 C 0.912,0.856 0.919,0.901 0.85,0.827 0.795,0.768 0.799,0.733 0.728,0.658 0.556,0.475 0.708,0.722 0.445,0.369 0.389,0.294 0.228,0.15 0.143,0.1 -0.036,0.165 -0.108,0.276 -0.288,0.351 -0.358,0.38 -0.451,0.42 -0.522,0.444 -0.681,0.498 -0.687,0.45 -0.828,0.515 -0.956,0.549 -1.084,0.574 -1.211,0.606 -1.375,0.647 -1.456,0.711 -1.586,0.745 -1.783,0.797 -2.241,0.844 -2.37,0.931 c 0.033,0.239 0.025,0.587 0.028,0.854 l -0.022,0.851 -0.105,0.02 c 0.037,-0.139 -0.01,-1.494 0,-1.792 C -2.288,0.709 -1.592,0.474 -1.321,0.35 -0.827,0.126 -0.434,0.166 0,0"
         style="fill:#dfe5cb;fill-opacity:1;fill-rule:evenodd;stroke:none"
         id="path90"
         inkscape:connector-curvature="0" />
    </g>
    <g
       id="g92"
       transform="matrix(4.7032974,0,0,-4.6890433,84.892412,100.80708)">
      <path
         d="m 0,0 h -0.054 c -0.107,-0.227 -0.169,-0.201 -0.4,-0.178 0.141,-0.065 0.147,-0.017 0.307,-0.071 0.07,-0.025 0.164,-0.064 0.233,-0.093 0.18,-0.075 0.253,-0.186 0.432,-0.251 0.085,0.05 0.246,0.193 0.301,0.268 0.264,0.354 0.112,0.107 0.284,0.29 0.07,0.075 0.066,0.109 0.122,0.169 0.068,0.073 0.061,0.029 0.139,0.141 L 1.671,0.511 1.664,0.357 C 1.714,0.413 1.658,0.341 1.721,0.429 1.732,0.445 1.77,0.503 1.786,0.524 L 1.657,0.502 C 1.596,0.58 1.504,0.65 1.452,0.726 1.374,0.845 1.413,0.882 1.265,0.956 0.823,0.7 0.702,0.377 0.548,0.262 0.357,0.118 0.269,0.002 0.046,-0.14 -0.036,-0.064 -0.018,-0.181 0,0"
         style="fill:#dfe5cb;fill-opacity:1;fill-rule:evenodd;stroke:none"
         id="path94"
         inkscape:connector-curvature="0" />
    </g>
    <g
       id="g96"
       transform="matrix(4.7032974,0,0,-4.6890433,79.935129,91.633457)">
      <path
         d="m 0,0 c -0.088,-0.188 -0.223,-0.254 -0.319,-0.505 -0.028,-0.293 -0.001,-0.473 0.298,-0.548 -0.102,0.193 -0.083,0.005 -0.147,0.236 0.019,0.005 0.087,0.164 0.144,-0.073 l 0.059,0.245 C 0.083,-0.514 0.033,-0.62 0.097,-0.528 0.16,-0.619 0.162,-0.59 0.168,-0.76 0.172,-0.871 0.136,-0.822 0.184,-0.923 c 0.003,0.219 -0.039,0.393 0.109,0.545 0.129,0.133 0.23,0.21 0.43,0.212 l 0.021,-0.055 0.199,0.014 C 0.758,0.119 0.308,0.128 0,0"
         style="fill:#dfe5cb;fill-opacity:1;fill-rule:evenodd;stroke:none"
         id="path98"
         inkscape:connector-curvature="0" />
    </g>
    <g
       id="g100"
       transform="matrix(4.7032974,0,0,-4.6890433,83.43439,92.667863)">
      <path
         d="m 0,0 c -0.383,-0.072 -0.427,-0.379 -0.476,-0.728 l -0.084,0.026 c -0.048,0.101 -0.012,0.052 -0.016,0.163 -0.006,0.17 -0.008,0.141 -0.071,0.232 -0.064,-0.092 -0.014,0.014 -0.062,-0.117 l -0.059,-0.245 c -0.057,0.236 -0.125,0.078 -0.144,0.073 0.064,-0.231 0.045,-0.043 0.147,-0.236 0.332,-0.096 0.473,-0.073 0.751,0.128 0.179,0.13 0.428,0.551 0.213,0.718 z m -0.268,-0.663 c -0.055,0.229 0.14,0.556 0.403,0.543 0.032,-0.212 -0.153,-0.6 -0.403,-0.543"
         style="fill:#dfe5cb;fill-opacity:1;fill-rule:evenodd;stroke:none"
         id="path102"
         inkscape:connector-curvature="0" />
    </g>
    <g
       id="g104"
       transform="matrix(4.7032974,0,0,-4.6890433,80.801471,95.960496)">
      <path
         d="M 0,0 0.084,-0.025 C 0.133,0.323 0.177,0.63 0.56,0.702 L 0.539,0.757 C 0.339,0.755 0.238,0.678 0.108,0.545 -0.039,0.393 0.003,0.219 0,0"
         style="fill:#dfe5cb;fill-opacity:1;fill-rule:evenodd;stroke:none"
         id="path106"
         inkscape:connector-curvature="0" />
    </g>
    <g
       id="g108"
       transform="matrix(4.7032974,0,0,-4.6890433,108.11725,77.897783)">
      <path
         d="m 0,0 -0.06,-0.052 c -0.121,0.07 -0.104,0.083 -0.24,0.073 l -0.151,-0.268 0.093,-0.137 c -0.162,-0.04 -0.111,-0.021 -0.226,-0.125 -0.12,-0.108 -0.105,-0.028 -0.263,-0.104 -0.109,-0.098 0.092,-0.083 -0.149,-0.397 l -0.013,-0.257 c -0.114,-0.055 -0.055,-0.043 -0.093,-0.078 0.193,-0.142 0.453,-0.348 0.634,-0.503 l 0.435,-0.426 c 0.103,-0.067 0.06,0.01 0.169,-0.107 -0.134,-0.256 -0.461,-0.314 -0.737,-0.277 -0.083,0.065 -0.254,0.206 -0.334,0.286 0.071,0.11 0.195,0.293 0.165,0.413 -0.185,0.081 -0.396,-0.056 -0.586,-0.129 -0.127,0.09 -0.269,0.279 -0.433,0.289 l -0.141,0.032 0.027,-0.125 c 0.144,-0.358 0.409,-0.471 0.63,-0.71 0.128,0 0.275,-0.082 0.412,-0.114 0.452,-0.104 1.162,-0.04 1.218,0.382 -0.099,0.116 -0.766,0.557 -0.844,0.628 0.285,-0.058 0.604,-0.336 0.734,0.113 l 0.224,0.016 0.106,0.363 0.355,0.107 c 0.008,0.16 -0.018,0.109 -0.05,0.246 0.146,0.047 0.26,0.031 0.322,0.182 L 1.141,-0.254 C 0.761,-0.259 1.094,-0.461 0.79,-0.653 0.637,-0.677 0.519,-0.599 0.381,-0.529 0.318,-0.497 0.248,-0.469 0.215,-0.403 0.119,-0.211 0.24,-0.374 0.209,-0.213 0.072,-0.103 0.208,-0.101 0.175,0.12 0.021,0.091 0.1,0.136 0,0 m -0.279,-0.738 c 0.003,-0.094 0.101,-0.076 -0.248,-0.104 -0.082,-0.111 0.014,-0.012 -0.034,-0.123 l -0.253,0.178 c 0.01,0.004 0.023,0.008 0.033,0.01 l 0.241,0.003 c -0.034,0.132 0.033,0.047 -0.084,0.157 0.27,0.047 0.114,-0.031 0.312,-0.119 0.016,0.282 0.119,0.155 0.339,0.211 l -0.048,0.086 c 0.227,-0.102 0.206,-0.11 0.281,-0.36 0.029,-0.099 0.045,-0.172 0.047,-0.279 0.007,-0.269 -0.072,-0.255 -0.083,-0.267 -0.156,0.122 -0.231,0.455 -0.503,0.607 m 0.748,-0.309 -0.114,0.43 0.301,-0.146 C 0.668,-0.892 0.61,-1.033 0.469,-1.047 M 0.004,-1.31 c -0.127,0.069 -0.457,0.317 -0.493,0.446 l 0.243,-0.013 c 0.097,-0.106 0.229,-0.285 0.25,-0.433 m -0.837,0.022 c 0.1,0.235 0.174,0.15 0.287,0.257 l 0.584,-0.477 c -0.121,-0.487 -0.864,0.211 -0.871,0.22"
         style="fill:#dfe5cb;fill-opacity:1;fill-rule:evenodd;stroke:none"
         id="path110"
         inkscape:connector-curvature="0" />
    </g>
    <g
       id="g112"
       transform="matrix(4.7032974,0,0,-4.6890433,111.29296,74.222579)">
      <path
         d="m 0,0 c -0.201,0.002 -0.149,-0.032 -0.231,-0.157 -0.133,0.074 -0.2,0.123 -0.336,0.064 0.055,-0.131 0.051,-0.085 0.151,-0.172 -0.302,-0.124 -0.246,-0.199 -0.259,-0.519 0.1,0.136 0.02,0.091 0.175,0.12 0.032,-0.221 -0.103,-0.223 0.033,-0.333 -0.053,0.182 0.192,0.483 0.343,0.573 0.209,-0.236 0.561,-0.723 0.239,-1.012 0.304,0.192 -0.029,0.393 0.351,0.399 l 0.063,-0.426 c 0.203,0.093 -0.132,0.192 0.11,0.429 0.291,0.282 0.211,0.217 0.384,0.233 L 0.972,-0.756 0.725,-0.8 c 0.066,0.235 0.028,0.177 -0.011,0.237 0.01,-0.227 -0.098,-0.369 -0.316,-0.416 -0.096,0.144 -0.133,0.28 -0.248,0.433 -0.131,0.175 -0.219,0.203 -0.077,0.401 0.18,-0.017 0.256,-0.124 0.373,-0.247 0.017,0.116 -0.043,0.039 0.046,0.127 L 0.65,-0.363 c 0.027,0.28 -0.091,0.306 -0.255,0.482 L 0.522,0.095 C 0.407,0.157 0.25,0.122 0.097,0.129 Z M 0,0 C 0.138,0.002 0.084,0.022 0.185,-0.064 0.089,-0.113 0.073,-0.087 -0.054,-0.106 l 0.025,-0.302 -0.283,0.064 C -0.277,-0.26 -0.186,-0.227 0,0"
         style="fill:#dfe5cb;fill-opacity:1;fill-rule:evenodd;stroke:none"
         id="path114"
         inkscape:connector-curvature="0" />
    </g>
    <g
       id="g116"
       transform="matrix(4.7032974,0,0,-4.6890433,99.16828,86.770883)">
      <path
         d="M 0,0 -0.027,0.126 0.114,0.093 C 0.093,0.409 0.16,0.673 0.439,0.825 L 0.801,0.547 C 0.839,0.582 0.78,0.57 0.894,0.625 L 0.907,0.882 C 0.739,0.756 0.886,0.84 0.8,0.667 L 0.447,0.993 C 0.141,0.946 -0.338,0.111 -0.104,-0.162 l 0.05,0.168 z"
         style="fill:#dfe5cb;fill-opacity:1;fill-rule:evenodd;stroke:none"
         id="path118"
         inkscape:connector-curvature="0" />
    </g>
    <g
       id="g120"
       transform="matrix(4.7032974,0,0,-4.6890433,113.39254,76.059256)">
      <path
         d="m 0,0 0.268,-0.171 c 0.039,-0.06 0.076,-0.002 0.011,-0.237 l 0.247,0.044 C 0.479,-0.201 0.561,-0.179 0.667,-0.099 0.616,-0.03 0.459,0.181 0.407,0.228 0.282,0.339 0.257,0.42 0.076,0.487 L -0.051,0.511 C 0.112,0.334 0.231,0.309 0.204,0.028 L 0.046,0.127 C -0.043,0.039 0.016,0.115 0,0"
         style="fill:#dfe5cb;fill-opacity:1;fill-rule:evenodd;stroke:none"
         id="path122"
         inkscape:connector-curvature="0" />
    </g>
    <g
       id="g124"
       transform="matrix(4.7032974,0,0,-4.6890433,106.80602,81.360658)">
      <path
         d="m 0,0 -0.033,0.003 c -0.198,0.087 -0.042,0.165 -0.312,0.118 0.117,-0.11 0.05,-0.024 0.084,-0.156 l -0.241,-0.004 c -0.01,-0.001 -0.023,-0.005 -0.033,-0.009 l 0.253,-0.178 c 0.048,0.11 -0.048,0.012 0.034,0.122 C 0.101,-0.075 0.003,-0.093 0,0"
         style="fill:#dfe5cb;fill-opacity:1;fill-rule:evenodd;stroke:none"
         id="path126"
         inkscape:connector-curvature="0" />
    </g>
    <g
       id="g128"
       transform="matrix(4.7032974,0,0,-4.6890433,111.29296,74.222579)">
      <path
         d="m 0,0 c -0.186,-0.227 -0.277,-0.26 -0.312,-0.344 l 0.283,-0.064 -0.025,0.302 C 0.073,-0.087 0.089,-0.113 0.185,-0.064 0.084,0.022 0.138,0.002 0,0"
         style="fill:#dfe5cb;fill-opacity:1;fill-rule:evenodd;stroke:none"
         id="path130"
         inkscape:connector-curvature="0" />
    </g>
    <g
       id="g132"
       transform="matrix(4.7032974,0,0,-4.6890433,108.30636,122.53705)">
      <path
         d="m 0,0 -0.155,-0.021 c -0.004,0.442 0.117,-0.11 0.106,0.625 -0.119,0.089 -0.163,0.15 -0.159,0.309 C -0.058,0.892 0.701,0.483 0.829,0.382 0.663,0.288 0.79,0.442 0.417,0.508 0.513,0.384 0.734,0.273 0.894,0.279 0.974,0.632 0.655,0.864 0.355,1.006 0.042,1.154 -0.342,1.288 -0.672,1.144 -0.673,0.919 -0.435,0.902 -0.245,0.767 -0.283,0.549 -0.966,-0.525 -1.121,-0.773 -1.328,-1.105 -2.089,-2.056 -2.109,-2.219 l 0.222,-0.044 0.479,0.412 c 0.15,0.151 0.275,0.32 0.419,0.477 0.349,0.382 0.579,0.924 0.813,0.993 C -0.159,-0.202 -0.075,-0.126 0,0"
         style="fill:#dfe5cb;fill-opacity:1;fill-rule:evenodd;stroke:none"
         id="path134"
         inkscape:connector-curvature="0" />
    </g>
    <g
       id="g136"
       transform="matrix(4.7032974,0,0,-4.6890433,108.30636,122.53705)">
      <path
         d="M 0,0 0.149,0.175 C 0.152,0.313 0.211,0.438 0.284,0.55 L 0.417,0.508 C 0.79,0.442 0.663,0.288 0.829,0.382 c -0.128,0.101 -0.887,0.51 -1.037,0.531 -0.004,-0.159 0.04,-0.22 0.159,-0.309 0.011,-0.735 -0.11,-0.183 -0.106,-0.625 z"
         style="fill:#dfe5cb;fill-opacity:1;fill-rule:evenodd;stroke:none"
         id="path138"
         inkscape:connector-curvature="0" />
    </g>
    <g
       id="g140"
       transform="matrix(4.7032974,0,0,-4.6890433,66.67559,113.49751)">
      <path
         d="m 0,0 -0.06,-0.052 c -0.121,0.07 -0.104,0.083 -0.24,0.073 l -0.151,-0.268 0.092,-0.137 c -0.161,-0.04 -0.11,-0.021 -0.225,-0.125 -0.12,-0.108 -0.105,-0.028 -0.263,-0.104 -0.109,-0.098 0.092,-0.083 -0.149,-0.397 l -0.013,-0.257 c -0.114,-0.055 -0.055,-0.043 -0.093,-0.078 0.193,-0.142 0.453,-0.348 0.634,-0.503 l 0.435,-0.426 c 0.103,-0.067 0.06,0.01 0.169,-0.107 -0.134,-0.256 -0.461,-0.314 -0.737,-0.277 -0.083,0.065 -0.254,0.206 -0.334,0.286 0.071,0.11 0.195,0.293 0.165,0.413 -0.185,0.081 -0.396,-0.056 -0.586,-0.129 -0.127,0.09 -0.269,0.279 -0.433,0.289 l -0.141,0.032 0.027,-0.125 c 0.144,-0.358 0.409,-0.471 0.63,-0.71 0.128,0 0.275,-0.082 0.412,-0.114 0.452,-0.104 1.162,-0.04 1.218,0.382 -0.099,0.116 -0.766,0.557 -0.844,0.628 0.285,-0.058 0.604,-0.336 0.734,0.113 l 0.224,0.016 0.106,0.363 0.355,0.107 c 0.008,0.16 -0.018,0.109 -0.05,0.246 0.146,0.047 0.26,0.031 0.322,0.182 L 1.141,-0.254 C 0.761,-0.259 1.094,-0.461 0.79,-0.653 0.637,-0.677 0.519,-0.599 0.381,-0.529 0.318,-0.497 0.248,-0.469 0.215,-0.403 0.119,-0.211 0.24,-0.374 0.209,-0.213 0.072,-0.103 0.208,-0.101 0.175,0.12 0.021,0.091 0.1,0.136 0,0 m -0.279,-0.738 c 0.003,-0.094 0.101,-0.076 -0.248,-0.104 -0.082,-0.111 0.014,-0.012 -0.034,-0.123 l -0.253,0.178 c 0.011,0.004 0.023,0.008 0.033,0.01 l 0.241,0.003 c -0.034,0.132 0.033,0.047 -0.084,0.157 0.27,0.047 0.114,-0.031 0.312,-0.119 0.016,0.282 0.119,0.155 0.339,0.211 l -0.048,0.086 c 0.227,-0.102 0.206,-0.11 0.281,-0.36 0.029,-0.099 0.045,-0.172 0.047,-0.279 0.007,-0.269 -0.072,-0.255 -0.083,-0.267 -0.156,0.122 -0.231,0.455 -0.503,0.607 m 0.748,-0.309 -0.114,0.43 0.301,-0.146 C 0.668,-0.892 0.61,-1.033 0.469,-1.047 M 0.004,-1.31 c -0.127,0.069 -0.457,0.317 -0.493,0.446 l 0.243,-0.013 c 0.097,-0.106 0.229,-0.285 0.25,-0.433 m -0.837,0.022 c 0.1,0.235 0.174,0.15 0.287,0.257 l 0.584,-0.477 c -0.121,-0.487 -0.864,0.211 -0.871,0.22"
         style="fill:#dfe5cb;fill-opacity:1;fill-rule:evenodd;stroke:none"
         id="path142"
         inkscape:connector-curvature="0" />
    </g>
    <g
       id="g144"
       transform="matrix(4.7032974,0,0,-4.6890433,69.851257,109.82223)">
      <path
         d="m 0,0 c -0.201,0.002 -0.149,-0.032 -0.231,-0.157 -0.133,0.074 -0.2,0.123 -0.336,0.064 0.055,-0.131 0.051,-0.085 0.151,-0.172 -0.302,-0.124 -0.246,-0.199 -0.259,-0.519 0.1,0.136 0.02,0.091 0.175,0.12 0.032,-0.221 -0.103,-0.223 0.033,-0.333 -0.053,0.182 0.192,0.483 0.343,0.573 0.209,-0.236 0.561,-0.723 0.239,-1.012 0.304,0.192 -0.029,0.393 0.351,0.399 l 0.063,-0.426 c 0.203,0.093 -0.132,0.192 0.11,0.429 0.291,0.282 0.211,0.217 0.384,0.233 L 0.972,-0.756 0.725,-0.8 c 0.066,0.235 0.028,0.177 -0.011,0.237 0.01,-0.227 -0.098,-0.369 -0.316,-0.416 -0.096,0.144 -0.133,0.28 -0.248,0.433 -0.131,0.176 -0.219,0.203 -0.077,0.401 0.18,-0.017 0.256,-0.124 0.373,-0.247 0.017,0.116 -0.043,0.039 0.046,0.127 L 0.65,-0.363 c 0.027,0.28 -0.091,0.306 -0.255,0.482 L 0.522,0.095 C 0.407,0.157 0.25,0.122 0.097,0.129 Z M 0,0 C 0.138,0.002 0.084,0.022 0.185,-0.064 0.089,-0.113 0.073,-0.087 -0.054,-0.106 l 0.026,-0.302 -0.284,0.064 C -0.277,-0.26 -0.186,-0.227 0,0"
         style="fill:#dfe5cb;fill-opacity:1;fill-rule:evenodd;stroke:none"
         id="path146"
         inkscape:connector-curvature="0" />
    </g>
    <g
       id="g148"
       transform="matrix(4.7032974,0,0,-4.6890433,57.726157,122.3701)">
      <path
         d="M 0,0 -0.027,0.126 0.114,0.093 C 0.093,0.409 0.16,0.673 0.439,0.825 L 0.801,0.547 C 0.839,0.582 0.78,0.57 0.894,0.625 L 0.907,0.882 C 0.739,0.756 0.886,0.84 0.801,0.667 L 0.447,0.993 C 0.141,0.946 -0.338,0.111 -0.104,-0.162 l 0.05,0.168 z"
         style="fill:#dfe5cb;fill-opacity:1;fill-rule:evenodd;stroke:none"
         id="path150"
         inkscape:connector-curvature="0" />
    </g>
    <g
       id="g152"
       transform="matrix(4.7032974,0,0,-4.6890433,71.950339,111.65895)">
      <path
         d="m 0,0 0.268,-0.171 c 0.039,-0.06 0.076,-0.002 0.011,-0.237 l 0.247,0.044 C 0.479,-0.201 0.561,-0.179 0.667,-0.099 0.616,-0.03 0.459,0.181 0.407,0.228 0.282,0.339 0.257,0.42 0.076,0.487 L -0.051,0.511 C 0.112,0.334 0.231,0.309 0.204,0.028 L 0.046,0.127 C -0.043,0.039 0.016,0.115 0,0"
         style="fill:#dfe5cb;fill-opacity:1;fill-rule:evenodd;stroke:none"
         id="path154"
         inkscape:connector-curvature="0" />
    </g>
    <g
       id="g156"
       transform="matrix(4.7032974,0,0,-4.6890433,65.36384,116.96038)">
      <path
         d="m 0,0 -0.033,0.003 c -0.198,0.087 -0.042,0.165 -0.312,0.118 0.117,-0.11 0.05,-0.024 0.084,-0.156 l -0.241,-0.004 c -0.01,-0.001 -0.023,-0.005 -0.033,-0.009 l 0.253,-0.178 c 0.048,0.11 -0.048,0.012 0.034,0.122 C 0.101,-0.075 0.003,-0.093 0,0"
         style="fill:#dfe5cb;fill-opacity:1;fill-rule:evenodd;stroke:none"
         id="path158"
         inkscape:connector-curvature="0" />
    </g>
    <g
       id="g160"
       transform="matrix(4.7032974,0,0,-4.6890433,69.851257,109.82223)">
      <path
         d="m 0,0 c -0.186,-0.227 -0.277,-0.26 -0.312,-0.344 l 0.284,-0.064 -0.026,0.302 C 0.073,-0.087 0.089,-0.113 0.185,-0.064 0.084,0.022 0.138,0.002 0,0"
         style="fill:#dfe5cb;fill-opacity:1;fill-rule:evenodd;stroke:none"
         id="path162"
         inkscape:connector-curvature="0" />
    </g>
    <g
       id="g164"
       transform="matrix(4.7032974,0,0,-4.6890433,77.424032,36.956366)">
      <path
         d="m 0,0 -4.748,-2.675 c 0,0 0.314,-2.83 0.382,-3.415 0.068,-0.584 -0.039,-6.496 0.419,-6.735 0.459,-0.24 2.721,-1.205 3.78,-1.205 1.06,0 2,-0.28 2,-0.28 l -4.915,-1.536 c 0,0 -1.469,-0.147 -1.568,-0.792 -0.098,-0.645 0.555,-8.625 0.555,-8.625 l 1.636,-0.949 -0.798,-2.798 c 0,0 -1.179,-3.541 -1.075,-4.033 0.104,-0.492 0.723,-2.078 2.337,-2.226 1.613,-0.147 2.37,-0.174 2.411,0.936 0.042,1.111 -0.133,3.372 -0.127,3.749 0.007,0.377 0.327,1.09 0.547,1.618 0.22,0.528 0.397,0.901 0.397,0.901 l 1.965,0.763 1.367,-0.368 c 0,0 -0.301,-1.668 0.29,-2.156 0.591,-0.487 1.84,-0.791 2.157,-0.728 0.317,0.062 2.022,0.137 2.11,1.014 0.088,0.878 -0.116,1.675 -0.116,1.675 v 0.376 c 0,0 4.361,5.265 4.644,5.633 0.283,0.368 0.809,1.262 0.809,1.262 l 1.816,6.451 c 0,0 0.833,1.964 0.009,1.334 -0.824,-0.631 -2.312,-4.113 -3.038,-4.988 -0.726,-0.875 -1.564,-2.038 -1.564,-2.038 l -1.693,0.911 0.788,4.824 -5.25,0.262 0.42,1.048 7.682,1.804 0.348,8.437 -0.162,2.983 -2.582,0.169 -5.104,-0.306 z"
         style="fill:#82d5d8;fill-opacity:1;fill-rule:evenodd;stroke:none"
         id="path166"
         inkscape:connector-curvature="0" />
    </g>
    <g
       id="g168"
       transform="matrix(4.7032974,0,0,-4.6890433,90.037339,103.33727)">
      <path
         d="m 0,0 c -0.485,0.121 -7.463,-1.788 -6.951,-2.718 0.878,-1.596 0.396,-8.383 0.682,-8.484 1.621,-0.572 1.772,-0.761 3.18,-1.456 0.593,-0.293 2.68,-1.316 2.68,-0.082 0,2.805 3.124,5.232 3.734,7.728 0.319,1.303 1.555,1.997 1.931,3.502 0.232,0.928 4.137,1.198 0.447,1.307 C 2.715,-0.115 3.278,1.177 0.335,-0.037 0.259,-0.068 0.033,-0.008 0,0"
         style="fill:#a0dfd9;fill-opacity:1;fill-rule:evenodd;stroke:none"
         id="path170"
         inkscape:connector-curvature="0" />
    </g>
    <g
       id="g172"
       transform="matrix(4.7032974,0,0,-4.6890433,76.396834,37.533585)">
      <path
         d="m 0,0 c 0.699,0.327 -0.65,0.064 -1.876,-1.082 -1.284,-1.199 -1.115,-1.072 -2.382,-1.704 -0.631,-0.315 -0.149,-4.044 -0.149,-4.796 0,-1.368 -0.279,-4.786 1.426,-5.198 1.107,-0.268 1.539,-0.494 2.792,-0.72 0.738,-0.134 0.151,-0.841 1.485,-0.169 1.209,0.609 6.037,0.915 6.418,1.521 0.427,0.68 1.216,1.32 1.935,2.49 1.122,1.823 3.942,8.018 3.858,9.966 C 13.5,0.468 13.937,0.743 12.61,0.58 10.326,0.3 8.945,0.203 6.601,0.258 6.052,0.271 0.083,-0.373 0,0"
         style="fill:#a0dfd9;fill-opacity:1;fill-rule:evenodd;stroke:none"
         id="path174"
         inkscape:connector-curvature="0" />
    </g>
    <g
       id="g176"
       transform="matrix(4.7032974,0,0,-4.6890433,100.25716,0.97264041)">
      <path
         d="m 0,0 c -4.504,0.045 -5.403,-6.722 -0.308,-6.291 1.877,0.158 3.296,0.478 3.72,2.361 C 3.93,-1.621 2.713,-0.027 0,0"
         style="fill:#f9f453;fill-opacity:1;fill-rule:evenodd;stroke:none"
         id="path178"
         inkscape:connector-curvature="0" />
    </g>
    <g
       id="g180"
       transform="matrix(4.7032974,0,0,-4.6890433,96.539611,12.622611)">
      <path
         d="M 0,0 C 0.004,-0.004 -0.077,0.186 0.177,0.265 0.335,0.314 0.354,-0.376 0.512,-0.551 0.921,-1.005 1.218,0.715 1.43,0.466 1.557,0.317 1.065,-0.631 1.855,-0.565 1.881,-0.563 3.298,0.541 2.86,-0.077 2.48,-0.614 2.248,-0.799 3.242,-0.623 3.333,-0.607 4.554,-0.184 4.086,-0.648 3.841,-0.89 2.631,-0.876 3.853,-1.528 c 0.449,-0.24 0.64,-0.905 0.09,-0.487 -0.277,0.21 -0.116,0.116 -0.451,0.297 -0.185,0.1 -0.609,0.322 -0.493,-0.135 0.037,-0.148 0.975,-1.105 0.345,-0.916 -0.403,0.121 -0.912,1.153 -1.389,0.73 -0.162,-0.143 -0.174,-1.215 -0.42,-0.722 -0.047,0.093 0.069,0.453 -0.478,0.642 -0.642,0.222 -0.52,-0.401 -0.818,-0.613 -0.117,-0.083 0.079,0.507 -0.502,0.664 -0.46,0.124 -0.363,-1.121 -0.614,-0.692 -0.393,0.674 -0.748,0.103 -1.159,-0.216 -0.031,-0.024 -0.101,-0.1 -0.097,-0.027 0.003,0.034 0.021,0.091 0.069,0.151 0.129,0.159 0.376,0.384 0.347,0.613 -0.021,0.178 -1.42,0.322 -1.092,0.444 0.096,0.036 0.52,-0.073 0.829,0.189 0.136,0.115 -0.018,0.367 -0.221,0.473 -0.586,0.303 -0.69,0.738 -0.039,0.318 0.409,-0.264 1.88,-0.754 1.428,0.368 -0.181,0.45 -0.011,0.639 0.236,0.156 0.361,-0.706 0.33,0.083 0.562,0.268 z"
         style="fill:#ffffff;fill-opacity:1;fill-rule:evenodd;stroke:none"
         id="path182"
         inkscape:connector-curvature="0" />
    </g>
    <g
       id="g184"
       transform="matrix(4.7032974,0,0,-4.6890433,134.1679,58.750098)">
      <path
         d="m 0,0 c -0.011,0.01 -0.567,0.945 -0.865,0.521 -0.28,-0.401 -0.745,-0.887 -0.854,-1.412 -0.067,-0.324 -0.385,-1.35 -0.002,-1.557 2.33,-1.26 1.698,0.443 1.855,1.761 C 0.152,-0.528 0.299,0.037 0,0"
         style="fill:#ffffff;fill-opacity:1;fill-rule:evenodd;stroke:none"
         id="path186"
         inkscape:connector-curvature="0" />
    </g>
    <g
       id="g188"
       transform="matrix(4.7032974,0,0,-4.6890433,99.19137,64.485309)">
      <path
         d="M 0,0 C -0.438,-0.321 -0.048,1.738 -1.357,0.938 -1.648,0.76 -1.702,0.961 -1.833,0.322 -1.87,0.136 -2.989,-0.686 -1.99,-2.207 c 0.579,-0.881 1.84,-0.783 1.865,-0.002 0.006,0.191 -0.022,2.015 0.221,2.066 0.076,0.192 -0.154,0.1 -0.152,0.187 z"
         style="fill:#ffffff;fill-opacity:1;fill-rule:evenodd;stroke:none"
         id="path190"
         inkscape:connector-curvature="0" />
    </g>
    <g
       id="g192"
       transform="matrix(4.7032974,0,0,-4.6890433,76.597192,37.733812)">
      <path
         d="m 0,0 c -2.137,-1.434 -1.387,-1.409 -3.904,-2.193 -1.482,-0.462 -0.35,-1.849 -0.446,-3.263 -0.022,-0.317 0.212,-2.941 0.256,-2.973 -0.018,-0.115 0.437,-4.053 0.702,-4.235 1.016,-0.695 1.674,-0.225 3.169,-0.943 1.724,-0.827 1.588,0.754 1.964,2.084 0.548,1.942 -1.884,9.571 -1.612,10.65 C 0.277,-0.283 -0.085,-0.057 0,0"
         style="fill:#b9e7df;fill-opacity:1;fill-rule:evenodd;stroke:none"
         id="path194"
         inkscape:connector-curvature="0" />
    </g>
    <g
       id="g196"
       transform="matrix(4.7032974,0,0,-4.6890433,67.596021,162.03987)">
      <path
         d="M 0,0 C -0.741,-1.64 1.552,0.259 0.925,-3.559 0.627,-5.374 0.871,-6.187 0.644,-7.818 0.585,-8.245 -0.919,-8.577 -1.452,-7.33 c -0.553,1.291 -0.952,0.471 -0.434,2.919 0.112,0.533 1.128,4.202 1.219,4.293 C -0.547,0.002 -0.509,-0.261 0,0"
         style="fill:#b9e7df;fill-opacity:1;fill-rule:evenodd;stroke:none"
         id="path198"
         inkscape:connector-curvature="0" />
    </g>
    <g
       id="g200"
       transform="matrix(4.7032974,0,0,-4.6890433,87.872398,130.30584)">
      <path
         d="m 0,0 c 0,0 -0.293,1.566 0.76,1.362 1.053,-0.204 9.887,-2.202 10.381,-2.293 0.495,-0.09 1.008,0.003 1.008,0.003 0,0 -0.679,-1.114 -1.186,-1.49 -0.508,-0.377 -3.575,-5.587 -4.179,-5.539 -0.604,0.048 -1.899,0.134 -4.93,0.484 -3.031,0.349 -5.428,-0.206 -5.773,0.376 -0.345,0.581 0.537,1.667 0.976,2.881 C -2.504,-3.001 0,0 0,0"
         style="fill:#abdb46;fill-opacity:1;fill-rule:evenodd;stroke:none"
         id="path202"
         inkscape:connector-curvature="0" />
    </g>
    <g
       id="g204"
       transform="matrix(4.7032974,0,0,-4.6890433,85.235238,135.68652)">
      <path
         d="M 0,0 C 0.22,0.409 3.298,1.518 3.459,1.521 3.621,1.523 5.314,1.634 4.637,0.268 3.959,-1.099 6.165,0.66 6.876,0.278 7.924,-0.286 5.979,-1.275 6.563,-1.353 7.542,-1.482 6.436,-2.206 5.424,-2.63 c -1.77,-0.742 -5.803,-2.832 -5.966,-2.746 -0.769,0.41 0.576,0.904 0.149,1.004 -0.427,0.1 -1.687,-0.388 -1.756,-0.086 -0.068,0.302 -0.016,0.57 0.487,1.211 0.503,0.64 1.145,0.617 0.549,0.617 -0.595,0 -1.203,-0.389 -0.899,0 C -1.708,-2.241 0,0 0,0"
         style="fill:#f9f453;fill-opacity:1;fill-rule:evenodd;stroke:none"
         id="path206"
         inkscape:connector-curvature="0" />
    </g>
    <g
       id="g208"
       transform="matrix(4.7032974,0,0,-4.6890433,67.667984,82.449007)">
      <path
         d="m 0,0 -0.316,-0.2 c 0.29,-0.025 0.385,0.127 0.75,0.129 1.28,0.009 1.889,1.696 1.162,2.81 C 1.349,3.116 0.998,3.381 0.577,3.582 0.106,3.808 -0.373,3.872 -0.777,3.481 -1.258,3.015 -1.276,2.888 -1.397,2.238 -1.474,1.827 -1.274,1.16 -1.034,0.8 -0.697,0.295 -0.487,0.254 0,0 M 0.914,3.227 0.865,3.241 0.896,3.28 Z m 0,0 C 1.133,3.168 1.36,2.823 1.465,2.608 1.647,2.236 1.605,1.946 1.605,1.525 H 1.552 c 0,0.77 -0.244,1.106 -0.638,1.702 M 8.729,0.296 C 8.742,0.529 8.81,0.509 8.752,0.692 8.393,0.805 8.249,0.117 8.375,-0.058 c 0.254,0.042 0.004,0.047 0.257,0.151 0.659,-0.5 1.192,-0.895 2.078,-0.598 0.696,0.233 1.242,0.691 1.57,1.356 0.194,0.049 0.054,-0.016 0.182,0.031 -0.084,0.309 -0.037,0.516 -0.421,0.58 C 12.044,1.306 12.297,1.012 11.753,0.473 11.449,0.172 11.257,0.067 10.894,-0.157 10.24,-0.56 9.173,-0.288 8.729,0.296 m -3.973,-15.95 c 0,-0.289 0.427,-0.481 0.741,-0.199 0.274,0.246 0.087,0.611 -0.174,0.611 -0.176,0 -0.297,0.002 -0.433,-0.133 -0.047,-0.047 -0.134,-0.2 -0.134,-0.279 m 6.185,2.783 c 0,-0.096 0.09,-0.243 0.149,-0.289 0.089,-0.069 0.218,-0.099 0.322,-0.081 0.726,0.126 0.479,0.884 -0.007,0.759 -0.22,-0.057 -0.464,-0.117 -0.464,-0.389 m 0.413,-0.051 c -0.166,0 -0.06,0.257 0.206,0.257 0.111,0 0.103,-0.094 0.103,-0.206 -0.125,-0.01 -0.162,-0.051 -0.309,-0.051 m -4.974,-3.35 c 0.061,-0.091 0.09,-0.107 0.212,-0.123 0.197,-0.026 0.758,-0.109 0.87,-0.083 -0.007,0.089 1.022,1.541 1.134,1.623 0.025,-0.053 0.035,-0.136 0.054,-0.203 0.019,-0.067 0.04,-0.143 0.065,-0.22 0.055,-0.174 0.092,-0.273 0.287,-0.218 0.163,0.045 0.471,0.152 0.614,0.24 0.076,0.046 0.097,0.07 0.191,0.092 -0.027,-0.042 -0.031,-0.037 -0.058,-0.071 -0.053,-0.071 -0.015,-0.017 -0.058,-0.096 l -0.348,-0.555 c -0.078,-0.117 -0.151,-0.236 -0.239,-0.353 -0.02,-0.028 -0.388,-0.471 -0.147,-0.471 0.246,0 0.094,0.008 0.773,-0.078 0.136,0.072 0.175,0.155 0.277,0.265 l 0.482,0.6 c 0.084,0.113 0.144,0.202 0.227,0.314 l 0.572,0.768 c 0.087,0.115 0.287,0.398 0.298,0.527 -0.004,0.002 -0.011,0.006 -0.012,0.003 l -0.113,0.026 c -0.043,0.011 -0.122,0.033 -0.164,0.044 -0.633,0.156 -0.397,0.185 -0.993,-0.054 -0.23,-0.093 -0.394,-0.174 -0.6,-0.277 -0.164,-0.082 -0.46,-0.252 -0.592,-0.283 -0.03,0.359 -0.05,0.742 -0.129,0.746 -0.14,0.006 -0.957,0.127 -0.962,0.125 -0.062,-0.014 -0.118,-0.114 -0.19,-0.235 L 6.493,-16.128 C 6.425,-16.194 6.406,-16.173 6.38,-16.272 m 0.747,3.143 c -0.166,-0.038 -0.629,-0.296 -0.807,-0.378 -0.087,-0.039 -0.114,-0.045 -0.193,-0.09 l -0.419,-0.2 c -0.097,-0.044 -0.122,-0.04 -0.153,-0.156 0.142,-0.095 0.05,0.009 0.286,-0.073 l 0.627,-0.2 c 0.135,-0.038 0.219,-0.117 0.315,-0.091 0.429,0.119 0.629,0.319 1.176,0.537 l 1.273,0.582 c 0.227,0.12 0.229,0.291 0.469,0.64 l 0.447,0.661 c 0.065,0.103 0.097,0.125 0.097,0.289 -0.131,0.03 -0.31,-0.078 -0.53,-0.166 -0.345,-0.137 -1.428,-0.7 -1.583,-0.736 -0.006,0.071 -0.032,0.203 -0.048,0.261 -0.177,0.655 -0.148,0.858 -0.253,1.108 -0.001,0.002 -0.915,0.184 -1.249,0.287 -0.258,0.079 0.528,-2.066 0.545,-2.275 m 5.983,14.88 c 0.574,-0.068 1.137,-0.048 1.57,0.371 1.365,1.321 0.762,3.66 -0.538,3.959 -1.086,0.25 -3.026,-1.419 -1.968,-3.351 0.19,-0.348 0.431,-0.538 0.743,-0.749 0.31,-0.208 0.055,-0.026 0.193,-0.23 m 0.784,4.136 c 0.906,0 1.097,-0.661 1.247,-1.413 0.112,-0.56 -0.085,-1.68 -0.542,-2.04 0.017,0.139 0.094,0.273 0.137,0.43 0.185,0.68 0.167,1.879 -0.224,2.47 -0.228,0.345 -0.481,0.361 -0.618,0.553 M 13.513,3.449 C 13.301,3.452 12.868,3.485 12.675,3.56 l 0.15,0.062 -0.222,0.172 c 0.048,0.325 0.262,1.092 0.454,1.334 0.414,0.049 0.475,-0.037 0.828,-0.101 C 13.848,4.791 13.725,4.544 13.66,4.312 13.587,4.048 13.563,3.727 13.513,3.449 M 6.185,5.475 C 6.392,5.629 6.38,5.492 6.708,5.528 6.231,5.883 5.275,5.579 4.862,5.183 4.27,4.614 4.166,4.255 4.04,3.452 3.945,2.85 4.102,1.872 4.353,1.346 4.54,0.954 5.363,0.305 5.811,0.248 5.935,0.232 6.775,0.357 6.874,0.406 7.772,0.855 8.393,1.574 8.468,2.641 8.559,3.93 7.542,5.329 6.185,5.475 M 6.287,5.249 C 7.216,5.249 7.904,4.281 8.105,3.662 8.258,3.188 8.206,2.646 8.075,2.184 7.989,1.882 7.668,1.266 7.418,1.103 7.402,1.697 7.853,1.499 7.498,3.534 7.349,4.391 6.796,4.8 6.287,5.249 M 6.446,4.929 C 6.451,4.934 6.462,4.921 6.462,4.914 6.462,4.911 6.468,4.907 6.468,4.908 6.467,4.909 6.375,4.858 6.446,4.929 M 5.613,2.73 C 5.144,2.573 4.985,2.636 4.651,2.975 4.58,3.578 4.834,4.458 5.378,4.774 5.594,4.715 6.052,4.525 6.185,4.349 6.157,4.114 5.961,3.846 5.861,3.599 5.727,3.271 5.713,3.031 5.613,2.73 M 4.318,2.748 C 4.323,2.753 4.334,2.74 4.334,2.733 4.334,2.73 4.34,2.726 4.34,2.726 4.339,2.728 4.247,2.677 4.318,2.748 m 0.546,-0.59 0.632,-0.2 C 5.792,1.844 5.856,1.781 5.905,1.48 5.366,1.439 5.171,1.697 4.941,1.989 4.813,2.15 4.889,2.113 4.864,2.158 m 0.04,14.05 c 0.288,0.439 1.261,0.744 1.755,0.744 v 0.107 C 5.755,17.059 5.297,16.81 4.605,16.293 4.208,15.996 3.635,15.021 3.498,14.527 3.443,14.328 3.458,14.079 3.465,13.865 3.476,13.516 3.903,12.611 4.105,12.323 4.54,11.703 5.012,11.355 5.746,11.091 L 5.802,10.797 5.576,10.636 C 5.784,10.382 5.888,10.468 6.065,10.337 5.887,10.245 5.98,10.372 5.928,10.21 5.997,10.141 5.986,10.138 6.074,10.09 L 6.287,9.983 C 5.97,9.983 5.933,9.883 5.651,9.875 5.532,9.871 5.392,9.886 5.275,9.877 5.098,9.864 5.135,9.836 4.957,9.823 4.476,9.787 3.948,9.807 3.467,9.771 3.289,9.758 3.326,9.73 3.148,9.717 1.918,9.625 2.456,10.005 1.137,9.175 L -2.775,6.969 c -0.06,-0.178 -0.091,-0.237 -0.039,-0.39 0.165,-0.48 0.2,-0.975 0.291,-1.469 0.221,-1.201 0.275,-1.891 0.4,-3.004 0.042,-0.368 0.024,-0.721 0.089,-1.081 0.089,-0.488 0.076,-1.084 0.132,-1.571 0.27,-2.348 -0.521,-2.15 1.227,-2.763 0.281,-0.099 0.573,-0.233 0.853,-0.317 0.903,-0.273 1.869,-0.411 2.789,-0.616 0.53,-0.118 0.51,0.007 0.97,0.012 C 3.906,-4.428 3.961,-4.464 3.907,-4.608 3.687,-4.694 3.382,-4.791 3.155,-4.866 2.391,-5.118 1.662,-5.406 0.882,-5.625 0.521,-5.727 -2.133,-6.41 -2.213,-6.574 l 0.145,-3.767 c 0.007,-0.466 0.177,-0.687 -0.06,-1.159 -0.135,-0.267 -0.259,-0.606 -0.415,-0.862 -0.238,-0.39 -0.977,-0.399 -0.689,-1.165 l 0.293,-0.398 c 0.394,-0.348 0.545,-0.199 0.915,0.022 0.025,-0.29 0.068,-0.433 0.064,-0.745 -0.002,-0.259 0.04,-0.524 0.066,-0.786 0.5,-0.375 1.126,-0.597 1.535,-0.913 -0.026,-0.229 -0.115,-0.517 -0.152,-0.76 l -0.193,-1.723 c -0.056,-0.312 -0.013,-0.601 -0.044,-0.913 -0.547,-0.411 -0.737,-0.988 -0.903,-1.651 -0.183,-0.735 -0.304,-1.418 -0.308,-2.245 -0.005,-0.786 0.489,-1.068 1.085,-1.468 0.598,-0.402 1.224,-0.606 2.001,-0.607 0.395,-0.001 1.181,0.148 1.245,0.627 l 0.119,0.456 c 0.245,1.256 -0.31,2.129 -0.127,3.749 0.031,0.273 -0.052,0.47 0.113,0.733 0.344,0.547 0.742,1.712 0.831,1.786 l 0.197,-0.235 c 0.168,0.056 0.498,0.32 0.664,0.429 0.169,0.112 0.498,0.29 0.681,0.383 0.514,0.261 0.267,0.176 0.798,0.159 0.325,-0.011 0.682,-0.091 1.002,-0.116 -0.029,-0.178 -0.02,-0.071 -0.01,-0.225 0.019,-0.298 -0.045,-0.619 0.038,-0.97 0.083,-0.353 0.141,-0.881 0.251,-1.186 0.204,-0.564 1.623,-0.826 2.157,-0.729 0.558,0.102 1.698,0.353 2.11,0.763 0.314,0.312 0.168,0.744 0.088,1.13 -0.034,0.165 -0.262,1.063 -0.327,1.173 0.86,1.069 1.609,2.185 2.448,3.255 0.415,0.529 2.322,2.69 2.846,2.9 0.306,0.758 0.555,1.514 0.787,2.299 0.745,0.22 0.723,0.553 0.483,1.398 -0.156,0.55 0.662,2.917 0.821,3.469 0.141,0.49 0.053,0.473 -0.046,0.927 -0.079,0.362 0.228,0.515 0.067,0.861 -0.7,-0.464 -1.695,-2.821 -2.269,-3.609 -0.258,0.254 -0.358,0.343 -0.75,0.297 -0.438,-0.433 -0.138,-0.709 -0.477,-1.013 -0.156,-0.14 -0.242,-0.166 -0.398,-0.346 -0.603,-0.695 0.483,-0.811 -1.712,-1.32 -0.211,-0.049 -0.448,-0.073 -0.672,-0.127 0.006,0.274 0.144,0.789 0.2,1.077 l 0.471,2.189 c 0.032,0.176 0.058,0.368 0.095,0.543 l 0.178,0.486 c -0.249,0.252 -0.955,0.12 -1.316,0.12 L 8.905,-4.21 c -0.237,0.037 -0.442,0.033 -0.671,0.074 -0.235,0.043 -0.473,-0.016 -0.689,0.056 -0.061,0.185 0.031,0.418 0.107,0.622 l 3.169,0.768 c 1.311,0.267 2.579,0.666 3.851,1.043 0.394,0.117 1.214,0.221 1.246,0.722 0.023,0.364 -0.017,0.597 0.04,0.971 l 0.173,2.757 c -0.006,0.345 -0.071,0.609 -0.058,0.958 0.008,0.206 0.05,0.215 0.058,0.421 l -0.113,4.202 c -0.186,1.585 0.521,1.945 -1.221,1.92 -0.223,-0.003 -0.239,-0.042 -0.424,-0.055 -0.31,-0.023 -0.704,0.032 -1.007,-0.003 -0.673,-0.08 -2.354,-0.055 -2.791,-0.135 C 10.265,10.054 9.911,10.115 9.585,10.09 9.4,10.076 9.384,10.038 9.161,10.034 9.005,10.032 8.834,10.045 8.679,10.039 8.36,10.026 8.058,9.961 7.728,9.997 c 0.138,0.069 0.38,0.048 0.547,0.126 0.031,0.014 0.328,0.298 0.357,0.335 -0.067,0.218 -0.025,0.089 -0.208,0.235 0.073,0.105 0.119,0.096 0.03,0.227 -0.128,0.19 -0.118,0.023 -0.199,0.234 -0.001,0.649 0.125,0.707 0.617,1.032 1.18,0.778 1.572,2.073 0.735,3.299 -0.768,1.126 -2.259,1.525 -3.545,1.213 -0.473,-0.115 -0.83,-0.401 -1.158,-0.49 m 0.966,0.164 c 0.46,0.026 0.385,0.208 1.481,0.208 1.365,0 2.447,-1.182 2.447,-2.341 0,-1.023 -1.308,-2.125 -1.906,-2.225 0.088,0.54 0.383,1.066 0.425,1.631 l 0.461,-0.041 0.045,0.224 C 8.452,13.95 8.505,13.675 8.191,13.909 7.174,14.665 7.533,13.543 6.925,13.492 6.606,13.474 6.302,13.814 5.914,13.814 5.467,13.814 5.077,13.25 5.072,12.865 L 5.313,12.905 6.03,11.76 C 5.325,11.695 3.946,12.598 3.946,13.441 l 0.006,0.688 c 0.334,-0.234 0.456,-0.257 0.824,-0.028 0.598,0.371 1.708,1.315 1.635,2.018 C 6.24,16.204 5.976,16.29 5.87,16.372 M 4.904,16.208 4.85,16.154 Z M 4.85,16.154 4.765,16.046 c 0.008,0.132 -0.032,0.061 0.085,0.108 M 4.14,14.115 C 3.827,15.052 5.575,16.544 6.22,16.034 6.16,15.522 4.702,13.938 4.14,14.115 M 6.3,11.699 c -0.353,0.451 -0.546,0.86 -0.962,1.282 0.357,0.57 0.595,0.777 1.25,0.443 0.829,-0.423 0.79,-0.072 1.237,0.501 C 8.041,13.898 8.004,13.86 8.202,13.76 8.151,13.537 7.996,13.298 7.914,13.091 7.487,12.017 7.785,11.864 7.224,11.759 6.926,11.703 6.649,11.658 6.3,11.699 M 4.318,12.377 4.27,12.391 4.3,12.43 Z m 0.054,-0.053 -0.054,0.053 z m 0,0 c 0.231,-0.116 0.439,-0.299 0.69,-0.426 0.348,-0.177 0.485,-0.168 0.586,-0.585 -0.434,0.104 -1.16,0.582 -1.276,1.011 m 1.343,-0.696 c 0.326,-0.154 0.364,0.031 0.567,-0.354 L 5.968,11.258 c -0.199,0.077 -0.171,0.225 -0.253,0.37 m 0.683,-0.169 c 0.129,0.014 0.81,0.061 0.895,0.053 C 7.149,11.433 7.006,11.411 6.815,11.37 6.534,11.31 6.525,11.219 6.398,11.459 m 1.006,-0.146 c 0.049,0.05 0.172,-0.067 0.063,-0.029 -10e-4,0 -0.136,-0.043 -0.063,0.029 M 8.033,11.57 8.041,11.216 C 7.838,11.2 7.831,11.166 7.684,11.274 7.716,11.462 7.854,11.54 8.033,11.57 M 6.016,10.945 c 0.111,0.062 0.872,0.103 1.069,0.102 0.617,-0.002 0.796,0.094 0.953,-0.199 C 7.775,10.82 7.814,10.88 7.566,10.89 7.379,10.897 7.168,10.887 6.978,10.888 6.572,10.889 6.371,10.821 6.23,10.826 5.94,10.838 6.074,10.815 6.016,10.945 m 0.169,-0.363 c 0.15,0.074 0.886,0.137 1.055,0.053 C 7.059,10.616 6.905,10.631 6.734,10.599 6.528,10.561 6.411,10.557 6.185,10.582 M 7.989,10.568 C 8.245,10.574 8.162,10.643 8.299,10.55 8.257,10.518 8.203,10.465 8.137,10.462 7.905,10.451 8.019,10.498 7.989,10.568 M 2.331,9.471 c 0.519,0.16 1.072,0.012 1.594,0.108 l 6.67,0.352 c 1.197,-0.006 2.252,0.104 3.407,0.104 0.499,0 1.138,0.204 1.613,-0.033 0.239,-0.745 0.109,-1.833 0.236,-2.637 0.038,-0.238 0.033,-1.172 -0.01,-1.404 -0.096,-0.529 0.02,-2.65 0.022,-3.479 L 15.599,-0.925 C 15.452,-1.408 9.302,-2.836 8.162,-3.064 7.913,-3.113 7.567,-3.135 7.343,-3.203 7.135,-3.266 6.763,-3.351 6.551,-3.368 5.979,-3.414 3.795,-4.147 3.518,-4.013 3.462,-3.952 3.436,-1.989 3.349,-1.414 3.308,-1.144 3.252,-0.866 3.212,-0.592 L 3.097,0.675 C 3.09,0.876 3.047,0.896 3.039,1.097 3.033,1.253 3.05,1.424 3.044,1.58 3.036,1.78 2.994,1.801 2.986,2.001 2.981,2.15 3.002,2.334 2.985,2.478 2.824,3.85 2.744,4.784 2.46,6.21 2.247,7.283 2.008,8.408 2.331,9.471 M 1.605,9.079 2.265,6.122 C 2.501,4.944 2.834,2.412 2.829,1.205 l 0.148,-1.713 c 0.116,-0.774 0.36,-2.899 0.189,-3.412 -0.152,-0.051 -1.445,0.215 -1.833,0.278 -0.2,0.033 -0.461,0.05 -0.64,0.105 -0.789,0.239 -1.466,0.474 -2.218,0.762 -0.07,0.904 -0.083,2.155 -0.173,2.965 -0.207,1.867 -0.255,2.84 -0.567,4.699 -0.058,0.343 -0.291,1.574 -0.141,1.87 0.15,0.299 3.654,2.233 4.011,2.32 M 5.223,-3.902 c 0.005,0.005 0.015,-0.008 0.015,-0.015 0,-0.003 0.007,-0.007 0.006,-0.007 -10e-4,0.002 -0.093,-0.049 -0.021,0.022 m 10.998,-7.008 c -0.264,0.306 -0.125,0.236 0.055,1.115 0.189,0.92 0.425,1.733 0.723,2.628 0.188,0.563 0.373,1.118 0.559,1.676 l 0.485,1.431 c 0.004,0.011 0.046,0.108 0.047,0.111 0.055,0.109 0.025,0.05 0.06,0.1 0.007,-0.01 0.019,-0.013 0.02,-0.031 0.038,-0.811 -0.671,-2.733 -0.871,-3.533 -0.145,-0.58 -0.804,-3.151 -1.078,-3.497 m -0.447,0.287 -0.286,-0.099 -1.21,0.624 c 0.251,0.469 0.501,0.992 0.751,1.497 0.259,0.523 1.725,2.733 2.216,3.583 0.141,0.244 0.258,0.529 0.413,0.739 0.006,-0.204 -0.396,-1.249 -0.485,-1.518 -0.174,-0.521 -0.346,-1.036 -0.519,-1.556 -0.156,-0.469 -0.376,-1.134 -0.468,-1.607 -0.102,-0.518 -0.232,-1.18 -0.412,-1.663 m -8.902,5.976 0.014,0.049 0.039,-0.031 z m -8.503,-1.924 2.857,0.761 c 0.399,0.122 2.594,0.886 2.764,0.888 0.017,-0.222 0.056,-0.439 0.067,-0.634 -0.268,-0.356 -0.339,-0.558 0.007,-0.888 0.275,-0.261 0.624,-0.332 0.999,-0.331 0.682,0.002 1.493,0.178 1.92,0.741 -0.014,0.262 -0.1,0.218 -0.009,0.43 0.067,0.157 0.127,0.236 0.185,0.405 0.05,0.148 0.074,0.266 0.119,0.412 0.052,0.174 0.059,0.332 0.108,0.478 0.295,0.03 1.443,-0.123 1.718,-0.127 0.925,-0.012 2.15,-0.157 3.141,-0.157 L 11.851,-4.785 C 9.803,-5.612 7.601,-6.952 5.668,-7.592 4.911,-7.843 4.409,-8.205 3.868,-8.125 3.606,-8.086 3.741,-8.19 3.452,-8.069 c -0.903,0.376 -4.784,1.303 -5.083,1.498 m 8.503,1.924 C 6.849,-4.916 6.59,-5.36 6.436,-5.594 6.119,-6.077 6.071,-5.988 5.531,-6.126 5.201,-6.21 4.7,-6.359 4.464,-6.043 c -0.216,0.29 -0.13,0.925 -0.248,1.17 0.558,0.05 0.304,-0.454 2.391,0.088 0.156,0.041 0.051,0.081 0.265,0.138 m 4.788,-4.575 c -0.283,0.006 -0.956,0.212 -1.256,0.288 -0.921,0.232 -3.212,0.695 -3.997,0.603 L 6.3,-8.545 C 6.2,-8.491 5.94,-8.44 5.852,-8.437 5.491,-8.423 5.323,-8.934 4.758,-8.863 l -0.568,-0.95 0.036,1.269 c 0.539,0.427 1.496,0.663 2.114,0.918 1.772,0.732 2.452,1.107 4.131,1.934 0.339,0.167 0.722,0.308 1.064,0.479 0.185,0.092 0.926,0.417 1.082,0.46 z m -7.552,3.241 c 0.177,-0.131 0.02,-0.11 0.631,-0.567 -0.297,-0.027 -0.426,0.069 -0.62,0.266 z m -5.894,-4.885 -0.066,1.592 c 0.002,0.258 -0.04,0.326 -0.055,0.531 l -0.042,1.586 c 0,0.004 0.049,0.205 0.051,0.214 l 0.098,0.222 c 1.057,-0.252 2.919,-0.824 4.024,-1.191 0.398,-0.132 0.909,-0.365 1.296,-0.459 10e-4,-0.437 0.209,-0.812 0.215,-1.274 0.004,-0.248 -0.003,-0.499 -10e-4,-0.748 0.003,-0.34 0.067,-0.229 -0.122,-0.495 -0.016,-0.023 0.005,0.514 -0.656,0.392 -0.489,-0.091 -0.402,-0.759 -0.535,-0.872 -0.615,-0.229 -0.411,-0.115 -0.828,-0.555 -0.313,-0.331 -0.904,-0.669 -1.371,-0.703 -0.515,-0.039 -0.585,-0.006 -1.182,-0.096 -0.147,-0.022 -0.542,-0.064 -0.68,-0.064 0.095,0.392 1.168,2.02 1.497,2.387 0.229,0.256 0.366,0.132 0.898,0.378 0.418,0.193 0.748,0.558 0.689,1.062 -0.136,1.159 -2.251,1.235 -2.34,-0.155 -0.03,-0.464 0.1,-0.34 -0.169,-0.736 -0.104,-0.153 -0.637,-0.95 -0.721,-1.016 m 2.859,2.283 c 0.005,0.005 0.015,-0.008 0.016,-0.016 0,-0.003 0.006,-0.006 0.006,-0.006 -10e-4,0.001 -0.093,-0.05 -0.022,0.022 m 4.256,-0.465 c 0.73,0.505 0.884,0.234 1.21,0.266 0.17,0.234 -0.048,0.106 0.173,0.199 0.621,0.124 4.067,-0.647 4.672,-0.808 0.602,-0.161 3.725,-1.095 4,-1.48 -0.414,0 -0.895,0.079 -1.29,0.146 -0.429,0.074 -0.851,0.138 -1.268,0.222 -1.319,0.265 -4.155,0.675 -5.061,0.898 -0.246,0.06 -2.255,0.415 -2.436,0.557 M 1.043,-9.275 C 1.054,-9.134 1,-9.211 1.122,-9.182 Z m 12.266,0.106 c 0.005,0.006 0.015,-0.008 0.015,-0.015 0,-0.003 0.007,-0.006 0.007,-0.006 -0.002,10e-4 -0.093,-0.05 -0.022,0.021 M -0.523,-9.435 c 0.005,0.006 0.015,-0.008 0.016,-0.015 0,-0.003 0.006,-0.007 0.006,-0.006 -0.001,10e-4 -0.093,-0.05 -0.022,0.021 M 12.83,-9.541 c 0.359,0 0.751,0.129 1.051,0.093 l 0.183,-0.19 -0.13,-0.318 c -0.189,0.03 -1.001,0.273 -1.104,0.415 m -3.937,-0.532 0.156,-0.007 c -0.21,-0.115 -0.139,-0.003 -0.156,0.007 m 0.475,-0.093 -0.208,-0.016 c 0.054,0.037 -0.008,0.05 0.106,0.049 0.081,0 0.059,-0.011 0.102,-0.033 m 0.377,-0.067 -0.315,0.005 c 0.142,0.079 0.191,0.074 0.315,-0.005 m 0.319,-0.053 c -0.183,0 -0.201,-0.036 -0.319,0.053 0.182,0 0.201,0.037 0.319,-0.053 m 0,0 0.315,-0.004 c -0.142,-0.08 -0.191,-0.075 -0.315,0.004 m 0.372,-0.053 0.317,-0.015 -0.317,-0.04 z m 0.634,-0.067 -0.207,-0.046 c 0.01,0.014 0.025,0.04 0.031,0.029 z m 0.372,-0.053 -0.14,-0.001 c 0.113,0.017 0.052,0.01 0.14,0.001 m 0.32,-0.053 -0.208,-0.046 c 0.046,0.063 0.148,0.052 0.208,0.046 m 0.164,-0.04 c 0.005,0.005 0.015,-0.008 0.015,-0.015 0,-0.003 0.007,-0.007 0.007,-0.006 -0.002,0.001 -0.094,-0.05 -0.022,0.021 m -12.821,-0.266 c 0.075,0.109 0.013,0.073 0.155,0.093 -0.128,-0.183 -0.026,-0.045 -0.155,-0.093 m 14.789,-0.106 0.159,-0.021 c -0.278,-0.052 -0.086,-0.026 -0.159,0.021 m -14.896,-0.107 0.014,0.049 0.039,-0.031 z m 4.256,0 c 0.05,0.05 0.173,-0.067 0.063,-0.029 -0.001,0.001 -0.135,-0.043 -0.063,0.029 m -4.256,0 c -0.044,-0.157 0.055,-0.069 -0.097,-0.097 0.022,0.119 -0.016,0.054 0.097,0.097 m 16.226,-0.106 -0.262,0.005 c 0.15,0.083 0.142,0.072 0.262,-0.005 m 0,0 c 0.227,0 0.28,0.009 0.491,-0.041 0.063,-0.015 0.157,-0.029 0.217,-0.05 0.215,-0.074 0.073,0.045 0.143,-0.122 -0.265,0.123 -0.627,0.07 -0.851,0.213 M 3.575,-11.656 c 0.285,0.489 0.798,1.748 1.235,2.315 l 2.529,-0.637 c 0.896,-0.217 1.766,-0.388 2.693,-0.552 0.919,-0.162 1.893,-0.261 2.802,-0.443 0.44,-0.088 0.89,-0.203 1.326,-0.27 l 1.437,-0.213 c -0.04,-0.147 -1.174,-1.362 -1.37,-1.556 -1.147,-1.136 -1.648,-1.995 -2.589,-3.263 -0.203,-0.275 -1.261,-1.388 -1.521,-1.459 -0.218,0.005 -0.321,0.055 -0.585,0.054 -1.302,-0.006 -0.817,0.04 -1.866,0.155 -0.395,0.043 -0.821,0.066 -1.198,0.132 l -5.651,0.627 c -0.099,0.019 -0.152,0.066 -0.276,0.096 0.145,0.283 0.918,1.758 1.057,1.867 0.242,-0.064 0.409,-0.202 0.664,-0.252 0.299,-0.058 0.597,-0.005 0.88,0.04 0.626,0.101 1.032,0.033 1.235,0.68 0.519,0.025 1.018,0.176 0.944,0.903 -0.013,0.134 0.006,0.159 -0.136,0.232 -0.146,0.075 -1.078,0.198 -1.238,0.214 0.088,0.105 0.709,0.377 0.926,0.549 0.307,0.243 0.172,0.744 -0.193,0.968 -0.133,-0.023 -0.351,-0.05 -0.522,-0.093 -0.204,-0.052 -0.358,-0.116 -0.583,-0.094 m -0.374,-0.013 0.014,0.049 0.039,-0.031 z m 0,0 -0.106,-0.053 z m -0.106,-0.053 -0.107,-0.053 z m 1.649,-0.053 H 4.637 l 0.048,0.067 z m -1.756,0 -0.013,-0.049 -0.04,0.031 z m 1.649,0 c -0.098,-0.15 -0.057,-0.122 -0.203,-0.151 0.036,0.181 0.002,0.133 0.203,0.151 m 0.107,0 0.049,-0.014 -0.031,-0.039 z m -2.022,-0.479 0.097,0.055 z m -0.159,-0.107 0.159,0.107 z m -1.224,-0.798 c 0.107,0.15 1.038,0.753 1.224,0.798 -0.107,-0.149 -1.038,-0.752 -1.224,-0.798 m -3.36,0.541 c -0.036,-0.175 0.045,-0.059 -0.098,-0.115 z m 2.722,-0.381 0.013,0.049 0.04,-0.031 z m 0,0 c -0.053,-0.139 -0.11,-0.177 -0.262,-0.199 0.101,0.139 0.105,0.157 0.262,0.199 m 0.638,-0.16 -0.014,-0.048 -0.039,0.031 z m 3.033,-0.159 c 0.005,0.005 0.015,-0.008 0.015,-0.016 0,-0.003 0.006,-0.006 0.006,-0.006 -10e-4,10e-4 -0.093,-0.05 -0.021,0.022 m -4.522,-0.106 c 0,0.121 0.065,0.01 0.033,0 0,-0.001 -0.033,-0.139 -0.033,0 m 0.957,-0.107 c 0.104,0.144 0.044,0.111 0.151,0.072 z m 4.043,0.16 c 0.252,-0.127 0.124,-0.057 0.107,-0.107 -0.046,-0.018 0.027,-0.111 -0.064,0 -0.085,0.103 -0.013,0.044 -0.043,0.107 m -4.043,-0.16 c -0.103,-0.143 -0.044,-0.111 -0.15,-0.071 z m -3.763,0.049 c 0.15,-0.108 0.214,-0.131 0.057,-0.253 -0.103,0.144 -0.078,0.051 -0.057,0.253 m 2.815,-0.218 c 0.161,-0.032 0.109,0.02 0.141,-0.141 -0.209,0.042 -0.075,0.023 -0.141,0.141 m 2.065,-0.416 0.014,0.049 0.039,-0.031 z m 0,0 -0.053,-0.053 z m -0.053,-0.053 c -0.093,-0.142 -0.22,-0.231 -0.368,-0.253 0.092,0.128 0.222,0.213 0.368,0.253 m 1.33,-0.266 0.014,0.048 0.039,-0.03 z m 0,0 c -0.097,-0.147 -0.157,-0.23 -0.315,-0.253 0.1,0.138 0.155,0.209 0.315,0.253 m -4.947,0 v 0.478 l 0.851,-0.052 c 0.18,-0.013 0.168,-0.048 0.37,-0.056 0.915,-0.035 0.26,0.106 1.081,-0.302 0.319,-0.158 0.534,-0.092 0.663,-0.188 0.009,-0.286 -0.786,-1.642 -0.997,-1.911 l -1.837,1.151 c -0.084,0.094 -0.131,0.769 -0.131,0.88 m 3.989,-0.213 c 0.006,0.005 0.016,-0.008 0.016,-0.016 0,-0.003 0.006,-0.006 0.006,-0.006 -0.001,10e-4 -0.093,-0.05 -0.022,0.022 m -2.447,-1.862 c 0,0.121 0.066,0.01 0.034,0 -0.001,0 -0.034,-0.139 -0.034,0 m 0.236,-0.213 c 0.011,0.141 -0.042,0.064 0.079,0.093 z m -0.023,-0.213 c 0.005,0.005 0.016,-0.008 0.016,-0.015 0,-0.003 0.006,-0.007 0.006,-0.006 -0.001,0.001 -0.093,-0.05 -0.022,0.021 m 0.851,-0.266 c 0.104,0.144 0.044,0.111 0.151,0.072 z m 0,0 -0.053,-0.053 z m 0.798,0 c 0.308,0 1.503,-0.049 1.747,-0.231 L 3.35,-18.048 c -0.312,0.164 -1.542,0.636 -1.692,0.846 m -0.851,-0.053 -0.014,-0.049 -0.039,0.031 z m 0.532,-0.106 c 0.005,0.005 0.016,-0.008 0.016,-0.016 0,-0.003 0.006,-0.006 0.006,-0.006 -10e-4,10e-4 -0.093,-0.05 -0.022,0.022 m -1.125,-0.114 c 0.166,-0.038 0.082,0.061 0.101,-0.095 z m 1.338,0.007 c 0.005,0.005 0.015,-0.008 0.015,-0.015 0,-0.003 0.007,-0.007 0.007,-0.006 -0.002,0.001 -0.094,-0.05 -0.022,0.021 m 2.094,-0.696 c -0.037,0.298 -0.053,0.529 0.083,0.754 0.164,-0.009 0.858,-0.059 0.953,-0.129 z m -1.722,0.484 c 0.05,0.049 0.173,-0.068 0.063,-0.03 -0.001,0.001 -0.135,-0.043 -0.063,0.03 m 5.32,-0.16 c 0.05,0.05 0.173,-0.067 0.063,-0.029 -0.001,0 -0.135,-0.044 -0.063,0.029 m -5.852,-0.053 c 0.005,0.005 0.016,-0.008 0.016,-0.016 0,-0.003 0.006,-0.006 0.006,-0.006 -10e-4,10e-4 -0.093,-0.05 -0.022,0.022 m 0.745,0 0.158,-0.021 C 2.018,-17.966 2.21,-17.94 2.137,-17.893 m 5.852,-0.745 c 0.044,0.164 0.599,0.652 0.745,0.692 -0.139,-0.211 -0.515,-0.576 -0.745,-0.692 M 9.159,-18 c 0.006,0.005 0.016,-0.008 0.016,-0.015 0,-0.003 0.006,-0.007 0.006,-0.006 C 9.18,-18.02 9.088,-18.071 9.159,-18 m 0.005,-0.997 c 0.113,0.156 0.866,0.856 0.997,0.882 -0.035,-0.19 -0.802,-0.853 -0.997,-0.882 m -7.098,-1.228 c -0.662,0.333 -1.142,-0.669 -1.312,-0.701 -0.446,10e-4 -0.902,0.237 -1.21,0.546 -0.141,0.293 0.007,2.727 0.217,3.01 0.236,-0.166 1.082,-0.587 1.386,-0.662 0.232,-0.057 0.682,-0.154 0.933,-0.124 0.278,0.034 0.67,0.157 0.895,-0.07 -0.045,-0.384 -0.63,-1.651 -0.909,-1.999 m 8.656,1.691 c 0.017,0.173 0.076,0.231 0.242,0.255 z m -2.733,-0.104 -0.014,-0.049 -0.039,0.031 z m 2.554,-0.053 0.013,0.048 0.04,-0.03 z m 0,0 -0.014,-0.049 -0.039,0.031 z m 0.266,-0.16 c 0.104,0.159 0.099,0.184 0.212,0.266 -0.018,-0.202 -0.012,-0.217 -0.212,-0.266 m -3.671,0.053 0.014,0.049 0.039,-0.031 z m 0,0 c -0.043,-0.157 -0.06,-0.16 -0.199,-0.261 0.022,0.155 0.05,0.163 0.199,0.261 m -0.031,-0.908 c 0.021,0.216 0.653,0.815 0.878,0.841 z m 2.584,0.057 0.404,0.43 c -0.019,-0.198 -0.209,-0.377 -0.404,-0.43 m -2.181,-0.053 0.014,0.049 0.039,-0.031 z m 2.181,0.053 -0.944,-0.97 c 0.042,0.215 0.742,0.915 0.944,0.97 M 7.51,-19.702 7.16,-20.078 c 0.015,0.171 0.18,0.33 0.35,0.376 m 0.479,-0.372 c 0.005,0.005 0.015,-0.009 0.015,-0.016 0,-0.003 0.007,-0.006 0.007,-0.006 -10e-4,0.001 -0.093,-0.05 -0.022,0.022 m 1.809,-0.16 0.014,0.049 0.039,-0.031 z m -2.075,-0.053 c 0.005,0.005 0.015,-0.008 0.015,-0.016 0,-0.003 0.007,-0.006 0.007,-0.006 -0.001,0.001 -0.093,-0.05 -0.022,0.022 m 2.075,0.053 C 9.751,-20.406 9.752,-20.41 9.59,-20.433 Z m -10.567,-0.428 c 0.016,0.16 -0.018,0.126 0.135,0.148 z m 9.184,0.109 0.096,0.055 z m 0,0 -0.014,-0.049 -0.039,0.031 z m -7.254,-1.242 c -0.082,0.246 -0.028,0.349 0.053,0.568 0.157,0.053 0.293,0.06 0.444,0.142 0.132,0.071 0.208,0.186 0.338,0.178 0.164,-0.493 -0.338,-1.054 -0.835,-0.888 m -1.045,0.497 c 0.005,0.005 0.015,-0.008 0.015,-0.015 0,-0.003 0.006,-0.007 0.006,-0.007 -0.001,0.001 -0.093,-0.049 -0.021,0.022 m 1.609,-0.865 c 0.178,0.14 0.215,0.155 0.345,0.328 0.177,-0.452 0.441,-2.863 -0.079,-3.236 l -0.063,0.744 c -0.014,0.117 0.002,0.253 -0.002,0.371 -0.007,0.203 -0.042,0.189 -0.055,0.37 z m -2.974,1.069 c 0.29,-0.145 0.503,-0.339 0.849,-0.506 0.388,-0.188 0.759,-0.177 1.207,-0.177 0.255,-0.069 0.293,-0.318 0.745,-0.425 l 0.268,-2.286 c 0.005,-0.318 0.005,-0.481 -0.09,-0.765 -1.138,-0.534 -2.602,0.121 -3.41,0.994 -0.141,0.308 0.118,2.744 0.431,3.165 M 14.479,7.164 c -0.008,0.385 -0.311,0.917 -0.616,1.139 -0.552,0.403 -0.628,0.403 -1.352,0.403 0.172,-0.264 1.076,-0.346 1.522,-1.084 0.169,-0.28 0.101,-0.428 0.446,-0.458 m -1.064,1.223 -0.048,0.014 0.03,0.039 z m 0.107,-0.053 -0.107,0.053 z m 0.159,-0.106 -0.159,0.106 z m 0.054,-0.053 -0.054,0.053 z m 0.053,-0.054 -0.053,0.054 z m 0,0 0.048,-0.013 -0.03,-0.04 z M 3.8,6.06 C 3.923,5.935 3.867,5.982 4.017,5.896 4.401,6.429 4.603,7.275 5.785,7.772 6.25,7.967 6.312,7.932 6.81,7.971 6.807,8.209 6.788,8.045 6.761,8.163 6.72,8.343 6.773,8.099 6.784,8.299 6.37,8.453 6.084,8.449 5.647,8.335 5.318,8.25 5.004,8.079 4.756,7.844 4.427,7.532 3.853,6.477 3.8,6.06 M 5.063,7.696 C 5.316,8.08 6.175,8.272 6.606,8.281 V 8.175 C 5.715,8.175 5.413,7.791 5.063,7.696 m 0,0 L 5.01,7.643 Z M 5.01,7.643 4.996,7.594 4.957,7.625 Z m 7.554,-4.479 c 0.292,0.017 0.659,-0.161 0.923,-0.291 L 13.585,2.55 C 13.272,2.522 12.817,2.679 12.578,2.868 Z M 5.323,-15.422 c 0.141,0 0.152,-0.258 -0.026,-0.258 -0.328,0 -0.269,0.258 0.026,0.258 M -1.108,1.698 C -1.415,3.325 0.79,4.667 1.239,1.955 1.371,1.161 0.756,0.293 0.254,0.158 -0.01,0.086 -0.482,0.376 -0.675,0.628 -0.917,0.946 -1.036,1.317 -1.108,1.698"
         style="fill:#1e4d59;fill-opacity:1;fill-rule:evenodd;stroke:none"
         id="path210"
         inkscape:connector-curvature="0" />
    </g>
    <g
       id="g212"
       transform="matrix(1.9151657,0,0,-2.2043911,55.093027,254.55612)">
      <path
         d="M 0,0 C -0.014,-0.571 -0.143,-1.415 0.054,-1.93 L 0.73,-1.973 c 1.174,0.008 3.454,-0.171 4.491,0.022 l 0.002,1.041 c -0.64,0.211 -2.054,0.066 -2.781,0.094 L 2.371,0.745 5.223,0.755 5.221,1.917 C 4.521,2.128 3.165,1.921 2.375,2.019 L 2.41,3.552 5.224,3.562 5.233,4.694 0.123,4.787 C -0.083,3.827 0.086,1.041 0,0"
         style="fill:#1e4d59;fill-opacity:1;fill-rule:evenodd;stroke:none"
         id="path214"
         inkscape:connector-curvature="0" />
    </g>
    <g
       id="g216"
       transform="matrix(1.9151657,0,0,-2.2043911,59.939351,252.26158)">
      <path
         d="M 0,0 C -0.005,0.434 -0.018,0.084 0.094,0.403 0.109,0.446 0.171,0.616 0.179,0.646 0.528,0.44 2.013,0.729 2.543,0.598 L 2.523,-0.198 C 1.842,-0.196 0.418,-0.3 0,0"
         style="fill:#1e4d59;fill-opacity:1;fill-rule:evenodd;stroke:none"
         id="path218"
         inkscape:connector-curvature="0" />
    </g>
    <g
       id="g220"
       transform="matrix(1.9151657,0,0,-2.2043911,137.55242,247.93017)">
      <path
         d="m 0,0 0.009,-0.082 0.023,-0.762 c 0.59,0.08 1.861,0.96 2.478,1.257 L 2.444,0.476 2.44,1.199 Z M 1.477,1.751 0.104,1.661 0.06,0.527 2.073,1.562 Z M 2.658,0.254 C 2.259,-0.447 0.781,-1 0.065,-1.436 0.019,-1.791 0.144,-2.02 -0.115,-2.159 -0.161,-2.484 0.055,-2.707 0.063,-3.287 0.071,-3.79 -0.042,-4.324 0.048,-4.802 0.5,-4.944 0.917,-4.873 1.411,-4.887 L 1.519,-4.89 2.521,-4.869 C 2.518,-4.241 2.352,-3.566 2.478,-2.916 3.009,-2.933 2.786,-3.233 3.325,-3.498 3.326,-3.774 4.266,-4.667 4.536,-4.906 L 7.284,-4.914 C 7.209,-4.701 4.959,-2.127 4.738,-2.019 4.594,-1.657 4.56,-1.805 4.533,-1.391 l 2.619,2.2 C 7.392,1.011 7.896,1.348 8.045,1.617 7.278,1.713 5.503,1.611 4.642,1.581 3.814,1.551 3.326,0.454 2.658,0.254"
         style="fill:#1e4d59;fill-opacity:1;fill-rule:evenodd;stroke:none"
         id="path222"
         inkscape:connector-curvature="0" />
    </g>
    <g
       id="g224"
       transform="matrix(1.9151657,0,0,-2.2043911,106.51197,247.19215)">
      <path
         d="M 0,0 -0.012,0.769 -2.397,-0.437 -2.448,-1.266 C -1.918,-1.182 -0.521,-0.311 0,0 m 3.671,-4.902 0.3,-0.433 0.774,-0.028 c 0.236,0.313 0.818,0.592 1.199,0.764 L 5.912,-4.628 5.908,-3.487 C 5.386,-3.867 4.278,-4.516 3.671,-4.902 m 2.284,2.079 -0.03,-0.045 0.007,0.724 -2.167,-1.173 -0.018,-0.802 c 0.539,0.078 1.644,0.991 2.208,1.296 M -0.992,1.322 -2.367,1.233 -2.409,0.096 -0.394,1.134 Z M 3.674,-1.266 C 3.379,-1.589 2.279,-1.426 1.801,-1.414 1.202,-1.399 0.55,-1.483 -0.032,-1.402 l -0.026,0.644 C -0.519,-0.822 -2.195,-1.632 -2.416,-2.019 L -2.437,-5.23 c 0.506,-0.153 1.937,-0.115 2.49,-0.037 -0.015,1.031 -0.205,2.123 -0.055,3.153 l 2.273,-0.028 c 0.307,0.19 1.022,0.153 1.454,0.118 L 3.757,-2.75 6.001,-1.473 5.836,1.15 C 5.522,1.293 4.066,1.235 3.729,1.157 Z"
         style="fill:#1e4d59;fill-opacity:1;fill-rule:evenodd;stroke:none"
         id="path226"
         inkscape:connector-curvature="0" />
    </g>
    <g
       id="g228"
       transform="matrix(1.9151657,0,0,-2.2043911,72.921312,253.77887)">
      <path
         d="M 0,0 C 0.661,-0.008 0.369,0.829 -0.178,0.525 -0.255,0.49 -0.326,0.369 -0.326,0.284 -0.326,0.213 -0.335,0.147 -0.289,0.086 -0.241,-0.017 -0.097,-0.059 0,0 m -0.422,1.063 c -0.293,-0.157 -2.809,-2.876 -2.939,-3.199 0.364,-0.29 0.928,-0.172 1.385,-0.172 0.49,0 1.091,-0.124 1.462,0.209 0.184,0.166 0.71,0.68 0.826,0.87 0.434,0.707 0.389,0.125 0.825,0.917 l 1.859,-2.018 1.533,0.023 0.597,0.705 C 4.708,-0.876 4.568,-1.057 4.011,-0.677 3.958,-0.255 4.146,-0.491 3.96,-0.171 3.956,-0.164 3.656,0.222 3.629,0.255 3.461,0.463 3.092,0.932 2.927,0.969 L 2.762,1.351 4.677,3.466 C 4.95,3.755 5.218,3.985 5.184,4.358 4.938,4.496 4.564,4.465 4.243,4.455 3.601,4.436 3.926,4.347 3.504,4.2 2.932,4.466 2.899,4.62 2.353,4.092 2.089,3.836 1.561,3.376 1.395,3.105 0.787,3.027 0.445,4.227 -0.09,4.443 -0.727,4.465 -2.399,4.586 -2.888,4.338 -2.922,3.954 -2.664,3.863 -2.384,3.579 -2.208,3.4 -1.855,2.997 -1.681,2.867 -1.485,2.719 -1.382,2.758 -1.25,2.635 c 0.263,-0.246 0,-0.162 0.262,-0.492 0.179,-0.225 0.459,-0.497 0.662,-0.744 z M -0.064,2.35 C -0.044,2.279 -0.01,2.218 0.047,2.168 0.136,2.068 0.215,1.996 0.362,1.996 0.65,1.996 0.798,2.276 0.681,2.51 0.647,2.58 0.584,2.659 0.521,2.697 0.246,2.987 -0.19,2.695 -0.064,2.35 M 3.232,3.239 C 3.167,3.207 3.103,3.098 3.103,3.016 3.103,2.818 3.31,2.756 3.437,2.885 3.492,2.92 3.539,2.967 3.549,3.034 3.613,3.152 3.536,3.318 3.388,3.318 3.314,3.318 3.278,3.284 3.232,3.239 m 0.136,-4.725 c -0.093,0 -0.173,-0.005 -0.231,0.088 -0.026,0.025 -0.046,0.054 -0.066,0.085 -0.032,0.032 -0.08,0.108 -0.094,0.153 -0.085,0.253 0.255,0.351 0.339,0.141 C 3.341,-1.06 3.327,-1.05 3.363,-1.085 3.411,-1.143 3.403,-1.112 3.451,-1.139 3.503,-1.165 3.54,-1.217 3.549,-1.274 3.566,-1.381 3.483,-1.486 3.368,-1.486"
         style="fill:#1e4d59;fill-opacity:1;fill-rule:evenodd;stroke:none"
         id="path230"
         inkscape:connector-curvature="0" />
    </g>
    <g
       id="g232"
       transform="matrix(1.9151657,0,0,-2.2043911,35.179325,247.38239)">
      <path
         d="M 0,0 -0.046,-0.896 C 0.352,-0.798 2.265,0.412 2.43,0.734 2.157,0.839 2.198,0.79 2.168,0.982 1.573,1.029 0.567,0.308 0,0 M 0.089,1.084 0.056,0.504 C 0.489,0.594 1.324,1.059 1.569,1.407 1.155,1.361 0.236,1.561 0.089,1.084 m 6.462,-5.927 0.078,-0.366 2.578,0.025 0.06,0.882 c -0.145,0.264 -0.093,0.507 -0.154,0.886 z m 0.015,1.464 0.04,0.03 -0.017,-1.032 c 0.64,0.152 1.913,1.089 2.564,1.451 l 0.014,1.02 z m -0.011,1.492 0.03,-0.994 c 0.592,0.141 1.927,1.116 2.563,1.465 L 9.114,-1.461 9.11,-0.652 C 8.266,-0.874 7.41,-1.798 6.555,-1.887 M 3.269,0.068 2.922,0.317 c -0.92,-0.202 -2.033,-1.456 -2.966,-1.545 0.11,-1.02 -0.112,-3.033 0.11,-3.845 l 1.724,-0.102 0.661,0.042 0.143,0.089 -0.107,4.952 c 0.72,-0.441 1.381,-1.502 2.236,-1.579 0.382,0.279 1.384,1.084 1.745,1.179 l 0.049,0.132 0.047,-0.158 0.015,-0.948 c 0.81,0.155 1.695,1.065 2.533,1.316 L 9.148,1.426 8.561,1.508 C 6.857,1.407 7.419,1.658 6.164,0.673 5.532,0.177 4.93,-0.297 4.342,-0.815 3.998,-0.661 3.384,-0.271 3.269,0.068"
         style="fill:#1e4d59;fill-opacity:1;fill-rule:evenodd;stroke:none"
         id="path234"
         inkscape:connector-curvature="0" />
    </g>
    <g
       id="g236"
       transform="matrix(1.9151657,0,0,-2.2043911,161.2005,254.09144)">
      <path
         d="m 0,0 -0.58,0.016 c 0.126,0.414 1.242,2.312 1.545,2.57 L 1.263,2.113 2.293,-0.01 Z M -1.827,2.409 C -1.94,1.958 -4.218,-1.891 -4.262,-2.21 l 2.356,0.065 c 0.308,0.49 0.471,1.046 0.891,1.504 l 4.023,-0.03 c 0.063,-0.383 0.431,-0.845 0.677,-1.172 0.426,-0.57 0.701,-0.41 1.4,-0.386 C 4.969,-1.91 4.272,-0.927 4.037,-0.543 3.725,-0.032 3.215,0.767 3.006,1.298 2.648,1.742 2.33,2.749 1.912,3.031 L 1.068,4.423 -0.212,4.439 C -0.983,4.422 -0.678,4.161 -1.193,3.745 -1.159,3.382 -1.63,2.779 -1.827,2.409"
         style="fill:#1e4d59;fill-opacity:1;fill-rule:evenodd;stroke:none"
         id="path238"
         inkscape:connector-curvature="0" />
    </g>
    <g
       id="g240"
       transform="matrix(1.9151657,0,0,-2.2043911,117.02988,230.58646)">
      <path
         d="M 0,0 1.284,2.553 1.641,2.341 C 1.75,1.558 2.563,0.715 2.72,-0.011 Z m -1.316,2.427 -1.55,-2.628 c -0.171,-0.717 -0.893,-1.541 -0.966,-1.936 l 2.369,-0.021 c 0.183,0.474 0.535,1.141 0.874,1.51 L 3.395,-0.703 C 3.56,-1.075 3.862,-1.518 4.111,-1.849 4.552,-2.436 4.807,-2.236 5.52,-2.242 5.164,-1.34 2.812,1.839 2.751,2.587 L 2.177,3.331 1.512,4.407 0.176,4.418 C -0.642,4.452 -0.643,3.409 -1.171,2.964 Z"
         style="fill:#1e4d59;fill-opacity:1;fill-rule:evenodd;stroke:none"
         id="path242"
         inkscape:connector-curvature="0" />
    </g>
    <g
       id="g244"
       transform="matrix(1.9151657,0,0,-2.2043911,90.481292,254.07954)">
      <path
         d="M 0,0 -0.168,0.067 C 0.373,0.715 0.774,2.035 1.389,2.588 L 1.637,2.337 C 1.725,1.601 2.566,0.686 2.716,-0.012 Z M -1.258,2.52 C -1.419,2.398 -3.805,-1.977 -3.839,-2.216 l 2.366,0.064 c 0.284,0.508 0.481,1.072 0.882,1.503 L 3.393,-0.702 C 3.565,-1.085 3.852,-1.509 4.108,-1.849 4.655,-2.575 4.809,-2.07 5.519,-2.314 5.489,-2.202 2.341,3.145 2.174,3.326 L 1.511,4.406 0.223,4.431 C -0.383,4.423 -0.411,4.187 -0.7,3.681 -0.913,3.309 -1.144,2.933 -1.258,2.52"
         style="fill:#1e4d59;fill-opacity:1;fill-rule:evenodd;stroke:none"
         id="path246"
         inkscape:connector-curvature="0" />
    </g>
    <g
       id="g248"
       transform="matrix(1.9151657,0,0,-2.2043911,122.23626,248.38405)">
      <path
         d="M 0,0 H 0.04 C 0.13,0 0.203,0.072 0.203,0.162 V 0.35 c 0,0.092 -0.084,0.176 -0.176,0.176 -0.065,0 -0.123,0.008 -0.175,-0.029 C -0.177,0.492 -0.195,0.48 -0.221,0.469 v 0 c -0.106,-0.052 -0.208,-0.185 -0.13,-0.302 0,-0.086 0.01,-0.16 0.103,-0.197 C -0.177,-0.074 -0.055,-0.062 0,0 m 0.028,-1.626 c 0.235,-0.036 0.385,0.579 -0.176,0.579 -0.092,0 -0.19,-0.097 -0.19,-0.189 0,-0.072 0.022,-0.197 0.075,-0.25 0.01,-0.034 0.051,-0.083 0.081,-0.108 0.05,-0.05 0.146,-0.062 0.21,-0.032 m -0.056,-1.023 c -0.065,0.093 -0.205,0.093 -0.269,-0.003 -0.029,-0.043 -0.063,-0.091 -0.067,-0.144 -0.02,-0.023 -0.034,-0.051 -0.039,-0.083 -0.079,-0.113 -0.057,-0.335 0.12,-0.335 0.038,0 0.093,-0.004 0.128,0.003 C 0,-3.242 0.103,-3.085 0.079,-2.944 0.091,-2.873 0.078,-2.76 0.026,-2.7 v 0 c -0.012,0.013 -0.048,0.046 -0.054,0.051 M 5.646,0.603 C 5.632,0.572 5.619,0.506 5.619,0.471 5.619,0.384 5.689,0.312 5.776,0.309 5.873,0.115 6.109,0.21 6.092,0.38 6.12,0.422 6.127,0.489 6.114,0.539 6.122,0.57 6.133,0.582 6.133,0.619 6.133,0.684 6.132,0.733 6.078,0.781 6.021,0.846 5.953,0.836 5.876,0.836 5.817,0.836 5.736,0.79 5.694,0.748 5.649,0.703 5.646,0.661 5.646,0.603 m 0.346,-1.717 c -0.65,0.423 -0.156,-1.021 0.166,-0.393 0.026,0.028 0.042,0.067 0.042,0.109 0,0.064 0.008,0.127 -0.024,0.18 -0.034,0.086 -0.102,0.103 -0.184,0.104 M 5.747,-2.966 C 5.68,-3.02 5.675,-3.122 5.7,-3.199 v 0.013 c 0,-0.033 0.01,-0.065 0.029,-0.093 0.029,-0.184 0.327,-0.194 0.415,-0.068 0.048,0.034 0.097,0.117 0.097,0.174 0,0.084 0.007,0.155 -0.03,0.232 -0.024,0.128 -0.172,0.178 -0.283,0.13 C 5.855,-2.824 5.767,-2.896 5.747,-2.966 M 1.836,-4.618 c 0.229,0.077 1.123,0.859 1.448,1.088 0.468,0.33 1.01,0.884 1.529,1.025 l 0.045,-1.894 0.213,-0.146 c 0.041,-0.291 0.563,-0.183 0.876,-0.175 0.341,0.008 0.688,0.011 1.022,0.036 0.191,0.561 0.105,1.371 0.116,1.978 0.029,1.18 0.088,3.418 -0.149,4.489 C 6.655,1.926 5.346,1.869 5.003,1.819 4.614,1.633 4.902,0.548 4.829,0.127 4.259,-0.397 1.381,-2.444 1.23,-2.772 1.059,-2.657 1.1,-2.948 1.078,-2.516 1.054,-1.615 1.222,1.352 1.079,1.764 0.414,1.979 -0.57,1.912 -1.27,1.862 l -0.037,-6.455 c 0.587,-0.163 0.872,-0.14 1.5,-0.144 0.395,-0.003 1.45,-0.167 1.643,0.119"
         style="fill:#1e4d59;fill-opacity:1;fill-rule:evenodd;stroke:none"
         id="path250"
         inkscape:connector-curvature="0" />
    </g>
    <g
       id="g252"
       transform="matrix(1.9151657,0,0,-2.2043911,127.91492,225.72094)">
      <path
         d="M 0,0 -0.057,-0.112 C 0.205,-0.081 4.65,2.248 4.879,2.447 3.392,2.645 3.37,2.4 2.178,1.777 1.733,1.543 0.249,0.784 -0.019,0.501 Z M 0.036,1.03 C 0.473,1.101 2.237,2.068 2.466,2.392 1.447,2.544 0.078,2.26 0.036,1.03 M 4.701,-3.179 4.7,-3.807 6.456,-3.208 6.446,-2.457 Z M 0.119,-0.386 C 0.264,-1.274 0.825,-1.281 1.557,-1.49 0.834,-2.161 -0.009,-2.094 0.285,-4.47 l 1.914,-0.056 c -0.005,1.907 0.21,2.873 2.386,2.659 l 0.034,-0.914 c 0.586,0.024 1.194,0.601 1.803,0.673 L 6.356,2.35 C 5.405,2.571 4.369,1.747 3.537,1.325 3.781,1.172 4.144,1.198 4.54,1.148 L 4.545,-0.531 2.786,-0.562 C 2.36,-0.133 2.405,0.116 2.41,0.702 1.618,0.567 0.909,-0.16 0.119,-0.386 M 4.726,-4.295 C 5.125,-4.622 5.928,-4.462 6.443,-4.46 l 0.034,0.867 C 6.007,-3.685 4.969,-3.929 4.726,-4.295"
         style="fill:#1e4d59;fill-opacity:1;fill-rule:evenodd;stroke:none"
         id="path254"
         inkscape:connector-curvature="0" />
    </g>
    <g
       id="g256"
       transform="matrix(1.9151657,0,0,-2.2043911,71.056712,225.83314)">
      <path
         d="M 0,0 C -0.032,0.005 -0.061,0.019 -0.085,0.039 -0.196,0.053 -0.27,0.162 -0.239,0.271 l -0.003,0.005 c 0.008,0.005 0.042,0.087 0.096,0.121 0.049,0.049 0.127,0.066 0.194,0.047 C 0.138,0.443 0.213,0.376 0.226,0.288 0.303,0.147 0.174,-0.058 0,0 m -1.226,-1.147 c -0.054,-0.052 -0.098,-0.032 -0.161,-0.032 -0.13,0 -0.211,0.127 -0.176,0.243 -0.011,0.103 0.064,0.198 0.172,0.204 0.045,0.013 0.068,0.007 0.111,0.007 v 0 c 0.114,0 0.21,-0.078 0.21,-0.197 0,-0.086 -0.079,-0.188 -0.156,-0.225 m -1.506,-1.222 v 0 c -0.105,0 -0.163,0.018 -0.215,0.117 -0.239,0.299 0.365,0.512 0.416,0.16 0.02,-0.03 0.002,-0.04 0.002,-0.067 0,-0.106 -0.096,-0.21 -0.203,-0.21 m -3.152,2.414 c 0.271,-0.051 0.753,-0.607 1.01,-0.818 0.189,-0.156 0.304,-0.309 0.487,-0.454 0.367,-0.291 0.445,-0.185 0.464,-0.672 C -4.17,-1.943 -5.925,-3.639 -6.21,-4 l 0.279,-0.196 c 0.626,0.124 2.217,-0.13 2.567,0.049 0.254,0.129 1.165,1.003 1.468,1.255 0.427,0.354 2.662,2.455 2.857,2.502 L 0.93,2.395 C 0.616,2.226 0.029,1.922 -0.059,1.584 l -0.71,-0.466 c -0.145,-0.337 -1.28,-1.232 -1.633,-1.448 -0.315,0.133 -0.657,0.409 -0.81,0.698 -0.433,0.181 -0.492,0.464 -0.796,0.523 -0.203,0.342 -1.06,1.063 -1.469,1.222 -0.415,0.161 -1.91,0.148 -2.385,0.095 0.128,-0.491 1.692,-1.623 1.978,-2.163 m 1.597,-3.191 c 0.018,0.016 0.039,0.029 0.062,0.037 0.057,0.038 0.129,0.037 0.195,0.037 0.146,0 0.226,-0.158 0.161,-0.277 -0.002,-0.015 -0.011,-0.037 -0.011,-0.047 0,-0.114 -0.103,-0.2 -0.214,-0.181 -0.045,-0.009 -0.093,0.002 -0.132,0.024 v 0 c -0.044,0.026 -0.091,0.06 -0.113,0.11 -0.05,0.1 -0.061,0.228 0.052,0.297"
         style="fill:#1e4d59;fill-opacity:1;fill-rule:evenodd;stroke:none"
         id="path258"
         inkscape:connector-curvature="0" />
    </g>
    <g
       id="g260"
       transform="matrix(1.9151657,0,0,-2.2043911,109.21312,234.59383)">
      <path
         d="M 0,0 0.019,1.697 0.041,5.188 C -0.14,5.455 -0.082,5.878 -0.101,6.26 L -2.28,6.2 -2.224,4.939 -2.193,3.668 -5.962,3.665 -5.939,4.622 c -0.009,0.494 0.117,1.087 -0.049,1.544 -0.727,0.236 -1.868,0.026 -2.35,0.174 L -8.372,2.641 -8.38,-0.171 c 0.45,-0.193 1.978,-0.132 2.495,-0.059 -0.006,0.989 -0.204,2.149 -0.053,3.151 l 3.685,0.085 0.019,-0.837 -0.01,-0.095 c 0.033,-0.719 -0.195,-1.825 0.283,-2.365 l 1.867,-0.002 z"
         style="fill:#1e4d59;fill-opacity:1;fill-rule:evenodd;stroke:none"
         id="path262"
         inkscape:connector-curvature="0" />
    </g>
    <g
       id="g264"
       transform="matrix(1.9151657,0,0,-2.2043911,73.965842,223.65806)">
      <path
         d="M 0,0 -0.02,-0.913 C 0.39,-0.813 2.111,0.309 2.452,0.63 2.248,0.905 2.233,0.703 2.194,0.976 1.496,1.038 0.642,0.304 0,0 m 6.577,-4.854 0.071,-0.349 2.576,-0.01 0.069,0.901 c -0.147,0.266 -0.092,0.504 -0.156,0.888 z m 0.015,1.466 0.041,0.03 -0.018,-1.032 c 0.647,0.153 1.906,1.087 2.562,1.45 L 9.146,-2.98 9.182,-1.99 C 8.409,-2.205 7.388,-3.095 6.592,-3.388 m -0.011,1.491 0.03,-0.994 c 0.634,0.15 1.891,1.118 2.58,1.463 L 9.139,-1.459 9.136,-0.662 C 8.297,-0.891 7.431,-1.813 6.581,-1.897 m 0.01,1.371 0.016,-0.949 C 7.153,-1.371 8.61,-0.374 9.214,-0.061 9.096,0.406 9.156,0.97 9.174,1.442 L 8.567,1.49 C 6.859,1.433 7.368,1.586 6.138,0.622 5.54,0.152 4.926,-0.334 4.369,-0.827 3.763,-0.557 3.373,-0.065 2.843,0.321 1.956,-0.034 0.979,-0.955 -0.02,-1.28 c 0.128,-1.031 -0.121,-2.958 0.111,-3.806 0.658,-0.173 1.78,-0.135 2.458,-0.026 0.277,1.323 -0.165,3.615 -0.04,5.009 0.724,-0.431 1.383,-1.503 2.241,-1.578 0.34,0.247 1.402,1.125 1.7,1.153 l 0.097,0.16 z M 0.111,1.075 0.096,0.489 C 0.548,0.578 1.243,1.023 1.6,1.371 L 0.253,1.338 Z"
         style="fill:#1e4d59;fill-opacity:1;fill-rule:evenodd;stroke:none"
         id="path266"
         inkscape:connector-curvature="0" />
    </g>
    <g
       id="g268"
       transform="matrix(1.9151657,0,0,-2.2043911,49.808698,269.48448)">
      <path
         d="m 0,0 c -0.34,0 -0.625,-0.118 -0.857,-0.354 -0.232,-0.237 -0.347,-0.537 -0.347,-0.901 0,-0.406 0.145,-0.727 0.437,-0.964 0.226,-0.184 0.486,-0.277 0.779,-0.277 0.332,0 0.614,0.12 0.847,0.36 0.234,0.239 0.35,0.534 0.35,0.886 0,0.349 -0.117,0.645 -0.352,0.887 C 0.622,-0.121 0.336,0 0,0 m 0.007,0.684 c 0.52,0 0.966,-0.188 1.34,-0.564 0.374,-0.376 0.561,-0.835 0.561,-1.375 0,-0.536 -0.184,-0.99 -0.553,-1.361 -0.369,-0.371 -0.817,-0.556 -1.343,-0.556 -0.551,0 -1.009,0.19 -1.373,0.572 -0.365,0.38 -0.547,0.833 -0.547,1.357 0,0.351 0.085,0.674 0.254,0.968 0.17,0.295 0.404,0.529 0.701,0.701 0.297,0.172 0.617,0.258 0.96,0.258"
         style="fill:#92987e;fill-opacity:1;fill-rule:nonzero;stroke:none"
         id="path270"
         inkscape:connector-curvature="0" />
    </g>
    <g
       id="g272"
       transform="matrix(1.9151657,0,0,-2.2043911,57.566076,272.60898)">
      <path
         d="m 0,0 v -0.996 h 0.175 c 0.319,0 0.522,0.042 0.606,0.125 0.085,0.083 0.128,0.196 0.128,0.337 C 0.909,-0.178 0.654,0 0.145,0 Z m -0.699,-1.662 v 3.671 h 1.92 V 1.327 H 0 V 0.624 h 0.152 c 0.31,0 0.563,-0.034 0.759,-0.103 0.196,-0.068 0.36,-0.196 0.49,-0.385 0.131,-0.189 0.197,-0.413 0.197,-0.67 0,-0.256 -0.05,-0.461 -0.148,-0.613 C 1.352,-1.299 1.217,-1.423 1.045,-1.519 0.872,-1.615 0.634,-1.662 0.33,-1.662 Z"
         style="fill:#92987e;fill-opacity:1;fill-rule:nonzero;stroke:none"
         id="path274"
         inkscape:connector-curvature="0" />
    </g>
    <g
       id="g276"
       transform="matrix(1.9151657,0,0,-2.2043911,64.64205,271.34365)">
      <path
         d="M 0,0 H 0.222 C 0.397,0 0.518,0.012 0.587,0.037 0.655,0.063 0.708,0.104 0.748,0.161 0.787,0.219 0.806,0.288 0.806,0.37 0.806,0.512 0.751,0.616 0.642,0.681 0.562,0.73 0.414,0.753 0.197,0.753 H 0 Z m -0.699,1.435 h 0.742 c 0.4,0 0.69,-0.037 0.867,-0.111 C 1.087,1.25 1.227,1.13 1.329,0.964 1.432,0.799 1.483,0.6 1.483,0.369 1.483,0.113 1.416,-0.1 1.282,-0.27 1.148,-0.439 0.966,-0.558 0.736,-0.624 0.602,-0.663 0.356,-0.682 0,-0.682 v -1.554 h -0.699 z"
         style="fill:#92987e;fill-opacity:1;fill-rule:nonzero;stroke:none"
         id="path278"
         inkscape:connector-curvature="0" />
    </g>
    <g
       id="g280"
       transform="matrix(1.9151657,0,0,-2.2043911,73.131412,270.32591)">
      <path
         d="M 0,0 -0.493,-1.261 H 0.49 Z M -0.359,0.974 H 0.35 L 1.762,-2.698 H 1.036 L 0.748,-1.942 H -0.75 l -0.298,-0.756 h -0.727 z"
         style="fill:#92987e;fill-opacity:1;fill-rule:nonzero;stroke:none"
         id="path282"
         inkscape:connector-curvature="0" />
    </g>
    <g
       id="g284"
       transform="matrix(1.9151657,0,0,-2.2043911,79.382122,274.1666)">
      <path
         d="m 0,0 c 0.185,-0.258 0.402,-0.387 0.651,-0.387 0.165,0 0.298,0.047 0.4,0.14 0.102,0.093 0.153,0.217 0.153,0.372 0,0.152 -0.05,0.277 -0.149,0.377 -0.099,0.1 -0.304,0.15 -0.615,0.15 H 0.29 v 0.623 h 0.15 c 0.185,0 0.325,0.043 0.42,0.128 0.096,0.085 0.144,0.199 0.144,0.342 0,0.131 -0.04,0.235 -0.12,0.312 C 0.804,2.133 0.697,2.171 0.566,2.171 0.409,2.171 0.248,2.094 0.082,1.939 l -0.412,0.46 c 0.222,0.2 0.407,0.319 0.556,0.358 0.148,0.039 0.284,0.058 0.409,0.058 0.3,0 0.552,-0.087 0.757,-0.261 C 1.596,2.379 1.698,2.143 1.698,1.847 1.698,1.715 1.675,1.587 1.629,1.463 1.583,1.338 1.456,1.206 1.246,1.066 1.675,0.874 1.89,0.548 1.89,0.085 1.89,-0.256 1.776,-0.53 1.546,-0.737 1.317,-0.945 1.023,-1.048 0.663,-1.048 c -0.227,0 -0.43,0.041 -0.61,0.123 -0.18,0.083 -0.376,0.261 -0.587,0.533 z"
         style="fill:#92987e;fill-opacity:1;fill-rule:nonzero;stroke:none"
         id="path286"
         inkscape:connector-curvature="0" />
    </g>
    <g
       id="g288"
       transform="matrix(1.9151657,0,0,-2.2043911,89.091252,269.48448)">
      <path
         d="m 0,0 c -0.34,0 -0.625,-0.118 -0.857,-0.354 -0.232,-0.237 -0.347,-0.537 -0.347,-0.901 0,-0.406 0.145,-0.727 0.437,-0.964 0.226,-0.184 0.486,-0.277 0.779,-0.277 0.332,0 0.614,0.12 0.847,0.36 0.234,0.239 0.35,0.534 0.35,0.886 0,0.349 -0.117,0.645 -0.352,0.887 C 0.622,-0.121 0.336,0 0,0 m 0.007,0.684 c 0.52,0 0.967,-0.188 1.34,-0.564 0.374,-0.376 0.561,-0.835 0.561,-1.375 0,-0.536 -0.184,-0.99 -0.553,-1.361 -0.369,-0.371 -0.817,-0.556 -1.343,-0.556 -0.551,0 -1.009,0.19 -1.373,0.572 -0.365,0.38 -0.547,0.833 -0.547,1.357 0,0.351 0.085,0.674 0.254,0.968 0.17,0.295 0.404,0.529 0.701,0.701 0.297,0.172 0.617,0.258 0.96,0.258"
         style="fill:#92987e;fill-opacity:1;fill-rule:nonzero;stroke:none"
         id="path290"
         inkscape:connector-curvature="0" />
    </g>
    <g
       id="g292"
       transform="matrix(1.9151657,0,0,-2.2043911,96.853602,272.73022)">
      <path
         d="m 0,0 v -0.941 h 0.175 c 0.29,0 0.486,0.037 0.587,0.11 0.101,0.073 0.151,0.179 0.151,0.319 0,0.158 -0.059,0.283 -0.177,0.375 C 0.617,-0.046 0.421,0 0.145,0 Z M 0,1.398 V 0.624 h 0.153 c 0.17,0 0.297,0.036 0.379,0.107 C 0.615,0.803 0.656,0.9 0.656,1.023 0.656,1.138 0.617,1.229 0.539,1.296 0.46,1.364 0.341,1.398 0.18,1.398 Z m -0.699,-3.005 v 3.671 h 0.577 c 0.335,0 0.58,-0.022 0.735,-0.065 C 0.833,1.941 1.008,1.833 1.138,1.675 1.268,1.516 1.333,1.33 1.333,1.116 1.333,0.976 1.303,0.849 1.244,0.735 1.185,0.621 1.089,0.514 0.956,0.414 1.179,0.31 1.342,0.178 1.445,0.021 1.548,-0.136 1.6,-0.322 1.6,-0.537 1.6,-0.743 1.547,-0.931 1.44,-1.101 1.333,-1.271 1.196,-1.397 1.028,-1.482 0.859,-1.565 0.627,-1.607 0.331,-1.607 Z"
         style="fill:#92987e;fill-opacity:1;fill-rule:nonzero;stroke:none"
         id="path294"
         inkscape:connector-curvature="0" />
    </g>
    <g
       id="g296"
       transform="matrix(1.9151657,0,0,-2.2043911,105.53351,270.32591)">
      <path
         d="M 0,0 -0.493,-1.261 H 0.49 Z M -0.359,0.974 H 0.35 L 1.762,-2.698 H 1.036 L 0.748,-1.942 H -0.75 l -0.298,-0.756 h -0.727 z"
         style="fill:#92987e;fill-opacity:1;fill-rule:nonzero;stroke:none"
         id="path298"
         inkscape:connector-curvature="0" />
    </g>
    <g
       id="g300"
       transform="matrix(1.9151657,0,0,-2.2043911,110.75751,268.17993)">
      <path
         d="M 0,0 H 2.029 V -0.689 H 1.36 V -3.672 H 0.651 v 2.983 H 0 Z"
         style="fill:#92987e;fill-opacity:1;fill-rule:nonzero;stroke:none"
         id="path302"
         inkscape:connector-curvature="0" />
    </g>
    <g
       id="g304"
       transform="matrix(1.9151657,0,0,-2.2043911,117.07373,268.17993)">
      <path
         d="m 0,0 h 2.004 v -0.684 h -1.31 v -0.664 h 1.31 v -0.671 h -1.31 v -0.966 h 1.31 V -3.672 H 0 Z"
         style="fill:#92987e;fill-opacity:1;fill-rule:nonzero;stroke:none"
         id="path306"
         inkscape:connector-curvature="0" />
    </g>
    <g
       id="g308"
       transform="matrix(1.9151657,0,0,-2.2043911,128.21904,276.27356)">
      <path
         d="M 0,0 -1.016,2.7 -2.05,0 h -0.742 l 1.417,3.672 h 0.709 L 0.746,0 Z"
         style="fill:#92987e;fill-opacity:1;fill-rule:nonzero;stroke:none"
         id="path310"
         inkscape:connector-curvature="0" />
    </g>
    <g
       id="g312"
       transform="matrix(1.9151657,0,0,-2.2043911,133.30112,272.60898)">
      <path
         d="m 0,0 v -0.996 h 0.175 c 0.289,0 0.483,0.036 0.581,0.107 0.098,0.072 0.148,0.194 0.148,0.367 C 0.904,-0.174 0.651,0 0.145,0 Z M -0.699,-1.662 V 2.009 H 0 V 0.624 H 0.152 C 0.443,0.624 0.686,0.59 0.88,0.523 1.074,0.455 1.241,0.327 1.383,0.138 1.524,-0.05 1.595,-0.278 1.595,-0.544 1.595,-0.796 1.534,-1.008 1.413,-1.183 1.291,-1.358 1.15,-1.482 0.99,-1.554 0.829,-1.626 0.609,-1.662 0.33,-1.662 Z"
         style="fill:#92987e;fill-opacity:1;fill-rule:nonzero;stroke:none"
         id="path314"
         inkscape:connector-curvature="0" />
    </g>
    <g
       id="g316"
       transform="matrix(1.9151657,0,0,-2.2043911,139.02995,268.17993)">
      <path
         d="M 0,0 H 0.709 V -1.385 H 1.934 V 0 H 2.641 V -3.672 H 1.934 v 1.61 H 0.709 v -1.61 H 0 Z"
         style="fill:#92987e;fill-opacity:1;fill-rule:nonzero;stroke:none"
         id="path318"
         inkscape:connector-curvature="0" />
    </g>
    <g
       id="g320"
       transform="matrix(1.9151657,0,0,-2.2043911,150.03317,270.32591)">
      <path
         d="M 0,0 -0.493,-1.261 H 0.49 Z M -0.359,0.974 H 0.35 L 1.762,-2.698 H 1.036 L 0.748,-1.942 H -0.75 l -0.298,-0.756 h -0.727 z"
         style="fill:#92987e;fill-opacity:1;fill-rule:nonzero;stroke:none"
         id="path322"
         inkscape:connector-curvature="0" />
    </g>
    <g
       id="g324"
       transform="matrix(1.9151657,0,0,-2.2043911,158.75157,271.51451)">
      <path
         d="M 0,0 V 0.829 H -0.192 C -0.366,0.829 -0.491,0.818 -0.567,0.797 -0.644,0.776 -0.706,0.732 -0.754,0.663 -0.802,0.594 -0.826,0.509 -0.826,0.407 -0.826,0.255 -0.778,0.15 -0.682,0.09 -0.586,0.03 -0.431,0 -0.219,0 Z M 0.699,1.513 V -2.159 H 0 v 1.478 h -0.175 l -0.738,-1.478 h -0.763 l 0.831,1.592 c -0.482,0.138 -0.722,0.459 -0.722,0.964 0,0.179 0.025,0.336 0.076,0.469 0.05,0.133 0.123,0.246 0.217,0.338 0.093,0.092 0.202,0.161 0.326,0.205 0.124,0.044 0.222,0.069 0.295,0.076 0.074,0.007 0.277,0.016 0.611,0.028 z"
         style="fill:#92987e;fill-opacity:1;fill-rule:nonzero;stroke:none"
         id="path326"
         inkscape:connector-curvature="0" />
    </g>
    <g
       id="g328"
       transform="matrix(1.9151657,0,0,-2.2043911,55.190905,284.77678)">
      <path
         d="M 0,0 H 0.222 C 0.397,0 0.518,0.012 0.587,0.037 0.655,0.063 0.708,0.104 0.748,0.161 0.787,0.219 0.806,0.288 0.806,0.37 0.806,0.512 0.751,0.616 0.642,0.681 0.562,0.73 0.414,0.753 0.197,0.753 H 0 Z m -0.699,1.435 h 0.742 c 0.4,0 0.69,-0.037 0.867,-0.111 C 1.087,1.25 1.227,1.13 1.329,0.964 1.432,0.799 1.483,0.6 1.483,0.369 1.483,0.113 1.416,-0.1 1.282,-0.27 1.148,-0.439 0.966,-0.558 0.736,-0.624 0.602,-0.663 0.356,-0.682 0,-0.682 v -1.554 h -0.699 z"
         style="fill:#92987e;fill-opacity:1;fill-rule:nonzero;stroke:none"
         id="path330"
         inkscape:connector-curvature="0" />
    </g>
    <g
       id="g332"
       transform="matrix(1.9151657,0,0,-2.2043911,64.153294,282.91761)">
      <path
         d="m 0,0 c -0.34,0 -0.625,-0.118 -0.857,-0.354 -0.232,-0.237 -0.347,-0.537 -0.347,-0.901 0,-0.406 0.145,-0.727 0.437,-0.964 0.226,-0.184 0.486,-0.277 0.779,-0.277 0.332,0 0.614,0.12 0.847,0.36 0.234,0.239 0.35,0.534 0.35,0.886 0,0.349 -0.117,0.645 -0.352,0.887 C 0.622,-0.121 0.336,0 0,0 m 0.007,0.684 c 0.52,0 0.967,-0.188 1.34,-0.564 0.374,-0.376 0.561,-0.835 0.561,-1.375 0,-0.536 -0.184,-0.99 -0.553,-1.361 -0.369,-0.371 -0.817,-0.556 -1.343,-0.556 -0.551,0 -1.009,0.19 -1.373,0.572 -0.365,0.38 -0.547,0.833 -0.547,1.357 0,0.351 0.085,0.674 0.254,0.968 0.17,0.295 0.404,0.529 0.701,0.701 0.297,0.172 0.617,0.258 0.96,0.258"
         style="fill:#92987e;fill-opacity:1;fill-rule:nonzero;stroke:none"
         id="path334"
         inkscape:connector-curvature="0" />
    </g>
    <g
       id="g336"
       transform="matrix(1.9151657,0,0,-2.2043911,71.910672,286.04234)">
      <path
         d="m 0,0 v -0.996 h 0.175 c 0.319,0 0.522,0.042 0.606,0.125 0.085,0.083 0.128,0.196 0.128,0.337 C 0.909,-0.178 0.654,0 0.145,0 Z m -0.699,-1.662 v 3.671 h 1.92 V 1.328 H 0 V 0.624 h 0.152 c 0.31,0 0.563,-0.034 0.759,-0.103 0.196,-0.067 0.36,-0.196 0.49,-0.385 0.131,-0.189 0.197,-0.413 0.197,-0.67 0,-0.256 -0.05,-0.461 -0.148,-0.613 C 1.352,-1.299 1.217,-1.423 1.045,-1.519 0.872,-1.615 0.634,-1.662 0.33,-1.662 Z"
         style="fill:#92987e;fill-opacity:1;fill-rule:nonzero;stroke:none"
         id="path338"
         inkscape:connector-curvature="0" />
    </g>
    <g
       id="g340"
       transform="matrix(1.9151657,0,0,-2.2043911,80.958892,282.91761)">
      <path
         d="m 0,0 c -0.34,0 -0.625,-0.118 -0.857,-0.354 -0.232,-0.237 -0.347,-0.537 -0.347,-0.901 0,-0.406 0.145,-0.727 0.437,-0.964 0.226,-0.184 0.486,-0.277 0.779,-0.277 0.332,0 0.614,0.12 0.847,0.36 0.234,0.239 0.35,0.534 0.35,0.886 0,0.349 -0.117,0.645 -0.352,0.887 C 0.622,-0.121 0.336,0 0,0 m 0.007,0.684 c 0.52,0 0.967,-0.188 1.34,-0.564 0.374,-0.376 0.561,-0.835 0.561,-1.375 0,-0.536 -0.184,-0.99 -0.553,-1.361 -0.369,-0.371 -0.817,-0.556 -1.343,-0.556 -0.551,0 -1.009,0.19 -1.373,0.572 -0.365,0.38 -0.547,0.833 -0.547,1.357 0,0.351 0.085,0.674 0.254,0.968 0.17,0.295 0.404,0.529 0.701,0.701 0.297,0.172 0.617,0.258 0.96,0.258"
         style="fill:#92987e;fill-opacity:1;fill-rule:nonzero;stroke:none"
         id="path342"
         inkscape:connector-curvature="0" />
    </g>
    <g
       id="g344"
       transform="matrix(1.9151657,0,0,-2.2043911,86.689452,281.61327)">
      <path
         d="M 0,0 H 2.029 V -0.689 H 1.36 V -3.672 H 0.651 v 2.983 H 0 Z"
         style="fill:#92987e;fill-opacity:1;fill-rule:nonzero;stroke:none"
         id="path346"
         inkscape:connector-curvature="0" />
    </g>
    <g
       id="g348"
       transform="matrix(1.9151657,0,0,-2.2043911,96.306642,282.91761)">
      <path
         d="m 0,0 c -0.34,0 -0.625,-0.118 -0.857,-0.354 -0.232,-0.237 -0.347,-0.537 -0.347,-0.901 0,-0.406 0.145,-0.727 0.437,-0.964 0.226,-0.184 0.486,-0.277 0.779,-0.277 0.332,0 0.614,0.12 0.847,0.36 0.234,0.239 0.35,0.534 0.35,0.886 0,0.349 -0.117,0.645 -0.352,0.887 C 0.622,-0.121 0.336,0 0,0 m 0.007,0.684 c 0.52,0 0.967,-0.188 1.34,-0.564 0.374,-0.376 0.561,-0.835 0.561,-1.375 0,-0.536 -0.184,-0.99 -0.553,-1.361 -0.369,-0.371 -0.817,-0.556 -1.343,-0.556 -0.551,0 -1.009,0.19 -1.373,0.572 -0.365,0.38 -0.547,0.833 -0.547,1.357 0,0.351 0.085,0.674 0.254,0.968 0.17,0.295 0.404,0.529 0.701,0.701 0.297,0.172 0.617,0.258 0.96,0.258"
         style="fill:#92987e;fill-opacity:1;fill-rule:nonzero;stroke:none"
         id="path350"
         inkscape:connector-curvature="0" />
    </g>
    <g
       id="g352"
       transform="matrix(1.9151657,0,0,-2.2043911,102.03738,281.61327)">
      <path
         d="M 0,0 H 2.029 V -0.689 H 1.36 V -3.672 H 0.651 v 2.983 H 0 Z"
         style="fill:#92987e;fill-opacity:1;fill-rule:nonzero;stroke:none"
         id="path354"
         inkscape:connector-curvature="0" />
    </g>
    <g
       id="g356"
       transform="matrix(1.9151657,0,0,-2.2043911,108.35342,281.61327)">
      <path
         d="m 0,0 h 2.004 v -0.684 h -1.31 v -0.664 h 1.31 v -0.671 h -1.31 v -0.966 h 1.31 V -3.672 H 0 Z"
         style="fill:#92987e;fill-opacity:1;fill-rule:nonzero;stroke:none"
         id="path358"
         inkscape:connector-curvature="0" />
    </g>
    <g
       id="g360"
       transform="matrix(1.9151657,0,0,-2.2043911,114.49096,281.61327)">
      <path
         d="M 0,0 H 0.786 L 1.558,-1.179 2.331,0 H 3.116 L 1.951,-1.78 3.19,-3.672 H 2.403 L 1.558,-2.381 0.714,-3.672 h -0.791 l 1.241,1.893 z"
         style="fill:#92987e;fill-opacity:1;fill-rule:nonzero;stroke:none"
         id="path362"
         inkscape:connector-curvature="0" />
    </g>
    <g
       id="g364"
       transform="matrix(1.9151657,0,0,-2.2043911,123.10899,281.61327)">
      <path
         d="M 0,0 H 0.709 V -1.385 H 1.934 V 0 H 2.641 V -3.672 H 1.934 v 1.61 H 0.709 v -1.61 H 0 Z"
         style="fill:#92987e;fill-opacity:1;fill-rule:nonzero;stroke:none"
         id="path366"
         inkscape:connector-curvature="0" />
    </g>
    <g
       id="g368"
       transform="matrix(1.9151657,0,0,-2.2043911,136.39948,281.61327)">
      <path
         d="m 0,0 v -3.672 h -0.699 v 2.299 L -2.068,-3.672 H -2.676 V 0 h 0.699 V -2.374 L -0.589,0 Z"
         style="fill:#92987e;fill-opacity:1;fill-rule:nonzero;stroke:none"
         id="path370"
         inkscape:connector-curvature="0" />
    </g>
    <g
       id="g372"
       transform="matrix(1.9151657,0,0,-2.2043911,139.52294,281.61327)">
      <path
         d="M 0,0 H 0.706 V -1.266 L 1.703,0 H 2.542 L 1.26,-1.638 2.667,-3.672 H 1.838 L 0.706,-2.04 V -3.672 H 0 Z"
         style="fill:#92987e;fill-opacity:1;fill-rule:nonzero;stroke:none"
         id="path374"
         inkscape:connector-curvature="0" />
    </g>
    <g
       id="g376"
       transform="matrix(1.9151657,0,0,-2.2043911,149.92381,283.75924)">
      <path
         d="M 0,0 -0.493,-1.261 H 0.49 Z M -0.359,0.973 H 0.35 L 1.762,-2.698 H 1.036 L 0.748,-1.942 H -0.75 l -0.298,-0.756 h -0.727 z"
         style="fill:#92987e;fill-opacity:1;fill-rule:nonzero;stroke:none"
         id="path378"
         inkscape:connector-curvature="0" />
    </g>
  </g>
</svg>
