<svg width="59" height="59" viewBox="0 0 59 59" fill="none" xmlns="http://www.w3.org/2000/svg">
<path d="M29.5 59C45.7963 59 59 45.7963 59 29.5C59 13.2037 45.7963 0 29.5 0C13.2037 0 0 13.2037 0 29.5C0 45.7963 13.2037 59 29.5 59ZM13.4987 28.8608L41.9416 17.8942C43.2617 17.4173 44.4147 18.2162 43.987 20.2124L43.9894 20.21L39.1465 43.0257C38.7876 44.6433 37.8264 45.0367 36.4817 44.2746L29.1067 38.8392L25.5495 42.2661C25.1561 42.6595 24.8242 42.9913 24.0622 42.9913L24.5858 35.486L38.2541 23.1378C38.849 22.6142 38.1214 22.3192 37.3372 22.8404L20.446 33.4751L13.1644 31.2036C11.5837 30.7021 11.5492 29.6229 13.4987 28.8608Z" fill="white"/>
</svg>
