<svg width="38" height="38" viewBox="0 0 38 38" fill="none" xmlns="http://www.w3.org/2000/svg">
<g clip-path="url(#clip0)">
<path d="M7.74323 25.2598C11.4913 29.7402 16.0031 33.2677 21.1527 35.7638C23.1133 36.6929 25.7354 37.7953 28.6566 37.9843C28.8377 37.9921 29.011 38 29.1921 38C31.1527 38 32.7275 37.3228 34.011 35.9291C34.0188 35.9213 34.0346 35.9055 34.0424 35.8898C34.4991 35.3386 35.0188 34.8425 35.5621 34.315C35.9322 33.9606 36.3102 33.5905 36.6724 33.2126C38.3495 31.4646 38.3495 29.2441 36.6566 27.5512L31.9243 22.8189C31.1212 21.9843 30.1606 21.5433 29.1527 21.5433C28.1448 21.5433 27.1763 21.9843 26.3495 22.811L23.5306 25.6299C23.2708 25.4803 23.0031 25.3465 22.7511 25.2205C22.4361 25.063 22.1448 24.9134 21.885 24.748C19.318 23.1181 16.9873 20.9921 14.759 18.2598C13.633 16.8346 12.8771 15.6378 12.3495 14.4173C13.0897 13.748 13.7826 13.0472 14.4519 12.3622C14.6881 12.1181 14.9322 11.874 15.1763 11.6299C16.0267 10.7795 16.4834 9.79528 16.4834 8.79528C16.4834 7.79528 16.0346 6.81102 15.1763 5.96063L12.8298 3.61417C12.5543 3.33858 12.2944 3.07087 12.0267 2.79528C11.507 2.25984 10.9637 1.70866 10.4283 1.2126C9.61724 0.417323 8.66449 0 7.65661 0C6.65661 0 5.69598 0.417323 4.85346 1.22047L1.90858 4.16535C0.837714 5.23622 0.231415 6.53543 0.10543 8.03937C-0.0441761 9.92126 0.302281 11.9213 1.19992 14.3386C2.57787 18.0787 4.65661 21.5512 7.74323 25.2598ZM2.02669 8.20472C2.12118 7.15748 2.52275 6.28346 3.27866 5.52756L6.20779 2.59843C6.66449 2.15748 7.16843 1.92913 7.65661 1.92913C8.13693 1.92913 8.62512 2.15748 9.07394 2.61417C9.6015 3.10236 10.0976 3.61417 10.633 4.15748C10.9007 4.43307 11.1763 4.70866 11.4519 4.99213L13.7983 7.33858C14.2865 7.82677 14.5385 8.32283 14.5385 8.81102C14.5385 9.29921 14.2865 9.79528 13.7983 10.2835C13.5543 10.5276 13.3102 10.7795 13.0661 11.0236C12.3338 11.7638 11.6487 12.4646 10.8928 13.1339C10.8771 13.1496 10.8692 13.1575 10.8535 13.1732C10.1999 13.8268 10.3023 14.4488 10.4598 14.9213C10.4676 14.9449 10.4755 14.9606 10.4834 14.9843C11.0897 16.4409 11.9322 17.8268 13.2472 19.4803C15.6094 22.3937 18.0976 24.6535 20.8377 26.3937C21.1763 26.6142 21.5385 26.7874 21.8771 26.9606C22.1921 27.1181 22.4834 27.2677 22.7432 27.4331C22.7747 27.4488 22.7984 27.4646 22.8298 27.4803C23.0897 27.6142 23.3417 27.6772 23.5936 27.6772C24.2235 27.6772 24.633 27.2756 24.7669 27.1417L27.7117 24.1968C28.1684 23.7402 28.6645 23.4961 29.1527 23.4961C29.7511 23.4961 30.2393 23.8661 30.5464 24.1968L35.2944 28.937C36.2393 29.8819 36.2314 30.9055 35.2708 31.9055C34.9401 32.2598 34.5936 32.5984 34.2236 32.9528C33.6724 33.4882 33.0976 34.0394 32.5779 34.6614C31.6724 35.6378 30.5936 36.0945 29.1999 36.0945C29.0661 36.0945 28.9243 36.0866 28.7905 36.0787C26.2078 35.9134 23.8062 34.9055 22.0031 34.0472C17.1054 31.6772 12.8062 28.315 9.23929 24.0472C6.30228 20.5118 4.3259 17.2205 3.01882 13.6929C2.20779 11.5276 1.90071 9.7874 2.02669 8.20472Z" fill="#3800D9"/>
</g>
<defs>
<clipPath id="clip0">
<rect width="38" height="38" fill="white"/>
</clipPath>
</defs>
</svg>
