<svg width="59" height="59" viewBox="0 0 59 59" fill="none" xmlns="http://www.w3.org/2000/svg">
<path d="M29.5 0C13.2101 0 0 13.2101 0 29.5C0 45.7899 13.2101 59 29.5 59C45.7899 59 59 45.7899 59 29.5C59 13.2101 45.7899 0 29.5 0ZM30.1252 46.6758C30.1248 46.6758 30.1257 46.6758 30.1252 46.6758H30.118C27.1629 46.6744 24.2591 45.9335 21.6803 44.5273L12.3206 46.9819L14.8256 37.8351C13.2803 35.1586 12.4674 32.122 12.4687 29.0112C12.4728 19.2793 20.3933 11.3618 30.1252 11.3618C34.848 11.3636 39.2814 13.202 42.6147 16.5379C45.9484 19.8743 47.7831 24.3091 47.7813 29.0251C47.7773 38.7575 39.8558 46.6758 30.1252 46.6758Z" fill="white"/>
<path d="M30.1311 14.3433C22.0363 14.3433 15.4531 20.9238 15.4495 29.0127C15.4486 31.7846 16.2247 34.4841 17.6934 36.8198L18.0423 37.3748L16.5596 42.7886L22.1138 41.332L22.6499 41.6498C24.9028 42.9867 27.4857 43.6938 30.119 43.6947H30.1248C38.2133 43.6947 44.7965 37.1138 44.8001 29.0244C44.8014 25.1042 43.2764 21.4185 40.5058 18.6456C37.7352 15.8728 34.0504 14.3446 30.1311 14.3433ZM38.7629 35.32C38.3951 36.3499 36.6329 37.2902 35.7852 37.4171C35.025 37.5306 34.0635 37.5778 33.0066 37.2425C32.3656 37.039 31.5441 36.7676 30.4912 36.3134C26.0659 34.403 23.1756 29.9485 22.9551 29.6541C22.7345 29.3597 21.1536 27.2626 21.1536 25.0916C21.1536 22.921 22.2934 21.8538 22.6976 21.4126C23.1023 20.971 23.5803 20.8608 23.8742 20.8608C24.1682 20.8608 24.4626 20.8635 24.7196 20.8761C24.9906 20.8896 25.3543 20.773 25.7121 21.6332C26.0799 22.5163 26.9622 24.6869 27.0724 24.9075C27.1827 25.1285 27.2561 25.386 27.1094 25.6803C26.9622 25.9747 26.4733 26.6099 26.0065 27.1887C25.8107 27.4314 25.5555 27.6474 25.813 28.089C26.07 28.5301 26.9559 29.9746 28.2671 31.1441C29.9524 32.6466 31.3739 33.1121 31.8151 33.3331C32.2557 33.5536 32.5132 33.5167 32.7707 33.2228C33.0277 32.9284 33.8735 31.935 34.1675 31.4934C34.4614 31.0518 34.7558 31.1256 35.16 31.2728C35.5647 31.4196 37.7334 32.4868 38.1746 32.7074C38.6157 32.9284 38.9096 33.0387 39.0199 33.2228C39.1306 33.4069 39.1306 34.2896 38.7629 35.32Z" fill="white"/>
</svg>
